<svg width="251" height="80" viewBox="0 0 251 80" fill="none" xmlns="http://www.w3.org/2000/svg">
<path d="M94.992 56V55.58C95.524 55.524 96.056 55.272 96.588 54.824C97.148 54.348 97.666 53.76 98.142 53.06C98.618 52.36 98.982 51.674 99.234 51.002L110.322 23.87H110.7L121.62 51.002C122.852 54.054 124.224 55.58 125.736 55.58H125.862V56H112.422V55.58H112.59C113.85 55.58 114.69 55.202 115.11 54.446C115.558 53.662 115.502 52.584 114.942 51.212L112.422 44.954H102.3L99.948 50.792C99.444 51.996 99.5 53.088 100.116 54.068C100.76 55.02 101.782 55.524 103.182 55.58V56H94.992ZM102.51 44.408H112.212L107.424 32.312L102.51 44.408ZM140.158 57.596L140.116 51.632C139.444 53.088 138.436 54.292 137.092 55.244C135.748 56.168 134.306 56.63 132.766 56.63C131.254 56.63 129.896 56.154 128.692 55.202C127.488 54.25 126.536 52.948 125.836 51.296C125.136 49.616 124.786 47.726 124.786 45.626C124.786 43.274 125.22 41.23 126.088 39.494C126.984 37.758 128.216 36.428 129.784 35.504C131.352 34.552 133.158 34.076 135.202 34.076C136.35 34.076 137.288 34.258 138.016 34.622C138.744 34.958 139.402 35.546 139.99 36.386V28.28C139.99 27.272 139.668 26.46 139.024 25.844C138.408 25.228 137.596 24.92 136.588 24.92V24.5H140.872C142.272 24.5 143.336 24.36 144.064 24.08C144.792 23.8 145.31 23.408 145.618 22.904H146.038V52.22C146.038 53.228 146.346 54.04 146.962 54.656C147.578 55.272 148.404 55.58 149.44 55.58V56H145.156C143.924 56 142.944 56.126 142.216 56.378C141.516 56.63 140.97 57.036 140.578 57.596H140.158ZM135.076 54.95C135.72 54.95 136.364 54.754 137.008 54.362C137.68 53.942 138.282 53.396 138.814 52.724C139.346 52.052 139.738 51.338 139.99 50.582V40.334C139.85 38.654 139.43 37.31 138.73 36.302C138.058 35.294 137.176 34.79 136.084 34.79C134.628 34.79 133.494 35.714 132.682 37.562C131.898 39.41 131.506 42.14 131.506 45.752C131.506 51.884 132.696 54.95 135.076 54.95ZM148.998 56V55.58H149.04C150.048 55.58 150.86 55.272 151.476 54.656C152.092 54.04 152.4 53.228 152.4 52.22V38.444C152.4 37.38 152.176 36.554 151.728 35.966C151.308 35.378 150.398 35.084 148.998 35.084V34.664H153.156C154.304 34.664 155.186 34.608 155.802 34.496C156.446 34.384 156.922 34.244 157.23 34.076C157.538 33.88 157.762 33.684 157.902 33.488H158.322L158.364 38.948C159.092 37.492 160.198 36.316 161.682 35.42C163.166 34.524 164.734 34.076 166.386 34.076C167.982 34.076 169.312 34.524 170.376 35.42C171.44 36.316 172.126 37.52 172.434 39.032C173.218 37.52 174.338 36.316 175.794 35.42C177.278 34.524 178.874 34.076 180.582 34.076C182.458 34.076 183.956 34.692 185.076 35.924C186.224 37.156 186.798 38.78 186.798 40.796V52.22C186.798 53.228 187.106 54.04 187.722 54.656C188.338 55.272 189.15 55.58 190.158 55.58H190.2V56H177.39V55.58H177.432C178.44 55.58 179.252 55.272 179.868 54.656C180.484 54.04 180.792 53.228 180.792 52.22V40.376C180.792 38.976 180.512 37.856 179.952 37.016C179.392 36.176 178.664 35.756 177.768 35.756C176.9 35.756 175.99 36.148 175.038 36.932C174.086 37.688 173.26 38.682 172.56 39.914C172.588 39.97 172.602 40.04 172.602 40.124C172.602 40.208 172.602 40.278 172.602 40.334V52.22C172.602 53.228 172.91 54.04 173.526 54.656C174.142 55.272 174.954 55.58 175.962 55.58H176.004V56H163.194V55.58H163.236C164.244 55.58 165.056 55.272 165.672 54.656C166.288 54.04 166.596 53.228 166.596 52.22V40.376C166.596 38.976 166.316 37.856 165.756 37.016C165.224 36.176 164.51 35.756 163.614 35.756C162.746 35.756 161.836 36.134 160.884 36.89C159.96 37.618 159.148 38.612 158.448 39.872V52.22C158.448 53.228 158.756 54.04 159.372 54.656C159.988 55.272 160.8 55.58 161.808 55.58H161.85V56H148.998ZM190.143 65.408C188.995 65.408 187.889 65.184 186.825 64.736L188.463 59.822C189.163 60.102 189.919 60.34 190.731 60.536C191.571 60.732 192.411 60.83 193.251 60.83C194.315 60.83 195.309 60.606 196.233 60.158C197.185 59.738 197.899 58.94 198.375 57.764L198.837 56.63L190.521 37.352C190.241 36.68 189.877 36.148 189.429 35.756C188.953 35.336 188.309 35.112 187.497 35.084V34.664H199.635V35.084C198.879 35.168 198.291 35.434 197.871 35.882C197.479 36.33 197.283 36.904 197.283 37.604C197.283 38.22 197.423 38.85 197.703 39.494L201.945 49.448L206.187 39.494C206.467 38.85 206.607 38.22 206.607 37.604C206.607 36.904 206.397 36.33 205.977 35.882C205.585 35.434 204.997 35.168 204.213 35.084V34.664H210.009V35.084C209.365 35.224 208.819 35.644 208.371 36.344C207.923 37.016 207.447 37.94 206.943 39.116L198.375 59.024C197.479 61.096 196.317 62.678 194.889 63.77C193.461 64.862 191.879 65.408 190.143 65.408ZM208.635 56V55.58H208.677C209.685 55.58 210.497 55.272 211.113 54.656C211.729 54.04 212.037 53.228 212.037 52.22V38.444C212.037 37.38 211.813 36.554 211.365 35.966C210.945 35.378 210.035 35.084 208.635 35.084V34.664H212.793C214.277 34.664 215.397 34.524 216.153 34.244C216.909 33.936 217.441 33.544 217.749 33.068H217.959L218.001 39.956C218.365 39.116 218.827 38.234 219.387 37.31C219.975 36.386 220.703 35.616 221.571 35C222.467 34.356 223.531 34.034 224.763 34.034C225.183 34.034 225.631 34.076 226.107 34.16C226.583 34.244 227.087 34.398 227.619 34.622L225.981 39.536C224.973 38.976 224.091 38.584 223.335 38.36C222.607 38.136 221.963 38.024 221.403 38.024C220.451 38.024 219.737 38.318 219.261 38.906C218.813 39.494 218.421 40.194 218.085 41.006V52.22C218.085 53.228 218.393 54.04 219.009 54.656C219.625 55.272 220.437 55.58 221.445 55.58H221.487V56H208.635ZM233.566 56.588C231.858 56.588 230.486 56.126 229.45 55.202C228.414 54.278 227.896 53.06 227.896 51.548C227.896 50.904 228.008 50.302 228.232 49.742C228.456 49.154 228.876 48.58 229.492 48.02C230.136 47.46 231.018 46.886 232.138 46.298C233.258 45.682 234.742 45.038 236.59 44.366L240.496 42.938V39.788C240.496 38.192 240.244 36.932 239.74 36.008C239.236 35.056 238.536 34.58 237.64 34.58C236.576 34.608 235.666 35.308 234.91 36.68C234.182 38.052 233.692 39.956 233.44 42.392L228.904 39.788C229.38 38.64 230.108 37.632 231.088 36.764C232.068 35.896 233.188 35.224 234.448 34.748C235.736 34.272 237.08 34.034 238.48 34.034C240.86 34.034 242.792 34.706 244.276 36.05C245.788 37.366 246.544 39.172 246.544 41.468V51.59C246.544 53.214 247.09 54.026 248.182 54.026C248.826 54.026 249.456 53.676 250.072 52.976L250.408 53.27C249.68 54.25 248.798 55.048 247.762 55.664C246.726 56.28 245.718 56.588 244.738 56.588C243.674 56.588 242.75 56.224 241.966 55.496C241.21 54.768 240.734 53.802 240.538 52.598C239.166 53.998 237.962 55.02 236.926 55.664C235.918 56.28 234.798 56.588 233.566 56.588ZM236.716 53.984C237.332 53.984 237.92 53.83 238.48 53.522C239.068 53.214 239.726 52.71 240.454 52.01L240.496 43.484L238.816 44.114C237.388 44.646 236.296 45.192 235.54 45.752C234.784 46.284 234.252 46.886 233.944 47.558C233.664 48.23 233.524 49 233.524 49.868C233.524 51.072 233.818 52.066 234.406 52.85C235.022 53.606 235.792 53.984 236.716 53.984Z" fill="#08384F"/>
<path d="M78.9753 3.66211C79.1981 3.66211 79.4208 3.66211 79.6503 3.66211C80.3121 11.5366 80.8435 19.3852 81.0003 27.2871C79.6756 26.1724 78.3883 25.0513 77.1823 23.8067C76.313 22.8916 76.313 22.8916 75.2628 22.2246C75.1653 22.6144 75.0679 23.0042 74.9675 23.4059C72.0345 32.0561 63.479 40.1234 56.4867 45.5583C55.6216 46.2392 54.8127 46.963 54.0003 47.7059C52.8573 48.7496 51.6879 49.7364 50.4776 50.7012C45.5478 54.7214 40.9009 59.8247 39.1503 66.0996C38.8425 69.3782 38.7441 72.484 40.8378 75.2122C42.2866 76.8579 43.831 77.5962 45.9003 78.2497C43.5087 79.8441 39.0479 79.2383 36.2919 78.7887C31.2342 77.634 26.3147 74.9595 23.4776 70.5082C21.5761 66.9961 20.8531 63.178 21.8969 59.2442C22.7806 56.9576 24.02 55.0929 25.6503 53.2746C25.9459 52.9379 25.9459 52.9379 26.2475 52.5944C30.6565 47.8791 36.9718 45.0968 42.6306 42.2056C55.5343 35.6102 66.9533 28.339 74.2503 15.4746C73.6778 16.0472 73.2637 16.7395 72.8029 17.4021C71.5507 19.1954 70.334 20.9069 68.7053 22.3841C68.127 22.9232 68.127 22.9232 67.5359 23.7183C61.1785 31.4911 49.7635 36.2956 40.9643 40.4496C32.5269 44.4557 22.5996 49.2779 19.2048 58.6891C18.2673 62.0598 18.356 65.1005 19.2378 68.4622C19.015 68.4622 18.7923 68.4622 18.5628 68.4622C14.8626 64.2313 12.139 58.9539 12.3823 53.2061C12.8896 48.6655 15.4021 44.6703 18.9003 41.7996C24.5874 37.5839 31.2111 35.244 37.7812 32.7886C53.816 27.6918 53.816 27.6918 66.1503 17.4996C64.2569 17.2769 62.3635 17.0541 60.4128 16.8246C61.5952 15.6423 62.376 15.0813 63.8089 14.3145C68.997 11.4434 74.7668 7.87058 78.9753 3.66211Z" fill="#004E9B"/>
<path d="M40.2115 0.204439C42.0362 0.300965 43.8617 0.363864 45.6878 0.427572C49.9223 0.579858 54.1549 0.76737 58.3875 0.962826C58.9161 0.987176 58.9161 0.987176 59.4554 1.01202C63.8248 1.21371 68.1938 1.42228 72.5626 1.63783C71.6576 2.58756 70.7472 3.35496 69.6582 4.0847C69.3567 4.28831 69.0551 4.49192 68.7444 4.7017C68.4243 4.91574 68.1041 5.12979 67.7743 5.35033C64.8956 7.28474 64.8956 7.28474 62.0697 9.29486C61.8099 9.48411 61.55 9.67336 61.2822 9.86835C60.7963 10.2244 60.3129 10.5837 59.8322 10.9468C58.2212 12.1215 58.2212 12.1215 57.368 12.016C56.7 11.7628 56.7 11.7628 55.6875 11.0878C54.96 10.9841 54.96 10.9841 54.1543 10.9982C53.8505 10.9967 53.5467 10.9952 53.2337 10.9937C52.9088 10.9969 52.584 11.0001 52.2493 11.0035C51.7447 11.008 51.7447 11.008 51.2299 11.0126C40.6741 11.1765 27.4349 14.7084 19.575 22.2253C19.3414 22.5838 19.1078 22.9423 18.8671 23.3117C18.287 24.0249 18.0022 24.2271 17.0896 24.4123C16.1316 24.4497 15.1957 24.4271 14.2383 24.3769C13.7427 24.3632 13.7427 24.3632 13.237 24.3492C12.4243 24.3254 11.6121 24.2891 10.8 24.2503C10.8 25.8096 10.8 27.3688 10.8 28.9753C11.0228 28.9753 11.2455 28.9753 11.475 28.9753C12.079 30.1834 11.7963 31.6093 11.7585 32.937C11.8137 34.0615 12.0414 34.7046 12.4875 35.7253C12.7323 36.6102 12.9646 37.4921 13.1836 38.3832C13.2421 38.6133 13.3006 38.8435 13.3609 39.0806C13.7249 40.5448 13.9855 41.991 14.175 43.4879C13.7295 43.4879 13.284 43.4879 12.825 43.4879C12.4909 42.2627 12.1568 41.0376 11.8125 39.7753C11.9796 41.613 11.9796 41.613 12.15 43.4879C10.9249 43.4879 9.69976 43.4879 8.43751 43.4879C8.54888 42.2627 8.66026 41.0376 8.77501 39.7753C8.63579 40.3253 8.49657 40.8752 8.35313 41.4418C8.11583 42.3791 8.11583 42.3791 7.76251 43.1504C7.05059 43.4259 7.05059 43.4259 6.4125 43.4879C6.60942 41.8861 6.92953 40.4096 7.40391 38.8683C8.68581 35.2636 8.68581 35.2636 8.43751 31.6753C8.35962 29.8061 8.35962 29.8061 8.77501 28.9753C8.85327 28.1154 8.91631 27.2634 8.96485 26.4019C9.01358 25.5805 9.0623 24.7591 9.11251 23.9128C6.10538 23.9128 3.09825 23.9128 0 23.9128C0 23.6901 0 23.4673 0 23.2378C0.657862 22.7738 0.657862 22.7738 1.58203 22.2253C3.23796 21.2014 4.77235 20.0867 6.3044 18.887C7.85479 17.6782 9.43613 16.5178 11.032 15.3699C11.4182 15.092 11.4182 15.092 11.8121 14.8086C12.5994 14.2428 13.3871 13.6777 14.175 13.1128C17.0814 11.0288 19.9816 8.9393 22.8373 6.78594C23.4173 6.35026 23.9995 5.91764 24.5841 5.48818C25.8246 4.57376 27.0213 3.67444 28.1206 2.59232C31.5556 -0.644301 35.7866 -0.0296675 40.2115 0.204439Z" fill="#004E9B"/>
<path d="M78.9753 3.66211C79.3128 4.67461 79.3128 4.67461 79.0004 5.45244C78.7687 5.88185 78.7687 5.88185 78.5323 6.31992C77.5425 8.17483 76.8389 10.0389 76.2015 12.0377C75.7346 13.3426 75.225 14.1648 74.2503 15.1371C73.8334 15.7569 73.4267 16.3835 73.0269 17.0145C71.8768 18.766 70.6223 20.3027 69.1918 21.8304C68.4665 22.5905 68.4665 22.5905 67.7112 23.5957C66.3384 25.132 66.6567 25.2809 63.6191 27.6246C63.4265 27.7733 62.9738 28.3152 62.7754 28.4684C56.1309 33.5521 48.5114 36.8867 40.9643 40.4496C32.5269 44.4557 22.5996 49.2779 19.2048 58.6892C18.2673 62.0598 18.356 65.1005 19.2378 68.4622C19.015 68.4622 18.7923 68.4622 18.5628 68.4622C14.8626 64.2313 12.139 58.9539 12.3823 53.2061C12.8896 48.6655 15.4021 44.6703 18.9003 41.7996C24.5874 37.5839 31.2111 35.244 37.7812 32.7886C53.816 27.6918 53.816 27.6918 66.1503 17.4996C64.2569 17.2769 62.3635 17.0541 60.4128 16.8246C61.5952 15.6423 62.376 15.0813 63.8089 14.3145C68.997 11.4434 74.7668 7.87058 78.9753 3.66211Z" fill="#F9B318"/>
<path d="M52.5242 13.3245C52.8847 13.3157 53.2453 13.307 53.6167 13.2979C53.9566 13.2971 54.2965 13.2963 54.6467 13.2955C55.1059 13.2914 55.1059 13.2914 55.5743 13.2871C56.3632 13.4511 56.3632 13.4511 56.956 14.0897C57.385 14.8168 57.6949 15.4997 57.9663 16.2987C58.0995 16.674 58.0995 16.674 58.2353 17.0568C58.4291 18.0475 58.4174 18.5781 58.0507 19.5261C57.3615 20.0957 56.7445 20.5311 55.9835 20.9816C55.7686 21.1128 55.5536 21.2441 55.3322 21.3794C54.6671 21.7809 53.9971 22.1728 53.3257 22.5636C52.7952 22.8814 52.7952 22.8814 52.2539 23.2056C46.2758 26.592 39.6143 29.0121 33.1875 31.3961C30.8038 32.2903 28.4888 33.3159 26.1798 34.387C24.784 35.0328 23.4131 35.6138 21.9382 36.0636C21.6699 34.9529 21.4032 33.8419 21.1366 32.7308C21.0618 32.421 20.987 32.1113 20.9099 31.7921C20.7601 31.1667 20.6128 30.5408 20.468 29.9143C20.3223 29.2853 20.171 28.6576 20.0143 28.0313C19.9448 27.734 19.8753 27.4367 19.8038 27.1304C19.7067 26.7326 19.7067 26.7326 19.6077 26.3268C19.5664 25.3897 19.8277 25.0686 20.4405 24.3777C22.2486 22.8756 24.2795 21.6839 26.3257 20.5386C26.5227 20.4267 26.7196 20.3149 26.9226 20.1996C34.6437 15.8789 43.7014 13.4466 52.5242 13.3245Z" fill="#004E9B"/>
</svg>
