<svg width="253" height="83" viewBox="0 0 253 83" fill="none" xmlns="http://www.w3.org/2000/svg">
<path d="M81.8999 3.79688C82.1309 3.79688 82.3619 3.79688 82.5999 3.79688C83.2862 11.9632 83.8373 20.1026 83.9999 28.2974C82.6261 27.1414 81.2912 25.9787 80.0405 24.6879C79.139 23.739 79.139 23.739 78.0499 23.0473C77.9488 23.4515 77.8477 23.8558 77.7436 24.2723C74.702 33.2431 65.8296 41.6094 58.5782 47.2456C57.681 47.9518 56.8422 48.7024 55.9997 49.4728C54.8143 50.5552 53.6016 51.5786 52.3465 52.5791C47.234 56.7484 42.415 62.0407 40.5995 68.5482C40.2803 71.9482 40.1783 75.1692 42.3495 77.9984C43.8521 79.7052 45.4536 80.4708 47.5996 81.1485C45.1193 82.802 40.4934 82.1738 37.6353 81.7075C32.3901 80.51 27.2884 77.7364 24.3462 73.1202C22.3743 69.4779 21.6245 65.5183 22.707 61.4387C23.6234 59.0674 24.9087 57.1335 26.5994 55.2479C26.906 54.8987 26.906 54.8987 27.2187 54.5424C31.791 49.6524 38.3403 46.7671 44.2087 43.7687C57.5905 36.9289 69.4325 29.3882 76.9998 16.0471C76.4061 16.6409 75.9767 17.3588 75.4988 18.0461C74.2002 19.9058 72.9384 21.6807 71.2494 23.2127C70.6497 23.7718 70.6497 23.7718 70.0367 24.5963C63.4437 32.6572 51.6059 37.6397 42.4808 41.9477C33.7308 46.1022 23.4357 51.1031 19.9151 60.8631C18.9429 64.3587 19.0349 67.512 19.9493 70.9983C19.7183 70.9983 19.4873 70.9983 19.2493 70.9983C15.412 66.6106 12.5876 61.1377 12.8399 55.1768C13.366 50.468 15.9716 46.3248 19.5993 43.3477C25.4972 38.9758 32.3662 36.5491 39.1798 34.0028C55.8085 28.717 55.8085 28.717 68.5998 18.1472C66.6363 17.9162 64.6727 17.6852 62.6497 17.4472C63.8759 16.221 64.6856 15.6392 66.1716 14.844C71.5519 11.8665 77.5355 8.1613 81.8999 3.79688Z" fill="#004E9B"/>
<path d="M41.7011 0.212015C43.5934 0.312118 45.4866 0.377348 47.3803 0.443416C51.7717 0.601346 56.1611 0.795807 60.5506 0.998506C61.0988 1.02376 61.0988 1.02376 61.658 1.04952C66.1893 1.25869 70.7201 1.47499 75.2507 1.69852C74.3122 2.68345 73.3681 3.47929 72.2388 4.23607C71.926 4.44723 71.6133 4.65838 71.2911 4.87593C70.9591 5.09791 70.6271 5.31989 70.285 5.5486C67.2997 7.5547 67.2997 7.5547 64.3691 9.63931C64.0997 9.83557 63.8302 10.0318 63.5525 10.234C63.0486 10.6032 62.5472 10.9759 62.0488 11.3524C60.3781 12.5707 60.3781 12.5707 59.4932 12.4612C58.8005 12.1987 58.8005 12.1987 57.7505 11.4987C56.9961 11.3912 56.9961 11.3912 56.1605 11.4058C55.8454 11.4042 55.5304 11.4026 55.2057 11.4011C54.8689 11.4044 54.532 11.4078 54.1849 11.4112C53.6616 11.4159 53.6616 11.4159 53.1278 11.4207C42.1809 11.5907 28.4513 15.2535 20.3002 23.049C20.0579 23.4207 19.8156 23.7925 19.566 24.1755C18.9645 24.9153 18.6691 25.1248 17.7227 25.317C16.7292 25.3557 15.7586 25.3323 14.7658 25.2803C14.2518 25.266 14.2518 25.266 13.7274 25.2515C12.8846 25.2269 12.0423 25.1892 11.2001 25.149C11.2001 26.766 11.2001 28.3831 11.2001 30.0491C11.4311 30.0491 11.6621 30.0491 11.9001 30.0491C12.5265 31.3019 12.2333 32.7807 12.1941 34.1576C12.2513 35.3238 12.4875 35.9906 12.9501 37.0492C13.2039 37.9669 13.4449 38.8815 13.672 39.8055C13.7327 40.0442 13.7934 40.2829 13.8559 40.5288C14.2333 42.0473 14.5036 43.5471 14.7001 45.0994C14.2381 45.0994 13.7761 45.0994 13.3001 45.0994C12.9536 43.8289 12.6071 42.5584 12.2501 41.2493C12.4234 43.1551 12.4234 43.1551 12.6001 45.0994C11.3296 45.0994 10.0591 45.0994 8.75008 45.0994C8.86558 43.8289 8.98108 42.5584 9.10008 41.2493C8.95571 41.8196 8.81133 42.3899 8.66258 42.9775C8.41648 43.9496 8.41648 43.9496 8.05007 44.7494C7.31179 45.0351 7.31179 45.0351 6.65006 45.0994C6.85427 43.4383 7.18624 41.9071 7.6782 40.3087C9.00759 36.5704 9.00759 36.5704 8.75008 32.8492C8.66931 30.9107 8.66931 30.9107 9.10008 30.0491C9.18124 29.1573 9.24662 28.2737 9.29696 27.3803C9.34749 26.5285 9.39802 25.6766 9.45009 24.799C6.33156 24.799 3.21303 24.799 0 24.799C0 24.568 0 24.337 0 24.099C0.682233 23.6177 0.682233 23.6177 1.64064 23.049C3.35791 21.9871 4.94915 20.8311 6.53795 19.5869C8.14578 18.3333 9.7857 17.1299 11.4407 15.9394C11.8412 15.6513 11.8412 15.6513 12.2497 15.3573C13.0661 14.7706 13.883 14.1846 14.7001 13.5988C17.7142 11.4375 20.7219 9.27057 23.6833 7.03741C24.2848 6.58558 24.8886 6.13694 25.4949 5.69156C26.7813 4.74326 28.0223 3.81061 29.1624 2.68838C32.7247 -0.668178 37.1123 -0.0307669 41.7011 0.212015Z" fill="#004E9B"/>
<path d="M81.8999 3.79688C82.2499 4.8469 82.2499 4.8469 81.9259 5.65355C81.6856 6.09887 81.6856 6.09887 81.4405 6.55318C80.414 8.47683 79.6843 10.41 79.0233 12.4828C78.5391 13.8361 78.0107 14.6887 76.9998 15.6971C76.5675 16.3398 76.1457 16.9897 75.7311 17.644C74.5384 19.4605 73.2374 21.0542 71.7539 22.6385C71.0017 23.4267 71.0017 23.4267 70.2185 24.4692C68.7948 26.0624 69.1249 26.2168 65.9748 28.6474C65.775 28.8015 65.3056 29.3636 65.0998 29.5224C58.2092 34.7945 50.3074 38.2527 42.4808 41.9477C33.7308 46.1022 23.4357 51.1031 19.9151 60.8631C18.9429 64.3587 19.0349 67.512 19.9493 70.9983C19.7183 70.9983 19.4873 70.9983 19.2493 70.9983C15.412 66.6106 12.5876 61.1377 12.8399 55.1768C13.366 50.468 15.9716 46.3248 19.5993 43.3477C25.4972 38.9758 32.3662 36.5491 39.1798 34.0028C55.8085 28.717 55.8085 28.717 68.5998 18.1472C66.6363 17.9162 64.6727 17.6852 62.6497 17.4472C63.8759 16.221 64.6856 15.6392 66.1716 14.844C71.5519 11.8665 77.5355 8.1613 81.8999 3.79688Z" fill="#F9B318"/>
<path d="M54.4703 13.8181C54.8442 13.809 55.2181 13.7999 55.6034 13.7905C55.9558 13.7897 56.3083 13.7889 56.6715 13.788C57.1477 13.7837 57.1477 13.7837 57.6335 13.7793C58.4516 13.9493 58.4516 13.9493 59.0663 14.6117C59.5112 15.3657 59.8326 16.0739 60.1141 16.9025C60.2522 17.2917 60.2522 17.2917 60.393 17.6887C60.594 18.7161 60.5818 19.2664 60.2016 20.2495C59.4868 20.8402 58.847 21.2918 58.0578 21.7589C57.8349 21.895 57.612 22.0312 57.3823 22.1714C56.6926 22.5878 55.9978 22.9943 55.3015 23.3995C54.7513 23.7291 54.7513 23.7291 54.19 24.0654C47.9905 27.5772 41.0822 30.087 34.4173 32.5594C31.9453 33.4866 29.5446 34.5503 27.15 35.6611C25.7025 36.3308 24.2808 36.9333 22.7512 37.3998C22.4731 36.248 22.1964 35.0958 21.92 33.9435C21.8424 33.6223 21.7648 33.301 21.6848 32.97C21.5295 32.3215 21.3768 31.6723 21.2266 31.0226C21.0755 30.3703 20.9186 29.7194 20.7561 29.0699C20.684 28.7616 20.612 28.4532 20.5377 28.1356C20.4371 27.7231 20.4371 27.7231 20.3345 27.3023C20.2915 26.3303 20.5625 25.9974 21.1981 25.2808C23.0732 23.7231 25.1793 22.4872 27.3013 21.2995C27.5056 21.1835 27.7098 21.0675 27.9203 20.9479C35.9275 16.4671 45.3207 13.9447 54.4703 13.8181Z" fill="#004E9B"/>
<path d="M96.992 45V44.58C97.524 44.524 98.056 44.272 98.588 43.824C99.148 43.348 99.666 42.76 100.142 42.06C100.618 41.36 100.982 40.674 101.234 40.002L112.322 12.87H112.7L123.62 40.002C124.852 43.054 126.224 44.58 127.736 44.58H127.862V45H114.422V44.58H114.59C115.85 44.58 116.69 44.202 117.11 43.446C117.558 42.662 117.502 41.584 116.942 40.212L114.422 33.954H104.3L101.948 39.792C101.444 40.996 101.5 42.088 102.116 43.068C102.76 44.02 103.782 44.524 105.182 44.58V45H96.992ZM104.51 33.408H114.212L109.424 21.312L104.51 33.408ZM142.158 46.596L142.116 40.632C141.444 42.088 140.436 43.292 139.092 44.244C137.748 45.168 136.306 45.63 134.766 45.63C133.254 45.63 131.896 45.154 130.692 44.202C129.488 43.25 128.536 41.948 127.836 40.296C127.136 38.616 126.786 36.726 126.786 34.626C126.786 32.274 127.22 30.23 128.088 28.494C128.984 26.758 130.216 25.428 131.784 24.504C133.352 23.552 135.158 23.076 137.202 23.076C138.35 23.076 139.288 23.258 140.016 23.622C140.744 23.958 141.402 24.546 141.99 25.386V17.28C141.99 16.272 141.668 15.46 141.024 14.844C140.408 14.228 139.596 13.92 138.588 13.92V13.5H142.872C144.272 13.5 145.336 13.36 146.064 13.08C146.792 12.8 147.31 12.408 147.618 11.904H148.038V41.22C148.038 42.228 148.346 43.04 148.962 43.656C149.578 44.272 150.404 44.58 151.44 44.58V45H147.156C145.924 45 144.944 45.126 144.216 45.378C143.516 45.63 142.97 46.036 142.578 46.596H142.158ZM137.076 43.95C137.72 43.95 138.364 43.754 139.008 43.362C139.68 42.942 140.282 42.396 140.814 41.724C141.346 41.052 141.738 40.338 141.99 39.582V29.334C141.85 27.654 141.43 26.31 140.73 25.302C140.058 24.294 139.176 23.79 138.084 23.79C136.628 23.79 135.494 24.714 134.682 26.562C133.898 28.41 133.506 31.14 133.506 34.752C133.506 40.884 134.696 43.95 137.076 43.95ZM150.998 45V44.58H151.04C152.048 44.58 152.86 44.272 153.476 43.656C154.092 43.04 154.4 42.228 154.4 41.22V27.444C154.4 26.38 154.176 25.554 153.728 24.966C153.308 24.378 152.398 24.084 150.998 24.084V23.664H155.156C156.304 23.664 157.186 23.608 157.802 23.496C158.446 23.384 158.922 23.244 159.23 23.076C159.538 22.88 159.762 22.684 159.902 22.488H160.322L160.364 27.948C161.092 26.492 162.198 25.316 163.682 24.42C165.166 23.524 166.734 23.076 168.386 23.076C169.982 23.076 171.312 23.524 172.376 24.42C173.44 25.316 174.126 26.52 174.434 28.032C175.218 26.52 176.338 25.316 177.794 24.42C179.278 23.524 180.874 23.076 182.582 23.076C184.458 23.076 185.956 23.692 187.076 24.924C188.224 26.156 188.798 27.78 188.798 29.796V41.22C188.798 42.228 189.106 43.04 189.722 43.656C190.338 44.272 191.15 44.58 192.158 44.58H192.2V45H179.39V44.58H179.432C180.44 44.58 181.252 44.272 181.868 43.656C182.484 43.04 182.792 42.228 182.792 41.22V29.376C182.792 27.976 182.512 26.856 181.952 26.016C181.392 25.176 180.664 24.756 179.768 24.756C178.9 24.756 177.99 25.148 177.038 25.932C176.086 26.688 175.26 27.682 174.56 28.914C174.588 28.97 174.602 29.04 174.602 29.124C174.602 29.208 174.602 29.278 174.602 29.334V41.22C174.602 42.228 174.91 43.04 175.526 43.656C176.142 44.272 176.954 44.58 177.962 44.58H178.004V45H165.194V44.58H165.236C166.244 44.58 167.056 44.272 167.672 43.656C168.288 43.04 168.596 42.228 168.596 41.22V29.376C168.596 27.976 168.316 26.856 167.756 26.016C167.224 25.176 166.51 24.756 165.614 24.756C164.746 24.756 163.836 25.134 162.884 25.89C161.96 26.618 161.148 27.612 160.448 28.872V41.22C160.448 42.228 160.756 43.04 161.372 43.656C161.988 44.272 162.8 44.58 163.808 44.58H163.85V45H150.998ZM192.143 54.408C190.995 54.408 189.889 54.184 188.825 53.736L190.463 48.822C191.163 49.102 191.919 49.34 192.731 49.536C193.571 49.732 194.411 49.83 195.251 49.83C196.315 49.83 197.309 49.606 198.233 49.158C199.185 48.738 199.899 47.94 200.375 46.764L200.837 45.63L192.521 26.352C192.241 25.68 191.877 25.148 191.429 24.756C190.953 24.336 190.309 24.112 189.497 24.084V23.664H201.635V24.084C200.879 24.168 200.291 24.434 199.871 24.882C199.479 25.33 199.283 25.904 199.283 26.604C199.283 27.22 199.423 27.85 199.703 28.494L203.945 38.448L208.187 28.494C208.467 27.85 208.607 27.22 208.607 26.604C208.607 25.904 208.397 25.33 207.977 24.882C207.585 24.434 206.997 24.168 206.213 24.084V23.664H212.009V24.084C211.365 24.224 210.819 24.644 210.371 25.344C209.923 26.016 209.447 26.94 208.943 28.116L200.375 48.024C199.479 50.096 198.317 51.678 196.889 52.77C195.461 53.862 193.879 54.408 192.143 54.408ZM210.635 45V44.58H210.677C211.685 44.58 212.497 44.272 213.113 43.656C213.729 43.04 214.037 42.228 214.037 41.22V27.444C214.037 26.38 213.813 25.554 213.365 24.966C212.945 24.378 212.035 24.084 210.635 24.084V23.664H214.793C216.277 23.664 217.397 23.524 218.153 23.244C218.909 22.936 219.441 22.544 219.749 22.068H219.959L220.001 28.956C220.365 28.116 220.827 27.234 221.387 26.31C221.975 25.386 222.703 24.616 223.571 24C224.467 23.356 225.531 23.034 226.763 23.034C227.183 23.034 227.631 23.076 228.107 23.16C228.583 23.244 229.087 23.398 229.619 23.622L227.981 28.536C226.973 27.976 226.091 27.584 225.335 27.36C224.607 27.136 223.963 27.024 223.403 27.024C222.451 27.024 221.737 27.318 221.261 27.906C220.813 28.494 220.421 29.194 220.085 30.006V41.22C220.085 42.228 220.393 43.04 221.009 43.656C221.625 44.272 222.437 44.58 223.445 44.58H223.487V45H210.635ZM235.566 45.588C233.858 45.588 232.486 45.126 231.45 44.202C230.414 43.278 229.896 42.06 229.896 40.548C229.896 39.904 230.008 39.302 230.232 38.742C230.456 38.154 230.876 37.58 231.492 37.02C232.136 36.46 233.018 35.886 234.138 35.298C235.258 34.682 236.742 34.038 238.59 33.366L242.496 31.938V28.788C242.496 27.192 242.244 25.932 241.74 25.008C241.236 24.056 240.536 23.58 239.64 23.58C238.576 23.608 237.666 24.308 236.91 25.68C236.182 27.052 235.692 28.956 235.44 31.392L230.904 28.788C231.38 27.64 232.108 26.632 233.088 25.764C234.068 24.896 235.188 24.224 236.448 23.748C237.736 23.272 239.08 23.034 240.48 23.034C242.86 23.034 244.792 23.706 246.276 25.05C247.788 26.366 248.544 28.172 248.544 30.468V40.59C248.544 42.214 249.09 43.026 250.182 43.026C250.826 43.026 251.456 42.676 252.072 41.976L252.408 42.27C251.68 43.25 250.798 44.048 249.762 44.664C248.726 45.28 247.718 45.588 246.738 45.588C245.674 45.588 244.75 45.224 243.966 44.496C243.21 43.768 242.734 42.802 242.538 41.598C241.166 42.998 239.962 44.02 238.926 44.664C237.918 45.28 236.798 45.588 235.566 45.588ZM238.716 42.984C239.332 42.984 239.92 42.83 240.48 42.522C241.068 42.214 241.726 41.71 242.454 41.01L242.496 32.484L240.816 33.114C239.388 33.646 238.296 34.192 237.54 34.752C236.784 35.284 236.252 35.886 235.944 36.558C235.664 37.23 235.524 38 235.524 38.868C235.524 40.072 235.818 41.066 236.406 41.85C237.022 42.606 237.792 42.984 238.716 42.984Z" fill="#006799"/>
<path d="M104.871 70.1871C104.497 71.1032 104.413 71.8129 104.619 72.3161C104.826 72.8194 105.335 73.1161 106.148 73.2065L106.555 73.2452V74C106.013 73.9742 105.471 73.9613 104.929 73.9613C104.387 73.9484 103.865 73.9419 103.361 73.9419C102.897 73.9419 102.452 73.9484 102.026 73.9613C101.613 73.9613 101.226 73.9742 100.865 74V73.2452L101.194 73.2065C101.632 73.129 102 73 102.297 72.8194C102.606 72.6387 102.89 72.3613 103.148 71.9871C103.406 71.6 103.677 71.0581 103.961 70.3613L108.297 60.1613H108.994L114.103 71.7548C114.258 72.1032 114.4 72.3806 114.529 72.5871C114.658 72.7806 114.813 72.9226 114.994 73.0129C115.187 73.1032 115.426 73.1613 115.71 73.1871L116.348 73.2452V74C116.129 73.9871 115.877 73.9806 115.594 73.9806C115.31 73.9677 115.013 73.9613 114.703 73.9613C114.394 73.9484 114.09 73.9419 113.794 73.9419H113.658H113.6C113.265 73.9419 112.91 73.9484 112.535 73.9613C112.174 73.9613 111.819 73.9677 111.471 73.9806C111.135 73.9806 110.813 73.9871 110.503 74C110.206 74 109.942 74 109.71 74V73.2452L110.348 73.1871C110.916 73.1355 111.265 72.9935 111.394 72.7613C111.523 72.529 111.458 72.1161 111.2 71.5226L107.523 63.0452L107.968 62.7742L104.871 70.1871ZM104.716 69.471L105.045 68.7161H111.103L111.394 69.471H104.716ZM121.499 74.271C120.673 74.271 119.957 74.0645 119.351 73.6516C118.744 73.2258 118.273 72.6258 117.938 71.8516C117.615 71.0774 117.454 70.1613 117.454 69.1032C117.454 67.9935 117.634 67.0387 117.996 66.2387C118.357 65.4387 118.873 64.8258 119.544 64.4C120.228 63.9613 121.034 63.7419 121.963 63.7419C122.66 63.7419 123.254 63.8839 123.744 64.1677C124.247 64.4387 124.621 64.8065 124.867 65.271L124.654 65.8516C124.512 65.5032 124.254 65.2194 123.88 65C123.518 64.7806 123.092 64.671 122.602 64.671C121.738 64.671 121.073 65.0387 120.609 65.7742C120.157 66.5097 119.931 67.5871 119.931 69.0065C119.931 70.3613 120.138 71.3935 120.551 72.1032C120.963 72.8129 121.563 73.1677 122.351 73.1677C122.88 73.1677 123.351 73.0194 123.763 72.7226C124.176 72.4129 124.473 71.9871 124.654 71.4452L124.847 71.9677C124.615 72.6774 124.202 73.2387 123.609 73.6516C123.028 74.0645 122.325 74.271 121.499 74.271ZM124.48 74V69.0258H126.821V71.6387C126.821 72.1935 126.918 72.5806 127.112 72.8C127.318 73.0065 127.692 73.1419 128.234 73.2065L128.796 73.2452V74C128.525 73.9871 128.273 73.9806 128.041 73.9806C127.809 73.9677 127.557 73.9613 127.286 73.9613C126.731 73.9613 126.221 73.9806 125.757 74.0194C125.292 74.0581 124.867 74.129 124.48 74.2323V74ZM124.48 69.0258V61.4C124.48 60.8581 124.376 60.4774 124.17 60.2581C123.976 60.0387 123.609 59.9032 123.067 59.8516L122.505 59.7935V59.0581C122.789 59.071 123.041 59.0839 123.26 59.0968C123.492 59.0968 123.744 59.0968 124.015 59.0968C124.583 59.0968 125.099 59.0774 125.563 59.0387C126.028 58.9871 126.447 58.9161 126.821 58.8258V59.0581V69.0258H124.48ZM133.016 73.9419C132.423 73.9419 131.881 73.9484 131.391 73.9613C130.913 73.9742 130.41 73.9871 129.881 74V73.2452L130.462 73.2065C130.991 73.1548 131.352 73.0258 131.545 72.8194C131.739 72.6 131.836 72.2258 131.836 71.6968V69.0258H134.197V71.6968C134.197 72.2258 134.281 72.6065 134.449 72.8387C134.616 73.0581 134.926 73.1871 135.378 73.2258L135.591 73.2452V74C135.152 73.9871 134.733 73.9742 134.333 73.9613C133.933 73.9484 133.494 73.9419 133.016 73.9419ZM131.836 69.0258V66.3742C131.836 65.8194 131.739 65.4387 131.545 65.2323C131.352 65.0129 130.984 64.8774 130.442 64.8258L129.881 64.7677V64.0129C130.152 64.0258 130.403 64.0387 130.636 64.0516C130.868 64.0516 131.12 64.0516 131.391 64.0516C131.945 64.0516 132.455 64.0323 132.92 63.9935C133.384 63.9419 133.81 63.8774 134.197 63.8V64.0129V69.0258H131.836ZM138.242 69.0258V67.071C138.242 66.3484 138.094 65.8065 137.797 65.4452C137.513 65.0839 137.074 64.9032 136.481 64.9032C135.874 64.9032 135.333 65.1032 134.855 65.5032C134.391 65.9032 133.978 66.5226 133.616 67.3613L133.481 66.9742C133.894 65.8645 134.429 65.0516 135.087 64.5355C135.745 64.0065 136.526 63.7419 137.429 63.7419C138.462 63.7419 139.242 64.0452 139.771 64.6516C140.313 65.2452 140.584 66.1161 140.584 67.2645V69.0258H138.242ZM139.403 73.9419C138.926 73.9419 138.487 73.9484 138.087 73.9613C137.7 73.9742 137.281 73.9871 136.829 74V73.2452L137.062 73.2258C137.5 73.1871 137.803 73.0581 137.971 72.8387C138.152 72.6065 138.242 72.2258 138.242 71.6968V69.0258H140.584V71.6968C140.584 72.2258 140.668 72.6065 140.836 72.8387C141.016 73.0581 141.326 73.1871 141.765 73.2258L141.997 73.2452V74C141.545 73.9871 141.12 73.9742 140.72 73.9613C140.333 73.9484 139.894 73.9419 139.403 73.9419ZM144.629 69.0258V67.0903C144.629 66.3548 144.481 65.8065 144.184 65.4452C143.887 65.0839 143.429 64.9032 142.81 64.9032C142.216 64.9032 141.674 65.0903 141.184 65.4645C140.707 65.8387 140.287 66.4194 139.926 67.2065L139.713 66.7419C140.113 65.7226 140.655 64.9677 141.339 64.4774C142.036 63.9871 142.855 63.7419 143.797 63.7419C144.842 63.7419 145.636 64.0452 146.178 64.6516C146.72 65.2452 146.991 66.1161 146.991 67.2645V69.0258H144.629ZM145.81 73.9419C145.333 73.9419 144.894 73.9484 144.494 73.9613C144.094 73.9742 143.674 73.9871 143.236 74V73.2452L143.449 73.2258C143.9 73.1871 144.21 73.0581 144.378 72.8387C144.545 72.6065 144.629 72.2258 144.629 71.6968V69.0258H146.971V71.6968C146.971 72.2258 147.068 72.6 147.262 72.8194C147.468 73.0258 147.829 73.1548 148.345 73.2065L148.945 73.2452V74C148.416 73.9871 147.907 73.9742 147.416 73.9613C146.939 73.9484 146.403 73.9419 145.81 73.9419ZM152.179 69.0258V66.3742C152.179 65.8194 152.083 65.4387 151.889 65.2323C151.696 65.0129 151.328 64.8774 150.786 64.8258L150.225 64.7677V64.0129C150.496 64.0258 150.747 64.0387 150.979 64.0516C151.212 64.0516 151.463 64.0516 151.734 64.0516C152.289 64.0516 152.799 64.0323 153.263 63.9935C153.728 63.9419 154.154 63.8774 154.541 63.8V64.0129V69.0258H152.179ZM153.36 73.9419C152.767 73.9419 152.225 73.9484 151.734 73.9613C151.257 73.9742 150.754 73.9871 150.225 74V73.2452L150.805 73.2065C151.334 73.1548 151.696 73.0258 151.889 72.8194C152.083 72.6 152.179 72.2258 152.179 71.6968V69.0258H154.541V71.6968C154.541 72.2258 154.638 72.6 154.831 72.8194C155.025 73.0258 155.386 73.1548 155.915 73.2065L156.496 73.2452V74C155.967 73.9871 155.457 73.9742 154.967 73.9613C154.489 73.9484 153.954 73.9419 153.36 73.9419ZM153.36 61.9226C152.934 61.9226 152.567 61.7871 152.257 61.5161C151.947 61.2452 151.792 60.8968 151.792 60.471C151.792 60.0323 151.947 59.6839 152.257 59.4258C152.567 59.1548 152.934 59.0194 153.36 59.0194C153.786 59.0194 154.154 59.1548 154.463 59.4258C154.773 59.6839 154.928 60.0323 154.928 60.471C154.928 60.8968 154.773 61.2452 154.463 61.5161C154.154 61.7871 153.786 61.9226 153.36 61.9226ZM162.609 74.271C162.054 74.271 161.59 74.2129 161.216 74.0968C160.841 73.9806 160.532 73.8645 160.287 73.7484C160.041 73.6323 159.822 73.5742 159.629 73.5742C159.332 73.5742 159.112 73.7742 158.97 74.1742H158.216C158.254 73.8387 158.28 73.4903 158.293 73.129C158.306 72.7548 158.312 72.3419 158.312 71.8903C158.325 71.4258 158.325 70.8903 158.312 70.2839H159.048C159.254 71.3548 159.635 72.1613 160.19 72.7032C160.745 73.2323 161.467 73.4968 162.358 73.4968C162.99 73.4968 163.474 73.3613 163.809 73.0903C164.158 72.8194 164.332 72.4452 164.332 71.9677C164.332 71.5032 164.145 71.1226 163.77 70.8258C163.409 70.529 162.77 70.2516 161.854 69.9935C160.68 69.6452 159.822 69.2 159.28 68.6581C158.738 68.1161 158.467 67.4387 158.467 66.6258C158.467 65.7484 158.758 65.0516 159.338 64.5355C159.919 64.0065 160.699 63.7419 161.68 63.7419C162.196 63.7419 162.629 63.8 162.977 63.9161C163.338 64.0194 163.641 64.1355 163.887 64.2645C164.132 64.3806 164.351 64.4387 164.545 64.4387C164.674 64.4387 164.783 64.3935 164.874 64.3032C164.964 64.2 165.041 64.0452 165.106 63.8387H165.861C165.835 64.1226 165.816 64.4194 165.803 64.729C165.79 65.0258 165.777 65.3742 165.764 65.7742C165.764 66.1613 165.77 66.6452 165.783 67.2258H165.029C164.861 66.3613 164.506 65.6903 163.964 65.2129C163.422 64.7355 162.77 64.4968 162.009 64.4968C161.48 64.4968 161.067 64.6194 160.77 64.8645C160.474 65.1097 160.325 65.4581 160.325 65.9097C160.325 66.3742 160.525 66.7677 160.925 67.0903C161.325 67.4 162.016 67.6968 162.996 67.9806C164.119 68.2903 164.932 68.6968 165.435 69.2C165.938 69.6903 166.19 70.3484 166.19 71.1742C166.19 72.1419 165.867 72.9032 165.222 73.4581C164.59 74 163.719 74.271 162.609 74.271ZM173.156 74.271C172.601 74.271 172.137 74.2129 171.762 74.0968C171.388 73.9806 171.079 73.8645 170.833 73.7484C170.588 73.6323 170.369 73.5742 170.175 73.5742C169.879 73.5742 169.659 73.7742 169.517 74.1742H168.763C168.801 73.8387 168.827 73.4903 168.84 73.129C168.853 72.7548 168.859 72.3419 168.859 71.8903C168.872 71.4258 168.872 70.8903 168.859 70.2839H169.595C169.801 71.3548 170.182 72.1613 170.737 72.7032C171.292 73.2323 172.014 73.4968 172.904 73.4968C173.537 73.4968 174.021 73.3613 174.356 73.0903C174.704 72.8194 174.879 72.4452 174.879 71.9677C174.879 71.5032 174.692 71.1226 174.317 70.8258C173.956 70.529 173.317 70.2516 172.401 69.9935C171.227 69.6452 170.369 69.2 169.827 68.6581C169.285 68.1161 169.014 67.4387 169.014 66.6258C169.014 65.7484 169.304 65.0516 169.885 64.5355C170.466 64.0065 171.246 63.7419 172.227 63.7419C172.743 63.7419 173.175 63.8 173.524 63.9161C173.885 64.0194 174.188 64.1355 174.433 64.2645C174.679 64.3806 174.898 64.4387 175.092 64.4387C175.221 64.4387 175.33 64.3935 175.421 64.3032C175.511 64.2 175.588 64.0452 175.653 63.8387H176.408C176.382 64.1226 176.363 64.4194 176.35 64.729C176.337 65.0258 176.324 65.3742 176.311 65.7742C176.311 66.1613 176.317 66.6452 176.33 67.2258H175.575C175.408 66.3613 175.053 65.6903 174.511 65.2129C173.969 64.7355 173.317 64.4968 172.556 64.4968C172.027 64.4968 171.614 64.6194 171.317 64.8645C171.021 65.1097 170.872 65.4581 170.872 65.9097C170.872 66.3742 171.072 66.7677 171.472 67.0903C171.872 67.4 172.562 67.6968 173.543 67.9806C174.666 68.2903 175.479 68.6968 175.982 69.2C176.485 69.6903 176.737 70.3484 176.737 71.1742C176.737 72.1419 176.414 72.9032 175.769 73.4581C175.137 74 174.266 74.271 173.156 74.271ZM180.633 69.0258V66.3742C180.633 65.8194 180.536 65.4387 180.342 65.2323C180.149 65.0129 179.781 64.8774 179.239 64.8258L178.678 64.7677V64.0129C178.949 64.0258 179.2 64.0387 179.433 64.0516C179.665 64.0516 179.916 64.0516 180.187 64.0516C180.742 64.0516 181.252 64.0323 181.716 63.9935C182.181 63.9419 182.607 63.8774 182.994 63.8V64.0129V69.0258H180.633ZM181.813 73.9419C181.22 73.9419 180.678 73.9484 180.187 73.9613C179.71 73.9742 179.207 73.9871 178.678 74V73.2452L179.258 73.2065C179.787 73.1548 180.149 73.0258 180.342 72.8194C180.536 72.6 180.633 72.2258 180.633 71.6968V69.0258H182.994V71.6968C182.994 72.2258 183.091 72.6 183.284 72.8194C183.478 73.0258 183.839 73.1548 184.368 73.2065L184.949 73.2452V74C184.42 73.9871 183.91 73.9742 183.42 73.9613C182.942 73.9484 182.407 73.9419 181.813 73.9419ZM181.813 61.9226C181.387 61.9226 181.02 61.7871 180.71 61.5161C180.4 61.2452 180.246 60.8968 180.246 60.471C180.246 60.0323 180.4 59.6839 180.71 59.4258C181.02 59.1548 181.387 59.0194 181.813 59.0194C182.239 59.0194 182.607 59.1548 182.916 59.4258C183.226 59.6839 183.381 60.0323 183.381 60.471C183.381 60.8968 183.226 61.2452 182.916 61.5161C182.607 61.7871 182.239 61.9226 181.813 61.9226ZM191.316 74.271C190.387 74.271 189.555 74.0839 188.819 73.7097C188.097 73.3226 187.522 72.7419 187.097 71.9677C186.684 71.1935 186.477 70.2065 186.477 69.0065C186.477 67.8065 186.684 66.8194 187.097 66.0452C187.522 65.2581 188.097 64.6774 188.819 64.3032C189.555 63.929 190.393 63.7419 191.335 63.7419C192.277 63.7419 193.109 63.929 193.832 64.3032C194.555 64.6774 195.122 65.2581 195.535 66.0452C195.961 66.8194 196.174 67.8065 196.174 69.0065C196.174 70.2065 195.961 71.1935 195.535 71.9677C195.122 72.7419 194.548 73.3226 193.813 73.7097C193.09 74.0839 192.258 74.271 191.316 74.271ZM191.335 73.5161C192.019 73.5161 192.58 73.1613 193.019 72.4516C193.458 71.729 193.677 70.5806 193.677 69.0065C193.677 67.4194 193.451 66.271 193 65.5613C192.561 64.8387 192.006 64.4774 191.335 64.4774C190.638 64.4774 190.064 64.8387 189.613 65.5613C189.174 66.271 188.955 67.4194 188.955 69.0065C188.955 70.5806 189.174 71.729 189.613 72.4516C190.064 73.1613 190.638 73.5161 191.335 73.5161ZM201.032 73.9419C200.438 73.9419 199.897 73.9484 199.406 73.9613C198.929 73.9742 198.426 73.9871 197.897 74V73.2452L198.477 73.2065C199.006 73.1548 199.367 73.0258 199.561 72.8194C199.755 72.6 199.851 72.2258 199.851 71.6968V69.0258H202.213V71.6968C202.213 72.2258 202.297 72.6065 202.464 72.8387C202.645 73.0581 202.961 73.1871 203.413 73.2258L203.664 73.2452V74C203.213 73.9871 202.78 73.9742 202.367 73.9613C201.967 73.9484 201.522 73.9419 201.032 73.9419ZM199.851 69.0258V66.3742C199.851 65.8194 199.755 65.4387 199.561 65.2323C199.367 65.0129 199 64.8774 198.458 64.8258L197.897 64.7677V64.0129C198.167 64.0258 198.419 64.0387 198.651 64.0516C198.884 64.0516 199.135 64.0516 199.406 64.0516C199.961 64.0516 200.471 64.0323 200.935 63.9935C201.4 63.9419 201.826 63.8774 202.213 63.8V64.0129V69.0258H199.851ZM206.374 69.0258V67.1484C206.374 66.4 206.226 65.8387 205.929 65.4645C205.632 65.0903 205.18 64.9032 204.574 64.9032C203.955 64.9032 203.4 65.1032 202.909 65.5032C202.432 65.8903 202.013 66.5032 201.651 67.3419L201.497 66.9742C201.922 65.8516 202.464 65.0323 203.122 64.5161C203.793 64 204.587 63.7419 205.503 63.7419C206.548 63.7419 207.348 64.0516 207.903 64.671C208.458 65.2774 208.735 66.1613 208.735 67.3226V69.0258H206.374ZM207.555 73.9419C207.077 73.9419 206.638 73.9484 206.238 73.9613C205.838 73.9742 205.419 73.9871 204.98 74V73.2452L205.193 73.2258C205.645 73.1871 205.955 73.0581 206.122 72.8387C206.29 72.6065 206.374 72.2258 206.374 71.6968V69.0258H208.735V71.6968C208.735 72.2258 208.832 72.6 209.026 72.8194C209.232 73.0258 209.593 73.1548 210.109 73.2065L210.69 73.2452V74C210.161 73.9871 209.651 73.9742 209.161 73.9613C208.684 73.9484 208.148 73.9419 207.555 73.9419Z" fill="#CACACA"/>
</svg>
