<svg width="245" height="76" viewBox="0 0 245 76" fill="none" xmlns="http://www.w3.org/2000/svg">
<path d="M0 10.5391C3.2008 10.5391 6.4016 10.5391 9.65036 10.5391C12.3025 10.5391 14.9957 11.4633 16.6292 13.5527C16.692 13.6331 16.7593 13.7197 16.8332 13.8148C17.9283 15.1799 19.1068 16.4509 20.3066 17.7241C21.1946 18.6664 22.0665 19.6172 22.9115 20.5984C23.417 21.1811 23.9335 21.753 24.4505 22.3254C25.6595 23.6666 26.8526 25.0195 28.024 26.3937C29.4084 28.0169 30.8099 29.6157 32.2548 31.1858C32.8756 31.8821 33.46 32.5997 34.0426 33.3281C34.7271 34.178 35.3983 34.8987 36.2222 35.5643C36.42 35.7242 36.7124 35.6487 36.8177 35.4172C37.1142 34.8648 37.4185 34.4896 37.8522 34.0403C38.0701 33.8117 38.0701 33.8117 38.2924 33.5784C38.524 33.3382 38.524 33.3382 38.7603 33.093C40.0381 31.7487 41.2381 30.3812 42.3955 28.9318C42.9523 28.2596 43.5554 27.6634 44.1832 27.0588C44.7507 26.4717 45.2545 25.8455 45.7662 25.2093C46.5443 24.2427 47.3442 23.3513 48.2338 22.488C49.2464 21.4826 50.1488 20.3717 51.0707 19.2838C52.5231 17.5738 54.0047 15.9016 55.539 14.2645C56.4166 13.3279 57.2756 12.379 58.112 11.405C58.6144 10.8299 59.3609 10.5391 60.1246 10.5391C64.2796 10.5391 68.4446 10.5391 72.7245 10.5391C72.7245 32.0555 72.7245 53.5719 72.7245 75.7403C69.497 75.7403 66.2695 75.7403 62.9443 75.7403C62.9443 57.6996 62.9443 39.6589 62.9443 21.0716C63.1148 21.0716 62.7788 21.0716 62.9443 21.0716C62.878 21.2203 62.3102 21.369 62.2419 21.5222C61.9302 22.0948 61.6142 22.4444 61.1418 22.8897C60.362 23.6471 59.6453 24.4363 58.9358 25.2593C58.3188 25.9636 57.6856 26.6524 57.0511 27.3409C56.1378 28.3329 55.2367 29.3335 54.3533 30.3522C53.8374 30.9421 53.313 31.5239 52.7879 32.1056C52.1182 32.8476 51.4531 33.5925 50.7974 34.3469C49.881 35.3994 48.9392 36.4281 47.9987 37.4591C47.5043 38.005 47.0167 38.5551 46.5342 39.1116C45.7916 39.9666 45.0286 40.8019 44.2616 41.635C43.3477 42.6277 42.4462 43.6291 41.5619 44.6482C40.8697 45.4402 40.1643 46.2201 39.4577 46.9992C39.0508 47.4523 38.6488 47.9097 38.2509 48.3707C38.0517 48.5995 37.8526 48.8284 37.6474 49.0642C37.4671 49.2743 37.2867 49.4845 37.1008 49.7009C36.613 50.1613 36.613 50.1613 35.8607 50.1613C35.3004 49.6284 35.3004 49.6284 34.6695 48.9075C34.5578 48.7811 34.4461 48.6547 34.3311 48.5245C34.003 48.1524 33.6779 47.7776 33.3529 47.4028C33.1991 47.227 33.0452 47.0511 32.8867 46.8699C32.6105 46.5543 32.3349 46.2383 32.0599 45.9217C31.495 45.2802 30.9196 44.6489 30.3436 44.0174C29.4828 43.0736 28.6345 42.1212 27.7967 41.157C27.2319 40.5155 26.6565 39.8842 26.0805 39.2527C25.2197 38.3089 24.3713 37.3565 23.5336 36.3923C22.9687 35.7508 22.3933 35.1195 21.8173 34.488C20.9496 33.5365 20.0933 32.5772 19.2489 31.6051C18.7579 31.0453 18.2582 30.4941 17.7579 29.9427C16.7259 28.8007 15.7283 27.6324 14.733 26.4584C13.626 25.1621 12.4692 23.9161 11.288 22.6871C10.2817 21.6265 10.2817 21.6265 10.2817 21.0716C10.4523 21.0716 10.1162 21.0716 10.2817 21.0716C10.3645 31.8298 9.9457 42.588 10.031 53.6722C12.5356 51.3241 15.013 48.9759 17.4288 46.5408C17.7125 46.2558 17.9962 45.9709 18.2801 45.6861C19.5135 44.4478 21.3697 44.12 22.5889 45.3723C22.6307 45.4151 22.6725 45.4582 22.7146 45.5015C22.8476 45.6357 22.9806 45.77 23.1176 45.9084C23.5422 46.3374 23.9651 46.7681 24.3878 47.1991C26.6543 49.5132 26.6543 49.5132 29.0523 51.6882C30.2207 52.7272 31.316 53.8456 32.4212 54.951C32.8562 55.3853 33.2931 55.8177 33.7301 56.25C34.0068 56.5259 34.2833 56.802 34.5598 57.0782C34.6906 57.2072 34.8215 57.3363 34.9563 57.4692C35.4574 57.9736 36.6866 58.2307 37.2129 57.7527C38.3663 56.705 39.4733 55.6125 40.5774 54.5058C40.8325 54.2508 41.0877 53.9959 41.3429 53.741C41.8733 53.211 42.4033 52.6804 42.933 52.1496C43.6123 51.4688 44.2928 50.7892 44.9737 50.1098C45.4988 49.5856 46.0234 49.0607 46.5477 48.5357C46.7986 48.2847 47.0497 48.0338 47.3009 47.7831C47.6502 47.4345 47.9986 47.085 48.3469 46.7354C48.5452 46.5369 48.7435 46.3384 48.9479 46.1339C49.4167 45.6784 49.4167 45.6784 49.6532 45.1459C49.4308 45.1614 49.2084 45.1769 48.9793 45.1929C47.4984 45.2021 46.0635 44.7537 44.6378 44.3935C44.6378 44.228 44.6378 44.0625 44.6378 43.892C44.8242 43.7925 45.0107 43.693 45.2027 43.5905C45.9196 43.2077 46.6363 42.8247 47.3529 42.4414C47.6737 42.2699 47.9944 42.0985 48.3152 41.9272C49.9549 41.0511 51.5925 40.1723 53.216 39.2664C53.4451 39.1386 53.6742 39.0109 53.9103 38.8793C54.3347 38.6416 54.7584 38.4026 55.1813 38.1621C55.4634 38.0042 55.4634 38.0042 55.7512 37.8431C55.9127 37.7514 56.0741 37.6598 56.2405 37.5654C56.6749 37.3719 56.6749 37.3719 57.4272 37.3719C57.6507 42.3916 57.71 47.3946 57.678 52.4183C57.4152 52.206 57.1544 51.9913 56.8943 51.7757C56.7489 51.6564 56.6034 51.5371 56.4535 51.4142C55.7166 50.7194 55.0771 49.9273 54.418 49.1582C54.3352 57.9303 54.2524 66.7024 54.1672 75.7403C51.85 75.7403 49.5329 75.7403 47.1455 75.7403C47.1455 69.8647 47.1455 63.989 47.1455 57.9353C47.1428 57.9353 47.1402 57.9353 47.1375 57.9353C46.8371 57.9353 46.5646 58.1114 46.441 58.3852C46.1372 58.948 45.8278 59.3151 45.3767 59.7651C45.2217 59.9208 45.0668 60.0765 44.9071 60.237C44.656 60.4854 44.656 60.4854 44.3997 60.7389C44.2265 60.912 44.0532 61.0852 43.8747 61.2635C43.5079 61.6296 43.1405 61.9951 42.7725 62.36C42.2135 62.9144 41.6566 63.4707 41.1 64.0274C40.7424 64.3837 40.3847 64.74 40.0269 65.0961C39.862 65.2607 39.6971 65.4253 39.5272 65.595C38.5095 66.6024 37.4598 67.5479 36.3622 68.4678C35.6097 68.1075 35.0917 67.7567 34.5088 67.1562C34.2727 66.9159 34.2727 66.9159 34.0318 66.6708C33.8698 66.5035 33.7079 66.3362 33.541 66.1639C33.2217 65.8357 32.9017 65.5082 32.581 65.1813C32.4403 65.0361 32.2996 64.8909 32.1547 64.7413C31.67 64.2745 31.1746 63.8358 30.6652 63.3966C29.5536 62.4301 28.513 61.4028 27.4754 60.3579C27.2834 60.1655 27.0915 59.9732 26.8937 59.775C26.2876 59.1676 25.6825 58.5593 25.0774 57.951C24.6637 57.5361 24.25 57.1212 23.8363 56.7064C23.3845 56.2535 22.9329 55.8003 22.4814 55.3471C21.477 54.3387 19.9006 54.019 18.9004 55.0315C18.6391 55.2941 18.6391 55.2941 18.3725 55.562C18.0935 55.846 18.0935 55.846 17.8089 56.1358C17.6147 56.3313 17.4205 56.5269 17.2204 56.7283C16.599 57.3541 15.9794 57.9816 15.3599 58.6093C14.7438 59.2323 14.1274 59.855 13.5102 60.4769C13.1265 60.8636 12.7435 61.251 12.3613 61.6391C11.3665 62.6431 10.3466 63.5928 9.27592 64.5149C8.38741 65.3024 7.55912 66.1494 6.72486 66.9936C6.53904 67.1803 6.35322 67.3671 6.16177 67.5595C5.5753 68.149 4.98966 68.7394 4.40422 69.3299C3.62681 70.1139 2.84859 70.8972 2.06986 71.6799C1.89095 71.8609 1.71204 72.0419 1.5277 72.2284C1.36349 72.3934 1.19928 72.5585 1.0301 72.7285C0.885235 72.8747 0.740373 73.0208 0.591123 73.1714C0.250774 73.4833 0.250774 73.4833 0 73.4833C0 52.7117 0 31.9401 0 10.5391Z" fill="#0E8474"/>
<path d="M79.2268 0.0860277C80.1835 -0.0610726 80.9447 0.814296 80.8682 1.77923C80.6254 4.84228 80.3133 7.89744 79.9697 10.9517C79.9153 11.4375 79.8619 11.9233 79.8094 12.4093C79.7342 13.1029 79.6552 13.7961 79.5754 14.4892C79.5424 14.8009 79.5424 14.8009 79.5088 15.1188C79.3567 16.3939 79.094 17.4223 78.4929 18.5633C77.6315 19.1376 77.2427 19.1096 76.236 19.0649C75.8345 18.1524 75.6237 17.3166 75.4836 16.3309C75.4216 15.9025 75.4216 15.9025 75.3583 15.4654C75.2962 15.0205 75.2962 15.0205 75.2329 14.5666C75.1708 14.1348 75.1708 14.1348 75.1075 13.6943C74.9806 12.8098 74.8559 11.925 74.7313 11.0401C74.6376 10.3815 74.5434 9.72288 74.4492 9.0643C74.3862 8.62326 74.3862 8.62326 74.3219 8.1733C74.2915 7.96078 74.2611 7.74825 74.2298 7.52929C73.7799 7.51438 73.7799 7.51438 73.3209 7.49916C72.2089 7.46103 71.0971 7.41653 69.9854 7.3701C69.5041 7.3509 69.0227 7.33342 68.5413 7.3177C67.8494 7.29481 67.1581 7.26572 66.4666 7.23541C66.1433 7.22672 66.1433 7.22672 65.8134 7.21786C64.3256 7.14401 64.3256 7.14401 63.6878 6.55925C63.3515 5.81413 63.3308 5.32974 63.4465 4.52C63.9759 3.66272 64.3169 3.31639 65.2677 2.95621C65.588 2.88586 65.9083 2.81551 66.2383 2.74303C66.5016 2.68344 66.5016 2.68344 66.7701 2.62264C67.333 2.49712 67.8971 2.37934 68.462 2.26303C68.6456 2.22423 68.8292 2.18543 69.0183 2.14545C70.3248 1.86968 71.6341 1.61007 72.9446 1.35398C73.3279 1.27832 73.7113 1.20256 74.0946 1.12671C74.8225 0.982733 75.5506 0.839751 76.2788 0.697412C77.2635 0.502788 78.2458 0.298733 79.2268 0.0860277Z" fill="#1D2E50"/>
<path d="M32.5996 68.2168C33.7571 69.209 34.8069 70.1476 35.8597 71.2261C36.775 70.8445 37.3288 70.2952 38.0069 69.5804C39.0364 68.4953 39.0364 68.4953 39.8721 68.2168C39.8721 70.6995 39.8721 73.1821 39.8721 75.74C37.4721 75.74 35.0722 75.74 32.5996 75.74C32.5996 73.2574 32.5996 70.7747 32.5996 68.2168Z" fill="#0E8474"/>
<path d="M10.0306 66.9629C10.0306 69.8593 10.0306 72.7558 10.0306 75.74C6.96864 75.74 3.90669 75.74 0.751953 75.74C1.16573 75.3262 1.57951 74.9124 2.00582 74.4861C2.28108 74.2087 2.5561 73.9311 2.83082 73.6532C3.64841 72.8267 4.46749 72.0017 5.28713 71.1773C5.64047 70.8214 5.99336 70.465 6.34582 70.1083C6.85553 69.5925 7.36681 69.0784 7.87844 68.5645C8.03648 68.4039 8.19452 68.2433 8.35735 68.0778C9.47193 66.9629 9.47193 66.9629 10.0306 66.9629Z" fill="#CFD2D5"/>
<path d="M16.8027 61.0625C16.8027 59.9579 17.6982 59.0625 18.8027 59.0625H21.5736C22.6782 59.0625 23.5736 59.9579 23.5736 61.0625V73.739C23.5736 74.8435 22.6782 75.739 21.5736 75.739H18.8027C17.6982 75.739 16.8027 74.8435 16.8027 73.739V61.0625Z" fill="#CFD2D5"/>
<path d="M113.262 54.588L101.502 27.624L99.528 49.716C99.416 50.836 99.738 51.746 100.494 52.446C101.25 53.146 102.174 53.524 103.266 53.58V54H94.866V53.58C95.93 53.524 96.826 53.132 97.554 52.404C98.282 51.676 98.702 50.766 98.814 49.674L100.914 26.448C100.382 25.356 99.71 24.502 98.898 23.886C98.114 23.242 97.092 22.92 95.832 22.92V22.5H105.912L116.16 46.23L126.408 22.5H134.262V22.92C133.366 22.92 132.61 23.186 131.994 23.718C131.378 24.25 131.098 24.978 131.154 25.902L133.296 50.766C133.436 51.718 133.884 52.432 134.64 52.908C135.424 53.384 136.194 53.622 136.95 53.622V54H123.93V53.622C124.406 53.622 124.896 53.51 125.4 53.286C125.904 53.062 126.31 52.74 126.618 52.32C126.954 51.9 127.08 51.41 126.996 50.85L124.938 27.666L113.262 54.588ZM146.181 54.504C144.249 54.504 142.527 54.028 141.015 53.076C139.531 52.124 138.369 50.808 137.529 49.128C136.689 47.42 136.269 45.474 136.269 43.29C136.269 41.05 136.731 39.09 137.655 37.41C138.579 35.73 139.839 34.428 141.435 33.504C143.059 32.552 144.893 32.076 146.937 32.076C148.645 32.076 150.157 32.412 151.473 33.084C152.817 33.756 153.881 34.708 154.665 35.94C155.477 37.144 155.939 38.544 156.051 40.14L156.093 40.77H141.981V40.98C141.981 43.948 142.639 46.328 143.955 48.12C145.271 49.884 147.035 50.766 149.247 50.766C150.591 50.766 151.865 50.444 153.069 49.8C154.301 49.128 155.295 48.232 156.051 47.112L156.429 47.238C155.953 48.666 155.211 49.926 154.203 51.018C153.195 52.11 152.005 52.964 150.633 53.58C149.261 54.196 147.777 54.504 146.181 54.504ZM142.023 40.14H150.549C150.549 37.928 150.185 36.136 149.457 34.764C148.757 33.392 147.763 32.706 146.475 32.706C145.243 32.706 144.221 33.378 143.409 34.722C142.597 36.066 142.135 37.872 142.023 40.14ZM156.627 54V53.58H156.669C157.677 53.58 158.489 53.272 159.105 52.656C159.721 52.04 160.029 51.228 160.029 50.22V36.444C160.029 35.38 159.805 34.554 159.357 33.966C158.937 33.378 158.027 33.084 156.627 33.084V32.664H160.785C162.269 32.664 163.389 32.524 164.145 32.244C164.901 31.936 165.433 31.544 165.741 31.068H165.951L165.993 37.956C166.357 37.116 166.819 36.234 167.379 35.31C167.967 34.386 168.695 33.616 169.563 33C170.459 32.356 171.523 32.034 172.755 32.034C173.175 32.034 173.623 32.076 174.099 32.16C174.575 32.244 175.079 32.398 175.611 32.622L173.973 37.536C172.965 36.976 172.083 36.584 171.327 36.36C170.599 36.136 169.955 36.024 169.395 36.024C168.443 36.024 167.729 36.318 167.253 36.906C166.805 37.494 166.413 38.194 166.077 39.006V50.22C166.077 51.228 166.385 52.04 167.001 52.656C167.617 53.272 168.429 53.58 169.437 53.58H169.479V54H156.627ZM175.7 54V53.58H175.742C176.75 53.58 177.562 53.272 178.178 52.656C178.794 52.04 179.102 51.228 179.102 50.22V36.444C179.102 35.38 178.878 34.554 178.43 33.966C178.01 33.378 177.1 33.084 175.7 33.084V32.664H179.984C181.412 32.664 182.504 32.51 183.26 32.202C183.96 31.894 184.45 31.516 184.73 31.068H185.15V50.22C185.15 51.228 185.458 52.04 186.074 52.656C186.69 53.272 187.502 53.58 188.51 53.58H188.552V54H175.7ZM182.084 28.422C181.076 28.422 180.236 28.1 179.564 27.456C178.92 26.784 178.598 25.944 178.598 24.936C178.598 23.928 178.92 23.102 179.564 22.458C180.236 21.786 181.076 21.45 182.084 21.45C183.064 21.45 183.876 21.786 184.52 22.458C185.192 23.13 185.528 23.956 185.528 24.936C185.528 25.916 185.192 26.742 184.52 27.414C183.876 28.086 183.064 28.422 182.084 28.422ZM196.374 54.588C194.918 54.588 193.728 54.126 192.804 53.202C191.88 52.278 191.418 51.074 191.418 49.59V33.42H187.848V32.874C189.78 32.734 191.502 32.118 193.014 31.026C194.554 29.934 195.814 28.464 196.794 26.616H197.466V32.664H203.052L202.632 33.42H197.466V48.666C197.466 50.906 198.222 52.026 199.734 52.026C200.238 52.026 200.812 51.872 201.456 51.564C202.128 51.256 202.758 50.85 203.346 50.346V50.766C202.422 51.942 201.33 52.88 200.07 53.58C198.81 54.252 197.578 54.588 196.374 54.588ZM202.893 54V53.58H202.935C203.943 53.58 204.755 53.272 205.371 52.656C205.987 52.04 206.295 51.228 206.295 50.22V36.444C206.295 35.38 206.071 34.554 205.623 33.966C205.203 33.378 204.293 33.084 202.893 33.084V32.664H207.051C208.535 32.664 209.655 32.524 210.411 32.244C211.167 31.936 211.699 31.544 212.007 31.068H212.217L212.259 37.956C212.623 37.116 213.085 36.234 213.645 35.31C214.233 34.386 214.961 33.616 215.829 33C216.725 32.356 217.789 32.034 219.021 32.034C219.441 32.034 219.889 32.076 220.365 32.16C220.841 32.244 221.345 32.398 221.877 32.622L220.239 37.536C219.231 36.976 218.349 36.584 217.593 36.36C216.865 36.136 216.221 36.024 215.661 36.024C214.709 36.024 213.995 36.318 213.519 36.906C213.071 37.494 212.679 38.194 212.343 39.006V50.22C212.343 51.228 212.651 52.04 213.267 52.656C213.883 53.272 214.695 53.58 215.703 53.58H215.745V54H202.893ZM227.824 54.588C226.116 54.588 224.744 54.126 223.708 53.202C222.672 52.278 222.154 51.06 222.154 49.548C222.154 48.904 222.266 48.302 222.49 47.742C222.714 47.154 223.134 46.58 223.75 46.02C224.394 45.46 225.276 44.886 226.396 44.298C227.516 43.682 229 43.038 230.848 42.366L234.754 40.938V37.788C234.754 36.192 234.502 34.932 233.998 34.008C233.494 33.056 232.794 32.58 231.898 32.58C230.834 32.608 229.924 33.308 229.168 34.68C228.44 36.052 227.95 37.956 227.698 40.392L223.162 37.788C223.638 36.64 224.366 35.632 225.346 34.764C226.326 33.896 227.446 33.224 228.706 32.748C229.994 32.272 231.338 32.034 232.738 32.034C235.118 32.034 237.05 32.706 238.534 34.05C240.046 35.366 240.802 37.172 240.802 39.468V49.59C240.802 51.214 241.348 52.026 242.44 52.026C243.084 52.026 243.714 51.676 244.33 50.976L244.666 51.27C243.938 52.25 243.056 53.048 242.02 53.664C240.984 54.28 239.976 54.588 238.996 54.588C237.932 54.588 237.008 54.224 236.224 53.496C235.468 52.768 234.992 51.802 234.796 50.598C233.424 51.998 232.22 53.02 231.184 53.664C230.176 54.28 229.056 54.588 227.824 54.588ZM230.974 51.984C231.59 51.984 232.178 51.83 232.738 51.522C233.326 51.214 233.984 50.71 234.712 50.01L234.754 41.484L233.074 42.114C231.646 42.646 230.554 43.192 229.798 43.752C229.042 44.284 228.51 44.886 228.202 45.558C227.922 46.23 227.782 47 227.782 47.868C227.782 49.072 228.076 50.066 228.664 50.85C229.28 51.606 230.05 51.984 230.974 51.984Z" fill="#0E8474"/>
</svg>
