<svg width="247" height="80" viewBox="0 0 247 80" fill="none" xmlns="http://www.w3.org/2000/svg">
<path d="M0 10.9297C3.36973 10.9297 6.73946 10.9297 10.1612 10.9297C12.8134 10.9297 15.5085 11.8512 17.1502 13.9341C17.242 14.0506 17.3415 14.1786 17.4567 14.3267C18.5923 15.7424 19.8144 17.0605 21.0587 18.3808C21.9796 19.358 22.8838 20.344 23.7601 21.3616C24.2843 21.9658 24.8199 22.559 25.356 23.1526C26.6098 24.5434 27.8472 25.9464 29.0619 27.3715C30.4976 29.0548 31.951 30.7128 33.4494 32.3411C34.0933 33.0632 34.6992 33.8074 35.3034 34.5628C36.0133 35.4442 36.7093 36.1916 37.5638 36.8818C37.7689 37.0476 38.0721 36.9693 38.1813 36.7292C38.4888 36.1564 38.8044 35.7673 39.2541 35.3013C39.4801 35.0643 39.4801 35.0643 39.7107 34.8224C39.9508 34.5732 39.9508 34.5732 40.1958 34.319C41.521 32.9249 42.7654 31.5068 43.9657 30.0036C44.5431 29.3065 45.1685 28.6883 45.8197 28.0613C46.4082 27.4525 46.9306 26.803 47.4613 26.1433C48.2682 25.1408 49.0977 24.2164 50.0203 23.3212C51.0704 22.2786 52.0062 21.1265 52.9622 19.9983C54.4684 18.225 56.0049 16.4909 57.596 14.7932C58.5061 13.8218 59.397 12.8377 60.2643 11.8277C60.7853 11.2313 61.5595 10.9297 62.3515 10.9297C66.6603 10.9297 70.9796 10.9297 75.4179 10.9297C75.4179 33.243 75.4179 55.5563 75.4179 78.5458C72.071 78.5458 68.724 78.5458 65.2755 78.5458C65.2755 59.8369 65.2755 41.1281 65.2755 21.8523C65.1039 21.8523 65.4524 21.8523 65.2755 21.8523C65.2068 22.0065 64.618 22.1607 64.5472 22.3196C64.2239 22.9134 63.8962 23.2759 63.4063 23.7377C62.5976 24.5232 61.8544 25.3416 61.1186 26.1951C60.4787 26.9255 59.8221 27.6399 59.1641 28.3538C58.217 29.3826 57.2825 30.4202 56.3664 31.4766C55.8314 32.0884 55.2876 32.6918 54.743 33.295C54.0485 34.0645 53.3587 34.837 52.6788 35.6193C51.7284 36.7108 50.7517 37.7776 49.7765 38.8467C49.2637 39.4129 48.7581 39.9834 48.2577 40.5605C47.4876 41.4471 46.6963 42.3134 45.9009 43.1774C44.9532 44.2068 44.0183 45.2453 43.1012 46.3022C42.3834 47.1235 41.6518 47.9322 40.9191 48.7402C40.4971 49.2101 40.0803 49.6845 39.6676 50.1625C39.4611 50.3998 39.2546 50.6372 39.0418 50.8817C38.8547 51.0996 38.6677 51.3175 38.4749 51.542C37.969 52.0195 37.969 52.0195 37.1889 52.0195C36.6078 51.4668 36.6078 51.4668 35.9536 50.7192C35.8377 50.5881 35.7219 50.457 35.6026 50.322C35.2624 49.9361 34.9252 49.5475 34.5882 49.1588C34.4287 48.9764 34.2691 48.794 34.1047 48.6062C33.8183 48.2789 33.5325 47.9511 33.2473 47.6228C32.6615 46.9576 32.0648 46.3028 31.4675 45.6479C30.5748 44.6692 29.695 43.6815 28.8262 42.6816C28.2404 42.0164 27.6438 41.3617 27.0464 40.7068C26.1537 39.728 25.274 38.7404 24.4052 37.7404C23.8194 37.0752 23.2227 36.4205 22.6254 35.7656C21.7255 34.7789 20.8375 33.784 19.9618 32.7759C19.4526 32.1955 18.9345 31.6238 18.4156 31.052C17.3454 29.8676 16.3108 28.6561 15.2787 27.4387C14.1307 26.0943 12.931 24.8022 11.7061 23.5277C10.6625 22.4278 10.6625 22.4278 10.6625 21.8523C10.4909 21.8523 10.8394 21.8523 10.6625 21.8523C10.7484 33.0089 10.3141 44.1656 10.4025 55.6603C12.9999 53.2253 15.5691 50.7902 18.0743 48.2648C18.3685 47.9693 18.6628 47.6739 18.9571 47.3785C20.2362 46.0943 22.1612 45.7544 23.4256 47.0531C23.4688 47.0975 23.5122 47.1421 23.5559 47.187C23.6938 47.3262 23.8317 47.4655 23.9738 47.609C24.4141 48.0539 24.8527 48.5006 25.291 48.9475C27.6415 51.3473 27.6415 51.3473 30.1283 53.6029C31.34 54.6804 32.4759 55.8402 33.622 56.9865C34.0731 57.4369 34.5262 57.8853 34.9793 58.3336C35.2663 58.6198 35.5531 58.9061 35.8398 59.1925C35.9755 59.3263 36.1112 59.4601 36.2509 59.598C36.7706 60.121 38.0454 60.3877 38.5911 59.892C39.7873 58.8055 40.9353 57.6725 42.0802 56.5248C42.3448 56.2604 42.6094 55.9961 42.8741 55.7318C43.4242 55.182 43.9738 54.6319 44.5231 54.0814C45.2276 53.3753 45.9333 52.6705 46.6393 51.966C47.1839 51.4224 47.7279 50.8781 48.2717 50.3336C48.5319 50.0733 48.7923 49.8131 49.0528 49.5532C49.415 49.1916 49.7763 48.8292 50.1375 48.4667C50.3432 48.2608 50.5489 48.0549 50.7608 47.8428C51.2469 47.3705 51.2469 47.3705 51.4923 46.8182C51.2616 46.8343 51.031 46.8504 50.7933 46.867C49.2576 46.8765 47.7696 46.4116 46.291 46.038C46.291 45.8664 46.291 45.6948 46.291 45.5179C46.4844 45.4147 46.6777 45.3115 46.8769 45.2052C47.6203 44.8083 48.3636 44.411 49.1068 44.0136C49.4393 43.8358 49.772 43.658 50.1046 43.4803C51.8051 42.5718 53.5033 41.6605 55.187 40.721C55.4246 40.5885 55.6622 40.456 55.907 40.3195C56.3471 40.0731 56.7865 39.8252 57.225 39.5758C57.5176 39.412 57.5176 39.412 57.816 39.2449C57.9835 39.1499 58.151 39.0549 58.3235 38.957C58.774 38.7563 58.774 38.7563 59.5542 38.7563C59.7859 43.9619 59.8474 49.1503 59.8142 54.36C59.5417 54.1399 59.2712 53.9172 59.0015 53.6936C58.8507 53.5699 58.6998 53.4462 58.5444 53.3188C57.7801 52.5982 57.117 51.7767 56.4334 50.9792C56.3476 60.0762 56.2618 69.1731 56.1734 78.5458C53.7704 78.5458 51.3674 78.5458 48.8916 78.5458C48.8916 72.4525 48.8916 66.3593 48.8916 60.0814C48.8889 60.0814 48.8861 60.0814 48.8833 60.0814C48.5718 60.0814 48.2892 60.2639 48.1611 60.5479C47.846 61.1316 47.5251 61.5123 47.0573 61.9789C46.8966 62.1404 46.7359 62.3019 46.5703 62.4683C46.3099 62.7259 46.3099 62.7259 46.0442 62.9888C45.8645 63.1683 45.6848 63.3479 45.4997 63.5329C45.1193 63.9125 44.7383 64.2915 44.3566 64.6699C43.777 65.2448 43.1994 65.8218 42.6222 66.3991C42.2514 66.7686 41.8804 67.1381 41.5093 67.5074C41.3383 67.6781 41.1673 67.8488 40.9911 68.0247C39.9357 69.0695 38.8472 70.05 37.709 71.004C36.9286 70.6303 36.3914 70.2665 35.787 69.6437C35.5421 69.3946 35.5421 69.3946 35.2922 69.1404C35.1243 68.9669 34.9563 68.7934 34.7833 68.6147C34.4521 68.2744 34.1203 67.9347 33.7877 67.5958C33.6418 67.4452 33.4959 67.2946 33.3456 67.1394C32.843 66.6554 32.3292 66.2004 31.8009 65.745C30.6481 64.7426 29.569 63.6773 28.493 62.5936C28.2939 62.3942 28.0949 62.1947 27.8897 61.9892C27.2613 61.3593 26.6337 60.7285 26.0062 60.0976C25.5772 59.6674 25.1482 59.2371 24.7191 58.807C24.2506 58.3372 23.7823 57.8673 23.3141 57.3973C22.2724 56.3515 20.6377 56.02 19.6004 57.07C19.3294 57.3423 19.3294 57.3423 19.053 57.6201C18.7636 57.9147 18.7636 57.9147 18.4685 58.2152C18.2671 58.418 18.0657 58.6207 17.8582 58.8296C17.2138 59.4786 16.5712 60.1293 15.9288 60.7803C15.2899 61.4264 14.6506 62.0721 14.0106 62.717C13.6127 63.1181 13.2155 63.5198 12.8191 63.9224C11.7875 64.9635 10.7298 65.9483 9.61947 66.9046C8.69806 67.7213 7.83909 68.5997 6.97393 69.4751C6.78123 69.6688 6.58853 69.8625 6.38999 70.062C5.7818 70.6734 5.17446 71.2855 4.56734 71.8979C3.76114 72.711 2.95409 73.5233 2.14653 74.335C1.96099 74.5227 1.77544 74.7104 1.58428 74.9038C1.41399 75.0749 1.2437 75.2461 1.06825 75.4224C0.918021 75.574 0.767795 75.7256 0.613016 75.8818C0.260062 76.2052 0.260062 76.2052 0 76.2052C0 54.6643 0 33.1234 0 10.9297Z" fill="#0E8474"/>
<path d="M82.1612 0.0892139C83.1534 -0.0633346 83.9428 0.844455 83.8635 1.84512C83.6117 5.02163 83.288 8.18994 82.9317 11.3574C82.8753 11.8611 82.8199 12.3649 82.7655 12.8689C82.6874 13.5882 82.6056 14.3071 82.5228 15.0259C82.4886 15.349 82.4886 15.349 82.4538 15.6787C82.296 17.0011 82.0236 18.0676 81.4002 19.2509C80.5069 19.8465 80.1037 19.8174 79.0597 19.771C78.6434 18.8247 78.4248 17.958 78.2795 16.9357C78.2151 16.4914 78.2151 16.4914 78.1494 16.0382C78.0851 15.5768 78.0851 15.5768 78.0194 15.1061C77.9551 14.6583 77.9551 14.6583 77.8894 14.2015C77.7578 13.2842 77.6285 12.3666 77.4993 11.449C77.4021 10.766 77.3044 10.083 77.2067 9.40001C77.1414 8.94264 77.1414 8.94264 77.0747 8.47602C77.0431 8.25562 77.0116 8.03523 76.9792 7.80815C76.5126 7.79269 76.5126 7.79269 76.0366 7.77691C74.8834 7.73736 73.7305 7.69122 72.5776 7.64307C72.0785 7.62315 71.5792 7.60502 71.08 7.58872C70.3625 7.56499 69.6456 7.53483 68.9284 7.50339C68.5932 7.49438 68.5932 7.49438 68.2511 7.48518C66.7082 7.4086 66.7082 7.4086 66.0467 6.80219C65.698 6.02947 65.6765 5.52714 65.7965 4.68741C66.3455 3.79837 66.6992 3.43922 67.6851 3.0657C68.0173 2.99275 68.3495 2.91979 68.6917 2.84463C68.9647 2.78283 68.9647 2.78283 69.2432 2.71978C69.827 2.5896 70.412 2.46746 70.9977 2.34685C71.1881 2.30661 71.3786 2.26637 71.5747 2.22492C72.9296 1.93893 74.2874 1.6697 75.6464 1.40413C76.0439 1.32566 76.4415 1.2471 76.839 1.16845C77.5938 1.01913 78.3489 0.870853 79.1041 0.723242C80.1252 0.521409 81.144 0.309797 82.1612 0.0892139Z" fill="#CACACA"/>
<path d="M33.8086 70.7441C35.009 71.7731 36.0976 72.7465 37.1894 73.8649C38.1386 73.4692 38.7129 72.8996 39.4162 72.1582C40.4838 71.033 40.4838 71.033 41.3504 70.7441C41.3504 73.3188 41.3504 75.8934 41.3504 78.546C38.8616 78.546 36.3728 78.546 33.8086 78.546C33.8086 75.9714 33.8086 73.3968 33.8086 70.7441Z" fill="#0E8474"/>
<path d="M10.4016 69.4414C10.4016 72.4451 10.4016 75.4488 10.4016 78.5436C7.22623 78.5436 4.05088 78.5436 0.779297 78.5436C1.2084 78.1145 1.6375 77.6854 2.07961 77.2433C2.36505 76.9556 2.65026 76.6677 2.93516 76.3795C3.78303 75.5224 4.63245 74.6668 5.48244 73.8119C5.84887 73.4428 6.21483 73.0733 6.58034 72.7033C7.10893 72.1684 7.63915 71.6352 8.16973 71.1023C8.33362 70.9358 8.49751 70.7692 8.66637 70.5976C9.82224 69.4414 9.82224 69.4414 10.4016 69.4414Z" fill="#CFD2D5"/>
<path d="M17.4238 63.25C17.4238 62.1454 18.3193 61.25 19.4238 61.25H22.4455C23.5501 61.25 24.4455 62.1454 24.4455 63.25V76.5441C24.4455 77.6487 23.5501 78.5441 22.4455 78.5441H19.4238C18.3193 78.5441 17.4238 77.6487 17.4238 76.5441V63.25Z" fill="#CFD2D5"/>
<path d="M115.262 43.588L103.502 16.624L101.528 38.716C101.416 39.836 101.738 40.746 102.494 41.446C103.25 42.146 104.174 42.524 105.266 42.58V43H96.866V42.58C97.93 42.524 98.826 42.132 99.554 41.404C100.282 40.676 100.702 39.766 100.814 38.674L102.914 15.448C102.382 14.356 101.71 13.502 100.898 12.886C100.114 12.242 99.092 11.92 97.832 11.92V11.5H107.912L118.16 35.23L128.408 11.5H136.262V11.92C135.366 11.92 134.61 12.186 133.994 12.718C133.378 13.25 133.098 13.978 133.154 14.902L135.296 39.766C135.436 40.718 135.884 41.432 136.64 41.908C137.424 42.384 138.194 42.622 138.95 42.622V43H125.93V42.622C126.406 42.622 126.896 42.51 127.4 42.286C127.904 42.062 128.31 41.74 128.618 41.32C128.954 40.9 129.08 40.41 128.996 39.85L126.938 16.666L115.262 43.588ZM148.181 43.504C146.249 43.504 144.527 43.028 143.015 42.076C141.531 41.124 140.369 39.808 139.529 38.128C138.689 36.42 138.269 34.474 138.269 32.29C138.269 30.05 138.731 28.09 139.655 26.41C140.579 24.73 141.839 23.428 143.435 22.504C145.059 21.552 146.893 21.076 148.937 21.076C150.645 21.076 152.157 21.412 153.473 22.084C154.817 22.756 155.881 23.708 156.665 24.94C157.477 26.144 157.939 27.544 158.051 29.14L158.093 29.77H143.981V29.98C143.981 32.948 144.639 35.328 145.955 37.12C147.271 38.884 149.035 39.766 151.247 39.766C152.591 39.766 153.865 39.444 155.069 38.8C156.301 38.128 157.295 37.232 158.051 36.112L158.429 36.238C157.953 37.666 157.211 38.926 156.203 40.018C155.195 41.11 154.005 41.964 152.633 42.58C151.261 43.196 149.777 43.504 148.181 43.504ZM144.023 29.14H152.549C152.549 26.928 152.185 25.136 151.457 23.764C150.757 22.392 149.763 21.706 148.475 21.706C147.243 21.706 146.221 22.378 145.409 23.722C144.597 25.066 144.135 26.872 144.023 29.14ZM158.627 43V42.58H158.669C159.677 42.58 160.489 42.272 161.105 41.656C161.721 41.04 162.029 40.228 162.029 39.22V25.444C162.029 24.38 161.805 23.554 161.357 22.966C160.937 22.378 160.027 22.084 158.627 22.084V21.664H162.785C164.269 21.664 165.389 21.524 166.145 21.244C166.901 20.936 167.433 20.544 167.741 20.068H167.951L167.993 26.956C168.357 26.116 168.819 25.234 169.379 24.31C169.967 23.386 170.695 22.616 171.563 22C172.459 21.356 173.523 21.034 174.755 21.034C175.175 21.034 175.623 21.076 176.099 21.16C176.575 21.244 177.079 21.398 177.611 21.622L175.973 26.536C174.965 25.976 174.083 25.584 173.327 25.36C172.599 25.136 171.955 25.024 171.395 25.024C170.443 25.024 169.729 25.318 169.253 25.906C168.805 26.494 168.413 27.194 168.077 28.006V39.22C168.077 40.228 168.385 41.04 169.001 41.656C169.617 42.272 170.429 42.58 171.437 42.58H171.479V43H158.627ZM177.7 43V42.58H177.742C178.75 42.58 179.562 42.272 180.178 41.656C180.794 41.04 181.102 40.228 181.102 39.22V25.444C181.102 24.38 180.878 23.554 180.43 22.966C180.01 22.378 179.1 22.084 177.7 22.084V21.664H181.984C183.412 21.664 184.504 21.51 185.26 21.202C185.96 20.894 186.45 20.516 186.73 20.068H187.15V39.22C187.15 40.228 187.458 41.04 188.074 41.656C188.69 42.272 189.502 42.58 190.51 42.58H190.552V43H177.7ZM184.084 17.422C183.076 17.422 182.236 17.1 181.564 16.456C180.92 15.784 180.598 14.944 180.598 13.936C180.598 12.928 180.92 12.102 181.564 11.458C182.236 10.786 183.076 10.45 184.084 10.45C185.064 10.45 185.876 10.786 186.52 11.458C187.192 12.13 187.528 12.956 187.528 13.936C187.528 14.916 187.192 15.742 186.52 16.414C185.876 17.086 185.064 17.422 184.084 17.422ZM198.374 43.588C196.918 43.588 195.728 43.126 194.804 42.202C193.88 41.278 193.418 40.074 193.418 38.59V22.42H189.848V21.874C191.78 21.734 193.502 21.118 195.014 20.026C196.554 18.934 197.814 17.464 198.794 15.616H199.466V21.664H205.052L204.632 22.42H199.466V37.666C199.466 39.906 200.222 41.026 201.734 41.026C202.238 41.026 202.812 40.872 203.456 40.564C204.128 40.256 204.758 39.85 205.346 39.346V39.766C204.422 40.942 203.33 41.88 202.07 42.58C200.81 43.252 199.578 43.588 198.374 43.588ZM204.893 43V42.58H204.935C205.943 42.58 206.755 42.272 207.371 41.656C207.987 41.04 208.295 40.228 208.295 39.22V25.444C208.295 24.38 208.071 23.554 207.623 22.966C207.203 22.378 206.293 22.084 204.893 22.084V21.664H209.051C210.535 21.664 211.655 21.524 212.411 21.244C213.167 20.936 213.699 20.544 214.007 20.068H214.217L214.259 26.956C214.623 26.116 215.085 25.234 215.645 24.31C216.233 23.386 216.961 22.616 217.829 22C218.725 21.356 219.789 21.034 221.021 21.034C221.441 21.034 221.889 21.076 222.365 21.16C222.841 21.244 223.345 21.398 223.877 21.622L222.239 26.536C221.231 25.976 220.349 25.584 219.593 25.36C218.865 25.136 218.221 25.024 217.661 25.024C216.709 25.024 215.995 25.318 215.519 25.906C215.071 26.494 214.679 27.194 214.343 28.006V39.22C214.343 40.228 214.651 41.04 215.267 41.656C215.883 42.272 216.695 42.58 217.703 42.58H217.745V43H204.893ZM229.824 43.588C228.116 43.588 226.744 43.126 225.708 42.202C224.672 41.278 224.154 40.06 224.154 38.548C224.154 37.904 224.266 37.302 224.49 36.742C224.714 36.154 225.134 35.58 225.75 35.02C226.394 34.46 227.276 33.886 228.396 33.298C229.516 32.682 231 32.038 232.848 31.366L236.754 29.938V26.788C236.754 25.192 236.502 23.932 235.998 23.008C235.494 22.056 234.794 21.58 233.898 21.58C232.834 21.608 231.924 22.308 231.168 23.68C230.44 25.052 229.95 26.956 229.698 29.392L225.162 26.788C225.638 25.64 226.366 24.632 227.346 23.764C228.326 22.896 229.446 22.224 230.706 21.748C231.994 21.272 233.338 21.034 234.738 21.034C237.118 21.034 239.05 21.706 240.534 23.05C242.046 24.366 242.802 26.172 242.802 28.468V38.59C242.802 40.214 243.348 41.026 244.44 41.026C245.084 41.026 245.714 40.676 246.33 39.976L246.666 40.27C245.938 41.25 245.056 42.048 244.02 42.664C242.984 43.28 241.976 43.588 240.996 43.588C239.932 43.588 239.008 43.224 238.224 42.496C237.468 41.768 236.992 40.802 236.796 39.598C235.424 40.998 234.22 42.02 233.184 42.664C232.176 43.28 231.056 43.588 229.824 43.588ZM232.974 40.984C233.59 40.984 234.178 40.83 234.738 40.522C235.326 40.214 235.984 39.71 236.712 39.01L236.754 30.484L235.074 31.114C233.646 31.646 232.554 32.192 231.798 32.752C231.042 33.284 230.51 33.886 230.202 34.558C229.922 35.23 229.782 36 229.782 36.868C229.782 38.072 230.076 39.066 230.664 39.85C231.28 40.606 232.05 40.984 232.974 40.984Z" fill="#0E8474"/>
<path d="M101.871 68.1871C101.497 69.1032 101.413 69.8129 101.619 70.3161C101.826 70.8194 102.335 71.1161 103.148 71.2065L103.555 71.2452V72C103.013 71.9742 102.471 71.9613 101.929 71.9613C101.387 71.9484 100.865 71.9419 100.361 71.9419C99.8968 71.9419 99.4516 71.9484 99.0258 71.9613C98.6129 71.9613 98.2258 71.9742 97.8645 72V71.2452L98.1935 71.2065C98.6323 71.129 99 71 99.2968 70.8194C99.6065 70.6387 99.8903 70.3613 100.148 69.9871C100.406 69.6 100.677 69.0581 100.961 68.3613L105.297 58.1613H105.994L111.103 69.7548C111.258 70.1032 111.4 70.3806 111.529 70.5871C111.658 70.7806 111.813 70.9226 111.994 71.0129C112.187 71.1032 112.426 71.1613 112.71 71.1871L113.348 71.2452V72C113.129 71.9871 112.877 71.9806 112.594 71.9806C112.31 71.9677 112.013 71.9613 111.703 71.9613C111.394 71.9484 111.09 71.9419 110.794 71.9419H110.658H110.6C110.265 71.9419 109.91 71.9484 109.535 71.9613C109.174 71.9613 108.819 71.9677 108.471 71.9806C108.135 71.9806 107.813 71.9871 107.503 72C107.206 72 106.942 72 106.71 72V71.2452L107.348 71.1871C107.916 71.1355 108.265 70.9935 108.394 70.7613C108.523 70.529 108.458 70.1161 108.2 69.5226L104.523 61.0452L104.968 60.7742L101.871 68.1871ZM101.716 67.471L102.045 66.7161H108.103L108.394 67.471H101.716ZM116.68 76.4129C116.087 76.4129 115.545 76.4194 115.055 76.4323C114.577 76.4452 114.074 76.4581 113.545 76.471V75.7161L114.126 75.6774C114.655 75.6258 115.016 75.4903 115.209 75.271C115.403 75.0645 115.5 74.6968 115.5 74.1677V67.0258H117.861V74.1677C117.861 74.5161 117.906 74.7935 117.997 75C118.1 75.2065 118.274 75.3548 118.519 75.4452C118.764 75.5484 119.1 75.6194 119.526 75.6581L120.377 75.7161V76.471C119.964 76.4581 119.564 76.4452 119.177 76.4323C118.79 76.4323 118.39 76.4258 117.977 76.4129C117.577 76.4129 117.145 76.4129 116.68 76.4129ZM120.842 61.7613C121.668 61.7613 122.384 61.9742 122.99 62.4C123.597 62.8129 124.061 63.4065 124.384 64.1806C124.719 64.9548 124.887 65.8774 124.887 66.9484C124.887 68.0452 124.7 68.9935 124.326 69.7935C123.964 70.5935 123.448 71.2129 122.777 71.6516C122.106 72.0903 121.306 72.3097 120.377 72.3097C119.68 72.3097 119.08 72.1677 118.577 71.8839C118.087 71.5871 117.719 71.2194 117.474 70.7806L117.687 70.1806C117.842 70.529 118.1 70.8129 118.461 71.0323C118.822 71.2516 119.248 71.3613 119.739 71.3613C120.603 71.3613 121.261 70.9935 121.713 70.2581C122.164 69.5226 122.39 68.4452 122.39 67.0258C122.39 65.671 122.184 64.6387 121.771 63.929C121.371 63.2194 120.777 62.8645 119.99 62.8645C119.461 62.8645 118.99 63.0194 118.577 63.329C118.164 63.6258 117.861 64.0452 117.668 64.5871L117.493 64.0645C117.726 63.3548 118.132 62.7935 118.713 62.3806C119.306 61.9677 120.016 61.7613 120.842 61.7613ZM115.5 67.0258V64.3742C115.5 63.8194 115.403 63.4387 115.209 63.2323C115.016 63.0129 114.648 62.8774 114.106 62.8258L113.545 62.7677V62.0129C113.816 62.0258 114.068 62.0387 114.3 62.0516C114.532 62.0516 114.784 62.0516 115.055 62.0516C115.609 62.0516 116.119 62.0323 116.584 61.9935C117.048 61.9419 117.474 61.8774 117.861 61.8V62.0129V67.0258H115.5ZM129.688 76.4129C129.095 76.4129 128.553 76.4194 128.062 76.4323C127.585 76.4452 127.082 76.4581 126.553 76.471V75.7161L127.133 75.6774C127.662 75.6258 128.024 75.4903 128.217 75.271C128.411 75.0645 128.508 74.6968 128.508 74.1677V67.0258H130.869V74.1677C130.869 74.5161 130.914 74.7935 131.004 75C131.108 75.2065 131.282 75.3548 131.527 75.4452C131.772 75.5484 132.108 75.6194 132.533 75.6581L133.385 75.7161V76.471C132.972 76.4581 132.572 76.4452 132.185 76.4323C131.798 76.4323 131.398 76.4258 130.985 76.4129C130.585 76.4129 130.153 76.4129 129.688 76.4129ZM133.85 61.7613C134.675 61.7613 135.391 61.9742 135.998 62.4C136.604 62.8129 137.069 63.4065 137.391 64.1806C137.727 64.9548 137.895 65.8774 137.895 66.9484C137.895 68.0452 137.708 68.9935 137.333 69.7935C136.972 70.5935 136.456 71.2129 135.785 71.6516C135.114 72.0903 134.314 72.3097 133.385 72.3097C132.688 72.3097 132.088 72.1677 131.585 71.8839C131.095 71.5871 130.727 71.2194 130.482 70.7806L130.695 70.1806C130.85 70.529 131.108 70.8129 131.469 71.0323C131.83 71.2516 132.256 71.3613 132.746 71.3613C133.611 71.3613 134.269 70.9935 134.721 70.2581C135.172 69.5226 135.398 68.4452 135.398 67.0258C135.398 65.671 135.191 64.6387 134.779 63.929C134.379 63.2194 133.785 62.8645 132.998 62.8645C132.469 62.8645 131.998 63.0194 131.585 63.329C131.172 63.6258 130.869 64.0452 130.675 64.5871L130.501 64.0645C130.733 63.3548 131.14 62.7935 131.721 62.3806C132.314 61.9677 133.024 61.7613 133.85 61.7613ZM128.508 67.0258V64.3742C128.508 63.8194 128.411 63.4387 128.217 63.2323C128.024 63.0129 127.656 62.8774 127.114 62.8258L126.553 62.7677V62.0129C126.824 62.0258 127.075 62.0387 127.308 62.0516C127.54 62.0516 127.791 62.0516 128.062 62.0516C128.617 62.0516 129.127 62.0323 129.591 61.9935C130.056 61.9419 130.482 61.8774 130.869 61.8V62.0129V67.0258H128.508ZM142.79 71.9419C142.196 71.9419 141.654 71.9484 141.164 71.9613C140.687 71.9742 140.183 71.9871 139.654 72V71.2452L140.235 71.2065C140.764 71.1548 141.125 71.0258 141.319 70.8194C141.512 70.6 141.609 70.2258 141.609 69.6968V67.0258H143.97V69.6968C143.97 70.0452 144.016 70.3226 144.106 70.529C144.209 70.7355 144.37 70.8903 144.59 70.9935C144.809 71.0839 145.119 71.1484 145.519 71.1871L146.254 71.2452V72C145.867 71.9871 145.493 71.9806 145.132 71.9806C144.77 71.9677 144.396 71.9613 144.009 71.9613C143.635 71.9484 143.229 71.9419 142.79 71.9419ZM141.609 67.0258V64.3742C141.609 63.8194 141.512 63.4387 141.319 63.2323C141.125 63.0129 140.758 62.8774 140.216 62.8258L139.654 62.7677V62.0129C139.925 62.0258 140.177 62.0387 140.409 62.0516C140.641 62.0516 140.893 62.0516 141.164 62.0516C141.719 62.0516 142.229 62.0323 142.693 61.9935C143.158 61.9419 143.583 61.8774 143.97 61.8V62.0129V67.0258H141.609ZM147.377 65.4C147.08 65.4 146.835 65.3161 146.641 65.1484C146.461 64.9806 146.37 64.7613 146.37 64.4903C146.37 64.3097 146.403 64.1484 146.467 64.0065C146.532 63.8645 146.596 63.729 146.661 63.6C146.725 63.4581 146.758 63.329 146.758 63.2129C146.758 62.929 146.57 62.7871 146.196 62.7871C145.912 62.7871 145.616 62.8581 145.306 63C145.009 63.1419 144.732 63.3355 144.474 63.5806C144.229 63.8258 144.041 64.1032 143.912 64.4129L143.854 63.6C144.19 63.0065 144.622 62.5484 145.151 62.2258C145.693 61.8903 146.261 61.7226 146.854 61.7226C147.461 61.7226 147.938 61.8968 148.287 62.2452C148.635 62.5935 148.809 63.071 148.809 63.6774C148.809 64.1935 148.68 64.6129 148.422 64.9355C148.164 65.2452 147.816 65.4 147.377 65.4ZM156.348 67.0258V64.4323C156.348 63.7871 156.18 63.3097 155.845 63C155.509 62.6774 155.006 62.5161 154.335 62.5161C153.87 62.5161 153.483 62.5871 153.174 62.729C152.877 62.8581 152.728 63.0258 152.728 63.2323C152.728 63.3613 152.774 63.5032 152.864 63.6581C152.967 63.8 153.064 63.9613 153.154 64.1419C153.245 64.3097 153.29 64.4903 153.29 64.6839C153.29 64.9548 153.18 65.1742 152.961 65.3419C152.741 65.5097 152.451 65.5935 152.09 65.5935C151.677 65.5935 151.348 65.4774 151.103 65.2452C150.857 65 150.735 64.671 150.735 64.2581C150.735 63.7548 150.909 63.3161 151.257 62.9419C151.619 62.5677 152.115 62.2774 152.748 62.071C153.393 61.8516 154.128 61.7419 154.954 61.7419C156.283 61.7419 157.238 62.0387 157.819 62.6323C158.412 63.2258 158.709 64.1871 158.709 65.5161V67.0258H156.348ZM153.212 72.271C152.335 72.271 151.638 72.0452 151.122 71.5935C150.606 71.1419 150.348 70.5355 150.348 69.7742C150.348 69.1677 150.49 68.6839 150.774 68.3226C151.07 67.9484 151.445 67.6516 151.896 67.4323C152.348 67.2 152.832 67.0129 153.348 66.871C153.864 66.7161 154.348 66.5742 154.799 66.4452C155.264 66.3032 155.638 66.1419 155.922 65.9613C156.219 65.7677 156.367 65.5097 156.367 65.1871L156.445 66.1548C156.354 66.3871 156.174 66.5871 155.903 66.7548C155.632 66.9097 155.322 67.0581 154.974 67.2C154.638 67.3419 154.303 67.5032 153.967 67.6839C153.645 67.8516 153.374 68.0774 153.154 68.3613C152.948 68.6323 152.845 68.9935 152.845 69.4452C152.845 69.9097 152.974 70.2774 153.232 70.5484C153.49 70.8065 153.851 70.9355 154.315 70.9355C154.741 70.9355 155.141 70.8258 155.515 70.6065C155.89 70.3742 156.219 70.0323 156.503 69.5806L156.522 70.3935C156.109 71.0258 155.625 71.4968 155.07 71.8065C154.528 72.1161 153.909 72.271 153.212 72.271ZM158.709 70.3742C158.709 70.6839 158.754 70.9097 158.845 71.0516C158.935 71.1806 159.09 71.2452 159.309 71.2452C159.503 71.2452 159.696 71.2 159.89 71.1097C160.083 71.0194 160.277 70.9032 160.47 70.7613L160.799 71.3806C160.464 71.6645 160.096 71.8839 159.696 72.0387C159.296 72.1935 158.845 72.271 158.341 72.271C157.657 72.271 157.154 72.1226 156.832 71.8258C156.509 71.529 156.348 71.071 156.348 70.4516V67.0258H158.709V70.3742ZM163.875 67.0258V64.3742C163.875 63.8194 163.778 63.4387 163.584 63.2323C163.391 63.0129 163.023 62.8774 162.481 62.8258L161.92 62.7677V62.0129C162.191 62.0258 162.443 62.0387 162.675 62.0516C162.907 62.0516 163.159 62.0516 163.43 62.0516C163.984 62.0516 164.494 62.0323 164.959 61.9935C165.423 61.9419 165.849 61.8774 166.236 61.8V62.0129V67.0258H163.875ZM165.055 71.9419C164.462 71.9419 163.92 71.9484 163.43 71.9613C162.952 71.9742 162.449 71.9871 161.92 72V71.2452L162.501 71.2065C163.03 71.1548 163.391 71.0258 163.584 70.8194C163.778 70.6 163.875 70.2258 163.875 69.6968V67.0258H166.236V69.6968C166.236 70.2258 166.333 70.6 166.526 70.8194C166.72 71.0258 167.081 71.1548 167.61 71.2065L168.191 71.2452V72C167.662 71.9871 167.152 71.9742 166.662 71.9613C166.184 71.9484 165.649 71.9419 165.055 71.9419ZM165.055 59.9226C164.63 59.9226 164.262 59.7871 163.952 59.5161C163.643 59.2452 163.488 58.8968 163.488 58.471C163.488 58.0323 163.643 57.6839 163.952 57.4258C164.262 57.1548 164.63 57.0194 165.055 57.0194C165.481 57.0194 165.849 57.1548 166.159 57.4258C166.468 57.6839 166.623 58.0323 166.623 58.471C166.623 58.8968 166.468 59.2452 166.159 59.5161C165.849 59.7871 165.481 59.9226 165.055 59.9226ZM174.304 72.271C173.75 72.271 173.285 72.2129 172.911 72.0968C172.537 71.9806 172.227 71.8645 171.982 71.7484C171.737 71.6323 171.517 71.5742 171.324 71.5742C171.027 71.5742 170.808 71.7742 170.666 72.1742H169.911C169.95 71.8387 169.975 71.4903 169.988 71.129C170.001 70.7548 170.008 70.3419 170.008 69.8903C170.021 69.4258 170.021 68.8903 170.008 68.2839H170.743C170.95 69.3548 171.33 70.1613 171.885 70.7032C172.44 71.2323 173.163 71.4968 174.053 71.4968C174.685 71.4968 175.169 71.3613 175.504 71.0903C175.853 70.8194 176.027 70.4452 176.027 69.9677C176.027 69.5032 175.84 69.1226 175.466 68.8258C175.104 68.529 174.466 68.2516 173.55 67.9935C172.375 67.6452 171.517 67.2 170.975 66.6581C170.434 66.1161 170.163 65.4387 170.163 64.6258C170.163 63.7484 170.453 63.0516 171.034 62.5355C171.614 62.0065 172.395 61.7419 173.375 61.7419C173.892 61.7419 174.324 61.8 174.672 61.9161C175.034 62.0194 175.337 62.1355 175.582 62.2645C175.827 62.3806 176.046 62.4387 176.24 62.4387C176.369 62.4387 176.479 62.3935 176.569 62.3032C176.659 62.2 176.737 62.0452 176.801 61.8387H177.556C177.53 62.1226 177.511 62.4194 177.498 62.729C177.485 63.0258 177.472 63.3742 177.459 63.7742C177.459 64.1613 177.466 64.6452 177.479 65.2258H176.724C176.556 64.3613 176.201 63.6903 175.659 63.2129C175.117 62.7355 174.466 62.4968 173.704 62.4968C173.175 62.4968 172.763 62.6194 172.466 62.8645C172.169 63.1097 172.021 63.4581 172.021 63.9097C172.021 64.3742 172.221 64.7677 172.621 65.0903C173.021 65.4 173.711 65.6968 174.692 65.9806C175.814 66.2903 176.627 66.6968 177.13 67.2C177.634 67.6903 177.885 68.3484 177.885 69.1742C177.885 70.1419 177.563 70.9032 176.917 71.4581C176.285 72 175.414 72.271 174.304 72.271ZM186.465 67.0258V64.4323C186.465 63.7871 186.297 63.3097 185.962 63C185.626 62.6774 185.123 62.5161 184.452 62.5161C183.987 62.5161 183.6 62.5871 183.291 62.729C182.994 62.8581 182.846 63.0258 182.846 63.2323C182.846 63.3613 182.891 63.5032 182.981 63.6581C183.084 63.8 183.181 63.9613 183.271 64.1419C183.362 64.3097 183.407 64.4903 183.407 64.6839C183.407 64.9548 183.297 65.1742 183.078 65.3419C182.858 65.5097 182.568 65.5935 182.207 65.5935C181.794 65.5935 181.465 65.4774 181.22 65.2452C180.975 65 180.852 64.671 180.852 64.2581C180.852 63.7548 181.026 63.3161 181.375 62.9419C181.736 62.5677 182.233 62.2774 182.865 62.071C183.51 61.8516 184.246 61.7419 185.071 61.7419C186.4 61.7419 187.355 62.0387 187.936 62.6323C188.529 63.2258 188.826 64.1871 188.826 65.5161V67.0258H186.465ZM183.329 72.271C182.452 72.271 181.755 72.0452 181.239 71.5935C180.723 71.1419 180.465 70.5355 180.465 69.7742C180.465 69.1677 180.607 68.6839 180.891 68.3226C181.187 67.9484 181.562 67.6516 182.013 67.4323C182.465 67.2 182.949 67.0129 183.465 66.871C183.981 66.7161 184.465 66.5742 184.917 66.4452C185.381 66.3032 185.755 66.1419 186.039 65.9613C186.336 65.7677 186.484 65.5097 186.484 65.1871L186.562 66.1548C186.471 66.3871 186.291 66.5871 186.02 66.7548C185.749 66.9097 185.439 67.0581 185.091 67.2C184.755 67.3419 184.42 67.5032 184.084 67.6839C183.762 67.8516 183.491 68.0774 183.271 68.3613C183.065 68.6323 182.962 68.9935 182.962 69.4452C182.962 69.9097 183.091 70.2774 183.349 70.5484C183.607 70.8065 183.968 70.9355 184.433 70.9355C184.858 70.9355 185.258 70.8258 185.633 70.6065C186.007 70.3742 186.336 70.0323 186.62 69.5806L186.639 70.3935C186.226 71.0258 185.742 71.4968 185.188 71.8065C184.646 72.1161 184.026 72.271 183.329 72.271ZM188.826 70.3742C188.826 70.6839 188.871 70.9097 188.962 71.0516C189.052 71.1806 189.207 71.2452 189.426 71.2452C189.62 71.2452 189.813 71.2 190.007 71.1097C190.2 71.0194 190.394 70.9032 190.587 70.7613L190.917 71.3806C190.581 71.6645 190.213 71.8839 189.813 72.0387C189.413 72.1935 188.962 72.271 188.458 72.271C187.775 72.271 187.271 72.1226 186.949 71.8258C186.626 71.529 186.465 71.071 186.465 70.4516V67.0258H188.826V70.3742ZM195.102 71.9419C194.509 71.9419 193.967 71.9484 193.477 71.9613C192.999 71.9742 192.496 71.9871 191.967 72V71.2452L192.547 71.2065C193.077 71.1548 193.438 71.0258 193.631 70.8194C193.825 70.6 193.922 70.2258 193.922 69.6968V67.0258H196.283V69.6968C196.283 70.2258 196.38 70.6 196.573 70.8194C196.767 71.0258 197.128 71.1548 197.657 71.2065L198.238 71.2452V72C197.709 71.9871 197.199 71.9742 196.709 71.9613C196.231 71.9484 195.696 71.9419 195.102 71.9419ZM193.922 67.0258V59.4C193.922 58.8581 193.825 58.4774 193.631 58.2581C193.438 58.0387 193.07 57.9032 192.528 57.8516L191.967 57.7935V57.0581C192.238 57.071 192.489 57.0839 192.722 57.0968C192.954 57.0968 193.206 57.0968 193.477 57.0968C194.031 57.0968 194.541 57.0774 195.006 57.0387C195.47 56.9871 195.896 56.9161 196.283 56.8258V57.0581V67.0258H193.922Z" fill="#CACACA"/>
</svg>
