<svg width="269" height="98" viewBox="0 0 269 98" fill="none" xmlns="http://www.w3.org/2000/svg">
<path d="M0 13.5C4.48199 13.5 8.96398 13.5 13.5262 13.5C16.1784 13.5 18.8079 14.4742 20.5641 16.4616C20.8943 16.8352 21.146 17.159 21.5636 17.6963C22.9664 19.4449 24.476 21.0732 26.0131 22.7041C27.1506 23.9112 28.2675 25.1292 29.35 26.3862C29.9974 27.1325 30.6591 27.8653 31.3214 28.5985C32.8702 30.3165 34.3985 32.0496 35.8991 33.8099C37.6725 35.8893 39.4679 37.9374 41.3189 39.9487C42.1141 40.8407 42.8627 41.7599 43.609 42.6931C44.4859 43.7818 45.3457 44.7051 46.4011 45.5577C46.6545 45.7624 47.0291 45.6657 47.1639 45.3692C47.5438 44.6616 47.9336 44.181 48.4891 43.6054C48.7683 43.3125 48.7683 43.3125 49.0531 43.0137C49.3498 42.7059 49.3498 42.7059 49.6524 42.3919C51.2894 40.6698 52.8265 38.9181 54.3092 37.0613C55.0225 36.2002 55.795 35.4365 56.5993 34.662C57.3263 33.91 57.9717 33.1078 58.6272 32.2928C59.6239 31.0545 60.6486 29.9126 61.7882 28.8068C63.0853 27.5188 64.2413 26.0957 65.4222 24.7022C67.2827 22.5116 69.1808 20.3695 71.1462 18.2724C72.2704 17.0725 73.3708 15.8569 74.4422 14.6093C75.0859 13.8725 76.0421 13.5 77.0205 13.5C82.343 13.5 87.6784 13.5 93.161 13.5C93.161 41.0628 93.161 68.6256 93.161 97.0236C89.0266 97.0236 84.8921 97.0236 80.6324 97.0236C80.6324 73.9133 80.6324 50.8029 80.6324 26.9923C80.4204 26.9923 80.8509 26.9923 80.6324 26.9923C80.5475 27.1828 79.8202 27.3733 79.7327 27.5695C79.3334 28.3031 78.9285 28.7509 78.3235 29.3213C77.3245 30.2916 76.4065 31.3025 75.4975 32.3568C74.7071 33.259 73.896 34.1414 73.0832 35.0234C71.9132 36.2941 70.759 37.5759 69.6273 38.8808C68.9664 39.6365 68.2947 40.3819 67.622 41.127C66.7641 42.0775 65.912 43.0318 65.0721 43.9982C63.8982 45.3464 62.6917 46.6642 61.487 47.9849C60.8536 48.6842 60.229 49.3889 59.611 50.1018C58.6597 51.1971 57.6822 52.2672 56.6997 53.3343C55.529 54.606 54.3742 55.8888 53.2413 57.1943C52.3546 58.2088 51.451 59.2079 50.5459 60.206C50.0246 60.7863 49.5096 61.3723 48.9999 61.9628C48.7448 62.256 48.4897 62.5491 48.2269 62.8512C47.9958 63.1204 47.7647 63.3896 47.5267 63.6669C46.9017 64.2567 46.9017 64.2567 45.938 64.2567C45.2202 63.574 45.2202 63.574 44.4121 62.6504C44.269 62.4885 44.1259 62.3266 43.9785 62.1598C43.5583 61.6831 43.1418 61.2031 42.7256 60.723C42.5284 60.4977 42.3313 60.2724 42.1282 60.0403C41.7745 59.636 41.4215 59.2311 41.0691 58.8256C40.3455 58.0039 39.6085 57.1951 38.8706 56.3862C37.7679 55.1772 36.6812 53.9571 35.608 52.722C34.8844 51.9002 34.1473 51.0915 33.4095 50.2825C32.3067 49.0735 31.22 47.8535 30.1468 46.6183C29.4232 45.7966 28.6861 44.9878 27.9483 44.1789C26.8367 42.96 25.7398 41.7311 24.658 40.4858C24.0291 39.7688 23.389 39.0627 22.7481 38.3563C21.4261 36.8933 20.1481 35.3967 18.8732 33.8929C17.4551 32.2323 15.9732 30.6362 14.4601 29.0619C13.171 27.7032 13.171 27.7032 13.171 26.9923C12.959 26.9923 13.3895 26.9923 13.171 26.9923C13.277 40.7737 12.7406 54.5551 12.8498 68.7541C16.0583 65.7461 19.2319 62.7381 22.3265 59.6187C22.6899 59.2537 23.0534 58.8887 23.417 58.5238C24.997 56.9375 27.3749 56.5177 28.9367 58.1219C28.9902 58.1767 29.0438 58.2319 29.0977 58.2873C29.2681 58.4593 29.4384 58.6313 29.6139 58.8085C30.1579 59.3582 30.6996 59.9099 31.2411 60.462C34.1445 63.4264 34.1445 63.4264 37.2164 66.2126C38.7131 67.5436 40.1162 68.9763 41.532 70.3922C42.0892 70.9487 42.6489 71.5025 43.2087 72.0563C43.5631 72.4098 43.9174 72.7634 44.2715 73.1172C44.4392 73.2825 44.6068 73.4478 44.7794 73.6182C45.4213 74.2642 46.9961 74.5936 47.6702 73.9813C49.1477 72.6392 50.5659 71.2396 51.9802 69.822C52.307 69.4954 52.6339 69.1688 52.9608 68.8423C53.6403 68.1633 54.3192 67.4837 54.9977 66.8036C55.868 65.9315 56.7397 65.0609 57.6118 64.1907C58.2846 63.5191 58.9565 62.8468 59.6282 62.1742C59.9496 61.8526 60.2713 61.5313 60.5931 61.2101C61.0405 60.7635 61.4868 60.3158 61.933 59.868C62.1871 59.6137 62.4411 59.3594 62.7029 59.0974C63.3034 58.5139 63.3034 58.5139 63.6065 57.8318C63.3216 57.8516 63.0367 57.8715 62.7431 57.892C60.8461 57.9038 59.008 57.3295 57.1816 56.868C57.1816 56.656 57.1816 56.444 57.1816 56.2255C57.4204 56.0981 57.6592 55.9706 57.9053 55.8393C58.8236 55.3489 59.7417 54.8583 60.6597 54.3673C61.0706 54.1477 61.4815 53.9281 61.8924 53.7086C63.9929 52.5863 66.0907 51.4606 68.1704 50.3001C68.4639 50.1364 68.7574 49.9728 69.0598 49.8042C69.6035 49.4997 70.1463 49.1936 70.688 48.8855C71.0493 48.6832 71.0493 48.6832 71.418 48.4768C71.6248 48.3594 71.8317 48.242 72.0449 48.1211C72.6013 47.8732 72.6013 47.8732 73.565 47.8732C73.8512 54.3035 73.9273 60.7125 73.8863 67.1479C73.5496 66.876 73.2156 66.6009 72.8824 66.3247C72.6961 66.1719 72.5097 66.0191 72.3177 65.8616C71.3736 64.9716 70.5545 63.9568 69.7101 62.9717C69.6041 74.2088 69.4981 85.446 69.3889 97.0236C66.4206 97.0236 63.4523 97.0236 60.394 97.0236C60.394 89.4969 60.394 81.9701 60.394 74.2153C60.3906 74.2153 60.3872 74.2153 60.3837 74.2153C59.9989 74.2153 59.6498 74.4408 59.4916 74.7916C59.1024 75.5125 58.706 75.9828 58.1281 76.5592C57.9296 76.7587 57.7311 76.9582 57.5266 77.1637C57.2049 77.482 57.2049 77.482 56.8766 77.8067C56.6547 78.0285 56.4328 78.2502 56.2041 78.4787C55.7342 78.9477 55.2635 79.4159 54.7921 79.8833C54.0761 80.5935 53.3627 81.3061 52.6496 82.0192C52.1915 82.4757 51.7333 82.9321 51.2749 83.3883C51.0637 83.5992 50.8525 83.8101 50.6348 84.0273C49.3311 85.3179 47.9865 86.5291 46.5805 87.7075C45.6165 87.2459 44.953 86.7965 44.2063 86.0273C43.9038 85.7195 43.9038 85.7195 43.5952 85.4055C43.3877 85.1912 43.1802 84.9769 42.9665 84.7561C42.5574 84.3357 42.1475 83.9162 41.7367 83.4975C41.5565 83.3115 41.3762 83.1254 41.1905 82.9338C40.5697 82.3359 39.9351 81.7738 39.2825 81.2113C37.8585 79.973 36.5255 78.6572 35.1964 77.3185C34.9505 77.0721 34.7045 76.8258 34.4511 76.5719C33.6748 75.7938 32.8996 75.0146 32.1245 74.2353C31.5946 73.7038 31.0646 73.1724 30.5346 72.641C29.9559 72.0607 29.3773 71.4803 28.799 70.8996C27.5123 69.6079 25.4929 69.1984 24.2116 70.4954C23.8769 70.8318 23.8769 70.8318 23.5354 71.1749C23.178 71.5388 23.178 71.5388 22.8134 71.9101C22.5646 72.1605 22.3158 72.411 22.0595 72.669C21.2636 73.4707 20.4698 74.2745 19.6762 75.0786C18.8871 75.8767 18.0974 76.6743 17.3067 77.471C16.8152 77.9664 16.3246 78.4626 15.835 78.9599C14.5607 80.2459 13.2541 81.4625 11.8826 82.6437C10.7444 83.6525 9.68333 84.7376 8.61463 85.819C8.3766 86.0582 8.13856 86.2975 7.89331 86.544C7.14204 87.2991 6.39182 88.0553 5.64186 88.8118C4.64599 89.8162 3.64908 90.8195 2.65152 91.8222C2.42233 92.0541 2.19314 92.2859 1.957 92.5248C1.74665 92.7362 1.53629 92.9477 1.31957 93.1655C1.134 93.3527 0.948428 93.54 0.757236 93.7329C0.321245 94.1324 0.321245 94.1324 0 94.1324C0 67.5237 0 40.915 0 13.5Z" fill="#0E8474"/>
<path d="M101.49 0.110203C102.715 -0.0782348 103.69 1.04312 103.592 2.27921C103.281 6.20303 102.882 10.1167 102.441 14.0293C102.372 14.6516 102.303 15.2739 102.236 15.8964C102.14 16.785 102.039 17.673 101.936 18.5609C101.894 18.9601 101.894 18.9601 101.851 19.3673C101.656 21.0008 101.32 22.3182 100.55 23.7799C99.4461 24.5156 98.9481 24.4797 97.6584 24.4224C97.1442 23.2534 96.8741 22.1828 96.6947 20.9201C96.6152 20.3713 96.6152 20.3713 96.5341 19.8114C96.4545 19.2415 96.4545 19.2415 96.3734 18.66C96.2939 18.1069 96.2939 18.1069 96.2128 17.5426C96.0503 16.4095 95.8906 15.276 95.7309 14.1425C95.6109 13.2988 95.4902 12.4551 95.3695 11.6115C95.2888 11.0465 95.2888 11.0465 95.2064 10.4701C95.1675 10.1979 95.1286 9.92561 95.0885 9.64512C94.5121 9.62602 94.5121 9.62602 93.9242 9.60653C92.4996 9.55768 91.0755 9.50068 89.6514 9.4412C89.0348 9.41659 88.4181 9.3942 87.8014 9.37407C86.9152 9.34475 86.0295 9.30749 85.1437 9.26866C84.7295 9.25753 84.7295 9.25753 84.307 9.24617C82.4011 9.15157 82.4011 9.15157 81.584 8.40249C81.1532 7.44798 81.1267 6.82747 81.2749 5.79018C81.9531 4.69199 82.39 4.24834 83.6079 3.78695C84.0182 3.69683 84.4285 3.60671 84.8513 3.51386C85.1885 3.43752 85.1885 3.43752 85.5325 3.35964C86.2536 3.19884 86.9762 3.04796 87.6998 2.89898C87.935 2.84927 88.1702 2.79957 88.4126 2.74835C90.0861 2.39508 91.7634 2.06252 93.4421 1.73446C93.9332 1.63754 94.4242 1.5405 94.9153 1.44334C95.8477 1.25889 96.7804 1.07573 97.7133 0.893393C98.9747 0.644078 100.233 0.382681 101.49 0.110203Z" fill="#1D2E50"/>
<path d="M41.7617 87.3867C43.2445 88.6577 44.5893 89.8601 45.9379 91.2417C47.1104 90.7529 47.8198 90.0492 48.6886 89.1335C50.0073 87.7435 50.0073 87.7435 51.0778 87.3867C51.0778 90.567 51.0778 93.7474 51.0778 97.0241C48.0035 97.0241 44.9292 97.0241 41.7617 97.0241C41.7617 93.8437 41.7617 90.6634 41.7617 87.3867Z" fill="#0E8474"/>
<path d="M12.8489 85.7793C12.8489 89.4897 12.8489 93.2 12.8489 97.0229C8.92655 97.0229 5.00415 97.0229 0.962891 97.0229C1.49294 96.4928 2.023 95.9628 2.56911 95.4166C2.92172 95.0613 3.27403 94.7056 3.62594 94.3496C4.67329 93.2909 5.72255 92.2341 6.77251 91.1779C7.22514 90.7221 7.6772 90.2656 8.1287 89.8086C8.78165 89.1479 9.43661 88.4892 10.092 87.831C10.2945 87.6252 10.4969 87.4195 10.7055 87.2075C12.1333 85.7793 12.1333 85.7793 12.8489 85.7793Z" fill="#CFD2D5"/>
<path d="M21.5234 77.6602C21.5234 76.5556 22.4189 75.6602 23.5234 75.6602H28.197C29.3016 75.6602 30.197 76.5556 30.197 77.6602V95.0229C30.197 96.1275 29.3016 97.0229 28.197 97.0229H23.5234C22.4189 97.0229 21.5234 96.1275 21.5234 95.0229V77.6602Z" fill="#CFD2D5"/>
<path d="M136.643 77.3146L124.883 50.3506L122.909 72.4426C122.797 73.5626 123.119 74.4726 123.875 75.1726C124.631 75.8726 125.555 76.2506 126.647 76.3066V76.7266H118.247V76.3066C119.311 76.2506 120.207 75.8586 120.935 75.1306C121.663 74.4026 122.083 73.4926 122.195 72.4006L124.295 49.1746C123.763 48.0826 123.091 47.2286 122.279 46.6126C121.495 45.9686 120.473 45.6466 119.213 45.6466V45.2266H129.293L139.541 68.9566L149.789 45.2266H157.643V45.6466C156.747 45.6466 155.991 45.9126 155.375 46.4446C154.759 46.9766 154.479 47.7046 154.535 48.6286L156.677 73.4926C156.817 74.4446 157.265 75.1586 158.021 75.6346C158.805 76.1106 159.575 76.3486 160.331 76.3486V76.7266H147.311V76.3486C147.787 76.3486 148.277 76.2366 148.781 76.0126C149.285 75.7886 149.691 75.4666 149.999 75.0466C150.335 74.6266 150.461 74.1366 150.377 73.5766L148.319 50.3926L136.643 77.3146ZM169.562 77.2306C167.63 77.2306 165.908 76.7546 164.396 75.8026C162.912 74.8506 161.75 73.5346 160.91 71.8546C160.07 70.1466 159.65 68.2006 159.65 66.0166C159.65 63.7766 160.112 61.8166 161.036 60.1366C161.96 58.4566 163.22 57.1546 164.816 56.2306C166.44 55.2786 168.274 54.8026 170.318 54.8026C172.026 54.8026 173.538 55.1386 174.854 55.8106C176.198 56.4826 177.262 57.4346 178.046 58.6666C178.858 59.8706 179.32 61.2706 179.432 62.8666L179.474 63.4966H165.362V63.7066C165.362 66.6746 166.02 69.0546 167.336 70.8466C168.652 72.6106 170.416 73.4926 172.628 73.4926C173.972 73.4926 175.246 73.1706 176.45 72.5266C177.682 71.8546 178.676 70.9586 179.432 69.8386L179.81 69.9646C179.334 71.3926 178.592 72.6526 177.584 73.7446C176.576 74.8366 175.386 75.6906 174.014 76.3066C172.642 76.9226 171.158 77.2306 169.562 77.2306ZM165.404 62.8666H173.93C173.93 60.6546 173.566 58.8626 172.838 57.4906C172.138 56.1186 171.144 55.4326 169.856 55.4326C168.624 55.4326 167.602 56.1046 166.79 57.4486C165.978 58.7926 165.516 60.5986 165.404 62.8666ZM180.008 76.7266V76.3066H180.05C181.058 76.3066 181.87 75.9986 182.486 75.3826C183.102 74.7666 183.41 73.9546 183.41 72.9466V59.1706C183.41 58.1066 183.186 57.2806 182.738 56.6926C182.318 56.1046 181.408 55.8106 180.008 55.8106V55.3906H184.166C185.65 55.3906 186.77 55.2506 187.526 54.9706C188.282 54.6626 188.814 54.2706 189.122 53.7946H189.332L189.374 60.6826C189.738 59.8426 190.2 58.9606 190.76 58.0366C191.348 57.1126 192.076 56.3426 192.944 55.7266C193.84 55.0826 194.904 54.7606 196.136 54.7606C196.556 54.7606 197.004 54.8026 197.48 54.8866C197.956 54.9706 198.46 55.1246 198.992 55.3486L197.354 60.2626C196.346 59.7026 195.464 59.3106 194.708 59.0866C193.98 58.8626 193.336 58.7506 192.776 58.7506C191.824 58.7506 191.11 59.0446 190.634 59.6326C190.186 60.2206 189.794 60.9206 189.458 61.7326V72.9466C189.458 73.9546 189.766 74.7666 190.382 75.3826C190.998 75.9986 191.81 76.3066 192.818 76.3066H192.86V76.7266H180.008ZM199.081 76.7266V76.3066H199.123C200.131 76.3066 200.943 75.9986 201.559 75.3826C202.175 74.7666 202.483 73.9546 202.483 72.9466V59.1706C202.483 58.1066 202.259 57.2806 201.811 56.6926C201.391 56.1046 200.481 55.8106 199.081 55.8106V55.3906H203.365C204.793 55.3906 205.885 55.2366 206.641 54.9286C207.341 54.6206 207.831 54.2426 208.111 53.7946H208.531V72.9466C208.531 73.9546 208.839 74.7666 209.455 75.3826C210.071 75.9986 210.883 76.3066 211.891 76.3066H211.933V76.7266H199.081ZM205.465 51.1486C204.457 51.1486 203.617 50.8266 202.945 50.1826C202.301 49.5106 201.979 48.6706 201.979 47.6626C201.979 46.6546 202.301 45.8286 202.945 45.1846C203.617 44.5126 204.457 44.1766 205.465 44.1766C206.445 44.1766 207.257 44.5126 207.901 45.1846C208.573 45.8566 208.909 46.6826 208.909 47.6626C208.909 48.6426 208.573 49.4686 207.901 50.1406C207.257 50.8126 206.445 51.1486 205.465 51.1486ZM219.755 77.3146C218.299 77.3146 217.109 76.8526 216.185 75.9286C215.261 75.0046 214.799 73.8006 214.799 72.3166V56.1466H211.229V55.6006C213.161 55.4606 214.883 54.8446 216.395 53.7526C217.935 52.6606 219.195 51.1906 220.175 49.3426H220.847V55.3906H226.433L226.013 56.1466H220.847V71.3926C220.847 73.6326 221.603 74.7526 223.115 74.7526C223.619 74.7526 224.193 74.5986 224.837 74.2906C225.509 73.9826 226.139 73.5766 226.727 73.0726V73.4926C225.803 74.6686 224.711 75.6066 223.451 76.3066C222.191 76.9786 220.959 77.3146 219.755 77.3146ZM226.273 76.7266V76.3066H226.315C227.323 76.3066 228.135 75.9986 228.751 75.3826C229.367 74.7666 229.675 73.9546 229.675 72.9466V59.1706C229.675 58.1066 229.451 57.2806 229.003 56.6926C228.583 56.1046 227.673 55.8106 226.273 55.8106V55.3906H230.431C231.915 55.3906 233.035 55.2506 233.791 54.9706C234.547 54.6626 235.079 54.2706 235.387 53.7946H235.597L235.639 60.6826C236.003 59.8426 236.465 58.9606 237.025 58.0366C237.613 57.1126 238.341 56.3426 239.209 55.7266C240.105 55.0826 241.169 54.7606 242.401 54.7606C242.821 54.7606 243.269 54.8026 243.745 54.8866C244.221 54.9706 244.725 55.1246 245.257 55.3486L243.619 60.2626C242.611 59.7026 241.729 59.3106 240.973 59.0866C240.245 58.8626 239.601 58.7506 239.041 58.7506C238.089 58.7506 237.375 59.0446 236.899 59.6326C236.451 60.2206 236.059 60.9206 235.723 61.7326V72.9466C235.723 73.9546 236.031 74.7666 236.647 75.3826C237.263 75.9986 238.075 76.3066 239.083 76.3066H239.125V76.7266H226.273ZM251.204 77.3146C249.496 77.3146 248.124 76.8526 247.088 75.9286C246.052 75.0046 245.534 73.7866 245.534 72.2746C245.534 71.6306 245.646 71.0286 245.87 70.4686C246.094 69.8806 246.514 69.3066 247.13 68.7466C247.774 68.1866 248.656 67.6126 249.776 67.0246C250.896 66.4086 252.38 65.7646 254.228 65.0926L258.134 63.6646V60.5146C258.134 58.9186 257.882 57.6586 257.378 56.7346C256.874 55.7826 256.174 55.3066 255.278 55.3066C254.214 55.3346 253.304 56.0346 252.548 57.4066C251.82 58.7786 251.33 60.6826 251.078 63.1186L246.542 60.5146C247.018 59.3666 247.746 58.3586 248.726 57.4906C249.706 56.6226 250.826 55.9506 252.086 55.4746C253.374 54.9986 254.718 54.7606 256.118 54.7606C258.498 54.7606 260.43 55.4326 261.914 56.7766C263.426 58.0926 264.182 59.8986 264.182 62.1946V72.3166C264.182 73.9406 264.728 74.7526 265.82 74.7526C266.464 74.7526 267.094 74.4026 267.71 73.7026L268.046 73.9966C267.318 74.9766 266.436 75.7746 265.4 76.3906C264.364 77.0066 263.356 77.3146 262.376 77.3146C261.312 77.3146 260.388 76.9506 259.604 76.2226C258.848 75.4946 258.372 74.5286 258.176 73.3246C256.804 74.7246 255.6 75.7466 254.564 76.3906C253.556 77.0066 252.436 77.3146 251.204 77.3146ZM254.354 74.7106C254.97 74.7106 255.558 74.5566 256.118 74.2486C256.706 73.9406 257.364 73.4366 258.092 72.7366L258.134 64.2106L256.454 64.8406C255.026 65.3726 253.934 65.9186 253.178 66.4786C252.422 67.0106 251.89 67.6126 251.582 68.2846C251.302 68.9566 251.162 69.7266 251.162 70.5946C251.162 71.7986 251.456 72.7926 252.044 73.5766C252.66 74.3326 253.43 74.7106 254.354 74.7106Z" fill="#0E8474"/>
</svg>
