<svg width="512" height="512" viewBox="0 0 512 512" fill="none" xmlns="http://www.w3.org/2000/svg">
<g clip-path="url(#clip0_50_2371)">
<path d="M144.288 229.643C144.288 236.011 144.971 241.163 146.165 244.949C147.531 248.736 149.227 252.864 151.616 257.333C152.469 258.709 152.811 260.085 152.811 261.291C152.811 263.008 151.787 264.725 149.579 266.453L138.848 273.675C137.312 274.709 135.787 275.221 134.421 275.221C132.715 275.221 131.019 274.357 129.312 272.811C126.923 270.229 124.885 267.477 123.179 264.725C121.472 261.803 119.776 258.539 117.899 254.581C104.619 270.4 87.9253 278.315 67.8293 278.315C53.5253 278.315 42.112 274.187 33.7707 265.931C25.4293 257.675 21.1733 246.667 21.1733 232.907C21.1733 218.293 26.2827 206.421 36.672 197.483C47.0613 188.544 60.8533 184.064 78.3893 184.064C84.1813 184.064 90.144 184.576 96.4373 185.44C102.731 186.304 109.205 187.68 116.021 189.227V176.672C116.021 163.605 113.301 154.485 108.021 149.152C102.571 143.819 93.376 141.237 80.2667 141.237C74.304 141.237 68.1813 141.92 61.8773 143.477C55.5733 145.024 49.4507 146.912 43.488 149.323C40.768 150.528 38.72 151.211 37.5253 151.563C36.3307 151.904 35.4773 152.075 34.8053 152.075C32.416 152.075 31.232 150.357 31.232 146.741V138.315C31.232 135.563 31.5733 133.504 32.4267 132.299C33.28 131.093 34.816 129.888 37.1947 128.683C43.1573 125.589 50.304 123.008 58.656 120.939C66.9973 118.699 75.8507 117.675 85.216 117.675C105.483 117.675 120.299 122.315 129.835 131.605C139.2 140.896 143.968 154.997 143.968 173.909V229.632L144.288 229.643ZM75.1467 255.776C80.768 255.776 86.56 254.741 92.6827 252.683C98.816 250.624 104.267 246.837 108.864 241.675C111.584 238.411 113.632 234.795 114.656 230.667C115.68 226.539 116.363 221.547 116.363 215.701V208.48C111.424 207.275 106.144 206.24 100.693 205.557C95.2427 204.875 89.9627 204.523 84.6827 204.523C73.2693 204.523 64.928 206.763 59.3067 211.403C53.6853 216.043 50.9653 222.581 50.9653 231.179C50.9653 239.264 53.0133 245.28 57.2693 249.408C61.3547 253.717 67.3173 255.776 75.1467 255.776ZM211.893 274.357C208.832 274.357 206.784 273.845 205.419 272.64C204.053 271.605 202.869 269.205 201.845 265.931L161.824 132.992C160.8 129.557 160.288 127.317 160.288 126.112C160.288 123.36 161.653 121.813 164.373 121.813H181.067C184.299 121.813 186.517 122.325 187.712 123.531C189.077 124.565 190.091 126.965 191.115 130.24L219.723 244.096L246.283 130.24C247.136 126.805 248.16 124.565 249.515 123.531C250.88 122.496 253.259 121.813 256.331 121.813H269.952C273.184 121.813 275.403 122.325 276.768 123.531C278.133 124.565 279.317 126.965 280 130.24L306.901 245.472L336.363 130.24C337.387 126.805 338.581 124.565 339.765 123.531C341.131 122.496 343.339 121.813 346.411 121.813H362.251C364.971 121.813 366.507 123.189 366.507 126.112C366.507 126.976 366.336 127.829 366.165 128.864C365.995 129.899 365.653 131.275 364.971 133.163L323.936 266.101C322.912 269.536 321.717 271.776 320.363 272.811C319.008 273.845 316.789 274.528 313.888 274.528H299.243C296.011 274.528 293.792 274.016 292.427 272.811C291.061 271.605 289.877 269.376 289.195 265.931L262.805 154.997L236.587 265.76C235.733 269.195 234.709 271.435 233.355 272.64C231.989 273.845 229.611 274.357 226.539 274.357H211.893ZM430.709 278.997C421.856 278.997 413.003 277.963 404.491 275.904C395.979 273.845 389.333 271.605 384.907 269.024C382.187 267.477 380.309 265.76 379.627 264.213C378.944 262.667 378.603 260.949 378.603 259.403V250.635C378.603 247.019 379.968 245.301 382.517 245.301C383.541 245.301 384.565 245.472 385.579 245.813C386.603 246.155 388.128 246.848 389.835 247.531C395.627 250.112 401.92 252.171 408.565 253.547C415.381 254.923 422.016 255.605 428.832 255.605C439.563 255.605 447.904 253.717 453.696 249.931C459.488 246.144 462.549 240.64 462.549 233.589C462.549 228.779 461.013 224.821 457.952 221.547C454.891 218.283 449.099 215.36 440.757 212.608L416.064 204.864C403.637 200.907 394.443 195.061 388.821 187.317C383.2 179.755 380.309 171.328 380.309 162.379C380.309 155.157 381.845 148.789 384.907 143.285C387.968 137.781 392.064 132.971 397.163 129.184C402.272 125.227 408.064 122.304 414.869 120.245C421.685 118.197 428.832 117.333 436.331 117.333C440.075 117.333 443.989 117.504 447.744 118.016C451.659 118.528 455.232 119.221 458.816 119.904C462.219 120.768 465.461 121.621 468.523 122.656C471.584 123.691 473.973 124.715 475.68 125.749C478.069 127.125 479.765 128.501 480.789 130.048C481.813 131.424 482.325 133.312 482.325 135.723V143.808C482.325 147.424 480.96 149.312 478.411 149.312C477.045 149.312 474.837 148.629 471.936 147.253C462.229 142.784 451.328 140.544 439.243 140.544C429.536 140.544 421.877 142.091 416.597 145.355C411.317 148.619 408.597 153.611 408.597 160.661C408.597 165.472 410.304 169.6 413.707 172.875C417.109 176.139 423.413 179.413 432.437 182.336L456.619 190.08C468.875 194.037 477.739 199.541 483.008 206.592C488.277 213.643 490.837 221.728 490.837 230.667C490.837 238.059 489.301 244.768 486.411 250.613C483.349 256.459 479.253 261.621 473.984 265.749C468.704 270.048 462.4 273.141 455.083 275.381C447.392 277.792 439.392 278.997 430.709 278.997Z" fill="#252F3E"/>
<path d="M462.891 362.581C406.87 404.373 325.472 426.56 255.478 426.56C157.398 426.56 69.0136 389.931 2.26157 329.045C-3.01843 324.235 1.74957 317.696 8.05357 321.483C80.2562 363.787 169.312 389.419 261.44 389.419C323.595 389.419 391.883 376.352 454.71 349.515C464.086 345.216 472.086 355.701 462.891 362.581ZM486.219 335.755C479.062 326.464 438.88 331.285 420.662 333.515C415.211 334.197 414.358 329.387 419.296 325.771C451.307 303.072 503.926 309.6 510.059 317.173C516.192 324.917 508.352 378.059 478.39 403.509C473.792 407.467 469.366 405.397 471.403 400.245C478.219 383.221 493.376 344.864 486.219 335.755Z" fill="#FF9900"/>
</g>
<defs>
<clipPath id="clip0_50_2371">
<rect width="512" height="512" fill="white"/>
</clipPath>
</defs>
</svg>
