<svg width="277" height="76" viewBox="0 0 277 76" fill="none" xmlns="http://www.w3.org/2000/svg">
<path d="M16.2169 0.0165167C16.8492 0.021562 17.4814 0.025396 18.1137 0.0280845C19.7607 0.0382806 21.4071 0.0646881 23.0538 0.0947329C25.0388 0.127472 27.0239 0.139621 29.0091 0.155309C32.0096 0.181283 35.0086 0.23304 38.0092 0.279982C38.0092 4.98586 38.0092 9.69173 38.0092 14.5402C30.1237 14.5402 22.2382 14.5402 14.1137 14.5402C14.1137 21.2811 14.1137 28.0219 14.1137 34.967C9.53501 34.967 4.95632 34.967 0.238884 34.967C0.17705 28.7579 0.17705 28.7579 0.163608 26.0943C0.154422 24.2826 0.1436 22.471 0.122583 20.6595C0.10573 19.1975 0.0965923 17.7358 0.0926164 16.2738C0.089786 15.7183 0.0842593 15.1629 0.0758852 14.6075C0.0202079 10.7588 0.340997 7.51369 2.91268 4.47133C6.86921 0.412364 10.8784 -0.110358 16.2169 0.0165167Z" fill="#7C2CF7"/>
<path d="M43.4062 0.665842C50.2578 0.604008 50.2578 0.604008 53.2004 0.590566C55.2006 0.581385 57.2007 0.570578 59.2009 0.549541C60.8152 0.53267 62.4295 0.523547 64.0439 0.519575C64.6568 0.516748 65.2697 0.511228 65.8825 0.502844C70.4046 0.443495 74.726 0.709184 78.1549 4.02802C81.2079 7.80484 81.9578 11.4585 81.8255 16.2238C81.8204 16.7691 81.8166 17.3144 81.8139 17.8598C81.8037 19.2755 81.7773 20.6905 81.7472 22.106C81.7144 23.8147 81.7023 25.5237 81.6867 27.2327C81.6607 29.8115 81.609 32.3886 81.562 34.9675C76.8561 34.9675 72.1502 34.9675 67.3018 34.9675C67.3018 28.2266 67.3018 21.4858 67.3018 14.5407C59.4162 14.5407 51.5307 14.5407 43.4062 14.5407C43.4062 9.96197 43.4062 5.38328 43.4062 0.665842Z" fill="#131C47"/>
<path d="M67.3018 40.748C72.0076 40.748 76.7135 40.748 81.562 40.748C81.6238 46.7493 81.6238 46.7493 81.6373 49.328C81.6464 51.0804 81.6572 52.8327 81.6783 54.585C81.6952 55.9995 81.7043 57.4138 81.7083 58.8283C81.7111 59.3652 81.7166 59.902 81.725 60.4388C81.7876 64.6132 81.3347 68.0976 78.4787 71.316C78.2243 71.6166 77.97 71.9171 77.7079 72.2268C73.8938 75.1817 69.8418 75.3158 65.2362 75.2379C64.6034 75.2343 63.9706 75.2315 63.3377 75.2296C61.6877 75.2223 60.038 75.2034 58.3881 75.182C56.4002 75.1586 54.4122 75.1499 52.4242 75.1387C49.418 75.1202 46.4125 75.0832 43.4062 75.0497C43.4062 70.5982 43.4062 66.1467 43.4062 61.5603C51.2918 61.5603 59.1773 61.5603 67.3018 61.5603C67.3018 54.6922 67.3018 47.8242 67.3018 40.748Z" fill="#131B46"/>
<path d="M0.239245 40.748C4.81793 40.748 9.39662 40.748 14.1141 40.748C14.1141 47.6161 14.1141 54.4841 14.1141 61.5603C21.9996 61.5603 29.8851 61.5603 38.0096 61.5603C38.0096 66.0118 38.0096 70.4633 38.0096 75.0497C31.0464 75.1115 31.0464 75.1115 28.0596 75.1249C26.0281 75.1341 23.9966 75.145 21.9651 75.166C20.3258 75.1828 18.6866 75.192 17.0471 75.1959C16.4242 75.1988 15.8013 75.2043 15.1785 75.2127C10.6154 75.2715 6.70528 74.9444 3.24901 71.6358C0.311956 68.1582 -0.0864723 64.5359 0.0134182 60.1692C0.0177433 59.6055 0.0210293 59.0418 0.0233334 58.4781C0.0320687 57.0104 0.0547001 55.5434 0.0804606 54.0759C0.108535 52.3067 0.118938 50.5373 0.132383 48.7679C0.154638 46.0943 0.199005 43.4218 0.239245 40.748Z" fill="#7B2BF5"/>
<path d="M29.0246 20.3946C30.4382 21.1681 31.0634 21.6111 31.843 23.0202C31.844 23.5984 31.8348 24.1766 31.8189 24.7546C31.9703 27.7119 34.557 29.5313 36.6099 31.3984C37.8222 32.3359 38.791 32.7544 40.322 32.6796C41.2101 32.6397 41.7763 32.6216 42.6119 32.9461C43.484 33.1401 43.484 33.1401 44.3312 32.3875C45.7976 30.9822 45.7976 30.9822 47.2594 29.5722C47.6489 29.2543 48.0384 28.9363 48.4397 28.6087C49.3854 27.3885 49.3665 26.5329 49.459 25.0286C49.6905 23.2812 50.8064 22.1975 51.9566 20.9486C53.4938 20.0605 54.7744 20.0714 56.5093 20.3223C57.8559 20.7961 58.5889 21.2224 59.5444 22.2735C60.1865 23.9502 60.236 25.4879 59.978 27.2598C59.186 28.8437 58.5376 29.7035 56.8947 30.343C56.221 30.3786 55.546 30.3931 54.8713 30.3912C52.62 30.5535 51.6638 31.3555 50.2042 33.0168C49.9955 33.2792 49.7869 33.5415 49.5719 33.8117C48.4938 35.167 47.4945 36.2369 46.1032 37.2805C46.4553 39.3624 47.9332 40.5398 49.3551 42.0017C49.6152 42.2889 49.8753 42.5761 50.1432 42.8719C51.6594 44.4532 51.6594 44.4532 53.6747 45.1517C54.6937 45.1509 54.6937 45.1509 55.6528 45.0302C57.0712 44.9615 57.8039 45.6118 58.8218 46.5303C59.9654 47.9027 60.1629 49.0652 60.0879 50.8C59.8576 52.352 59.0497 53.2264 58.0028 54.3349C56.4993 55.2501 55.1816 55.522 53.426 55.3948C51.5506 54.5102 50.5226 53.3716 49.5719 51.5407C49.5436 51.0657 49.5152 50.5908 49.4861 50.1014C49.1921 47.4759 47.2208 45.8622 45.3474 44.1697C43.4033 42.6393 41.8378 42.3835 39.3555 42.6235C36.9684 43.4005 35.6862 45.0092 34.1554 46.9157C33.6323 47.4031 33.6323 47.4031 33.0986 47.9003C32.1625 48.9141 32.0166 49.218 32.0357 50.5531C31.9249 52.5041 31.3214 53.2854 29.9159 54.624C27.7461 55.3473 25.6416 55.3707 23.5807 54.359C22.0386 52.9674 21.3781 51.9316 21.2441 49.8545C21.3043 47.8574 22.0678 46.8553 23.3639 45.3741C24.1347 44.9887 24.1347 44.9887 25.0892 45.1543C26.9075 45.4115 28.3712 45.4646 29.9842 44.4727C30.8822 43.785 31.7134 43.0611 32.5415 42.2908C32.8158 42.0413 33.0901 41.7919 33.3727 41.5348C34.5541 40.3604 35.4843 39.371 35.6489 37.6659C35.4439 35.6387 34.0938 34.3968 32.686 33.0409C32.4235 32.7822 32.1609 32.5234 31.8904 32.2568C30.7096 31.1655 29.8707 30.4307 28.2975 30.0254C27.2256 30.0588 27.2256 30.0588 26.2063 30.2346C24.6094 30.4238 23.8379 29.7609 22.5931 28.8014C21.3546 27.4031 21.2352 26.0656 21.3014 24.2593C21.5805 22.5004 22.5267 21.4595 23.8698 20.3705C25.7214 19.5954 27.1414 19.7882 29.0246 20.3946Z" fill="#7E31F0"/>
<path d="M113.256 58.5996L113.298 58.1796H113.34C114.348 58.1796 115.16 57.9136 115.776 57.3816C116.392 56.8496 116.7 56.0796 116.7 55.0716V30.8796C116.7 29.8716 116.392 29.0596 115.776 28.4436C115.16 27.8276 114.348 27.5196 113.34 27.5196L113.298 27.0996H135.81L137.07 35.5416H136.65C135.81 30.2776 132.492 27.6456 126.696 27.6456H123.168V39.7836H126.948C128.348 39.7836 129.468 39.3636 130.308 38.5236C131.148 37.6556 131.568 36.5216 131.568 35.1216H131.988V45.4536H131.568C131.54 43.9416 131.064 42.7096 130.14 41.7576C129.216 40.8056 127.998 40.3296 126.486 40.3296H123.168V55.0716C123.168 57.0596 124.148 58.0536 126.108 58.0536H127.872C130.588 58.0536 132.744 57.3536 134.34 55.9536C135.936 54.5536 136.958 52.3556 137.406 49.3596H137.826L136.566 58.5996H113.256ZM147.516 59.2716L139.158 39.9516C138.878 39.3076 138.5 38.7756 138.024 38.3556C137.576 37.9356 136.946 37.7116 136.134 37.6836V37.2636H147.894V37.6836C146.914 37.7956 146.27 38.2296 145.962 38.9856C145.682 39.7416 145.78 40.6936 146.256 41.8416L150.582 51.9636L154.866 42.0936C155.146 41.4496 155.286 40.8196 155.286 40.2036C155.286 39.5036 155.076 38.9296 154.656 38.4816C154.236 38.0336 153.648 37.7676 152.892 37.6836V37.2636H159.528V37.6836C158.8 37.8516 158.1 38.2716 157.428 38.9436C156.756 39.6156 156.154 40.5396 155.622 41.7156L147.894 59.2716H147.516ZM169.249 59.1876C166.953 59.1876 164.937 58.7256 163.201 57.8016C161.493 56.8776 160.163 55.5756 159.211 53.8956C158.259 52.2156 157.783 50.2276 157.783 47.9316C157.783 45.6356 158.259 43.6476 159.211 41.9676C160.163 40.2876 161.493 38.9856 163.201 38.0616C164.937 37.1376 166.953 36.6756 169.249 36.6756C171.545 36.6756 173.547 37.1376 175.255 38.0616C176.963 38.9856 178.293 40.2876 179.245 41.9676C180.197 43.6476 180.673 45.6356 180.673 47.9316C180.673 50.2276 180.197 52.2156 179.245 53.8956C178.293 55.5756 176.963 56.8776 175.255 57.8016C173.547 58.7256 171.545 59.1876 169.249 59.1876ZM169.207 58.6416C170.187 58.6416 171.027 58.1516 171.727 57.1716C172.427 56.1916 172.973 54.8896 173.365 53.2656C173.757 51.6136 173.953 49.8216 173.953 47.8896C173.953 45.7896 173.743 43.9416 173.323 42.3456C172.931 40.7216 172.371 39.4616 171.643 38.5656C170.943 37.6416 170.145 37.1796 169.249 37.1796C168.297 37.1796 167.457 37.6696 166.729 38.6496C166.029 39.6296 165.483 40.9316 165.091 42.5556C164.699 44.1796 164.503 45.9576 164.503 47.8896C164.503 50.0176 164.713 51.8936 165.133 53.5176C165.553 55.1416 166.113 56.4016 166.813 57.2976C167.541 58.1936 168.339 58.6416 169.207 58.6416ZM181.258 58.5996V58.1796H181.3C182.308 58.1796 183.12 57.8716 183.736 57.2556C184.352 56.6396 184.66 55.8276 184.66 54.8196V41.0436C184.66 39.9796 184.436 39.1536 183.988 38.5656C183.568 37.9776 182.658 37.6836 181.258 37.6836V37.2636H185.416C186.564 37.2636 187.446 37.2076 188.062 37.0956C188.706 36.9836 189.182 36.8436 189.49 36.6756C189.798 36.4796 190.022 36.2836 190.162 36.0876H190.582L190.624 41.5476C191.352 40.0916 192.458 38.9156 193.942 38.0196C195.426 37.1236 196.994 36.6756 198.646 36.6756C200.242 36.6756 201.572 37.1236 202.636 38.0196C203.7 38.9156 204.386 40.1196 204.694 41.6316C205.478 40.1196 206.598 38.9156 208.054 38.0196C209.538 37.1236 211.134 36.6756 212.842 36.6756C214.718 36.6756 216.216 37.2916 217.336 38.5236C218.484 39.7556 219.058 41.3796 219.058 43.3956V54.8196C219.058 55.8276 219.366 56.6396 219.982 57.2556C220.598 57.8716 221.41 58.1796 222.418 58.1796H222.46V58.5996H209.65V58.1796H209.692C210.7 58.1796 211.512 57.8716 212.128 57.2556C212.744 56.6396 213.052 55.8276 213.052 54.8196V42.9756C213.052 41.5756 212.772 40.4556 212.212 39.6156C211.652 38.7756 210.924 38.3556 210.028 38.3556C209.16 38.3556 208.25 38.7476 207.298 39.5316C206.346 40.2876 205.52 41.2816 204.82 42.5136C204.848 42.5696 204.862 42.6396 204.862 42.7236C204.862 42.8076 204.862 42.8776 204.862 42.9336V54.8196C204.862 55.8276 205.17 56.6396 205.786 57.2556C206.402 57.8716 207.214 58.1796 208.222 58.1796H208.264V58.5996H195.454V58.1796H195.496C196.504 58.1796 197.316 57.8716 197.932 57.2556C198.548 56.6396 198.856 55.8276 198.856 54.8196V42.9756C198.856 41.5756 198.576 40.4556 198.016 39.6156C197.484 38.7756 196.77 38.3556 195.874 38.3556C195.006 38.3556 194.096 38.7336 193.144 39.4896C192.22 40.2176 191.408 41.2116 190.708 42.4716V54.8196C190.708 55.8276 191.016 56.6396 191.632 57.2556C192.248 57.8716 193.06 58.1796 194.068 58.1796H194.11V58.5996H181.258ZM221.987 58.5996V58.1796H222.029C223.037 58.1796 223.849 57.8716 224.465 57.2556C225.081 56.6396 225.389 55.8276 225.389 54.8196V41.0436C225.389 39.9796 225.165 39.1536 224.717 38.5656C224.297 37.9776 223.387 37.6836 221.987 37.6836V37.2636H226.271C227.699 37.2636 228.791 37.1096 229.547 36.8016C230.247 36.4936 230.737 36.1156 231.017 35.6676H231.437V54.8196C231.437 55.8276 231.745 56.6396 232.361 57.2556C232.977 57.8716 233.789 58.1796 234.797 58.1796H234.839V58.5996H221.987ZM228.371 33.0216C227.363 33.0216 226.523 32.6996 225.851 32.0556C225.207 31.3836 224.885 30.5436 224.885 29.5356C224.885 28.5276 225.207 27.7016 225.851 27.0576C226.523 26.3856 227.363 26.0496 228.371 26.0496C229.351 26.0496 230.163 26.3856 230.807 27.0576C231.479 27.7296 231.815 28.5556 231.815 29.5356C231.815 30.5156 231.479 31.3416 230.807 32.0136C230.163 32.6856 229.351 33.0216 228.371 33.0216ZM234.414 58.5996V58.1796H234.456C235.464 58.1796 236.276 57.8716 236.892 57.2556C237.508 56.6396 237.816 55.8276 237.816 54.8196V41.0436C237.816 39.9796 237.592 39.1536 237.144 38.5656C236.724 37.9776 235.814 37.6836 234.414 37.6836V37.2636H238.572C240.056 37.2636 241.176 37.1236 241.932 36.8436C242.688 36.5356 243.22 36.1436 243.528 35.6676H243.738L243.78 42.5556C244.144 41.7156 244.606 40.8336 245.166 39.9096C245.754 38.9856 246.482 38.2156 247.35 37.5996C248.246 36.9556 249.31 36.6336 250.542 36.6336C250.962 36.6336 251.41 36.6756 251.886 36.7596C252.362 36.8436 252.866 36.9976 253.398 37.2216L251.76 42.1356C250.752 41.5756 249.87 41.1836 249.114 40.9596C248.386 40.7356 247.742 40.6236 247.182 40.6236C246.23 40.6236 245.516 40.9176 245.04 41.5056C244.592 42.0936 244.2 42.7936 243.864 43.6056V54.8196C243.864 55.8276 244.172 56.6396 244.788 57.2556C245.404 57.8716 246.216 58.1796 247.224 58.1796H247.266V58.5996H234.414ZM259.345 59.1876C257.637 59.1876 256.265 58.7256 255.229 57.8016C254.193 56.8776 253.675 55.6596 253.675 54.1476C253.675 53.5036 253.787 52.9016 254.011 52.3416C254.235 51.7536 254.655 51.1796 255.271 50.6196C255.915 50.0596 256.797 49.4856 257.917 48.8976C259.037 48.2816 260.521 47.6376 262.369 46.9656L266.275 45.5376V42.3876C266.275 40.7916 266.023 39.5316 265.519 38.6076C265.015 37.6556 264.315 37.1796 263.419 37.1796C262.355 37.2076 261.445 37.9076 260.689 39.2796C259.961 40.6516 259.471 42.5556 259.219 44.9916L254.683 42.3876C255.159 41.2396 255.887 40.2316 256.867 39.3636C257.847 38.4956 258.967 37.8236 260.227 37.3476C261.515 36.8716 262.859 36.6336 264.259 36.6336C266.639 36.6336 268.571 37.3056 270.055 38.6496C271.567 39.9656 272.323 41.7716 272.323 44.0676V54.1896C272.323 55.8136 272.869 56.6256 273.961 56.6256C274.605 56.6256 275.235 56.2756 275.851 55.5756L276.187 55.8696C275.459 56.8496 274.577 57.6476 273.541 58.2636C272.505 58.8796 271.497 59.1876 270.517 59.1876C269.453 59.1876 268.529 58.8236 267.745 58.0956C266.989 57.3676 266.513 56.4016 266.317 55.1976C264.945 56.5976 263.741 57.6196 262.705 58.2636C261.697 58.8796 260.577 59.1876 259.345 59.1876ZM262.495 56.5836C263.111 56.5836 263.699 56.4296 264.259 56.1216C264.847 55.8136 265.505 55.3096 266.233 54.6096L266.275 46.0836L264.595 46.7136C263.167 47.2456 262.075 47.7916 261.319 48.3516C260.563 48.8836 260.031 49.4856 259.723 50.1576C259.443 50.8296 259.303 51.5996 259.303 52.4676C259.303 53.6716 259.597 54.6656 260.185 55.4496C260.801 56.2056 261.571 56.5836 262.495 56.5836Z" fill="#08384F"/>
</svg>
