<svg width="261" height="76" viewBox="0 0 261 76" fill="none" xmlns="http://www.w3.org/2000/svg">
<path d="M16.2169 0.0165167C16.8492 0.021562 17.4814 0.025396 18.1137 0.0280845C19.7607 0.0382806 21.4071 0.0646881 23.0538 0.0947329C25.0388 0.127472 27.0239 0.139621 29.0091 0.155309C32.0096 0.181283 35.0086 0.23304 38.0092 0.279982C38.0092 4.98586 38.0092 9.69173 38.0092 14.5402C30.1237 14.5402 22.2382 14.5402 14.1137 14.5402C14.1137 21.2811 14.1137 28.0219 14.1137 34.967C9.53501 34.967 4.95632 34.967 0.238884 34.967C0.17705 28.7579 0.17705 28.7579 0.163608 26.0943C0.154422 24.2826 0.1436 22.471 0.122583 20.6595C0.10573 19.1975 0.0965923 17.7358 0.0926164 16.2738C0.089786 15.7183 0.0842593 15.1629 0.0758852 14.6075C0.0202079 10.7588 0.340997 7.51369 2.91268 4.47133C6.86921 0.412364 10.8784 -0.110358 16.2169 0.0165167Z" fill="#7C2CF7"/>
<path d="M43.4062 0.665842C50.2578 0.604008 50.2578 0.604008 53.2004 0.590566C55.2006 0.581385 57.2007 0.570578 59.2009 0.549541C60.8152 0.53267 62.4295 0.523547 64.0439 0.519575C64.6568 0.516748 65.2697 0.511228 65.8825 0.502844C70.4046 0.443495 74.726 0.709184 78.1549 4.02802C81.2079 7.80484 81.9578 11.4585 81.8255 16.2238C81.8204 16.7691 81.8166 17.3144 81.8139 17.8598C81.8037 19.2755 81.7773 20.6905 81.7472 22.106C81.7144 23.8147 81.7023 25.5237 81.6867 27.2327C81.6607 29.8115 81.609 32.3886 81.562 34.9675C76.8561 34.9675 72.1502 34.9675 67.3018 34.9675C67.3018 28.2266 67.3018 21.4858 67.3018 14.5407C59.4162 14.5407 51.5307 14.5407 43.4062 14.5407C43.4062 9.96197 43.4062 5.38328 43.4062 0.665842Z" fill="#131C47"/>
<path d="M67.3018 40.748C72.0076 40.748 76.7135 40.748 81.562 40.748C81.6238 46.7493 81.6238 46.7493 81.6373 49.328C81.6464 51.0804 81.6572 52.8327 81.6783 54.585C81.6952 55.9995 81.7043 57.4138 81.7083 58.8283C81.7111 59.3652 81.7166 59.902 81.725 60.4388C81.7876 64.6132 81.3347 68.0976 78.4787 71.316C78.2243 71.6166 77.97 71.9171 77.7079 72.2268C73.8938 75.1817 69.8418 75.3158 65.2362 75.2379C64.6034 75.2343 63.9706 75.2315 63.3377 75.2296C61.6877 75.2223 60.038 75.2034 58.3881 75.182C56.4002 75.1586 54.4122 75.1499 52.4242 75.1387C49.418 75.1202 46.4125 75.0832 43.4062 75.0497C43.4062 70.5982 43.4062 66.1467 43.4062 61.5603C51.2918 61.5603 59.1773 61.5603 67.3018 61.5603C67.3018 54.6922 67.3018 47.8242 67.3018 40.748Z" fill="#131B46"/>
<path d="M0.239245 40.748C4.81793 40.748 9.39662 40.748 14.1141 40.748C14.1141 47.6161 14.1141 54.4841 14.1141 61.5603C21.9996 61.5603 29.8851 61.5603 38.0096 61.5603C38.0096 66.0118 38.0096 70.4633 38.0096 75.0497C31.0464 75.1115 31.0464 75.1115 28.0596 75.1249C26.0281 75.1341 23.9966 75.145 21.9651 75.166C20.3258 75.1828 18.6866 75.192 17.0471 75.1959C16.4242 75.1988 15.8013 75.2043 15.1785 75.2127C10.6154 75.2715 6.70528 74.9444 3.24901 71.6358C0.311956 68.1582 -0.0864723 64.5359 0.0134182 60.1692C0.0177433 59.6055 0.0210293 59.0418 0.0233334 58.4781C0.0320687 57.0104 0.0547001 55.5434 0.0804606 54.0759C0.108535 52.3067 0.118938 50.5373 0.132383 48.7679C0.154638 46.0943 0.199005 43.4218 0.239245 40.748Z" fill="#7B2BF5"/>
<path d="M29.0246 20.3946C30.4382 21.1681 31.0634 21.6111 31.843 23.0202C31.844 23.5984 31.8348 24.1766 31.8189 24.7546C31.9703 27.7119 34.557 29.5313 36.6099 31.3984C37.8222 32.3359 38.791 32.7544 40.322 32.6796C41.2101 32.6397 41.7763 32.6216 42.6119 32.9461C43.484 33.1401 43.484 33.1401 44.3312 32.3875C45.7976 30.9822 45.7976 30.9822 47.2594 29.5722C47.6489 29.2543 48.0384 28.9363 48.4397 28.6087C49.3854 27.3885 49.3665 26.5329 49.459 25.0286C49.6905 23.2812 50.8064 22.1975 51.9566 20.9486C53.4938 20.0605 54.7744 20.0714 56.5093 20.3223C57.8559 20.7961 58.5889 21.2224 59.5444 22.2735C60.1865 23.9502 60.236 25.4879 59.978 27.2598C59.186 28.8437 58.5376 29.7035 56.8947 30.343C56.221 30.3786 55.546 30.3931 54.8713 30.3912C52.62 30.5535 51.6638 31.3555 50.2042 33.0168C49.9955 33.2792 49.7869 33.5415 49.5719 33.8117C48.4938 35.167 47.4945 36.2369 46.1032 37.2805C46.4553 39.3624 47.9332 40.5398 49.3551 42.0017C49.6152 42.2889 49.8753 42.5761 50.1432 42.8719C51.6594 44.4532 51.6594 44.4532 53.6747 45.1517C54.6937 45.1509 54.6937 45.1509 55.6528 45.0302C57.0712 44.9615 57.8039 45.6118 58.8218 46.5303C59.9654 47.9027 60.1629 49.0652 60.0879 50.8C59.8576 52.352 59.0497 53.2264 58.0028 54.3349C56.4993 55.2501 55.1816 55.522 53.426 55.3948C51.5506 54.5102 50.5226 53.3716 49.5719 51.5407C49.5436 51.0657 49.5152 50.5908 49.4861 50.1014C49.1921 47.4759 47.2208 45.8622 45.3474 44.1697C43.4033 42.6393 41.8378 42.3835 39.3555 42.6235C36.9684 43.4005 35.6862 45.0092 34.1554 46.9157C33.6323 47.4031 33.6323 47.4031 33.0986 47.9003C32.1625 48.9141 32.0166 49.218 32.0357 50.5531C31.9249 52.5041 31.3214 53.2854 29.9159 54.624C27.7461 55.3473 25.6416 55.3707 23.5807 54.359C22.0386 52.9674 21.3781 51.9316 21.2441 49.8545C21.3043 47.8574 22.0678 46.8553 23.3639 45.3741C24.1347 44.9887 24.1347 44.9887 25.0892 45.1543C26.9075 45.4115 28.3712 45.4646 29.9842 44.4727C30.8822 43.785 31.7134 43.0611 32.5415 42.2908C32.8158 42.0413 33.0901 41.7919 33.3727 41.5348C34.5541 40.3604 35.4843 39.371 35.6489 37.6659C35.4439 35.6387 34.0938 34.3968 32.686 33.0409C32.4235 32.7822 32.1609 32.5234 31.8904 32.2568C30.7096 31.1655 29.8707 30.4307 28.2975 30.0254C27.2256 30.0588 27.2256 30.0588 26.2063 30.2346C24.6094 30.4238 23.8379 29.7609 22.5931 28.8014C21.3546 27.4031 21.2352 26.0656 21.3014 24.2593C21.5805 22.5004 22.5267 21.4595 23.8698 20.3705C25.7214 19.5954 27.1414 19.7882 29.0246 20.3946Z" fill="#7E31F0"/>
<path d="M97.336 59L97.378 58.58H97.42C98.428 58.58 99.24 58.314 99.856 57.782C100.472 57.25 100.78 56.48 100.78 55.472V31.28C100.78 30.272 100.472 29.46 99.856 28.844C99.24 28.228 98.428 27.92 97.42 27.92L97.378 27.5H119.89L121.15 35.942H120.73C119.89 30.678 116.572 28.046 110.776 28.046H107.248V40.184H111.028C112.428 40.184 113.548 39.764 114.388 38.924C115.228 38.056 115.648 36.922 115.648 35.522H116.068V45.854H115.648C115.62 44.342 115.144 43.11 114.22 42.158C113.296 41.206 112.078 40.73 110.566 40.73H107.248V55.472C107.248 57.46 108.228 58.454 110.188 58.454H111.952C114.668 58.454 116.824 57.754 118.42 56.354C120.016 54.954 121.038 52.756 121.486 49.76H121.906L120.646 59H97.336ZM131.597 59.672L123.239 40.352C122.959 39.708 122.581 39.176 122.105 38.756C121.657 38.336 121.027 38.112 120.215 38.084V37.664H131.975V38.084C130.995 38.196 130.351 38.63 130.043 39.386C129.763 40.142 129.861 41.094 130.337 42.242L134.663 52.364L138.947 42.494C139.227 41.85 139.367 41.22 139.367 40.604C139.367 39.904 139.157 39.33 138.737 38.882C138.317 38.434 137.729 38.168 136.973 38.084V37.664H143.609V38.084C142.881 38.252 142.181 38.672 141.509 39.344C140.837 40.016 140.235 40.94 139.703 42.116L131.975 59.672H131.597ZM153.33 59.588C151.034 59.588 149.018 59.126 147.282 58.202C145.574 57.278 144.244 55.976 143.292 54.296C142.34 52.616 141.864 50.628 141.864 48.332C141.864 46.036 142.34 44.048 143.292 42.368C144.244 40.688 145.574 39.386 147.282 38.462C149.018 37.538 151.034 37.076 153.33 37.076C155.626 37.076 157.628 37.538 159.336 38.462C161.044 39.386 162.374 40.688 163.326 42.368C164.278 44.048 164.754 46.036 164.754 48.332C164.754 50.628 164.278 52.616 163.326 54.296C162.374 55.976 161.044 57.278 159.336 58.202C157.628 59.126 155.626 59.588 153.33 59.588ZM153.288 59.042C154.268 59.042 155.108 58.552 155.808 57.572C156.508 56.592 157.054 55.29 157.446 53.666C157.838 52.014 158.034 50.222 158.034 48.29C158.034 46.19 157.824 44.342 157.404 42.746C157.012 41.122 156.452 39.862 155.724 38.966C155.024 38.042 154.226 37.58 153.33 37.58C152.378 37.58 151.538 38.07 150.81 39.05C150.11 40.03 149.564 41.332 149.172 42.956C148.78 44.58 148.584 46.358 148.584 48.29C148.584 50.418 148.794 52.294 149.214 53.918C149.634 55.542 150.194 56.802 150.894 57.698C151.622 58.594 152.42 59.042 153.288 59.042ZM165.338 59V58.58H165.38C166.388 58.58 167.2 58.272 167.816 57.656C168.432 57.04 168.74 56.228 168.74 55.22V41.444C168.74 40.38 168.516 39.554 168.068 38.966C167.648 38.378 166.738 38.084 165.338 38.084V37.664H169.496C170.644 37.664 171.526 37.608 172.142 37.496C172.786 37.384 173.262 37.244 173.57 37.076C173.878 36.88 174.102 36.684 174.242 36.488H174.662L174.704 41.948C175.432 40.492 176.538 39.316 178.022 38.42C179.506 37.524 181.074 37.076 182.726 37.076C184.322 37.076 185.652 37.524 186.716 38.42C187.78 39.316 188.466 40.52 188.774 42.032C189.558 40.52 190.678 39.316 192.134 38.42C193.618 37.524 195.214 37.076 196.922 37.076C198.798 37.076 200.296 37.692 201.416 38.924C202.564 40.156 203.138 41.78 203.138 43.796V55.22C203.138 56.228 203.446 57.04 204.062 57.656C204.678 58.272 205.49 58.58 206.498 58.58H206.54V59H193.73V58.58H193.772C194.78 58.58 195.592 58.272 196.208 57.656C196.824 57.04 197.132 56.228 197.132 55.22V43.376C197.132 41.976 196.852 40.856 196.292 40.016C195.732 39.176 195.004 38.756 194.108 38.756C193.24 38.756 192.33 39.148 191.378 39.932C190.426 40.688 189.6 41.682 188.9 42.914C188.928 42.97 188.942 43.04 188.942 43.124C188.942 43.208 188.942 43.278 188.942 43.334V55.22C188.942 56.228 189.25 57.04 189.866 57.656C190.482 58.272 191.294 58.58 192.302 58.58H192.344V59H179.534V58.58H179.576C180.584 58.58 181.396 58.272 182.012 57.656C182.628 57.04 182.936 56.228 182.936 55.22V43.376C182.936 41.976 182.656 40.856 182.096 40.016C181.564 39.176 180.85 38.756 179.954 38.756C179.086 38.756 178.176 39.134 177.224 39.89C176.3 40.618 175.488 41.612 174.788 42.872V55.22C174.788 56.228 175.096 57.04 175.712 57.656C176.328 58.272 177.14 58.58 178.148 58.58H178.19V59H165.338ZM206.067 59V58.58H206.109C207.117 58.58 207.929 58.272 208.545 57.656C209.161 57.04 209.469 56.228 209.469 55.22V41.444C209.469 40.38 209.245 39.554 208.797 38.966C208.377 38.378 207.467 38.084 206.067 38.084V37.664H210.351C211.779 37.664 212.871 37.51 213.627 37.202C214.327 36.894 214.817 36.516 215.097 36.068H215.517V55.22C215.517 56.228 215.825 57.04 216.441 57.656C217.057 58.272 217.869 58.58 218.877 58.58H218.919V59H206.067ZM212.451 33.422C211.443 33.422 210.603 33.1 209.931 32.456C209.287 31.784 208.965 30.944 208.965 29.936C208.965 28.928 209.287 28.102 209.931 27.458C210.603 26.786 211.443 26.45 212.451 26.45C213.431 26.45 214.243 26.786 214.887 27.458C215.559 28.13 215.895 28.956 215.895 29.936C215.895 30.916 215.559 31.742 214.887 32.414C214.243 33.086 213.431 33.422 212.451 33.422ZM218.494 59V58.58H218.536C219.544 58.58 220.356 58.272 220.972 57.656C221.588 57.04 221.896 56.228 221.896 55.22V41.444C221.896 40.38 221.672 39.554 221.224 38.966C220.804 38.378 219.894 38.084 218.494 38.084V37.664H222.652C224.136 37.664 225.256 37.524 226.012 37.244C226.768 36.936 227.3 36.544 227.608 36.068H227.818L227.86 42.956C228.224 42.116 228.686 41.234 229.246 40.31C229.834 39.386 230.562 38.616 231.43 38C232.326 37.356 233.39 37.034 234.622 37.034C235.042 37.034 235.49 37.076 235.966 37.16C236.442 37.244 236.946 37.398 237.478 37.622L235.84 42.536C234.832 41.976 233.95 41.584 233.194 41.36C232.466 41.136 231.822 41.024 231.262 41.024C230.31 41.024 229.596 41.318 229.12 41.906C228.672 42.494 228.28 43.194 227.944 44.006V55.22C227.944 56.228 228.252 57.04 228.868 57.656C229.484 58.272 230.296 58.58 231.304 58.58H231.346V59H218.494ZM243.425 59.588C241.717 59.588 240.345 59.126 239.309 58.202C238.273 57.278 237.755 56.06 237.755 54.548C237.755 53.904 237.867 53.302 238.091 52.742C238.315 52.154 238.735 51.58 239.351 51.02C239.995 50.46 240.877 49.886 241.997 49.298C243.117 48.682 244.601 48.038 246.449 47.366L250.355 45.938V42.788C250.355 41.192 250.103 39.932 249.599 39.008C249.095 38.056 248.395 37.58 247.499 37.58C246.435 37.608 245.525 38.308 244.769 39.68C244.041 41.052 243.551 42.956 243.299 45.392L238.763 42.788C239.239 41.64 239.967 40.632 240.947 39.764C241.927 38.896 243.047 38.224 244.307 37.748C245.595 37.272 246.939 37.034 248.339 37.034C250.719 37.034 252.651 37.706 254.135 39.05C255.647 40.366 256.403 42.172 256.403 44.468V54.59C256.403 56.214 256.949 57.026 258.041 57.026C258.685 57.026 259.315 56.676 259.931 55.976L260.267 56.27C259.539 57.25 258.657 58.048 257.621 58.664C256.585 59.28 255.577 59.588 254.597 59.588C253.533 59.588 252.609 59.224 251.825 58.496C251.069 57.768 250.593 56.802 250.397 55.598C249.025 56.998 247.821 58.02 246.785 58.664C245.777 59.28 244.657 59.588 243.425 59.588ZM246.575 56.984C247.191 56.984 247.779 56.83 248.339 56.522C248.927 56.214 249.585 55.71 250.313 55.01L250.355 46.484L248.675 47.114C247.247 47.646 246.155 48.192 245.399 48.752C244.643 49.284 244.111 49.886 243.803 50.558C243.523 51.23 243.383 52 243.383 52.868C243.383 54.072 243.677 55.066 244.265 55.85C244.881 56.606 245.651 56.984 246.575 56.984Z" fill="#08384F"/>
</svg>
