<svg width="246" height="85" viewBox="0 0 246 85" fill="none" xmlns="http://www.w3.org/2000/svg">
<path d="M98 46L98.084 45.58H98.21C99.218 45.58 100.03 45.272 100.646 44.656C101.262 44.04 101.57 43.228 101.57 42.22V18.28C101.57 17.272 101.262 16.46 100.646 15.844C100.03 15.228 99.218 14.92 98.21 14.92L98.168 14.5H120.638L121.898 22.984H121.52C120.68 17.692 117.348 15.046 111.524 15.046H108.038V27.688H111.314C112.714 27.688 113.834 27.254 114.674 26.386C115.514 25.49 115.934 24.342 115.934 22.942H116.354V33.442H115.934C115.934 31.93 115.472 30.684 114.548 29.704C113.624 28.724 112.406 28.234 110.894 28.234H108.038V42.556C108.038 43.48 108.36 44.222 109.004 44.782C109.648 45.314 110.446 45.58 111.398 45.58L111.44 46H98ZM121.468 46V45.58H121.51C122.518 45.58 123.33 45.272 123.946 44.656C124.562 44.04 124.87 43.228 124.87 42.22V28.444C124.87 27.38 124.646 26.554 124.198 25.966C123.778 25.378 122.868 25.084 121.468 25.084V24.664H125.752C127.18 24.664 128.272 24.51 129.028 24.202C129.728 23.894 130.218 23.516 130.498 23.068H130.918V42.22C130.918 43.228 131.226 44.04 131.842 44.656C132.458 45.272 133.27 45.58 134.278 45.58H134.32V46H121.468ZM127.852 20.422C126.844 20.422 126.004 20.1 125.332 19.456C124.688 18.784 124.366 17.944 124.366 16.936C124.366 15.928 124.688 15.102 125.332 14.458C126.004 13.786 126.844 13.45 127.852 13.45C128.832 13.45 129.644 13.786 130.288 14.458C130.96 15.13 131.296 15.956 131.296 16.936C131.296 17.916 130.96 18.742 130.288 19.414C129.644 20.086 128.832 20.422 127.852 20.422ZM133.895 46V45.58H133.937C134.945 45.58 135.757 45.272 136.373 44.656C136.989 44.04 137.297 43.228 137.297 42.22V28.444C137.297 27.38 137.073 26.554 136.625 25.966C136.205 25.378 135.295 25.084 133.895 25.084V24.664H138.053C139.481 24.664 140.573 24.51 141.329 24.202C142.029 23.894 142.519 23.516 142.799 23.068H143.219L143.261 28.948C143.989 27.492 145.095 26.316 146.579 25.42C148.063 24.524 149.631 24.076 151.283 24.076C153.159 24.076 154.657 24.692 155.777 25.924C156.925 27.156 157.499 28.78 157.499 30.796V42.22C157.499 43.228 157.807 44.04 158.423 44.656C159.039 45.272 159.851 45.58 160.859 45.58H160.901V46H148.091V45.58H148.133C149.141 45.58 149.953 45.272 150.569 44.656C151.185 44.04 151.493 43.228 151.493 42.22V30.376C151.493 28.976 151.213 27.856 150.653 27.016C150.121 26.176 149.407 25.756 148.511 25.756C147.643 25.756 146.733 26.134 145.781 26.89C144.857 27.618 144.045 28.612 143.345 29.872V42.22C143.345 43.228 143.653 44.04 144.269 44.656C144.885 45.272 145.697 45.58 146.705 45.58H146.747V46H133.895ZM161.436 46V45.58L171.684 25.168H168.744C167.148 25.168 165.846 25.672 164.838 26.68C163.858 27.66 163.2 29.242 162.864 31.426H162.36L163.242 24.664H178.026V25.084L167.694 45.454H172.146C173.854 45.454 175.212 44.894 176.22 43.774C177.256 42.654 177.97 40.834 178.362 38.314H178.866L177.816 46H161.436ZM191.982 46.588C189.686 46.588 187.67 46.126 185.934 45.202C184.226 44.278 182.896 42.976 181.944 41.296C180.992 39.616 180.516 37.628 180.516 35.332C180.516 33.036 180.992 31.048 181.944 29.368C182.896 27.688 184.226 26.386 185.934 25.462C187.67 24.538 189.686 24.076 191.982 24.076C194.278 24.076 196.28 24.538 197.988 25.462C199.696 26.386 201.026 27.688 201.978 29.368C202.93 31.048 203.406 33.036 203.406 35.332C203.406 37.628 202.93 39.616 201.978 41.296C201.026 42.976 199.696 44.278 197.988 45.202C196.28 46.126 194.278 46.588 191.982 46.588ZM191.94 46.042C192.92 46.042 193.76 45.552 194.46 44.572C195.16 43.592 195.706 42.29 196.098 40.666C196.49 39.014 196.686 37.222 196.686 35.29C196.686 33.19 196.476 31.342 196.056 29.746C195.664 28.122 195.104 26.862 194.376 25.966C193.676 25.042 192.878 24.58 191.982 24.58C191.03 24.58 190.19 25.07 189.462 26.05C188.762 27.03 188.216 28.332 187.824 29.956C187.432 31.58 187.236 33.358 187.236 35.29C187.236 37.418 187.446 39.294 187.866 40.918C188.286 42.542 188.846 43.802 189.546 44.698C190.274 45.594 191.072 46.042 191.94 46.042ZM203.99 46V45.58H204.032C205.04 45.58 205.852 45.272 206.468 44.656C207.084 44.04 207.392 43.228 207.392 42.22V28.444C207.392 27.38 207.168 26.554 206.72 25.966C206.3 25.378 205.39 25.084 203.99 25.084V24.664H208.148C209.632 24.664 210.752 24.524 211.508 24.244C212.264 23.936 212.796 23.544 213.104 23.068H213.314L213.356 29.956C213.72 29.116 214.182 28.234 214.742 27.31C215.33 26.386 216.058 25.616 216.926 25C217.822 24.356 218.886 24.034 220.118 24.034C220.538 24.034 220.986 24.076 221.462 24.16C221.938 24.244 222.442 24.398 222.974 24.622L221.336 29.536C220.328 28.976 219.446 28.584 218.69 28.36C217.962 28.136 217.318 28.024 216.758 28.024C215.806 28.024 215.092 28.318 214.616 28.906C214.168 29.494 213.776 30.194 213.44 31.006V42.22C213.44 43.228 213.748 44.04 214.364 44.656C214.98 45.272 215.792 45.58 216.8 45.58H216.842V46H203.99ZM228.921 46.588C227.213 46.588 225.841 46.126 224.805 45.202C223.769 44.278 223.251 43.06 223.251 41.548C223.251 40.904 223.363 40.302 223.587 39.742C223.811 39.154 224.231 38.58 224.847 38.02C225.491 37.46 226.373 36.886 227.493 36.298C228.613 35.682 230.097 35.038 231.945 34.366L235.851 32.938V29.788C235.851 28.192 235.599 26.932 235.095 26.008C234.591 25.056 233.891 24.58 232.995 24.58C231.931 24.608 231.021 25.308 230.265 26.68C229.537 28.052 229.047 29.956 228.795 32.392L224.259 29.788C224.735 28.64 225.463 27.632 226.443 26.764C227.423 25.896 228.543 25.224 229.803 24.748C231.091 24.272 232.435 24.034 233.835 24.034C236.215 24.034 238.147 24.706 239.631 26.05C241.143 27.366 241.899 29.172 241.899 31.468V41.59C241.899 43.214 242.445 44.026 243.537 44.026C244.181 44.026 244.811 43.676 245.427 42.976L245.763 43.27C245.035 44.25 244.153 45.048 243.117 45.664C242.081 46.28 241.073 46.588 240.093 46.588C239.029 46.588 238.105 46.224 237.321 45.496C236.565 44.768 236.089 43.802 235.893 42.598C234.521 43.998 233.317 45.02 232.281 45.664C231.273 46.28 230.153 46.588 228.921 46.588ZM232.071 43.984C232.687 43.984 233.275 43.83 233.835 43.522C234.423 43.214 235.081 42.71 235.809 42.01L235.851 33.484L234.171 34.114C232.743 34.646 231.651 35.192 230.895 35.752C230.139 36.284 229.607 36.886 229.299 37.558C229.019 38.23 228.879 39 228.879 39.868C228.879 41.072 229.173 42.066 229.761 42.85C230.377 43.606 231.147 43.984 232.071 43.984Z" fill="#006799"/>
<path d="M101.116 69.1613V62.6968C101.116 62.2968 101.077 61.9935 101 61.7871C100.923 61.5677 100.774 61.4129 100.555 61.3226C100.348 61.2194 100.045 61.1484 99.6452 61.1097L98.9871 61.0323V60.2968C99.2323 60.2968 99.529 60.3032 99.8774 60.3161C100.226 60.329 100.6 60.3419 101 60.3548C101.4 60.3548 101.787 60.3548 102.161 60.3548H102.413H105.684C106.613 60.3548 107.406 60.3484 108.065 60.3355C108.723 60.3226 109.284 60.3097 109.748 60.2968C109.748 60.9419 109.761 61.6 109.787 62.271C109.826 62.929 109.877 63.6 109.942 64.2839H109.168C108.91 63.4839 108.613 62.8516 108.277 62.3871C107.955 61.9226 107.542 61.5935 107.039 61.4C106.548 61.2065 105.923 61.1097 105.161 61.1097H103.671V69.1613H101.116ZM102.974 67.7484V67.0129H106.942V67.7484H102.974ZM107.252 70.4968C107.187 69.8645 107.071 69.3484 106.903 68.9484C106.735 68.5484 106.497 68.2516 106.187 68.0581C105.89 67.8516 105.503 67.7484 105.026 67.7484V67.0129C105.71 67.0129 106.219 66.8 106.555 66.3742C106.89 65.9355 107.11 65.2774 107.213 64.4H107.968C107.929 65.0968 107.903 65.6645 107.89 66.1032C107.89 66.529 107.89 66.9548 107.89 67.3806C107.89 67.6516 107.89 67.929 107.89 68.2129C107.903 68.4968 107.916 68.8194 107.929 69.1806C107.955 69.5419 107.981 69.9806 108.006 70.4968H107.252ZM102.161 73.9419C101.787 73.9419 101.4 73.9484 101 73.9613C100.6 73.9613 100.226 73.9677 99.8774 73.9806C99.529 73.9806 99.2323 73.9871 98.9871 74V73.2452L99.6452 73.1871C100.045 73.1355 100.355 73.0645 100.574 72.9742C100.794 72.8839 100.935 72.729 101 72.5097C101.077 72.2903 101.116 71.9806 101.116 71.5806V69.1613H103.671V71.5806C103.671 72.1742 103.761 72.5742 103.942 72.7806C104.135 72.9742 104.535 73.1032 105.142 73.1677L106.245 73.2452V74C105.935 73.9871 105.574 73.9806 105.161 73.9806C104.761 73.9677 104.335 73.9613 103.884 73.9613C103.445 73.9484 103.006 73.9419 102.568 73.9419H102.413H102.161ZM113.531 69.0258V66.3742C113.531 65.8194 113.434 65.4387 113.241 65.2323C113.047 65.0129 112.679 64.8774 112.138 64.8258L111.576 64.7677V64.0129C111.847 64.0258 112.099 64.0387 112.331 64.0516C112.563 64.0516 112.815 64.0516 113.086 64.0516C113.641 64.0516 114.15 64.0323 114.615 63.9935C115.079 63.9419 115.505 63.8774 115.892 63.8V64.0129V69.0258H113.531ZM114.712 73.9419C114.118 73.9419 113.576 73.9484 113.086 73.9613C112.608 73.9742 112.105 73.9871 111.576 74V73.2452L112.157 73.2065C112.686 73.1548 113.047 73.0258 113.241 72.8194C113.434 72.6 113.531 72.2258 113.531 71.6968V69.0258H115.892V71.6968C115.892 72.2258 115.989 72.6 116.183 72.8194C116.376 73.0258 116.737 73.1548 117.267 73.2065L117.847 73.2452V74C117.318 73.9871 116.808 73.9742 116.318 73.9613C115.841 73.9484 115.305 73.9419 114.712 73.9419ZM114.712 61.9226C114.286 61.9226 113.918 61.7871 113.608 61.5161C113.299 61.2452 113.144 60.8968 113.144 60.471C113.144 60.0323 113.299 59.6839 113.608 59.4258C113.918 59.1548 114.286 59.0194 114.712 59.0194C115.138 59.0194 115.505 59.1548 115.815 59.4258C116.125 59.6839 116.279 60.0323 116.279 60.471C116.279 60.8968 116.125 61.2452 115.815 61.5161C115.505 61.7871 115.138 61.9226 114.712 61.9226ZM122.259 73.9419C121.665 73.9419 121.123 73.9484 120.633 73.9613C120.155 73.9742 119.652 73.9871 119.123 74V73.2452L119.704 73.2065C120.233 73.1548 120.594 73.0258 120.788 72.8194C120.981 72.6 121.078 72.2258 121.078 71.6968V69.0258H123.439V71.6968C123.439 72.2258 123.523 72.6065 123.691 72.8387C123.871 73.0581 124.188 73.1871 124.639 73.2258L124.891 73.2452V74C124.439 73.9871 124.007 73.9742 123.594 73.9613C123.194 73.9484 122.749 73.9419 122.259 73.9419ZM121.078 69.0258V66.3742C121.078 65.8194 120.981 65.4387 120.788 65.2323C120.594 65.0129 120.226 64.8774 119.684 64.8258L119.123 64.7677V64.0129C119.394 64.0258 119.646 64.0387 119.878 64.0516C120.11 64.0516 120.362 64.0516 120.633 64.0516C121.188 64.0516 121.697 64.0323 122.162 63.9935C122.626 63.9419 123.052 63.8774 123.439 63.8V64.0129V69.0258H121.078ZM127.601 69.0258V67.1484C127.601 66.4 127.452 65.8387 127.155 65.4645C126.859 65.0903 126.407 64.9032 125.801 64.9032C125.181 64.9032 124.626 65.1032 124.136 65.5032C123.659 65.8903 123.239 66.5032 122.878 67.3419L122.723 66.9742C123.149 65.8516 123.691 65.0323 124.349 64.5161C125.02 64 125.813 63.7419 126.73 63.7419C127.775 63.7419 128.575 64.0516 129.13 64.671C129.684 65.2774 129.962 66.1613 129.962 67.3226V69.0258H127.601ZM128.781 73.9419C128.304 73.9419 127.865 73.9484 127.465 73.9613C127.065 73.9742 126.646 73.9871 126.207 74V73.2452L126.42 73.2258C126.871 73.1871 127.181 73.0581 127.349 72.8387C127.517 72.6065 127.601 72.2258 127.601 71.6968V69.0258H129.962V71.6968C129.962 72.2258 130.059 72.6 130.252 72.8194C130.459 73.0258 130.82 73.1548 131.336 73.2065L131.917 73.2452V74C131.388 73.9871 130.878 73.9742 130.388 73.9613C129.91 73.9484 129.375 73.9419 128.781 73.9419ZM139.613 69.0258V66.4323C139.613 65.7871 139.446 65.3097 139.11 65C138.775 64.6774 138.271 64.5161 137.6 64.5161C137.136 64.5161 136.749 64.5871 136.439 64.729C136.142 64.8581 135.994 65.0258 135.994 65.2323C135.994 65.3613 136.039 65.5032 136.129 65.6581C136.233 65.8 136.329 65.9613 136.42 66.1419C136.51 66.3097 136.555 66.4903 136.555 66.6839C136.555 66.9548 136.446 67.1742 136.226 67.3419C136.007 67.5097 135.717 67.5935 135.355 67.5935C134.942 67.5935 134.613 67.4774 134.368 67.2452C134.123 67 134 66.671 134 66.2581C134 65.7548 134.175 65.3161 134.523 64.9419C134.884 64.5677 135.381 64.2774 136.013 64.071C136.659 63.8516 137.394 63.7419 138.22 63.7419C139.549 63.7419 140.504 64.0387 141.084 64.6323C141.678 65.2258 141.975 66.1871 141.975 67.5161V69.0258H139.613ZM136.478 74.271C135.6 74.271 134.904 74.0452 134.388 73.5935C133.871 73.1419 133.613 72.5355 133.613 71.7742C133.613 71.1677 133.755 70.6839 134.039 70.3226C134.336 69.9484 134.71 69.6516 135.162 69.4323C135.613 69.2 136.097 69.0129 136.613 68.871C137.129 68.7161 137.613 68.5742 138.065 68.4452C138.529 68.3032 138.904 68.1419 139.188 67.9613C139.484 67.7677 139.633 67.5097 139.633 67.1871L139.71 68.1548C139.62 68.3871 139.439 68.5871 139.168 68.7548C138.897 68.9097 138.588 69.0581 138.239 69.2C137.904 69.3419 137.568 69.5032 137.233 69.6839C136.91 69.8516 136.639 70.0774 136.42 70.3613C136.213 70.6323 136.11 70.9935 136.11 71.4452C136.11 71.9097 136.239 72.2774 136.497 72.5484C136.755 72.8065 137.117 72.9355 137.581 72.9355C138.007 72.9355 138.407 72.8258 138.781 72.6065C139.155 72.3742 139.484 72.0323 139.768 71.5806L139.788 72.3935C139.375 73.0258 138.891 73.4968 138.336 73.8065C137.794 74.1161 137.175 74.271 136.478 74.271ZM141.975 72.3742C141.975 72.6839 142.02 72.9097 142.11 73.0516C142.2 73.1806 142.355 73.2452 142.575 73.2452C142.768 73.2452 142.962 73.2 143.155 73.1097C143.349 73.0194 143.542 72.9032 143.736 72.7613L144.065 73.3806C143.729 73.6645 143.362 73.8839 142.962 74.0387C142.562 74.1935 142.11 74.271 141.607 74.271C140.923 74.271 140.42 74.1226 140.097 73.8258C139.775 73.529 139.613 73.071 139.613 72.4516V69.0258H141.975V72.3742ZM148.321 73.9419C147.728 73.9419 147.186 73.9484 146.695 73.9613C146.218 73.9742 145.715 73.9871 145.186 74V73.2452L145.766 73.2065C146.295 73.1548 146.657 73.0258 146.85 72.8194C147.044 72.6 147.14 72.2258 147.14 71.6968V69.0258H149.502V71.6968C149.502 72.2258 149.586 72.6065 149.753 72.8387C149.934 73.0581 150.25 73.1871 150.702 73.2258L150.953 73.2452V74C150.502 73.9871 150.069 73.9742 149.657 73.9613C149.257 73.9484 148.811 73.9419 148.321 73.9419ZM147.14 69.0258V66.3742C147.14 65.8194 147.044 65.4387 146.85 65.2323C146.657 65.0129 146.289 64.8774 145.747 64.8258L145.186 64.7677V64.0129C145.457 64.0258 145.708 64.0387 145.94 64.0516C146.173 64.0516 146.424 64.0516 146.695 64.0516C147.25 64.0516 147.76 64.0323 148.224 63.9935C148.689 63.9419 149.115 63.8774 149.502 63.8V64.0129V69.0258H147.14ZM153.663 69.0258V67.1484C153.663 66.4 153.515 65.8387 153.218 65.4645C152.921 65.0903 152.469 64.9032 151.863 64.9032C151.244 64.9032 150.689 65.1032 150.198 65.5032C149.721 65.8903 149.302 66.5032 148.94 67.3419L148.786 66.9742C149.211 65.8516 149.753 65.0323 150.411 64.5161C151.082 64 151.876 63.7419 152.792 63.7419C153.837 63.7419 154.637 64.0516 155.192 64.671C155.747 65.2774 156.024 66.1613 156.024 67.3226V69.0258H153.663ZM154.844 73.9419C154.366 73.9419 153.928 73.9484 153.528 73.9613C153.128 73.9742 152.708 73.9871 152.269 74V73.2452L152.482 73.2258C152.934 73.1871 153.244 73.0581 153.411 72.8387C153.579 72.6065 153.663 72.2258 153.663 71.6968V69.0258H156.024V71.6968C156.024 72.2258 156.121 72.6 156.315 72.8194C156.521 73.0258 156.882 73.1548 157.398 73.2065L157.979 73.2452V74C157.45 73.9871 156.94 73.9742 156.45 73.9613C155.973 73.9484 155.437 73.9419 154.844 73.9419ZM164.08 74.271C163.125 74.271 162.299 74.0645 161.602 73.6516C160.918 73.2258 160.389 72.6258 160.015 71.8516C159.641 71.0645 159.454 70.1355 159.454 69.0645C159.454 67.9677 159.647 67.0194 160.034 66.2194C160.434 65.4194 160.996 64.8065 161.718 64.3806C162.454 63.9548 163.318 63.7419 164.312 63.7419C165.047 63.7419 165.692 63.8516 166.247 64.071C166.815 64.2903 167.26 64.6 167.583 65C167.905 65.3871 168.067 65.8323 168.067 66.3355C168.067 66.8129 167.925 67.2065 167.641 67.5161C167.357 67.8129 166.976 67.9613 166.499 67.9613C166.151 67.9613 165.867 67.871 165.647 67.6903C165.428 67.4968 165.318 67.2516 165.318 66.9548C165.318 66.6839 165.383 66.4516 165.512 66.2581C165.654 66.0645 165.789 65.8839 165.918 65.7161C166.06 65.5355 166.131 65.3548 166.131 65.1742C166.131 64.9806 166.009 64.8258 165.763 64.7097C165.531 64.5935 165.221 64.5355 164.834 64.5355C163.905 64.5355 163.189 64.9097 162.686 65.6581C162.183 66.3935 161.931 67.4387 161.931 68.7935C161.931 70.1613 162.176 71.2065 162.667 71.929C163.17 72.6516 163.886 73.0129 164.815 73.0129C165.421 73.0129 165.951 72.8516 166.402 72.529C166.867 72.1935 167.254 71.7032 167.563 71.0581L168.241 71.4645C167.905 72.3677 167.376 73.0645 166.654 73.5548C165.931 74.0323 165.073 74.271 164.08 74.271ZM174.895 74.271C173.941 74.271 173.108 74.0645 172.399 73.6516C171.702 73.2258 171.16 72.6194 170.773 71.8323C170.399 71.0452 170.212 70.1097 170.212 69.0258C170.212 67.9161 170.405 66.9677 170.792 66.1806C171.192 65.3935 171.753 64.7935 172.476 64.3806C173.212 63.9548 174.07 63.7419 175.05 63.7419C175.928 63.7419 176.683 63.9097 177.315 64.2452C177.947 64.5677 178.424 65.0774 178.747 65.7742C179.083 66.471 179.237 67.3742 179.212 68.4839H171.857L171.818 67.7484H176.986C176.999 67.1161 176.934 66.5548 176.792 66.0645C176.663 65.5742 176.45 65.1871 176.153 64.9032C175.857 64.6194 175.476 64.4774 175.012 64.4774C174.418 64.4774 173.902 64.7548 173.463 65.3097C173.024 65.8516 172.766 66.7161 172.689 67.9032L172.728 67.9613C172.715 68.0903 172.702 68.2258 172.689 68.3677C172.689 68.5097 172.689 68.671 172.689 68.8516C172.689 70.1677 172.941 71.1935 173.444 71.929C173.947 72.6516 174.676 73.0129 175.631 73.0129C176.276 73.0129 176.837 72.8581 177.315 72.5484C177.805 72.2258 178.218 71.729 178.553 71.0581L179.231 71.4645C178.87 72.3548 178.315 73.0452 177.566 73.5355C176.818 74.0258 175.928 74.271 174.895 74.271Z" fill="#CACACA"/>
<path d="M42.3317 0.0258742C43.0057 0.228249 43.4324 0.480567 43.9986 0.893695C45.2259 1.74331 46.503 2.39951 47.8506 3.03702C48.0984 3.15432 48.3461 3.27163 48.6014 3.39249C52.9445 5.41153 57.4033 6.79234 62.0544 7.90064C62.4674 7.99948 62.4674 7.99948 62.8889 8.10031C67.718 9.35134 67.718 9.35134 72.6491 9.9762C74.234 10.1073 75.1868 10.5718 76.2736 11.773C76.9634 12.781 77.019 13.6425 77.111 14.8359C77.1273 15.0408 77.1435 15.2456 77.1602 15.4566C77.843 24.3121 78.2363 33.2856 76.9242 42.1009C76.8857 42.3629 76.8473 42.6248 76.8077 42.8947C76.4209 45.456 75.9907 48.0068 75.1942 50.4767C74.9247 51.2816 74.9247 51.2816 74.7431 52.1728C74.3222 53.8007 73.8419 54.8053 72.4122 55.6866C71.5403 56.1636 70.6494 56.5773 69.7371 56.9706C69.5405 57.0566 69.3438 57.1426 69.1413 57.2312C67.9453 57.7492 66.7403 58.2372 65.524 58.7054C65.8499 57.6578 66.2511 56.6674 66.6927 55.6655C68.8408 50.7655 70.1562 45.6255 70.8988 40.3351C70.9284 40.1256 70.958 39.9161 70.9885 39.7002C71.4376 36.2765 71.515 32.847 71.5029 29.3997C71.5024 29.1164 71.5024 29.1164 71.502 28.8273C71.4968 26.0767 71.4437 23.3358 71.2602 20.5904C71.221 19.9974 71.1863 19.4042 71.1525 18.8109C71.0957 17.8175 71.0367 16.8243 70.9763 15.8311C70.7691 15.8219 70.562 15.8126 70.3485 15.8031C68.1015 15.6761 65.9699 15.335 63.7737 14.8398C63.6045 14.8023 63.4352 14.7648 63.2608 14.7261C56.6438 13.2509 50.0253 11.2046 43.9936 8.07538C42.9648 7.54922 42.9648 7.54922 41.8378 7.4137C41.012 7.74215 40.2186 8.12318 39.4244 8.52021C32.8096 11.7138 25.7041 13.7378 18.5219 15.1667C17.3324 15.4089 16.148 15.6741 14.9635 15.9397C14.2232 16.079 14.2232 16.079 13.2318 16.079C12.4518 27.5574 11.6416 39.7859 15.7101 50.7749C15.792 50.9963 15.8739 51.2177 15.9583 51.4459C16.9802 54.1788 18.0223 56.8862 19.4276 59.4488C17.8237 59.1556 16.4137 58.6748 14.9357 57.9929C14.6534 57.8668 14.6534 57.8668 14.3655 57.7382C13.9942 57.5702 13.6248 57.3978 13.2577 57.2209C12.9254 57.0614 12.5889 56.9099 12.2481 56.7696C11.29 56.3274 10.8623 55.8517 10.4505 54.9163C10.291 54.4782 10.1394 54.0371 9.99455 53.5939C9.87155 53.2347 9.87155 53.2347 9.74606 52.8682C8.12967 47.9855 7.25362 43.0001 6.78825 37.8878C6.76453 37.6425 6.74081 37.3973 6.71637 37.1446C6.51472 34.8609 6.50161 32.5885 6.50944 30.2981C6.50982 30.098 6.51021 29.8979 6.5106 29.6918C6.52102 25.0433 6.62895 20.404 7.0051 15.7692C7.02151 15.5492 7.03793 15.3293 7.05484 15.1027C7.19777 13.5336 7.44526 12.1849 8.616 11.045C9.71614 10.3377 10.7481 10.0571 12.0353 9.8639C12.3349 9.81732 12.6344 9.77074 12.9431 9.72275C13.2633 9.67349 13.5835 9.62423 13.9134 9.57348C22.9289 8.13383 33.5207 5.91337 41.0275 0.385455C41.7323 -0.0298508 41.7323 -0.0298508 42.3317 0.0258742Z" fill="#005D8A"/>
<path d="M78.6589 42.1016C81.2208 43.5746 82.8965 46.0385 83.8633 48.7929C84.3234 51.6692 83.6055 54.2784 81.9581 56.646C79.6128 59.6589 76.8418 61.67 73.4699 63.4148C73.2223 63.543 72.9746 63.6713 72.7195 63.8035C70.4647 64.9482 68.1803 65.8721 65.7717 66.6365C65.5962 66.6929 65.4206 66.7492 65.2397 66.8073C57.3103 69.3012 48.8495 70.1625 40.5705 70.1681C40.3471 70.1682 40.1238 70.1684 39.8936 70.1686C36.0817 70.1641 32.368 69.9621 28.5972 69.3626C28.3183 69.3188 28.0394 69.2749 27.752 69.2298C19.7889 67.9419 11.4731 65.8083 5.05331 60.6887C4.85748 60.5366 4.66164 60.3845 4.45987 60.2278C2.02208 58.2178 0.362642 55.6442 0.0115145 52.4881C-0.14209 49.2586 1.25593 46.7377 3.3185 44.332C3.95089 43.7136 4.60362 43.1408 5.30114 42.5972C5.54897 43.3407 5.54897 43.3407 5.25661 44.029C5.11796 44.2875 4.97931 44.5459 4.83646 44.8122C3.78703 46.7817 3.39597 48.599 4.03875 50.8017C5.59637 54.7406 8.34942 56.7939 11.9926 58.706C12.4047 58.9245 12.4047 58.9245 12.8251 59.1475C16.9187 61.185 21.3376 62.3846 25.8091 63.2599C26.1076 63.319 26.4062 63.3781 26.7138 63.439C31.1189 64.2551 35.5222 64.4892 39.9957 64.4707C40.7568 64.468 41.5176 64.4707 42.2787 64.4738C53.8342 64.4827 68.4113 62.5932 77.1612 54.28C79.1436 52.1897 80.0996 49.9803 80.0611 47.1176C79.9865 45.7174 79.6162 44.5973 78.9299 43.3659C78.6589 42.845 78.6589 42.845 78.6589 42.1016Z" fill="#005D8A"/>
<path d="M59.3276 30.9492C59.8183 30.9492 60.309 30.9492 60.8146 30.9492C60.8146 40.5996 60.8146 50.2501 60.8146 60.1929C52.9037 61.9509 52.9037 61.9509 50.9014 61.9277C50.8264 59.1766 50.7693 56.4258 50.7345 53.6738C50.7177 52.3956 50.6951 51.1181 50.6583 49.8403C50.623 48.6045 50.604 47.3694 50.5957 46.1332C50.5898 45.6642 50.5783 45.1952 50.5607 44.7265C50.4783 42.4286 50.4611 40.6292 52.033 38.8325C52.585 38.2682 53.1568 37.7372 53.7548 37.2222C54.2173 36.814 54.6135 36.3653 55.0061 35.8903C55.915 34.8345 56.8669 33.8189 57.8194 32.8025C58.3762 32.2047 58.8733 31.6307 59.3276 30.9492Z" fill="#005D8A"/>
<path d="M63.7889 69.6115C63.2473 70.1955 62.705 70.7787 62.1625 71.3618C62.0116 71.5246 61.8606 71.6873 61.7051 71.855C56.912 77.0031 51.2662 81.032 44.9054 84.0211C44.4651 84.2301 44.0316 84.4533 43.5985 84.6768C41.932 85.2482 40.6197 84.7554 39.0938 84.0404C38.9012 83.9456 38.7086 83.8509 38.5102 83.7532C38.2029 83.6041 38.2029 83.6041 37.8894 83.452C34.3545 81.701 31.2058 79.4647 28.1014 77.0464C27.7429 76.7723 27.7429 76.7723 27.3772 76.4926C25.9568 75.3748 24.6602 74.1501 23.3771 72.8798C23.2145 72.7194 23.0518 72.5591 22.8843 72.394C22.7322 72.2409 22.5802 72.0878 22.4235 71.9301C22.2877 71.7937 22.1519 71.6574 22.012 71.5169C21.6359 71.0727 21.4005 70.6362 21.1621 70.1072C22.9724 70.3116 24.7493 70.6419 26.5379 70.9843C27.6686 71.1956 28.7648 71.3637 29.9136 71.4325C31.0827 71.5398 31.6979 71.9119 32.5933 72.6939C32.8663 72.9213 33.1407 73.1471 33.4161 73.3715C33.5584 73.4877 33.7006 73.6038 33.8472 73.7234C35.2275 74.7941 36.763 75.6597 38.2624 76.5507C38.4148 76.6434 38.5672 76.736 38.7243 76.8314C39.1506 77.0891 39.5816 77.339 40.0127 77.5885C40.2558 77.73 40.4989 77.8715 40.7494 78.0173C41.8368 78.4142 42.6459 78.2816 43.7067 77.8301C44.2474 77.5603 44.7708 77.2702 45.2946 76.9689C45.4865 76.8604 45.6784 76.7519 45.8762 76.6401C48.2169 75.2889 50.6409 73.7876 52.5968 71.9097C53.667 71.1399 54.6497 71.0188 55.9358 70.8352C56.4219 70.7574 56.9079 70.6787 57.3937 70.599C57.635 70.5598 57.8763 70.5207 58.1249 70.4804C59.3507 70.2631 60.5549 69.96 61.7586 69.6439C62.5728 69.4381 62.9733 69.3397 63.7889 69.6115Z" fill="#005D8A"/>
<path d="M46.6888 45.0742C46.7706 45.0742 46.8524 45.0742 46.9366 45.0742C46.9366 50.799 46.9366 56.5239 46.9366 62.4222C43.6653 62.4222 40.3939 62.4222 37.0234 62.4222C37.0234 57.7605 37.0234 53.0989 37.0234 48.296C37.8264 48.6172 38.4866 48.9058 39.2229 49.3183C40.2024 49.8007 40.8773 49.9996 41.98 49.7829C43.4719 48.8426 44.6329 47.352 45.7984 46.044C46.0907 45.7167 46.3892 45.3949 46.6888 45.0742Z" fill="#005D8A"/>
<path d="M33.3051 45.8184C33.3051 51.2161 33.3051 56.6137 33.3051 62.175C32.0412 62.175 31.0235 62.1194 29.8006 61.9126C29.6398 61.8857 29.479 61.8588 29.3133 61.8311C28.9767 61.7745 28.6402 61.7171 28.3037 61.6592C27.789 61.5706 27.274 61.4842 26.7589 61.3981C24.2495 60.9739 24.2495 60.9739 23.3919 60.688C22.4884 52.6034 22.4884 52.6034 23.9034 50.516C25.2242 49.356 26.7661 48.7013 28.3972 48.0837C29.3347 47.7022 30.0477 47.1968 30.8578 46.5928C31.8472 45.8741 31.9958 45.8184 33.3051 45.8184Z" fill="#005D8A"/>
<path d="M37.1586 26.0529C38.5933 26.0465 40.028 26.0418 41.4627 26.0386C41.9512 26.0373 42.4397 26.0355 42.9282 26.0333C43.6287 26.0301 44.3292 26.0287 45.0298 26.0275C45.2495 26.0262 45.4693 26.0248 45.6957 26.0234C46.2193 26.0234 46.7428 26.0368 47.2661 26.0529C48.1311 26.9204 47.7407 30.0348 47.7526 31.2866C47.7268 34.6324 47.7268 34.6324 46.5042 35.947C45.8365 36.5137 45.1422 37.0007 44.4153 37.4898C43.871 38.0464 43.871 38.0464 43.4272 38.6108C42.5968 39.5892 41.7049 40.4932 40.7869 41.3888C39.4598 41.0227 38.1233 40.5862 37.1586 39.5693C36.8663 38.5412 36.9168 37.5474 36.9561 36.4856C36.959 36.1875 36.9619 35.8893 36.965 35.5821C36.9766 34.6309 37.0026 33.6807 37.029 32.7298C37.0394 32.0846 37.0488 31.4393 37.0573 30.7941C37.0802 29.2133 37.1148 27.6332 37.1586 26.0529Z" fill="#51D389"/>
<path d="M62.7971 20.7871C62.7971 23.4042 62.7971 26.0212 62.7971 28.7176C61.9995 28.239 61.2915 27.7944 60.5666 27.2306C59.8201 27.5598 59.3677 27.8909 58.8473 28.5162C58.7007 28.6897 58.554 28.8632 58.403 29.0419C58.2174 29.262 58.0317 29.4821 57.8405 29.7089C57.5735 30.0169 57.3059 30.3244 57.038 30.6315C56.895 30.7955 56.752 30.9595 56.6047 31.1284C56.3171 31.4582 56.0294 31.788 55.7418 32.1177C55.6076 32.2722 55.4734 32.4268 55.3351 32.586C55.2078 32.7322 55.0805 32.8784 54.9493 33.0289C54.5905 33.4454 54.5905 33.4454 54.2276 34.0188C53.7332 34.5784 52.7518 35.8356 52.0165 35.9046C51.4953 35.921 51.5931 34.6867 51.0716 34.681C50.8068 34.6787 50.542 34.6765 50.2691 34.6742C50.0688 34.6713 49.8685 34.6684 49.6621 34.6655C50.0134 33.8595 50.4366 33.3486 51.0716 32.7448C51.9026 31.9521 52.6523 31.1104 53.4038 30.2438C54.3512 29.1688 55.3469 28.1381 56.3342 27.0999C56.5728 26.8474 56.5728 26.8474 56.8163 26.5898C56.9597 26.4389 57.1031 26.288 57.2508 26.1325C57.6151 25.7515 57.6151 25.7515 57.8405 25.248C57.6156 25.1867 57.3907 25.1253 57.159 25.0621C56.3185 24.7389 55.9661 24.4069 55.3622 23.761C56.3409 23.3364 57.3201 22.9129 58.2997 22.4904C58.6331 22.3465 58.9662 22.2023 59.2993 22.0577C59.7775 21.8502 60.2563 21.6438 60.7351 21.4377C61.0232 21.3131 61.3113 21.1885 61.6082 21.0601C62.3014 20.7871 62.3014 20.7871 62.7971 20.7871Z" fill="#5ED893"/>
<path d="M23.3926 38.6309C25.519 38.6309 27.6453 38.6309 29.8362 38.6309C29.1283 39.3387 28.4299 40.0361 27.6977 40.7151C27.4588 40.9372 27.4588 40.9372 27.2151 41.1638C27.0526 41.3145 26.8902 41.4651 26.7228 41.6203C26.397 41.9225 26.0714 42.2248 25.746 42.5274C25.5948 42.6677 25.4437 42.8079 25.288 42.9525C24.9495 43.2733 24.6229 43.6065 24.2997 43.9427C23.8882 44.3309 23.8882 44.3309 23.3926 44.3309C23.3926 42.4499 23.3926 40.5689 23.3926 38.6309Z" fill="#44C882"/>
<path d="M53.6274 34.6679C53.4508 34.8417 53.2741 35.0155 53.0921 35.1946C51.8999 36.3732 50.7331 37.5551 49.6428 38.8297C49.0278 39.5359 48.3931 40.2231 47.757 40.9101C47.6304 41.0469 47.5039 41.1836 47.3735 41.3245C46.8478 41.8922 46.3215 42.4594 45.7954 43.0266C44.3363 44.6001 42.8814 46.1739 41.4838 47.8028C40.4655 47.6566 39.7478 47.3212 38.866 46.798C38.4779 46.5694 38.4779 46.5694 38.0819 46.3362C37.8142 46.1761 37.5465 46.0161 37.2706 45.8512C37.0029 45.693 36.7352 45.5349 36.4594 45.372C34.3817 44.1433 34.3817 44.1433 33.6529 43.6468C33.0948 43.2967 33.0948 43.2967 32.5598 43.3747C31.955 43.6382 31.4179 43.9523 30.86 44.3052C30.6226 44.4544 30.3852 44.6036 30.1406 44.7574C29.8867 44.919 29.6327 45.0806 29.3711 45.2471C29.1089 45.4125 28.8468 45.578 28.5768 45.7484C28.0297 46.0941 27.483 46.4405 26.9367 46.7874C26.15 47.287 25.3623 47.7847 24.5742 48.282C24.0923 48.5869 23.6105 48.8918 23.1288 49.1969C22.9067 49.3373 22.6845 49.4778 22.4556 49.6225C21.2538 50.387 20.0817 51.1761 18.9312 52.0159C18.7676 51.9341 18.6041 51.8523 18.4355 51.7681C20.4833 49.848 22.5372 47.9376 24.6313 46.068C25.0548 45.6861 25.4781 45.304 25.9014 44.9218C26.7745 44.1355 27.6542 43.3585 28.5453 42.5926C28.9864 42.1976 29.4103 41.795 29.8328 41.3806C29.9637 41.2545 30.0946 41.1285 30.2294 40.9986C30.4895 40.7474 30.7467 40.4933 31.0007 40.236C31.3643 39.8878 31.3643 39.8878 32.0662 39.3767C33.0689 39.4593 33.8281 39.8571 34.7013 40.336C35.0928 40.5495 35.0928 40.5495 35.4923 40.7673C35.7622 40.9167 36.0322 41.066 36.3103 41.2199C36.5822 41.3683 36.854 41.5167 37.1341 41.6696C39.1209 42.758 39.1209 42.758 39.9968 43.3419C40.9927 43.2739 41.4761 42.9762 42.1633 42.2722C42.3304 42.103 42.4975 41.9339 42.6697 41.7596C42.8406 41.5815 43.0115 41.4034 43.1876 41.2199C43.3566 41.0485 43.5256 40.8771 43.6997 40.7005C45.0425 39.3283 46.3144 37.9016 47.5343 36.4192C48.647 35.159 51.3816 31.468 53.0921 31.3223C53.9754 31.3106 52.7808 34.4123 53.6274 34.6679Z" fill="#005D8A"/>
</svg>
