<svg width="244" height="82" viewBox="0 0 244 82" fill="none" xmlns="http://www.w3.org/2000/svg">
<path d="M96 57.3027L96.084 56.8827H96.21C97.218 56.8827 98.03 56.5747 98.646 55.9587C99.262 55.3427 99.57 54.5307 99.57 53.5227V29.5827C99.57 28.5747 99.262 27.7627 98.646 27.1467C98.03 26.5307 97.218 26.2227 96.21 26.2227L96.168 25.8027H118.638L119.898 34.2867H119.52C118.68 28.9947 115.348 26.3487 109.524 26.3487H106.038V38.9907H109.314C110.714 38.9907 111.834 38.5567 112.674 37.6887C113.514 36.7927 113.934 35.6447 113.934 34.2447H114.354V44.7447H113.934C113.934 43.2327 113.472 41.9867 112.548 41.0067C111.624 40.0267 110.406 39.5367 108.894 39.5367H106.038V53.8587C106.038 54.7827 106.36 55.5247 107.004 56.0847C107.648 56.6167 108.446 56.8827 109.398 56.8827L109.44 57.3027H96ZM119.468 57.3027V56.8827H119.51C120.518 56.8827 121.33 56.5747 121.946 55.9587C122.562 55.3427 122.87 54.5307 122.87 53.5227V39.7467C122.87 38.6827 122.646 37.8567 122.198 37.2687C121.778 36.6807 120.868 36.3867 119.468 36.3867V35.9667H123.752C125.18 35.9667 126.272 35.8127 127.028 35.5047C127.728 35.1967 128.218 34.8187 128.498 34.3707H128.918V53.5227C128.918 54.5307 129.226 55.3427 129.842 55.9587C130.458 56.5747 131.27 56.8827 132.278 56.8827H132.32V57.3027H119.468ZM125.852 31.7247C124.844 31.7247 124.004 31.4027 123.332 30.7587C122.688 30.0867 122.366 29.2467 122.366 28.2387C122.366 27.2307 122.688 26.4047 123.332 25.7607C124.004 25.0887 124.844 24.7527 125.852 24.7527C126.832 24.7527 127.644 25.0887 128.288 25.7607C128.96 26.4327 129.296 27.2587 129.296 28.2387C129.296 29.2187 128.96 30.0447 128.288 30.7167C127.644 31.3887 126.832 31.7247 125.852 31.7247ZM131.895 57.3027V56.8827H131.937C132.945 56.8827 133.757 56.5747 134.373 55.9587C134.989 55.3427 135.297 54.5307 135.297 53.5227V39.7467C135.297 38.6827 135.073 37.8567 134.625 37.2687C134.205 36.6807 133.295 36.3867 131.895 36.3867V35.9667H136.053C137.481 35.9667 138.573 35.8127 139.329 35.5047C140.029 35.1967 140.519 34.8187 140.799 34.3707H141.219L141.261 40.2507C141.989 38.7947 143.095 37.6187 144.579 36.7227C146.063 35.8267 147.631 35.3787 149.283 35.3787C151.159 35.3787 152.657 35.9947 153.777 37.2267C154.925 38.4587 155.499 40.0827 155.499 42.0987V53.5227C155.499 54.5307 155.807 55.3427 156.423 55.9587C157.039 56.5747 157.851 56.8827 158.859 56.8827H158.901V57.3027H146.091V56.8827H146.133C147.141 56.8827 147.953 56.5747 148.569 55.9587C149.185 55.3427 149.493 54.5307 149.493 53.5227V41.6787C149.493 40.2787 149.213 39.1587 148.653 38.3187C148.121 37.4787 147.407 37.0587 146.511 37.0587C145.643 37.0587 144.733 37.4367 143.781 38.1927C142.857 38.9207 142.045 39.9147 141.345 41.1747V53.5227C141.345 54.5307 141.653 55.3427 142.269 55.9587C142.885 56.5747 143.697 56.8827 144.705 56.8827H144.747V57.3027H131.895ZM159.436 57.3027V56.8827L169.684 36.4707H166.744C165.148 36.4707 163.846 36.9747 162.838 37.9827C161.858 38.9627 161.2 40.5447 160.864 42.7287H160.36L161.242 35.9667H176.026V36.3867L165.694 56.7567H170.146C171.854 56.7567 173.212 56.1967 174.22 55.0767C175.256 53.9567 175.97 52.1367 176.362 49.6167H176.866L175.816 57.3027H159.436ZM189.982 57.8907C187.686 57.8907 185.67 57.4287 183.934 56.5047C182.226 55.5807 180.896 54.2787 179.944 52.5987C178.992 50.9187 178.516 48.9307 178.516 46.6347C178.516 44.3387 178.992 42.3507 179.944 40.6707C180.896 38.9907 182.226 37.6887 183.934 36.7647C185.67 35.8407 187.686 35.3787 189.982 35.3787C192.278 35.3787 194.28 35.8407 195.988 36.7647C197.696 37.6887 199.026 38.9907 199.978 40.6707C200.93 42.3507 201.406 44.3387 201.406 46.6347C201.406 48.9307 200.93 50.9187 199.978 52.5987C199.026 54.2787 197.696 55.5807 195.988 56.5047C194.28 57.4287 192.278 57.8907 189.982 57.8907ZM189.94 57.3447C190.92 57.3447 191.76 56.8547 192.46 55.8747C193.16 54.8947 193.706 53.5927 194.098 51.9687C194.49 50.3167 194.686 48.5247 194.686 46.5927C194.686 44.4927 194.476 42.6447 194.056 41.0487C193.664 39.4247 193.104 38.1647 192.376 37.2687C191.676 36.3447 190.878 35.8827 189.982 35.8827C189.03 35.8827 188.19 36.3727 187.462 37.3527C186.762 38.3327 186.216 39.6347 185.824 41.2587C185.432 42.8827 185.236 44.6607 185.236 46.5927C185.236 48.7207 185.446 50.5967 185.866 52.2207C186.286 53.8447 186.846 55.1047 187.546 56.0007C188.274 56.8967 189.072 57.3447 189.94 57.3447ZM201.99 57.3027V56.8827H202.032C203.04 56.8827 203.852 56.5747 204.468 55.9587C205.084 55.3427 205.392 54.5307 205.392 53.5227V39.7467C205.392 38.6827 205.168 37.8567 204.72 37.2687C204.3 36.6807 203.39 36.3867 201.99 36.3867V35.9667H206.148C207.632 35.9667 208.752 35.8267 209.508 35.5467C210.264 35.2387 210.796 34.8467 211.104 34.3707H211.314L211.356 41.2587C211.72 40.4187 212.182 39.5367 212.742 38.6127C213.33 37.6887 214.058 36.9187 214.926 36.3027C215.822 35.6587 216.886 35.3367 218.118 35.3367C218.538 35.3367 218.986 35.3787 219.462 35.4627C219.938 35.5467 220.442 35.7007 220.974 35.9247L219.336 40.8387C218.328 40.2787 217.446 39.8867 216.69 39.6627C215.962 39.4387 215.318 39.3267 214.758 39.3267C213.806 39.3267 213.092 39.6207 212.616 40.2087C212.168 40.7967 211.776 41.4967 211.44 42.3087V53.5227C211.44 54.5307 211.748 55.3427 212.364 55.9587C212.98 56.5747 213.792 56.8827 214.8 56.8827H214.842V57.3027H201.99ZM226.921 57.8907C225.213 57.8907 223.841 57.4287 222.805 56.5047C221.769 55.5807 221.251 54.3627 221.251 52.8507C221.251 52.2067 221.363 51.6047 221.587 51.0447C221.811 50.4567 222.231 49.8827 222.847 49.3227C223.491 48.7627 224.373 48.1887 225.493 47.6007C226.613 46.9847 228.097 46.3407 229.945 45.6687L233.851 44.2407V41.0907C233.851 39.4947 233.599 38.2347 233.095 37.3107C232.591 36.3587 231.891 35.8827 230.995 35.8827C229.931 35.9107 229.021 36.6107 228.265 37.9827C227.537 39.3547 227.047 41.2587 226.795 43.6947L222.259 41.0907C222.735 39.9427 223.463 38.9347 224.443 38.0667C225.423 37.1987 226.543 36.5267 227.803 36.0507C229.091 35.5747 230.435 35.3367 231.835 35.3367C234.215 35.3367 236.147 36.0087 237.631 37.3527C239.143 38.6687 239.899 40.4747 239.899 42.7707V52.8927C239.899 54.5167 240.445 55.3287 241.537 55.3287C242.181 55.3287 242.811 54.9787 243.427 54.2787L243.763 54.5727C243.035 55.5527 242.153 56.3507 241.117 56.9667C240.081 57.5827 239.073 57.8907 238.093 57.8907C237.029 57.8907 236.105 57.5267 235.321 56.7987C234.565 56.0707 234.089 55.1047 233.893 53.9007C232.521 55.3007 231.317 56.3227 230.281 56.9667C229.273 57.5827 228.153 57.8907 226.921 57.8907ZM230.071 55.2867C230.687 55.2867 231.275 55.1327 231.835 54.8247C232.423 54.5167 233.081 54.0127 233.809 53.3127L233.851 44.7867L232.171 45.4167C230.743 45.9487 229.651 46.4947 228.895 47.0547C228.139 47.5867 227.607 48.1887 227.299 48.8607C227.019 49.5327 226.879 50.3027 226.879 51.1707C226.879 52.3747 227.173 53.3687 227.761 54.1527C228.377 54.9087 229.147 55.2867 230.071 55.2867Z" fill="#08384F"/>
<path d="M40.8199 0.0249504C41.4697 0.220099 41.8812 0.463408 42.4272 0.861786C43.6107 1.68106 44.8422 2.31383 46.1417 2.92858C46.3806 3.0417 46.6195 3.15481 46.8656 3.27136C51.0537 5.21831 55.3532 6.54982 59.8382 7.61855C60.2365 7.71385 60.2365 7.71385 60.6428 7.81108C65.2995 9.01745 65.2995 9.01745 70.0545 9.62C71.5828 9.74645 72.5016 10.1943 73.5496 11.3526C74.2147 12.3247 74.2683 13.1554 74.3571 14.3062C74.3727 14.5037 74.3883 14.7012 74.4045 14.9047C75.0629 23.444 75.4422 32.0972 74.1769 40.5977C74.1398 40.8503 74.1027 41.1029 74.0645 41.3631C73.6915 43.833 73.2767 46.2927 72.5087 48.6744C72.2488 49.4506 72.2488 49.4506 72.0737 50.3099C71.6679 51.8798 71.2047 52.8485 69.826 53.6983C68.9853 54.1583 68.1262 54.5572 67.2465 54.9364C67.0569 55.0194 66.8673 55.1023 66.6719 55.1878C65.5187 55.6873 64.3567 56.1578 63.1839 56.6093C63.4981 55.5991 63.885 54.6441 64.3108 53.678C66.3822 48.9529 67.6506 43.9965 68.3667 38.8949C68.3953 38.6929 68.4238 38.4908 68.4532 38.2827C68.8862 34.9812 68.9609 31.6742 68.9492 28.35C68.9488 28.0768 68.9488 28.0768 68.9483 27.7981C68.9434 25.1456 68.8921 22.5026 68.7151 19.8553C68.6774 19.2834 68.644 18.7114 68.6113 18.1392C68.5566 17.1813 68.4997 16.2236 68.4414 15.2659C68.2416 15.2569 68.0419 15.248 67.8361 15.2388C65.6693 15.1164 63.6138 14.7874 61.4961 14.31C61.3329 14.2738 61.1697 14.2376 61.0015 14.2003C54.6208 12.7778 48.2387 10.8046 42.4224 7.78705C41.4303 7.27967 41.4303 7.27967 40.3436 7.14899C39.5473 7.46571 38.7822 7.83314 38.0164 8.21599C31.6379 11.2955 24.7861 13.2473 17.8604 14.6251C16.7134 14.8587 15.5713 15.1144 14.4291 15.3706C13.7152 15.5049 13.7152 15.5049 12.7593 15.5049C12.0071 26.5735 11.2259 38.3653 15.1491 48.9619C15.228 49.1755 15.307 49.389 15.3884 49.609C16.3738 52.2444 17.3786 54.8551 18.7337 57.3262C17.1871 57.0435 15.8275 56.5798 14.4022 55.9222C14.1301 55.8007 14.1301 55.8007 13.8524 55.6767C13.4944 55.5146 13.1382 55.3484 12.7842 55.1778C12.4637 55.024 12.1393 54.8779 11.8106 54.7426C10.8868 54.3162 10.4744 53.8575 10.0773 52.9555C9.92344 52.533 9.77732 52.1077 9.6376 51.6803C9.51899 51.3339 9.51899 51.3339 9.39798 50.9805C7.83933 46.2722 6.99456 41.4647 6.54581 36.535C6.52294 36.2985 6.50006 36.062 6.4765 35.8183C6.28205 33.6162 6.26941 31.4249 6.27696 29.2163C6.27733 29.0233 6.2777 28.8304 6.27808 28.6316C6.28812 24.1492 6.3922 19.6755 6.75492 15.2061C6.77074 14.9941 6.78657 14.782 6.80288 14.5635C6.94071 13.0504 7.17936 11.7498 8.30828 10.6506C9.36914 9.96862 10.3643 9.69798 11.6054 9.51171C11.8943 9.46679 12.1832 9.42187 12.4808 9.37559C12.7896 9.32809 13.0984 9.28059 13.4165 9.23166C22.11 7.84341 32.3235 5.70223 39.5623 0.371692C40.2419 -0.0287849 40.2419 -0.0287849 40.8199 0.0249504Z" fill="#08384F"/>
<path d="M75.8496 40.5977C78.32 42.0181 79.9359 44.394 80.8682 47.0501C81.3118 49.8237 80.6196 52.3397 79.031 54.6227C76.7695 57.5281 74.0974 59.4674 70.846 61.1499C70.6072 61.2736 70.3684 61.3973 70.1224 61.5247C67.9481 62.6285 65.7453 63.5195 63.4227 64.2566C63.2534 64.3109 63.0842 64.3653 62.9097 64.4212C55.2635 66.8261 47.1049 67.6566 39.1215 67.662C38.9062 67.6622 38.6908 67.6624 38.4689 67.6625C34.7931 67.6582 31.212 67.4634 27.5758 66.8854C27.3069 66.8431 27.038 66.8008 26.7609 66.7572C19.0822 65.5153 11.0633 63.4579 4.87283 58.5211C4.68399 58.3745 4.49515 58.2278 4.30059 58.0767C1.94987 56.1385 0.349691 53.6567 0.0111033 50.6133C-0.137015 47.4991 1.21108 45.0683 3.19998 42.7485C3.80978 42.1522 4.4392 41.5998 5.11181 41.0756C5.35079 41.7926 5.35079 41.7926 5.06887 42.4563C4.93517 42.7055 4.80148 42.9547 4.66373 43.2115C3.65178 45.1107 3.27468 46.8631 3.89451 48.9871C5.3965 52.7854 8.05123 54.7654 11.5642 56.6093C11.9616 56.82 11.9616 56.82 12.3671 57.0349C16.3144 58.9997 20.5756 60.1565 24.8873 61.0005C25.1752 61.0575 25.4631 61.1145 25.7597 61.1733C30.0075 61.9602 34.2535 62.186 38.5673 62.1681C39.3012 62.1655 40.0349 62.1681 40.7687 62.1711C51.9115 62.1797 65.9681 60.3576 74.4055 52.3412C76.317 50.3256 77.2389 48.195 77.2018 45.4346C77.1298 44.0844 76.7727 43.0043 76.111 41.8168C75.8496 41.3146 75.8496 41.3146 75.8496 40.5977Z" fill="#08384F"/>
<path d="M57.2088 29.8438C57.6819 29.8438 58.1551 29.8438 58.6426 29.8438C58.6426 39.1496 58.6426 48.4554 58.6426 58.0433C51.0142 59.7385 51.0142 59.7385 49.0835 59.7161C49.0112 57.0633 48.9561 54.4106 48.9225 51.757C48.9064 50.5244 48.8845 49.2925 48.8491 48.0603C48.8151 46.8687 48.7967 45.6776 48.7887 44.4855C48.783 44.0333 48.7719 43.5811 48.755 43.1291C48.6755 40.9132 48.6589 39.1781 50.1747 37.4455C50.707 36.9014 51.2583 36.3894 51.835 35.8928C52.281 35.4991 52.663 35.0665 53.0416 34.6084C53.918 33.5903 54.8359 32.611 55.7544 31.6309C56.2914 31.0544 56.7707 30.5009 57.2088 29.8438Z" fill="#08384F"/>
<path d="M61.5107 67.1251C60.9884 67.6882 60.4654 68.2506 59.9424 68.8129C59.7968 68.9699 59.6512 69.1268 59.5013 69.2885C54.8794 74.2528 49.4352 78.1378 43.3016 81.0202C42.877 81.2217 42.459 81.437 42.0413 81.6524C40.4344 82.2035 39.1689 81.7282 37.6975 81.0388C37.5118 80.9474 37.3261 80.856 37.1348 80.7619C36.8384 80.6181 36.8384 80.6181 36.5361 80.4714C33.1275 78.7829 30.0913 76.6265 27.0977 74.2945C26.752 74.0302 26.752 74.0302 26.3994 73.7605C25.0297 72.6826 23.7794 71.5016 22.5421 70.2767C22.3853 70.1221 22.2285 69.9675 22.0669 69.8082C21.9203 69.6606 21.7737 69.513 21.6226 69.3609C21.4917 69.2294 21.3607 69.0979 21.2258 68.9624C20.8631 68.5341 20.6362 68.1132 20.4062 67.6031C22.1518 67.8002 23.8653 68.1187 25.59 68.4488C26.6804 68.6526 27.7374 68.8147 28.8452 68.8811C29.9725 68.9846 30.5657 69.3434 31.4292 70.0974C31.6924 70.3167 31.957 70.5345 32.2226 70.7509C32.3598 70.8629 32.497 70.9748 32.6383 71.0902C33.9693 72.1226 35.45 72.9574 36.8958 73.8165C37.0428 73.9059 37.1898 73.9952 37.3412 74.0873C37.7523 74.3357 38.1679 74.5767 38.5836 74.8173C38.818 74.9537 39.0525 75.0902 39.294 75.2308C40.3425 75.6135 41.1227 75.4856 42.1457 75.0502C42.6671 74.7901 43.1717 74.5104 43.6768 74.2198C43.8619 74.1152 44.047 74.0105 44.2376 73.9027C46.4948 72.5998 48.8323 71.1521 50.7183 69.3413C51.7502 68.5989 52.6979 68.4821 53.938 68.3051C54.4068 68.2301 54.8754 68.1542 55.3439 68.0773C55.5765 68.0396 55.8092 68.0018 56.0489 67.9629C57.231 67.7535 58.3922 67.4612 59.5529 67.1563C60.338 66.9579 60.7242 66.863 61.5107 67.1251Z" fill="#08384F"/>
<path d="M45.0214 43.4648C45.1002 43.4648 45.1791 43.4648 45.2603 43.4648C45.2603 48.9853 45.2603 54.5057 45.2603 60.1934C42.1058 60.1934 38.9513 60.1934 35.7012 60.1934C35.7012 55.6982 35.7012 51.203 35.7012 46.5716C36.4755 46.8813 37.112 47.1596 37.8221 47.5574C38.7666 48.0225 39.4174 48.2143 40.4808 48.0054C41.9193 47.0987 43.0389 45.6613 44.1628 44.4C44.4446 44.0844 44.7325 43.7741 45.0214 43.4648Z" fill="#08384F"/>
<path d="M32.1163 44.1816C32.1163 49.3866 32.1163 54.5916 32.1163 59.9543C30.8975 59.9543 29.9161 59.9007 28.737 59.7013C28.5819 59.6753 28.4268 59.6494 28.2671 59.6226C27.9424 59.568 27.6179 59.5128 27.2935 59.4569C26.7972 59.3714 26.3006 59.2881 25.8039 59.2051C23.3841 58.796 23.3841 58.796 22.5571 58.5204C21.6859 50.7244 21.6859 50.7244 23.0504 48.7115C24.324 47.5929 25.8108 46.9616 27.3836 46.3661C28.2877 45.9983 28.9752 45.5109 29.7564 44.9285C30.7104 44.2354 30.8537 44.1816 32.1163 44.1816Z" fill="#08384F"/>
<path d="M35.8319 25.1221C37.2154 25.116 38.5988 25.1114 39.9823 25.1084C40.4534 25.1071 40.9244 25.1054 41.3954 25.1032C42.071 25.1002 42.7465 25.0988 43.422 25.0977C43.6339 25.0964 43.8458 25.0951 44.0641 25.0938C44.569 25.0937 45.0738 25.1066 45.5785 25.1221C46.4126 25.9587 46.036 28.9619 46.0476 30.169C46.0227 33.3953 46.0227 33.3953 44.8437 34.663C44.1999 35.2094 43.5304 35.6791 42.8294 36.1507C42.3046 36.6875 42.3046 36.6875 41.8766 37.2316C41.0759 38.1752 40.2159 39.0469 39.3307 39.9105C38.0509 39.5575 36.7622 39.1365 35.8319 38.1559C35.5501 37.1645 35.5987 36.2062 35.6366 35.1824C35.6395 34.8949 35.6423 34.6073 35.6452 34.3111C35.6564 33.3939 35.6815 32.4776 35.7069 31.5607C35.717 30.9385 35.7261 30.3163 35.7343 29.694C35.7563 28.1697 35.7897 26.646 35.8319 25.1221Z" fill="#51D389"/>
<path d="M60.5546 20.0449C60.5546 22.5685 60.5546 25.0922 60.5546 27.6923C59.7854 27.2308 59.1027 26.802 58.4038 26.2584C57.6839 26.5757 57.2477 26.8951 56.7458 27.4981C56.6044 27.6654 56.463 27.8326 56.3174 28.005C56.1384 28.2172 55.9594 28.4295 55.775 28.6482C55.5175 28.9451 55.2595 29.2416 55.0011 29.5378C54.8632 29.6959 54.7253 29.8541 54.5833 30.017C54.306 30.335 54.0286 30.653 53.7512 30.9709C53.6218 31.12 53.4924 31.269 53.3591 31.4226C53.2363 31.5635 53.1135 31.7044 52.987 31.8496C52.6411 32.2512 52.6411 32.2512 52.2911 32.8042C51.8144 33.3438 50.868 34.5561 50.159 34.6226C49.6563 34.6384 49.7507 33.4482 49.2479 33.4427C48.9925 33.4405 48.7371 33.4384 48.474 33.4362C48.2808 33.4334 48.0877 33.4306 47.8887 33.4278C48.2274 32.6506 48.6355 32.1579 49.2479 31.5757C50.0492 30.8113 50.7721 29.9997 51.4968 29.1639C52.4103 28.1274 53.3704 27.1335 54.3224 26.1324C54.5526 25.8888 54.5526 25.8888 54.7873 25.6404C54.9256 25.4949 55.0639 25.3494 55.2064 25.1994C55.5576 24.832 55.5576 24.832 55.775 24.3465C55.5581 24.2874 55.3412 24.2283 55.1178 24.1673C54.3073 23.8556 53.9675 23.5355 53.3852 22.9127C54.3289 22.5032 55.2731 22.0948 56.2178 21.6874C56.5392 21.5487 56.8605 21.4096 57.1817 21.2702C57.6428 21.07 58.1045 20.871 58.5662 20.6722C58.844 20.5521 59.1218 20.432 59.4081 20.3082C60.0766 20.0449 60.0766 20.0449 60.5546 20.0449Z" fill="#5ED893"/>
<path d="M22.5566 37.252C24.6071 37.252 26.6575 37.252 28.7701 37.252C28.0876 37.9345 27.414 38.607 26.708 39.2618C26.4776 39.476 26.4776 39.476 26.2426 39.6945C26.086 39.8397 25.9293 39.985 25.7679 40.1346C25.4538 40.426 25.1398 40.7176 24.826 41.0093C24.6803 41.1446 24.5345 41.2799 24.3843 41.4193C24.058 41.7286 23.743 42.05 23.4313 42.3741C23.0346 42.7485 23.0346 42.7485 22.5566 42.7485C22.5566 40.9346 22.5566 39.1208 22.5566 37.252Z" fill="#44C882"/>
<path d="M51.7124 33.4294C51.542 33.5969 51.3717 33.7645 51.1961 33.9372C50.0465 35.0737 48.9214 36.2134 47.87 37.4425C47.2771 38.1235 46.665 38.7862 46.0516 39.4486C45.9295 39.5805 45.8075 39.7124 45.6818 39.8482C45.1748 40.3956 44.6674 40.9426 44.16 41.4895C42.7531 43.0069 41.3501 44.5245 40.0024 46.0952C39.0205 45.9542 38.3285 45.6308 37.4782 45.1263C37.1039 44.9058 37.1039 44.9058 36.722 44.681C36.4639 44.5266 36.2057 44.3723 35.9398 44.2133C35.6816 44.0608 35.4234 43.9083 35.1575 43.7512C33.154 42.5664 33.154 42.5664 32.4512 42.0876C31.913 41.75 31.913 41.75 31.3972 41.8252C30.814 42.0793 30.296 42.3822 29.758 42.7225C29.5291 42.8664 29.3002 43.0103 29.0644 43.1585C28.8195 43.3144 28.5746 43.4702 28.3223 43.6308C28.0696 43.7903 27.8168 43.9498 27.5564 44.1142C27.0288 44.4476 26.5017 44.7815 25.9749 45.1161C25.2163 45.5978 24.4567 46.0778 23.6967 46.5573C23.2321 46.8513 22.7675 47.1453 22.303 47.4395C22.0888 47.575 21.8746 47.7104 21.6539 47.85C20.495 48.5871 19.3647 49.3481 18.2553 50.1579C18.0976 50.079 17.9398 50.0002 17.7773 49.9189C19.7519 48.0674 21.7325 46.2252 23.7518 44.4224C24.1602 44.0541 24.5684 43.6856 24.9766 43.3171C25.8185 42.5589 26.6668 41.8096 27.526 41.0711C27.9514 40.6902 28.3602 40.3019 28.7676 39.9023C28.8938 39.7808 29.02 39.6592 29.15 39.5339C29.4008 39.2917 29.6488 39.0467 29.8937 38.7986C30.2444 38.4628 30.2444 38.4628 30.9212 37.97C31.888 38.0497 32.6202 38.4332 33.4622 38.8951C33.8397 39.1009 33.8397 39.1009 34.2249 39.3109C34.4852 39.455 34.7455 39.599 35.0137 39.7474C35.2759 39.8905 35.538 40.0335 35.8081 40.181C37.7239 41.2305 37.7239 41.2305 38.5685 41.7936C39.5288 41.728 39.995 41.4409 40.6577 40.7621C40.8188 40.599 40.98 40.4359 41.146 40.2678C41.3108 40.0961 41.4756 39.9243 41.6454 39.7474C41.8083 39.5821 41.9713 39.4168 42.1392 39.2465C43.4341 37.9233 44.6606 36.5475 45.8369 35.1181C46.9099 33.9029 49.5467 30.3437 51.1961 30.2031C52.0479 30.1918 50.896 33.1829 51.7124 33.4294Z" fill="#08384F"/>
</svg>
