<svg width="323" height="79" viewBox="0 0 323 79" fill="none" xmlns="http://www.w3.org/2000/svg">
<path d="M80.8837 36.5508C82.0878 37.0731 82.9073 37.8129 83.7272 38.8467C84.1472 40.4801 84.0862 41.8164 83.5166 43.3752C82.6313 44.7184 81.7365 45.4781 80.2096 45.9871C78.4899 46.0703 77.4176 46.0135 75.8284 45.313C75.5456 45.5946 75.5456 45.5946 75.2571 45.8817C68.7365 52.0877 61.2614 53.0982 52.5744 53.4013C57.9342 55.6266 63.3556 56.9489 69.0881 57.7824C69.1233 57.5235 69.1585 57.2645 69.1948 56.9978C69.5515 55.6035 70.3053 55.2512 71.4472 54.4123C72.5348 53.8685 73.6382 53.9239 74.8174 54.0753C76.5942 54.7009 77.703 55.7366 78.5245 57.4454C78.8137 59.4371 78.4942 60.6197 77.3371 62.2648C76.2143 63.5569 74.9732 63.9063 73.3219 64.0381C71.7897 63.9889 70.9974 63.4274 69.9004 62.4004C69.0901 61.4218 68.7511 60.7479 68.7511 59.4674C68.56 59.4727 68.369 59.478 68.1721 59.4835C58.8716 59.7052 50.4272 57.8027 41.7899 54.4123C42.0997 57.0097 42.9135 59.2919 44.823 61.1525C46.6819 62.3489 48.3387 63.2373 50.5523 63.5115C50.5523 63.6227 50.5523 63.7339 50.5523 63.8485C46.9688 64.0938 44.4844 63.4639 41.7267 61.1103C39.6574 59.1255 37.9762 57.1507 37.3244 54.328C36.9845 53.4026 36.6838 52.8874 35.8135 52.4003C33.9388 51.611 31.9754 51.1438 29.9944 50.7052C29.732 50.6457 29.4697 50.5863 29.1994 50.525C22.4604 49.0574 15.794 49.1992 9.43643 52.0532C9.10278 52.2756 8.76914 52.4981 8.42538 52.7272C8.78929 52.6456 8.78929 52.6456 9.16054 52.5623C19.0925 50.7635 27.4761 54.7995 35.4524 60.2046C36.2306 60.7317 37.009 61.2583 37.7878 61.7843C37.9832 61.9164 38.1786 62.0485 38.3799 62.1846C41.0059 63.9539 43.6551 65.6045 46.466 67.0712C46.7541 67.2216 47.0421 67.3721 47.339 67.5272C48.6219 68.1753 49.7792 68.7367 51.2263 68.9037C51.407 68.5978 51.5878 68.292 51.774 67.9769C52.5525 66.8282 53.3389 66.1623 54.5965 65.5336C56.3921 65.214 57.7821 65.5345 59.3147 66.5446C60.8125 68.2043 61.1217 69.2251 61.0932 71.4181C60.9066 73.1263 59.9848 74.0014 58.746 75.0962C57.1066 75.9004 55.6736 75.9817 53.9251 75.4332C52.4486 74.7235 51.7933 73.7631 51.1012 72.3067C50.8541 71.4824 50.8521 70.7706 50.8893 69.9147C50.6113 69.8934 50.3332 69.8721 50.0468 69.8502C46.5891 69.4836 43.8737 68.3955 40.7788 66.8816C40.5554 66.7745 40.332 66.6674 40.1018 66.5571C37.6136 65.3634 35.1882 64.0863 32.7958 62.7111C25.8539 58.7387 18.7312 55.2907 10.5949 55.318C10.2702 55.3126 9.94544 55.3071 9.61086 55.3015C6.50604 55.2994 3.8533 55.8737 1.34806 57.7824C1.08393 57.977 0.81979 58.1716 0.54765 58.3721C0.366925 58.5112 0.186201 58.6502 0 58.7934C2.09443 53.2895 6.54084 48.6107 11.7955 45.9871C15.9676 44.233 19.8823 43.5036 24.3915 43.5437C24.7636 43.546 25.1357 43.5483 25.5191 43.5507C28.0804 43.5832 30.5208 43.7516 33.0275 44.302C33.5005 44.3975 33.9735 44.4927 34.4466 44.5877C37.1481 45.1456 39.7744 45.8285 42.3964 46.6829C44.2617 47.2837 46.1451 47.7858 48.0457 48.2619C48.3265 48.3329 48.6073 48.4039 48.8967 48.477C57.1001 50.5001 65.3368 49.3987 72.6492 45.1472C73.2679 44.7663 73.8758 44.368 74.4804 43.965C74.4269 43.773 74.3735 43.581 74.3184 43.3831C73.9105 41.5981 73.8829 40.0862 74.7331 38.4465C76.5485 36.3286 78.1631 36.1667 80.8837 36.5508Z" fill="white" fill-opacity="0.7"/>
<path d="M41.4521 0.152559C42.6541 0.69225 43.6387 1.43012 44.6748 2.2378C44.9636 2.45154 45.2525 2.66528 45.5501 2.88549C46.1464 3.32718 46.7402 3.77232 47.3314 4.22085C48.3756 5.00902 49.4376 5.76999 50.5026 6.52973C53.6402 8.77132 56.7371 11.0699 59.8383 13.3614C61.2637 14.4146 62.69 15.4667 64.1163 16.5186C64.3772 16.7112 64.638 16.9038 64.9068 17.1023C66.4033 18.2061 67.9083 19.2962 69.4243 20.3731C69.0907 20.5399 69.0907 20.5399 68.7503 20.7101C67.4779 20.2229 66.274 19.6118 65.0431 19.0251C65.0431 20.9157 65.0431 22.8063 65.0431 24.7542C64.0338 24.2386 63.0245 23.723 62.0152 23.2074C60.69 22.5877 59.627 22.3531 58.1695 22.3532C57.8752 22.3523 57.5808 22.3514 57.2776 22.3505C56.9573 22.3512 56.6371 22.352 56.3071 22.3527C55.7981 22.3517 55.7981 22.3517 55.2788 22.3508C54.5421 22.3494 53.8055 22.3487 53.0688 22.3486C51.5035 22.3475 49.9383 22.3403 48.373 22.3334C45.4584 22.3205 42.5438 22.31 39.6292 22.3107C37.6019 22.311 35.5748 22.3031 33.5476 22.2899C32.7748 22.2863 32.002 22.2858 31.2293 22.2884C30.1489 22.2916 29.069 22.2845 27.9886 22.275C27.5093 22.2802 27.5093 22.2802 27.0203 22.2854C25.4764 22.261 24.8252 22.2411 23.5945 21.2354C23.3707 20.9508 23.1468 20.6663 22.9162 20.3731C20.5692 18.7257 18.3245 18.3253 15.5019 18.688C14.4532 18.9491 13.4632 19.2772 12.4688 19.6991C12.5227 18.9408 12.5227 18.9408 12.8058 18.014C13.5838 17.34 13.5838 17.34 14.6383 16.666C15.0408 16.4017 15.4427 16.1366 15.8442 15.8709C16.0612 15.7286 16.2782 15.5863 16.5017 15.4397C17.7296 14.6176 18.9202 13.7441 20.1148 12.8746C20.6347 12.4976 21.1547 12.1207 21.6748 11.7438C22.0659 11.4601 22.0659 11.4601 22.4648 11.1707C23.2421 10.6079 24.0208 10.0473 24.8001 9.48744C27.0508 7.86936 29.2955 6.24608 31.5077 4.57555C32.3867 3.91225 33.2699 3.25467 34.1529 2.5967C34.6384 2.23002 35.1156 1.8524 35.5911 1.47295C37.4831 0.0405755 39.1068 -0.219497 41.4521 0.152559Z" fill="white" fill-opacity="0.7"/>
<path d="M5.69137 12.2037C6.37506 12.231 7.09544 12.5909 7.61495 13.0361C8.60582 13.8854 9.0986 15.0589 9.0986 16.364C9.0986 22.9093 9.0986 29.4716 9.0986 36.2134C27.8939 36.2134 46.6893 36.2134 66.0542 36.2134C66.0542 38.7713 66.0542 41.3292 66.0542 43.9646C63.4606 45.0761 61.1423 45.7991 58.3028 45.6496C58.3028 45.0936 58.3028 44.5375 58.3028 43.9646C57.8516 43.9884 57.8516 43.9884 57.3912 44.0127C50.5403 44.3235 44.7259 43.8299 38.1938 41.6937C33.6269 40.2243 29.2487 39.7218 24.4749 39.752C24.2172 39.7527 23.9595 39.7534 23.694 39.7541C19.7646 39.7763 16.1009 39.9887 12.4688 41.6055C12.1362 41.7518 12.1362 41.7518 11.7969 41.9011C8.74679 43.2914 6.22077 45.1152 3.70636 47.3347C3.03484 47.8994 2.35921 48.4591 1.68427 49.0197C1.64522 44.5728 1.61528 40.1258 1.59696 35.6787C1.58817 33.6137 1.57624 31.5488 1.55715 29.4839C1.53883 27.4911 1.52876 25.4983 1.52439 23.5054C1.52128 22.7452 1.5152 21.9849 1.5061 21.2247C1.49387 20.1596 1.49219 19.095 1.49297 18.0299C1.48691 17.7157 1.48085 17.4016 1.47461 17.0779C1.48632 15.6022 1.5501 14.6163 2.49663 13.4433C3.62346 12.3839 4.42557 12.1532 5.69137 12.2037Z" fill="#006799"/>
<path d="M25.9507 25.4275C30.1548 25.3962 34.3588 25.3723 38.563 25.3576C40.5154 25.3506 42.4677 25.3411 44.4201 25.3258C46.3059 25.3111 48.1916 25.3031 50.0775 25.2996C50.7952 25.2971 51.513 25.2923 52.2307 25.285C53.2398 25.2751 54.2486 25.2738 55.2577 25.2745C55.5513 25.2696 55.8448 25.2648 56.1473 25.2598C59.0655 25.2791 61.7226 26.213 63.8754 28.2236C65.2799 29.8522 65.7038 31.4055 66.0555 33.5157C52.2648 33.5157 38.4742 33.5157 24.2656 33.5157C24.8217 32.2924 25.3778 31.069 25.9507 29.8086C26.1499 28.5272 26.1499 28.5272 26.056 27.3864C26.0408 27.0132 26.0256 26.64 26.0099 26.2555C25.9806 25.8456 25.9806 25.8456 25.9507 25.4275Z" fill="#006799"/>
<path d="M19.246 21.9555C21.0957 22.778 22.3389 23.9325 23.2546 25.764C23.4325 27.8574 23.5054 29.7267 22.2436 31.4931C20.7597 32.9454 19.7071 33.571 17.6307 33.6205C15.6799 33.5948 14.65 33.422 13.1442 32.1672C11.8244 30.4928 11.5771 28.7373 11.6697 26.6447C11.9072 24.9896 12.4825 23.9802 13.7392 22.8876C15.5511 21.6071 17.126 21.2515 19.246 21.9555Z" fill="#006799"/>
<path d="M98 42V41.58C99.036 41.58 99.862 41.3 100.478 40.74C101.094 40.18 101.402 39.424 101.402 38.472V14.07C101.402 13.118 101.08 12.362 100.436 11.802C99.82 11.214 99.022 10.92 98.042 10.92V10.5H111.566C115.514 10.5 118.958 11.102 121.898 12.306C124.838 13.482 127.12 15.246 128.744 17.598C130.368 19.95 131.18 22.848 131.18 26.292C131.18 29.736 130.354 32.62 128.702 34.944C127.078 37.268 124.796 39.032 121.856 40.236C118.916 41.412 115.486 42 111.566 42H98ZM110.81 41.454H111.566C114.086 41.454 116.27 40.88 118.118 39.732C119.994 38.584 121.45 36.876 122.486 34.608C123.522 32.34 124.04 29.54 124.04 26.208C124.04 22.876 123.522 20.09 122.486 17.85C121.45 15.61 119.994 13.93 118.118 12.81C116.27 11.662 114.086 11.088 111.566 11.088H107.87V38.472C107.87 39.368 108.08 40.096 108.5 40.656C108.948 41.188 109.718 41.454 110.81 41.454ZM145.101 42.588C142.805 42.588 140.789 42.126 139.053 41.202C137.345 40.278 136.015 38.976 135.063 37.296C134.111 35.616 133.635 33.628 133.635 31.332C133.635 29.036 134.111 27.048 135.063 25.368C136.015 23.688 137.345 22.386 139.053 21.462C140.789 20.538 142.805 20.076 145.101 20.076C147.397 20.076 149.399 20.538 151.107 21.462C152.815 22.386 154.145 23.688 155.097 25.368C156.049 27.048 156.525 29.036 156.525 31.332C156.525 33.628 156.049 35.616 155.097 37.296C154.145 38.976 152.815 40.278 151.107 41.202C149.399 42.126 147.397 42.588 145.101 42.588ZM145.059 42.042C146.039 42.042 146.879 41.552 147.579 40.572C148.279 39.592 148.825 38.29 149.217 36.666C149.609 35.014 149.805 33.222 149.805 31.29C149.805 29.19 149.595 27.342 149.175 25.746C148.783 24.122 148.223 22.862 147.495 21.966C146.795 21.042 145.997 20.58 145.101 20.58C144.149 20.58 143.309 21.07 142.581 22.05C141.881 23.03 141.335 24.332 140.943 25.956C140.551 27.58 140.355 29.358 140.355 31.29C140.355 33.418 140.565 35.294 140.985 36.918C141.405 38.542 141.965 39.802 142.665 40.698C143.393 41.594 144.191 42.042 145.059 42.042ZM157.109 42V41.58H157.151C158.159 41.58 158.971 41.272 159.587 40.656C160.203 40.04 160.511 39.228 160.511 38.22V24.444C160.511 23.38 160.287 22.554 159.839 21.966C159.419 21.378 158.509 21.084 157.109 21.084V20.664H161.267C162.751 20.664 163.871 20.524 164.627 20.244C165.383 19.936 165.915 19.544 166.223 19.068H166.433L166.475 25.956C166.839 25.116 167.301 24.234 167.861 23.31C168.449 22.386 169.177 21.616 170.045 21C170.941 20.356 172.005 20.034 173.237 20.034C173.657 20.034 174.105 20.076 174.581 20.16C175.057 20.244 175.561 20.398 176.093 20.622L174.455 25.536C173.447 24.976 172.565 24.584 171.809 24.36C171.081 24.136 170.437 24.024 169.877 24.024C168.925 24.024 168.211 24.318 167.735 24.906C167.287 25.494 166.895 26.194 166.559 27.006V38.22C166.559 39.228 166.867 40.04 167.483 40.656C168.099 41.272 168.911 41.58 169.919 41.58H169.961V42H157.109ZM176.141 42V41.58H176.183C177.191 41.58 178.003 41.272 178.619 40.656C179.235 40.04 179.543 39.228 179.543 38.22V24.444C179.543 23.38 179.319 22.554 178.871 21.966C178.451 21.378 177.541 21.084 176.141 21.084V20.664H180.299C181.447 20.664 182.329 20.608 182.945 20.496C183.589 20.384 184.065 20.244 184.373 20.076C184.681 19.88 184.905 19.684 185.045 19.488H185.465L185.507 24.948C186.235 23.492 187.341 22.316 188.825 21.42C190.309 20.524 191.877 20.076 193.529 20.076C195.125 20.076 196.455 20.524 197.519 21.42C198.583 22.316 199.269 23.52 199.577 25.032C200.361 23.52 201.481 22.316 202.937 21.42C204.421 20.524 206.017 20.076 207.725 20.076C209.601 20.076 211.099 20.692 212.219 21.924C213.367 23.156 213.941 24.78 213.941 26.796V38.22C213.941 39.228 214.249 40.04 214.865 40.656C215.481 41.272 216.293 41.58 217.301 41.58H217.343V42H204.533V41.58H204.575C205.583 41.58 206.395 41.272 207.011 40.656C207.627 40.04 207.935 39.228 207.935 38.22V26.376C207.935 24.976 207.655 23.856 207.095 23.016C206.535 22.176 205.807 21.756 204.911 21.756C204.043 21.756 203.133 22.148 202.181 22.932C201.229 23.688 200.403 24.682 199.703 25.914C199.731 25.97 199.745 26.04 199.745 26.124C199.745 26.208 199.745 26.278 199.745 26.334V38.22C199.745 39.228 200.053 40.04 200.669 40.656C201.285 41.272 202.097 41.58 203.105 41.58H203.147V42H190.337V41.58H190.379C191.387 41.58 192.199 41.272 192.815 40.656C193.431 40.04 193.739 39.228 193.739 38.22V26.376C193.739 24.976 193.459 23.856 192.899 23.016C192.367 22.176 191.653 21.756 190.757 21.756C189.889 21.756 188.979 22.134 188.027 22.89C187.103 23.618 186.291 24.612 185.591 25.872V38.22C185.591 39.228 185.899 40.04 186.515 40.656C187.131 41.272 187.943 41.58 188.951 41.58H188.993V42H176.141ZM226.399 42.672L218.041 23.352C217.761 22.708 217.383 22.176 216.907 21.756C216.459 21.336 215.829 21.112 215.017 21.084V20.664H226.777V21.084C225.797 21.196 225.153 21.63 224.845 22.386C224.565 23.142 224.663 24.094 225.139 25.242L229.465 35.364L233.749 25.494C234.029 24.85 234.169 24.22 234.169 23.604C234.169 22.904 233.959 22.33 233.539 21.882C233.119 21.434 232.531 21.168 231.775 21.084V20.664H238.411V21.084C237.683 21.252 236.983 21.672 236.311 22.344C235.639 23.016 235.037 23.94 234.505 25.116L226.777 42.672H226.399ZM242.415 42.588C240.707 42.588 239.335 42.126 238.299 41.202C237.263 40.278 236.745 39.06 236.745 37.548C236.745 36.904 236.857 36.302 237.081 35.742C237.305 35.154 237.725 34.58 238.341 34.02C238.985 33.46 239.867 32.886 240.987 32.298C242.107 31.682 243.591 31.038 245.439 30.366L249.345 28.938V25.788C249.345 24.192 249.093 22.932 248.589 22.008C248.085 21.056 247.385 20.58 246.489 20.58C245.425 20.608 244.515 21.308 243.759 22.68C243.031 24.052 242.541 25.956 242.289 28.392L237.753 25.788C238.229 24.64 238.957 23.632 239.937 22.764C240.917 21.896 242.037 21.224 243.297 20.748C244.585 20.272 245.929 20.034 247.329 20.034C249.709 20.034 251.641 20.706 253.125 22.05C254.637 23.366 255.393 25.172 255.393 27.468V37.59C255.393 39.214 255.939 40.026 257.031 40.026C257.675 40.026 258.305 39.676 258.921 38.976L259.257 39.27C258.529 40.25 257.647 41.048 256.611 41.664C255.575 42.28 254.567 42.588 253.587 42.588C252.523 42.588 251.599 42.224 250.815 41.496C250.059 40.768 249.583 39.802 249.387 38.598C248.015 39.998 246.811 41.02 245.775 41.664C244.767 42.28 243.647 42.588 242.415 42.588ZM245.565 39.984C246.181 39.984 246.769 39.83 247.329 39.522C247.917 39.214 248.575 38.71 249.303 38.01L249.345 29.484L247.665 30.114C246.237 30.646 245.145 31.192 244.389 31.752C243.633 32.284 243.101 32.886 242.793 33.558C242.513 34.23 242.373 35 242.373 35.868C242.373 37.072 242.667 38.066 243.255 38.85C243.871 39.606 244.641 39.984 245.565 39.984ZM258.418 42V41.58H258.46C259.468 41.58 260.28 41.272 260.896 40.656C261.512 40.04 261.82 39.228 261.82 38.22V24.444C261.82 23.38 261.596 22.554 261.148 21.966C260.728 21.378 259.818 21.084 258.418 21.084V20.664H262.576C264.004 20.664 265.096 20.51 265.852 20.202C266.552 19.894 267.042 19.516 267.322 19.068H267.742L267.784 24.948C268.512 23.492 269.618 22.316 271.102 21.42C272.586 20.524 274.154 20.076 275.806 20.076C277.682 20.076 279.18 20.692 280.3 21.924C281.448 23.156 282.022 24.78 282.022 26.796V38.22C282.022 39.228 282.33 40.04 282.946 40.656C283.562 41.272 284.374 41.58 285.382 41.58H285.424V42H272.614V41.58H272.656C273.664 41.58 274.476 41.272 275.092 40.656C275.708 40.04 276.016 39.228 276.016 38.22V26.376C276.016 24.976 275.736 23.856 275.176 23.016C274.644 22.176 273.93 21.756 273.034 21.756C272.166 21.756 271.256 22.134 270.304 22.89C269.38 23.618 268.568 24.612 267.868 25.872V38.22C267.868 39.228 268.176 40.04 268.792 40.656C269.408 41.272 270.22 41.58 271.228 41.58H271.27V42H258.418ZM292.094 42.588C290.638 42.588 289.448 42.126 288.524 41.202C287.6 40.278 287.138 39.074 287.138 37.59V21.42H283.568V20.874C285.5 20.734 287.222 20.118 288.734 19.026C290.274 17.934 291.534 16.464 292.514 14.616H293.186V20.664H298.772L298.352 21.42H293.186V36.666C293.186 38.906 293.942 40.026 295.454 40.026C295.958 40.026 296.532 39.872 297.176 39.564C297.848 39.256 298.478 38.85 299.066 38.346V38.766C298.142 39.942 297.05 40.88 295.79 41.58C294.53 42.252 293.298 42.588 292.094 42.588ZM305.538 42.588C303.83 42.588 302.458 42.126 301.422 41.202C300.386 40.278 299.868 39.06 299.868 37.548C299.868 36.904 299.98 36.302 300.204 35.742C300.428 35.154 300.848 34.58 301.464 34.02C302.108 33.46 302.99 32.886 304.11 32.298C305.23 31.682 306.714 31.038 308.562 30.366L312.468 28.938V25.788C312.468 24.192 312.216 22.932 311.712 22.008C311.208 21.056 310.508 20.58 309.612 20.58C308.548 20.608 307.638 21.308 306.882 22.68C306.154 24.052 305.664 25.956 305.412 28.392L300.876 25.788C301.352 24.64 302.08 23.632 303.06 22.764C304.04 21.896 305.16 21.224 306.42 20.748C307.708 20.272 309.052 20.034 310.452 20.034C312.832 20.034 314.764 20.706 316.248 22.05C317.76 23.366 318.516 25.172 318.516 27.468V37.59C318.516 39.214 319.062 40.026 320.154 40.026C320.798 40.026 321.428 39.676 322.044 38.976L322.38 39.27C321.652 40.25 320.77 41.048 319.734 41.664C318.698 42.28 317.69 42.588 316.71 42.588C315.646 42.588 314.722 42.224 313.938 41.496C313.182 40.768 312.706 39.802 312.51 38.598C311.138 39.998 309.934 41.02 308.898 41.664C307.89 42.28 306.77 42.588 305.538 42.588ZM308.688 39.984C309.304 39.984 309.892 39.83 310.452 39.522C311.04 39.214 311.698 38.71 312.426 38.01L312.468 29.484L310.788 30.114C309.36 30.646 308.268 31.192 307.512 31.752C306.756 32.284 306.224 32.886 305.916 33.558C305.636 34.23 305.496 35 305.496 35.868C305.496 37.072 305.79 38.066 306.378 38.85C306.994 39.606 307.764 39.984 308.688 39.984Z" fill="#006799"/>
<path d="M104.116 62.1355V59.7161C104.116 59.3032 104.077 58.9935 104 58.7871C103.923 58.5677 103.774 58.4129 103.555 58.3226C103.348 58.2194 103.045 58.1484 102.645 58.1097L101.987 58.0516V57.2968C102.232 57.2968 102.529 57.3032 102.877 57.3161C103.226 57.329 103.6 57.3419 104 57.3548C104.4 57.3548 104.787 57.3548 105.161 57.3548H105.394H105.587C105.923 57.3548 106.265 57.3548 106.613 57.3548C106.961 57.3419 107.29 57.329 107.6 57.3161C107.91 57.3032 108.174 57.2968 108.394 57.2968V58.0516L107.948 58.0903C107.419 58.1677 107.071 58.3097 106.903 58.5161C106.748 58.7097 106.671 59.1097 106.671 59.7161V62.1355H104.116ZM112.806 66.1613V59.6968C112.806 59.1032 112.723 58.7097 112.555 58.5161C112.4 58.3097 112.058 58.1677 111.529 58.0903L111.084 58.0323V57.2968C111.303 57.2968 111.568 57.3032 111.877 57.3161C112.187 57.329 112.516 57.3419 112.865 57.3548C113.213 57.3548 113.555 57.3548 113.89 57.3548H114.084H114.316C114.69 57.3548 115.077 57.3548 115.477 57.3548C115.877 57.3419 116.252 57.329 116.6 57.3161C116.948 57.3032 117.245 57.2968 117.49 57.2968V58.0516L116.832 58.1097C116.432 58.1484 116.123 58.2194 115.903 58.3226C115.697 58.4129 115.555 58.5677 115.477 58.7871C115.4 58.9935 115.361 59.3032 115.361 59.7161L115.342 66.1613H112.806ZM105.161 70.9419C104.787 70.9419 104.4 70.9484 104 70.9613C103.6 70.9613 103.226 70.9677 102.877 70.9806C102.529 70.9806 102.232 70.9871 101.987 71V70.2452L102.645 70.1871C103.045 70.1355 103.348 70.0645 103.555 69.9742C103.774 69.8839 103.923 69.729 104 69.5097C104.077 69.2903 104.116 68.9806 104.116 68.5806V62.1355H106.671V68.5806C106.671 69.1871 106.748 69.5935 106.903 69.8C107.071 69.9935 107.419 70.129 107.948 70.2065L108.394 70.2452V71C108.174 70.9871 107.91 70.9806 107.6 70.9806C107.29 70.9677 106.961 70.9613 106.613 70.9613C106.265 70.9484 105.923 70.9419 105.587 70.9419H105.394H105.161ZM105.665 64.4774V63.7419H113.813V64.4774H105.665ZM113.89 70.9419C113.555 70.9419 113.213 70.9484 112.865 70.9613C112.516 70.9613 112.187 70.9677 111.877 70.9806C111.568 70.9806 111.303 70.9871 111.084 71V70.2452L111.529 70.2065C112.058 70.129 112.4 69.9935 112.555 69.8C112.723 69.5935 112.806 69.1871 112.806 68.5806V66.1613H115.342V68.5806C115.342 68.9806 115.381 69.2903 115.458 69.5097C115.535 69.729 115.684 69.8839 115.903 69.9742C116.123 70.0645 116.432 70.1355 116.832 70.1871L117.49 70.2452V71C117.245 70.9871 116.942 70.9806 116.581 70.9806C116.232 70.9677 115.858 70.9613 115.458 70.9613C115.071 70.9484 114.69 70.9419 114.316 70.9419H114.084H113.89ZM123.957 71.271C123.027 71.271 122.195 71.0839 121.46 70.7097C120.737 70.3226 120.163 69.7419 119.737 68.9677C119.324 68.1935 119.118 67.2065 119.118 66.0065C119.118 64.8065 119.324 63.8194 119.737 63.0452C120.163 62.2581 120.737 61.6774 121.46 61.3032C122.195 60.929 123.034 60.7419 123.976 60.7419C124.918 60.7419 125.75 60.929 126.473 61.3032C127.195 61.6774 127.763 62.2581 128.176 63.0452C128.602 63.8194 128.815 64.8065 128.815 66.0065C128.815 67.2065 128.602 68.1935 128.176 68.9677C127.763 69.7419 127.189 70.3226 126.453 70.7097C125.731 71.0839 124.898 71.271 123.957 71.271ZM123.976 70.5161C124.66 70.5161 125.221 70.1613 125.66 69.4516C126.098 68.729 126.318 67.5806 126.318 66.0065C126.318 64.4194 126.092 63.271 125.64 62.5613C125.202 61.8387 124.647 61.4774 123.976 61.4774C123.279 61.4774 122.705 61.8387 122.253 62.5613C121.815 63.271 121.595 64.4194 121.595 66.0065C121.595 67.5806 121.815 68.729 122.253 69.4516C122.705 70.1613 123.279 70.5161 123.976 70.5161ZM135.656 71.271C135.101 71.271 134.637 71.2129 134.262 71.0968C133.888 70.9806 133.579 70.8645 133.333 70.7484C133.088 70.6323 132.869 70.5742 132.675 70.5742C132.379 70.5742 132.159 70.7742 132.017 71.1742H131.263C131.301 70.8387 131.327 70.4903 131.34 70.129C131.353 69.7548 131.359 69.3419 131.359 68.8903C131.372 68.4258 131.372 67.8903 131.359 67.2839H132.095C132.301 68.3548 132.682 69.1613 133.237 69.7032C133.792 70.2323 134.514 70.4968 135.404 70.4968C136.037 70.4968 136.521 70.3613 136.856 70.0903C137.204 69.8194 137.379 69.4452 137.379 68.9677C137.379 68.5032 137.192 68.1226 136.817 67.8258C136.456 67.529 135.817 67.2516 134.901 66.9935C133.727 66.6452 132.869 66.2 132.327 65.6581C131.785 65.1161 131.514 64.4387 131.514 63.6258C131.514 62.7484 131.804 62.0516 132.385 61.5355C132.966 61.0065 133.746 60.7419 134.727 60.7419C135.243 60.7419 135.675 60.8 136.024 60.9161C136.385 61.0194 136.688 61.1355 136.933 61.2645C137.179 61.3806 137.398 61.4387 137.592 61.4387C137.721 61.4387 137.83 61.3935 137.921 61.3032C138.011 61.2 138.088 61.0452 138.153 60.8387H138.908C138.882 61.1226 138.863 61.4194 138.85 61.729C138.837 62.0258 138.824 62.3742 138.811 62.7742C138.811 63.1613 138.817 63.6452 138.83 64.2258H138.075C137.908 63.3613 137.553 62.6903 137.011 62.2129C136.469 61.7355 135.817 61.4968 135.056 61.4968C134.527 61.4968 134.114 61.6194 133.817 61.8645C133.521 62.1097 133.372 62.4581 133.372 62.9097C133.372 63.3742 133.572 63.7677 133.972 64.0903C134.372 64.4 135.062 64.6968 136.043 64.9806C137.166 65.2903 137.979 65.6968 138.482 66.2C138.985 66.6903 139.237 67.3484 139.237 68.1742C139.237 69.1419 138.914 69.9032 138.269 70.4581C137.637 71 136.766 71.271 135.656 71.271ZM145.896 71.271C144.903 71.271 144.154 70.9935 143.651 70.4387C143.161 69.871 142.916 69.0258 142.916 67.9032V66.0258H145.258V68.5032C145.258 69.0452 145.367 69.4452 145.587 69.7032C145.806 69.9613 146.135 70.0903 146.574 70.0903C146.987 70.0903 147.329 69.9613 147.599 69.7032C147.883 69.4452 148.109 69.0581 148.277 68.5419L148.877 68.7742C148.632 69.6387 148.27 70.271 147.793 70.671C147.316 71.071 146.683 71.271 145.896 71.271ZM142.916 66.0258V58.1484C143.367 58.1484 143.787 58.1226 144.174 58.071C144.561 58.0065 144.922 57.9226 145.258 57.8194V66.0258H142.916ZM140.709 61.7871V61.0323H148.354V61.7871H140.709ZM154.88 71.271C153.925 71.271 153.093 71.0645 152.383 70.6516C151.686 70.2258 151.144 69.6194 150.757 68.8323C150.383 68.0452 150.196 67.1097 150.196 66.0258C150.196 64.9161 150.389 63.9677 150.777 63.1806C151.177 62.3935 151.738 61.7935 152.46 61.3806C153.196 60.9548 154.054 60.7419 155.035 60.7419C155.912 60.7419 156.667 60.9097 157.299 61.2452C157.931 61.5677 158.409 62.0774 158.731 62.7742C159.067 63.471 159.222 64.3742 159.196 65.4839H151.841L151.802 64.7484H156.97C156.983 64.1161 156.918 63.5548 156.777 63.0645C156.648 62.5742 156.435 62.1871 156.138 61.9032C155.841 61.6194 155.46 61.4774 154.996 61.4774C154.402 61.4774 153.886 61.7548 153.448 62.3097C153.009 62.8516 152.751 63.7161 152.673 64.9032L152.712 64.9613C152.699 65.0903 152.686 65.2258 152.673 65.3677C152.673 65.5097 152.673 65.671 152.673 65.8516C152.673 67.1677 152.925 68.1935 153.428 68.929C153.931 69.6516 154.66 70.0129 155.615 70.0129C156.26 70.0129 156.822 69.8581 157.299 69.5484C157.789 69.2258 158.202 68.729 158.538 68.0581L159.215 68.4645C158.854 69.3548 158.299 70.0452 157.551 70.5355C156.802 71.0258 155.912 71.271 154.88 71.271ZM163.766 70.9419C163.173 70.9419 162.631 70.9484 162.141 70.9613C161.663 70.9742 161.16 70.9871 160.631 71V70.2452L161.212 70.2065C161.741 70.1548 162.102 70.0258 162.295 69.8194C162.489 69.6 162.586 69.2258 162.586 68.6968V66.0258H164.947V68.6968C164.947 69.2258 165.044 69.6 165.237 69.8194C165.431 70.0258 165.792 70.1548 166.321 70.2065L166.902 70.2452V71C166.373 70.9871 165.863 70.9742 165.373 70.9613C164.895 70.9484 164.36 70.9419 163.766 70.9419ZM162.586 66.0258V58.4C162.586 57.8581 162.489 57.4774 162.295 57.2581C162.102 57.0387 161.734 56.9032 161.192 56.8516L160.631 56.7935V56.0581C160.902 56.071 161.153 56.0839 161.386 56.0968C161.618 56.0968 161.87 56.0968 162.141 56.0968C162.695 56.0968 163.205 56.0774 163.67 56.0387C164.134 55.9871 164.56 55.9161 164.947 55.8258V56.0581V66.0258H162.586ZM181.188 71.1355L176.446 58.6129H176.136V68.5806C176.136 69.1742 176.214 69.5806 176.368 69.8C176.536 70.0065 176.904 70.1419 177.472 70.2065L178.033 70.2452V71C177.775 70.9871 177.433 70.9742 177.007 70.9613C176.581 70.9484 176.168 70.9419 175.768 70.9419C175.472 70.9419 175.162 70.9484 174.839 70.9613C174.53 70.9613 174.233 70.9677 173.949 70.9806C173.665 70.9806 173.42 70.9871 173.214 71V70.2452L173.91 70.1871C174.323 70.1484 174.633 70.0839 174.839 69.9935C175.046 69.8903 175.181 69.729 175.246 69.5097C175.323 69.2903 175.362 68.9806 175.362 68.5806V59.6968C175.362 59.2968 175.323 58.9935 175.246 58.7871C175.168 58.5677 175.02 58.4129 174.801 58.3226C174.594 58.2194 174.285 58.1484 173.872 58.1097L173.233 58.0323V57.2968C173.478 57.2968 173.775 57.3032 174.123 57.3161C174.472 57.329 174.846 57.3419 175.246 57.3548C175.646 57.3548 176.033 57.3548 176.407 57.3548H176.717C177.117 57.3548 177.478 57.3484 177.801 57.3355C178.123 57.3226 178.401 57.3097 178.633 57.2968L182.678 68.1161L182.059 68.3484L185.756 57.2968C186.156 57.3226 186.51 57.3419 186.82 57.3548C187.143 57.3548 187.472 57.3548 187.807 57.3548H188.02C188.394 57.3548 188.775 57.3548 189.162 57.3548C189.562 57.3419 189.936 57.329 190.285 57.3161C190.646 57.3032 190.949 57.2968 191.194 57.2968V58.0516L190.536 58.1097C190.136 58.1484 189.827 58.2194 189.607 58.3226C189.388 58.4129 189.239 58.5677 189.162 58.7871C189.085 58.9935 189.046 59.3032 189.046 59.7161V68.5806C189.046 68.9806 189.085 69.2903 189.162 69.5097C189.239 69.729 189.388 69.8839 189.607 69.9742C189.827 70.0645 190.136 70.1355 190.536 70.1871L191.194 70.2452V71C190.949 70.9871 190.646 70.9806 190.285 70.9806C189.936 70.9677 189.562 70.9613 189.162 70.9613C188.775 70.9484 188.394 70.9419 188.02 70.9419H187.788H187.614C187.278 70.9419 186.93 70.9484 186.568 70.9613C186.22 70.9613 185.891 70.9677 185.581 70.9806C185.272 70.9806 185.007 70.9871 184.788 71V70.2452L185.252 70.2065C185.601 70.1419 185.865 70.0645 186.046 69.9742C186.227 69.8839 186.349 69.729 186.414 69.5097C186.478 69.2903 186.51 68.9806 186.51 68.5806V58.3226H186.201L181.885 71.1355H181.188ZM199.051 66.0258V63.4323C199.051 62.7871 198.883 62.3097 198.548 62C198.212 61.6774 197.709 61.5161 197.038 61.5161C196.573 61.5161 196.186 61.5871 195.877 61.729C195.58 61.8581 195.432 62.0258 195.432 62.2323C195.432 62.3613 195.477 62.5032 195.567 62.6581C195.67 62.8 195.767 62.9613 195.857 63.1419C195.948 63.3097 195.993 63.4903 195.993 63.6839C195.993 63.9548 195.883 64.1742 195.664 64.3419C195.444 64.5097 195.154 64.5935 194.793 64.5935C194.38 64.5935 194.051 64.4774 193.806 64.2452C193.561 64 193.438 63.671 193.438 63.2581C193.438 62.7548 193.612 62.3161 193.961 61.9419C194.322 61.5677 194.819 61.2774 195.451 61.071C196.096 60.8516 196.832 60.7419 197.657 60.7419C198.986 60.7419 199.941 61.0387 200.522 61.6323C201.115 62.2258 201.412 63.1871 201.412 64.5161V66.0258H199.051ZM195.915 71.271C195.038 71.271 194.341 71.0452 193.825 70.5935C193.309 70.1419 193.051 69.5355 193.051 68.7742C193.051 68.1677 193.193 67.6839 193.477 67.3226C193.773 66.9484 194.148 66.6516 194.599 66.4323C195.051 66.2 195.535 66.0129 196.051 65.871C196.567 65.7161 197.051 65.5742 197.502 65.4452C197.967 65.3032 198.341 65.1419 198.625 64.9613C198.922 64.7677 199.07 64.5097 199.07 64.1871L199.148 65.1548C199.057 65.3871 198.877 65.5871 198.606 65.7548C198.335 65.9097 198.025 66.0581 197.677 66.2C197.341 66.3419 197.006 66.5032 196.67 66.6839C196.348 66.8516 196.077 67.0774 195.857 67.3613C195.651 67.6323 195.548 67.9935 195.548 68.4452C195.548 68.9097 195.677 69.2774 195.935 69.5484C196.193 69.8065 196.554 69.9355 197.019 69.9355C197.444 69.9355 197.844 69.8258 198.219 69.6065C198.593 69.3742 198.922 69.0323 199.206 68.5806L199.225 69.3935C198.812 70.0258 198.328 70.4968 197.773 70.8065C197.232 71.1161 196.612 71.271 195.915 71.271ZM201.412 69.3742C201.412 69.6839 201.457 69.9097 201.548 70.0516C201.638 70.1806 201.793 70.2452 202.012 70.2452C202.206 70.2452 202.399 70.2 202.593 70.1097C202.786 70.0194 202.98 69.9032 203.173 69.7613L203.502 70.3806C203.167 70.6645 202.799 70.8839 202.399 71.0387C201.999 71.1935 201.548 71.271 201.044 71.271C200.361 71.271 199.857 71.1226 199.535 70.8258C199.212 70.529 199.051 70.071 199.051 69.4516V66.0258H201.412V69.3742ZM207.759 70.9419C207.165 70.9419 206.623 70.9484 206.133 70.9613C205.655 70.9742 205.152 70.9871 204.623 71V70.2452L205.204 70.2065C205.733 70.1548 206.094 70.0258 206.288 69.8194C206.481 69.6 206.578 69.2258 206.578 68.6968V66.0258H208.939V68.6968C208.939 69.2258 209.023 69.6065 209.191 69.8387C209.371 70.0581 209.688 70.1871 210.139 70.2258L210.391 70.2452V71C209.939 70.9871 209.507 70.9742 209.094 70.9613C208.694 70.9484 208.249 70.9419 207.759 70.9419ZM206.578 66.0258V63.3742C206.578 62.8194 206.481 62.4387 206.288 62.2323C206.094 62.0129 205.726 61.8774 205.184 61.8258L204.623 61.7677V61.0129C204.894 61.0258 205.146 61.0387 205.378 61.0516C205.61 61.0516 205.862 61.0516 206.133 61.0516C206.688 61.0516 207.197 61.0323 207.662 60.9935C208.126 60.9419 208.552 60.8774 208.939 60.8V61.0129V66.0258H206.578ZM213.101 66.0258V64.1484C213.101 63.4 212.952 62.8387 212.655 62.4645C212.359 62.0903 211.907 61.9032 211.301 61.9032C210.681 61.9032 210.126 62.1032 209.636 62.5032C209.159 62.8903 208.739 63.5032 208.378 64.3419L208.223 63.9742C208.649 62.8516 209.191 62.0323 209.849 61.5161C210.52 61 211.313 60.7419 212.23 60.7419C213.275 60.7419 214.075 61.0516 214.63 61.671C215.184 62.2774 215.462 63.1613 215.462 64.3226V66.0258H213.101ZM214.281 70.9419C213.804 70.9419 213.365 70.9484 212.965 70.9613C212.565 70.9742 212.146 70.9871 211.707 71V70.2452L211.92 70.2258C212.371 70.1871 212.681 70.0581 212.849 69.8387C213.017 69.6065 213.101 69.2258 213.101 68.6968V66.0258H215.462V68.6968C215.462 69.2258 215.559 69.6 215.752 69.8194C215.959 70.0258 216.32 70.1548 216.836 70.2065L217.417 70.2452V71C216.888 70.9871 216.378 70.9742 215.888 70.9613C215.41 70.9484 214.875 70.9419 214.281 70.9419ZM225.113 66.0258V63.4323C225.113 62.7871 224.946 62.3097 224.61 62C224.275 61.6774 223.771 61.5161 223.1 61.5161C222.636 61.5161 222.249 61.5871 221.939 61.729C221.642 61.8581 221.494 62.0258 221.494 62.2323C221.494 62.3613 221.539 62.5032 221.629 62.6581C221.733 62.8 221.829 62.9613 221.92 63.1419C222.01 63.3097 222.055 63.4903 222.055 63.6839C222.055 63.9548 221.946 64.1742 221.726 64.3419C221.507 64.5097 221.217 64.5935 220.855 64.5935C220.442 64.5935 220.113 64.4774 219.868 64.2452C219.623 64 219.5 63.671 219.5 63.2581C219.5 62.7548 219.675 62.3161 220.023 61.9419C220.384 61.5677 220.881 61.2774 221.513 61.071C222.159 60.8516 222.894 60.7419 223.72 60.7419C225.049 60.7419 226.004 61.0387 226.584 61.6323C227.178 62.2258 227.475 63.1871 227.475 64.5161V66.0258H225.113ZM221.978 71.271C221.1 71.271 220.404 71.0452 219.888 70.5935C219.371 70.1419 219.113 69.5355 219.113 68.7742C219.113 68.1677 219.255 67.6839 219.539 67.3226C219.836 66.9484 220.21 66.6516 220.662 66.4323C221.113 66.2 221.597 66.0129 222.113 65.871C222.629 65.7161 223.113 65.5742 223.565 65.4452C224.029 65.3032 224.404 65.1419 224.688 64.9613C224.984 64.7677 225.133 64.5097 225.133 64.1871L225.21 65.1548C225.12 65.3871 224.939 65.5871 224.668 65.7548C224.397 65.9097 224.088 66.0581 223.739 66.2C223.404 66.3419 223.068 66.5032 222.733 66.6839C222.41 66.8516 222.139 67.0774 221.92 67.3613C221.713 67.6323 221.61 67.9935 221.61 68.4452C221.61 68.9097 221.739 69.2774 221.997 69.5484C222.255 69.8065 222.617 69.9355 223.081 69.9355C223.507 69.9355 223.907 69.8258 224.281 69.6065C224.655 69.3742 224.984 69.0323 225.268 68.5806L225.288 69.3935C224.875 70.0258 224.391 70.4968 223.836 70.8065C223.294 71.1161 222.675 71.271 221.978 71.271ZM227.475 69.3742C227.475 69.6839 227.52 69.9097 227.61 70.0516C227.7 70.1806 227.855 70.2452 228.075 70.2452C228.268 70.2452 228.462 70.2 228.655 70.1097C228.849 70.0194 229.042 69.9032 229.236 69.7613L229.565 70.3806C229.229 70.6645 228.862 70.8839 228.462 71.0387C228.062 71.1935 227.61 71.271 227.107 71.271C226.423 71.271 225.92 71.1226 225.597 70.8258C225.275 70.529 225.113 70.071 225.113 69.4516V66.0258H227.475V69.3742ZM234.749 75.6258C233.42 75.6258 232.375 75.4 231.614 74.9484C230.865 74.4968 230.491 73.9032 230.491 73.1677C230.491 72.5742 230.717 72.0452 231.168 71.5806C231.633 71.129 232.304 70.7484 233.181 70.4387L233.704 70.7484C233.33 70.9419 233.033 71.2194 232.814 71.5806C232.607 71.9548 232.504 72.3613 232.504 72.8C232.504 73.471 232.736 73.9871 233.201 74.3484C233.665 74.7097 234.317 74.8903 235.155 74.8903C235.814 74.8903 236.394 74.7806 236.897 74.5613C237.414 74.3419 237.814 74.0387 238.097 73.6516C238.394 73.2774 238.543 72.8452 238.543 72.3548C238.543 71.9032 238.394 71.5613 238.097 71.329C237.801 71.0968 237.362 70.9806 236.781 70.9806H234.749C233.936 70.9806 233.291 70.8258 232.814 70.5161C232.336 70.1935 232.097 69.7677 232.097 69.2387C232.097 68.8129 232.246 68.4194 232.543 68.0581C232.839 67.6968 233.285 67.3548 233.878 67.0323L234.536 67.1097C234.291 67.2774 234.11 67.4452 233.994 67.6129C233.878 67.7806 233.82 67.9613 233.82 68.1548C233.82 68.4129 233.93 68.6065 234.149 68.7355C234.368 68.8645 234.678 68.929 235.078 68.929H237.226C238.31 68.929 239.136 69.1548 239.704 69.6065C240.285 70.0452 240.575 70.6903 240.575 71.5419C240.575 72.3419 240.323 73.0452 239.82 73.6516C239.33 74.271 238.646 74.7548 237.768 75.1032C236.904 75.4516 235.897 75.6258 234.749 75.6258ZM235.078 67.2258C233.852 67.2258 232.891 66.9419 232.194 66.3742C231.497 65.7935 231.149 64.9935 231.149 63.9742C231.149 62.9677 231.497 62.1806 232.194 61.6129C232.891 61.0323 233.846 60.7419 235.059 60.7419C236.285 60.7419 237.239 61.0258 237.923 61.5935C238.607 62.1613 238.949 62.9548 238.949 63.9742C238.949 64.9935 238.607 65.7935 237.923 66.3742C237.239 66.9419 236.291 67.2258 235.078 67.2258ZM235.078 66.4903C235.633 66.4903 236.046 66.2839 236.317 65.871C236.601 65.4581 236.743 64.8258 236.743 63.9742C236.743 63.1226 236.601 62.4903 236.317 62.0774C236.046 61.6645 235.633 61.4581 235.078 61.4581C234.536 61.4581 234.123 61.6645 233.839 62.0774C233.568 62.4903 233.433 63.1226 233.433 63.9742C233.433 64.8258 233.568 65.4581 233.839 65.871C234.11 66.2839 234.523 66.4903 235.078 66.4903ZM240.691 63.3548C240.433 63.3548 240.239 63.2774 240.11 63.1226C239.994 62.9548 239.904 62.7613 239.839 62.5419C239.775 62.3226 239.704 62.129 239.626 61.9613C239.562 61.7935 239.459 61.7097 239.317 61.7097C239.226 61.7097 239.11 61.7548 238.968 61.8452C238.826 61.9226 238.678 62.0387 238.523 62.1935C238.368 62.3484 238.233 62.5355 238.117 62.7548L237.768 62.1935C238.039 61.7677 238.401 61.4194 238.852 61.1484C239.317 60.8774 239.781 60.7419 240.246 60.7419C240.659 60.7419 240.988 60.8645 241.233 61.1097C241.478 61.3419 241.601 61.6774 241.601 62.1161C241.601 62.4903 241.517 62.7935 241.349 63.0258C241.194 63.2452 240.975 63.3548 240.691 63.3548ZM247.974 71.271C247.019 71.271 246.186 71.0645 245.477 70.6516C244.78 70.2258 244.238 69.6194 243.851 68.8323C243.477 68.0452 243.29 67.1097 243.29 66.0258C243.29 64.9161 243.483 63.9677 243.87 63.1806C244.27 62.3935 244.832 61.7935 245.554 61.3806C246.29 60.9548 247.148 60.7419 248.128 60.7419C249.006 60.7419 249.761 60.9097 250.393 61.2452C251.025 61.5677 251.503 62.0774 251.825 62.7742C252.161 63.471 252.315 64.3742 252.29 65.4839H244.935L244.896 64.7484H250.064C250.077 64.1161 250.012 63.5548 249.87 63.0645C249.741 62.5742 249.528 62.1871 249.232 61.9032C248.935 61.6194 248.554 61.4774 248.09 61.4774C247.496 61.4774 246.98 61.7548 246.541 62.3097C246.103 62.8516 245.845 63.7161 245.767 64.9032L245.806 64.9613C245.793 65.0903 245.78 65.2258 245.767 65.3677C245.767 65.5097 245.767 65.671 245.767 65.8516C245.767 67.1677 246.019 68.1935 246.522 68.929C247.025 69.6516 247.754 70.0129 248.709 70.0129C249.354 70.0129 249.915 69.8581 250.393 69.5484C250.883 69.2258 251.296 68.729 251.632 68.0581L252.309 68.4645C251.948 69.3548 251.393 70.0452 250.645 70.5355C249.896 71.0258 249.006 71.271 247.974 71.271ZM257.095 70.9419C256.501 70.9419 255.959 70.9484 255.469 70.9613C254.991 70.9742 254.488 70.9871 253.959 71V70.2452L254.54 70.2065C255.069 70.1548 255.43 70.0258 255.624 69.8194C255.817 69.6 255.914 69.2258 255.914 68.6968V66.0258H258.275V68.6968C258.275 69.2258 258.359 69.6065 258.527 69.8387C258.695 70.0581 259.004 70.1871 259.456 70.2258L259.669 70.2452V71C259.23 70.9871 258.811 70.9742 258.411 70.9613C258.011 70.9484 257.572 70.9419 257.095 70.9419ZM255.914 66.0258V63.3742C255.914 62.8194 255.817 62.4387 255.624 62.2323C255.43 62.0129 255.062 61.8774 254.52 61.8258L253.959 61.7677V61.0129C254.23 61.0258 254.482 61.0387 254.714 61.0516C254.946 61.0516 255.198 61.0516 255.469 61.0516C256.024 61.0516 256.533 61.0323 256.998 60.9935C257.462 60.9419 257.888 60.8774 258.275 60.8V61.0129V66.0258H255.914ZM262.32 66.0258V64.071C262.32 63.3484 262.172 62.8065 261.875 62.4452C261.591 62.0839 261.153 61.9032 260.559 61.9032C259.953 61.9032 259.411 62.1032 258.933 62.5032C258.469 62.9032 258.056 63.5226 257.695 64.3613L257.559 63.9742C257.972 62.8645 258.507 62.0516 259.165 61.5355C259.824 61.0065 260.604 60.7419 261.507 60.7419C262.54 60.7419 263.32 61.0452 263.849 61.6516C264.391 62.2452 264.662 63.1161 264.662 64.2645V66.0258H262.32ZM263.482 70.9419C263.004 70.9419 262.565 70.9484 262.165 70.9613C261.778 70.9742 261.359 70.9871 260.907 71V70.2452L261.14 70.2258C261.578 70.1871 261.882 70.0581 262.049 69.8387C262.23 69.6065 262.32 69.2258 262.32 68.6968V66.0258H264.662V68.6968C264.662 69.2258 264.746 69.6065 264.914 69.8387C265.095 70.0581 265.404 70.1871 265.843 70.2258L266.075 70.2452V71C265.624 70.9871 265.198 70.9742 264.798 70.9613C264.411 70.9484 263.972 70.9419 263.482 70.9419ZM268.707 66.0258V64.0903C268.707 63.3548 268.559 62.8065 268.262 62.4452C267.965 62.0839 267.507 61.9032 266.888 61.9032C266.295 61.9032 265.753 62.0903 265.262 62.4645C264.785 62.8387 264.365 63.4194 264.004 64.2065L263.791 63.7419C264.191 62.7226 264.733 61.9677 265.417 61.4774C266.114 60.9871 266.933 60.7419 267.875 60.7419C268.92 60.7419 269.714 61.0452 270.256 61.6516C270.798 62.2452 271.069 63.1161 271.069 64.2645V66.0258H268.707ZM269.888 70.9419C269.411 70.9419 268.972 70.9484 268.572 70.9613C268.172 70.9742 267.753 70.9871 267.314 71V70.2452L267.527 70.2258C267.978 70.1871 268.288 70.0581 268.456 69.8387C268.624 69.6065 268.707 69.2258 268.707 68.6968V66.0258H271.049V68.6968C271.049 69.2258 271.146 69.6 271.34 69.8194C271.546 70.0258 271.907 70.1548 272.424 70.2065L273.024 70.2452V71C272.495 70.9871 271.985 70.9742 271.495 70.9613C271.017 70.9484 270.482 70.9419 269.888 70.9419ZM279.192 71.271C278.237 71.271 277.405 71.0645 276.696 70.6516C275.999 70.2258 275.457 69.6194 275.07 68.8323C274.696 68.0452 274.508 67.1097 274.508 66.0258C274.508 64.9161 274.702 63.9677 275.089 63.1806C275.489 62.3935 276.05 61.7935 276.773 61.3806C277.508 60.9548 278.366 60.7419 279.347 60.7419C280.225 60.7419 280.979 60.9097 281.612 61.2452C282.244 61.5677 282.721 62.0774 283.044 62.7742C283.379 63.471 283.534 64.3742 283.508 65.4839H276.154L276.115 64.7484H281.283C281.296 64.1161 281.231 63.5548 281.089 63.0645C280.96 62.5742 280.747 62.1871 280.45 61.9032C280.154 61.6194 279.773 61.4774 279.308 61.4774C278.715 61.4774 278.199 61.7548 277.76 62.3097C277.321 62.8516 277.063 63.7161 276.986 64.9032L277.025 64.9613C277.012 65.0903 276.999 65.2258 276.986 65.3677C276.986 65.5097 276.986 65.671 276.986 65.8516C276.986 67.1677 277.237 68.1935 277.741 68.929C278.244 69.6516 278.973 70.0129 279.928 70.0129C280.573 70.0129 281.134 69.8581 281.612 69.5484C282.102 69.2258 282.515 68.729 282.85 68.0581L283.528 68.4645C283.166 69.3548 282.612 70.0452 281.863 70.5355C281.115 71.0258 280.225 71.271 279.192 71.271ZM288.313 70.9419C287.72 70.9419 287.178 70.9484 286.687 70.9613C286.21 70.9742 285.707 70.9871 285.178 71V70.2452L285.758 70.2065C286.287 70.1548 286.649 70.0258 286.842 69.8194C287.036 69.6 287.133 69.2258 287.133 68.6968V66.0258H289.494V68.6968C289.494 69.2258 289.578 69.6065 289.746 69.8387C289.926 70.0581 290.242 70.1871 290.694 70.2258L290.946 70.2452V71C290.494 70.9871 290.062 70.9742 289.649 70.9613C289.249 70.9484 288.804 70.9419 288.313 70.9419ZM287.133 66.0258V63.3742C287.133 62.8194 287.036 62.4387 286.842 62.2323C286.649 62.0129 286.281 61.8774 285.739 61.8258L285.178 61.7677V61.0129C285.449 61.0258 285.7 61.0387 285.933 61.0516C286.165 61.0516 286.416 61.0516 286.687 61.0516C287.242 61.0516 287.752 61.0323 288.216 60.9935C288.681 60.9419 289.107 60.8774 289.494 60.8V61.0129V66.0258H287.133ZM293.655 66.0258V64.1484C293.655 63.4 293.507 62.8387 293.21 62.4645C292.913 62.0903 292.462 61.9032 291.855 61.9032C291.236 61.9032 290.681 62.1032 290.191 62.5032C289.713 62.8903 289.294 63.5032 288.933 64.3419L288.778 63.9742C289.204 62.8516 289.746 62.0323 290.404 61.5161C291.075 61 291.868 60.7419 292.784 60.7419C293.829 60.7419 294.629 61.0516 295.184 61.671C295.739 62.2774 296.016 63.1613 296.016 64.3226V66.0258H293.655ZM294.836 70.9419C294.358 70.9419 293.92 70.9484 293.52 70.9613C293.12 70.9742 292.7 70.9871 292.262 71V70.2452L292.475 70.2258C292.926 70.1871 293.236 70.0581 293.404 69.8387C293.571 69.6065 293.655 69.2258 293.655 68.6968V66.0258H296.016V68.6968C296.016 69.2258 296.113 69.6 296.307 69.8194C296.513 70.0258 296.875 70.1548 297.391 70.2065L297.971 70.2452V71C297.442 70.9871 296.933 70.9742 296.442 70.9613C295.965 70.9484 295.429 70.9419 294.836 70.9419ZM303.326 71.271C302.332 71.271 301.584 70.9935 301.081 70.4387C300.59 69.871 300.345 69.0258 300.345 67.9032V66.0258H302.687V68.5032C302.687 69.0452 302.797 69.4452 303.016 69.7032C303.236 69.9613 303.565 70.0903 304.003 70.0903C304.416 70.0903 304.758 69.9613 305.029 69.7032C305.313 69.4452 305.539 69.0581 305.707 68.5419L306.307 68.7742C306.061 69.6387 305.7 70.271 305.223 70.671C304.745 71.071 304.113 71.271 303.326 71.271ZM300.345 66.0258V58.1484C300.797 58.1484 301.216 58.1226 301.603 58.071C301.99 58.0065 302.352 57.9226 302.687 57.8194V66.0258H300.345ZM298.139 61.7871V61.0323H305.784V61.7871H298.139Z" fill="#CACACA"/>
</svg>
