<svg width="321" height="74" viewBox="0 0 321 74" fill="none" xmlns="http://www.w3.org/2000/svg">
<path d="M96 52V51.58C97.036 51.58 97.862 51.3 98.478 50.74C99.094 50.18 99.402 49.424 99.402 48.472V24.07C99.402 23.118 99.08 22.362 98.436 21.802C97.82 21.214 97.022 20.92 96.042 20.92V20.5H109.566C113.514 20.5 116.958 21.102 119.898 22.306C122.838 23.482 125.12 25.246 126.744 27.598C128.368 29.95 129.18 32.848 129.18 36.292C129.18 39.736 128.354 42.62 126.702 44.944C125.078 47.268 122.796 49.032 119.856 50.236C116.916 51.412 113.486 52 109.566 52H96ZM108.81 51.454H109.566C112.086 51.454 114.27 50.88 116.118 49.732C117.994 48.584 119.45 46.876 120.486 44.608C121.522 42.34 122.04 39.54 122.04 36.208C122.04 32.876 121.522 30.09 120.486 27.85C119.45 25.61 117.994 23.93 116.118 22.81C114.27 21.662 112.086 21.088 109.566 21.088H105.87V48.472C105.87 49.368 106.08 50.096 106.5 50.656C106.948 51.188 107.718 51.454 108.81 51.454ZM143.101 52.588C140.805 52.588 138.789 52.126 137.053 51.202C135.345 50.278 134.015 48.976 133.063 47.296C132.111 45.616 131.635 43.628 131.635 41.332C131.635 39.036 132.111 37.048 133.063 35.368C134.015 33.688 135.345 32.386 137.053 31.462C138.789 30.538 140.805 30.076 143.101 30.076C145.397 30.076 147.399 30.538 149.107 31.462C150.815 32.386 152.145 33.688 153.097 35.368C154.049 37.048 154.525 39.036 154.525 41.332C154.525 43.628 154.049 45.616 153.097 47.296C152.145 48.976 150.815 50.278 149.107 51.202C147.399 52.126 145.397 52.588 143.101 52.588ZM143.059 52.042C144.039 52.042 144.879 51.552 145.579 50.572C146.279 49.592 146.825 48.29 147.217 46.666C147.609 45.014 147.805 43.222 147.805 41.29C147.805 39.19 147.595 37.342 147.175 35.746C146.783 34.122 146.223 32.862 145.495 31.966C144.795 31.042 143.997 30.58 143.101 30.58C142.149 30.58 141.309 31.07 140.581 32.05C139.881 33.03 139.335 34.332 138.943 35.956C138.551 37.58 138.355 39.358 138.355 41.29C138.355 43.418 138.565 45.294 138.985 46.918C139.405 48.542 139.965 49.802 140.665 50.698C141.393 51.594 142.191 52.042 143.059 52.042ZM155.109 52V51.58H155.151C156.159 51.58 156.971 51.272 157.587 50.656C158.203 50.04 158.511 49.228 158.511 48.22V34.444C158.511 33.38 158.287 32.554 157.839 31.966C157.419 31.378 156.509 31.084 155.109 31.084V30.664H159.267C160.751 30.664 161.871 30.524 162.627 30.244C163.383 29.936 163.915 29.544 164.223 29.068H164.433L164.475 35.956C164.839 35.116 165.301 34.234 165.861 33.31C166.449 32.386 167.177 31.616 168.045 31C168.941 30.356 170.005 30.034 171.237 30.034C171.657 30.034 172.105 30.076 172.581 30.16C173.057 30.244 173.561 30.398 174.093 30.622L172.455 35.536C171.447 34.976 170.565 34.584 169.809 34.36C169.081 34.136 168.437 34.024 167.877 34.024C166.925 34.024 166.211 34.318 165.735 34.906C165.287 35.494 164.895 36.194 164.559 37.006V48.22C164.559 49.228 164.867 50.04 165.483 50.656C166.099 51.272 166.911 51.58 167.919 51.58H167.961V52H155.109ZM174.141 52V51.58H174.183C175.191 51.58 176.003 51.272 176.619 50.656C177.235 50.04 177.543 49.228 177.543 48.22V34.444C177.543 33.38 177.319 32.554 176.871 31.966C176.451 31.378 175.541 31.084 174.141 31.084V30.664H178.299C179.447 30.664 180.329 30.608 180.945 30.496C181.589 30.384 182.065 30.244 182.373 30.076C182.681 29.88 182.905 29.684 183.045 29.488H183.465L183.507 34.948C184.235 33.492 185.341 32.316 186.825 31.42C188.309 30.524 189.877 30.076 191.529 30.076C193.125 30.076 194.455 30.524 195.519 31.42C196.583 32.316 197.269 33.52 197.577 35.032C198.361 33.52 199.481 32.316 200.937 31.42C202.421 30.524 204.017 30.076 205.725 30.076C207.601 30.076 209.099 30.692 210.219 31.924C211.367 33.156 211.941 34.78 211.941 36.796V48.22C211.941 49.228 212.249 50.04 212.865 50.656C213.481 51.272 214.293 51.58 215.301 51.58H215.343V52H202.533V51.58H202.575C203.583 51.58 204.395 51.272 205.011 50.656C205.627 50.04 205.935 49.228 205.935 48.22V36.376C205.935 34.976 205.655 33.856 205.095 33.016C204.535 32.176 203.807 31.756 202.911 31.756C202.043 31.756 201.133 32.148 200.181 32.932C199.229 33.688 198.403 34.682 197.703 35.914C197.731 35.97 197.745 36.04 197.745 36.124C197.745 36.208 197.745 36.278 197.745 36.334V48.22C197.745 49.228 198.053 50.04 198.669 50.656C199.285 51.272 200.097 51.58 201.105 51.58H201.147V52H188.337V51.58H188.379C189.387 51.58 190.199 51.272 190.815 50.656C191.431 50.04 191.739 49.228 191.739 48.22V36.376C191.739 34.976 191.459 33.856 190.899 33.016C190.367 32.176 189.653 31.756 188.757 31.756C187.889 31.756 186.979 32.134 186.027 32.89C185.103 33.618 184.291 34.612 183.591 35.872V48.22C183.591 49.228 183.899 50.04 184.515 50.656C185.131 51.272 185.943 51.58 186.951 51.58H186.993V52H174.141ZM224.399 52.672L216.041 33.352C215.761 32.708 215.383 32.176 214.907 31.756C214.459 31.336 213.829 31.112 213.017 31.084V30.664H224.777V31.084C223.797 31.196 223.153 31.63 222.845 32.386C222.565 33.142 222.663 34.094 223.139 35.242L227.465 45.364L231.749 35.494C232.029 34.85 232.169 34.22 232.169 33.604C232.169 32.904 231.959 32.33 231.539 31.882C231.119 31.434 230.531 31.168 229.775 31.084V30.664H236.411V31.084C235.683 31.252 234.983 31.672 234.311 32.344C233.639 33.016 233.037 33.94 232.505 35.116L224.777 52.672H224.399ZM240.415 52.588C238.707 52.588 237.335 52.126 236.299 51.202C235.263 50.278 234.745 49.06 234.745 47.548C234.745 46.904 234.857 46.302 235.081 45.742C235.305 45.154 235.725 44.58 236.341 44.02C236.985 43.46 237.867 42.886 238.987 42.298C240.107 41.682 241.591 41.038 243.439 40.366L247.345 38.938V35.788C247.345 34.192 247.093 32.932 246.589 32.008C246.085 31.056 245.385 30.58 244.489 30.58C243.425 30.608 242.515 31.308 241.759 32.68C241.031 34.052 240.541 35.956 240.289 38.392L235.753 35.788C236.229 34.64 236.957 33.632 237.937 32.764C238.917 31.896 240.037 31.224 241.297 30.748C242.585 30.272 243.929 30.034 245.329 30.034C247.709 30.034 249.641 30.706 251.125 32.05C252.637 33.366 253.393 35.172 253.393 37.468V47.59C253.393 49.214 253.939 50.026 255.031 50.026C255.675 50.026 256.305 49.676 256.921 48.976L257.257 49.27C256.529 50.25 255.647 51.048 254.611 51.664C253.575 52.28 252.567 52.588 251.587 52.588C250.523 52.588 249.599 52.224 248.815 51.496C248.059 50.768 247.583 49.802 247.387 48.598C246.015 49.998 244.811 51.02 243.775 51.664C242.767 52.28 241.647 52.588 240.415 52.588ZM243.565 49.984C244.181 49.984 244.769 49.83 245.329 49.522C245.917 49.214 246.575 48.71 247.303 48.01L247.345 39.484L245.665 40.114C244.237 40.646 243.145 41.192 242.389 41.752C241.633 42.284 241.101 42.886 240.793 43.558C240.513 44.23 240.373 45 240.373 45.868C240.373 47.072 240.667 48.066 241.255 48.85C241.871 49.606 242.641 49.984 243.565 49.984ZM256.418 52V51.58H256.46C257.468 51.58 258.28 51.272 258.896 50.656C259.512 50.04 259.82 49.228 259.82 48.22V34.444C259.82 33.38 259.596 32.554 259.148 31.966C258.728 31.378 257.818 31.084 256.418 31.084V30.664H260.576C262.004 30.664 263.096 30.51 263.852 30.202C264.552 29.894 265.042 29.516 265.322 29.068H265.742L265.784 34.948C266.512 33.492 267.618 32.316 269.102 31.42C270.586 30.524 272.154 30.076 273.806 30.076C275.682 30.076 277.18 30.692 278.3 31.924C279.448 33.156 280.022 34.78 280.022 36.796V48.22C280.022 49.228 280.33 50.04 280.946 50.656C281.562 51.272 282.374 51.58 283.382 51.58H283.424V52H270.614V51.58H270.656C271.664 51.58 272.476 51.272 273.092 50.656C273.708 50.04 274.016 49.228 274.016 48.22V36.376C274.016 34.976 273.736 33.856 273.176 33.016C272.644 32.176 271.93 31.756 271.034 31.756C270.166 31.756 269.256 32.134 268.304 32.89C267.38 33.618 266.568 34.612 265.868 35.872V48.22C265.868 49.228 266.176 50.04 266.792 50.656C267.408 51.272 268.22 51.58 269.228 51.58H269.27V52H256.418ZM290.094 52.588C288.638 52.588 287.448 52.126 286.524 51.202C285.6 50.278 285.138 49.074 285.138 47.59V31.42H281.568V30.874C283.5 30.734 285.222 30.118 286.734 29.026C288.274 27.934 289.534 26.464 290.514 24.616H291.186V30.664H296.772L296.352 31.42H291.186V46.666C291.186 48.906 291.942 50.026 293.454 50.026C293.958 50.026 294.532 49.872 295.176 49.564C295.848 49.256 296.478 48.85 297.066 48.346V48.766C296.142 49.942 295.05 50.88 293.79 51.58C292.53 52.252 291.298 52.588 290.094 52.588ZM303.538 52.588C301.83 52.588 300.458 52.126 299.422 51.202C298.386 50.278 297.868 49.06 297.868 47.548C297.868 46.904 297.98 46.302 298.204 45.742C298.428 45.154 298.848 44.58 299.464 44.02C300.108 43.46 300.99 42.886 302.11 42.298C303.23 41.682 304.714 41.038 306.562 40.366L310.468 38.938V35.788C310.468 34.192 310.216 32.932 309.712 32.008C309.208 31.056 308.508 30.58 307.612 30.58C306.548 30.608 305.638 31.308 304.882 32.68C304.154 34.052 303.664 35.956 303.412 38.392L298.876 35.788C299.352 34.64 300.08 33.632 301.06 32.764C302.04 31.896 303.16 31.224 304.42 30.748C305.708 30.272 307.052 30.034 308.452 30.034C310.832 30.034 312.764 30.706 314.248 32.05C315.76 33.366 316.516 35.172 316.516 37.468V47.59C316.516 49.214 317.062 50.026 318.154 50.026C318.798 50.026 319.428 49.676 320.044 48.976L320.38 49.27C319.652 50.25 318.77 51.048 317.734 51.664C316.698 52.28 315.69 52.588 314.71 52.588C313.646 52.588 312.722 52.224 311.938 51.496C311.182 50.768 310.706 49.802 310.51 48.598C309.138 49.998 307.934 51.02 306.898 51.664C305.89 52.28 304.77 52.588 303.538 52.588ZM306.688 49.984C307.304 49.984 307.892 49.83 308.452 49.522C309.04 49.214 309.698 48.71 310.426 48.01L310.468 39.484L308.788 40.114C307.36 40.646 306.268 41.192 305.512 41.752C304.756 42.284 304.224 42.886 303.916 43.558C303.636 44.23 303.496 45 303.496 45.868C303.496 47.072 303.79 48.066 304.378 48.85C304.994 49.606 305.764 49.984 306.688 49.984Z" fill="#152A47"/>
<path d="M77.9949 35.2461C79.1561 35.7498 79.9463 36.4631 80.737 37.46C81.142 39.0351 81.0831 40.3238 80.5338 41.827C79.6802 43.1222 78.8173 43.8548 77.345 44.3455C75.6867 44.4258 74.6527 44.371 73.1203 43.6956C72.8475 43.967 72.8475 43.967 72.5693 44.244C66.2816 50.2285 59.0734 51.2028 50.6967 51.4951C55.8651 53.641 61.0929 54.9161 66.6207 55.7198C66.6546 55.4701 66.6885 55.2205 66.7235 54.9632C67.0675 53.6187 67.7944 53.279 68.8955 52.47C69.9443 51.9456 71.0083 51.999 72.1453 52.145C73.8587 52.7483 74.9279 53.747 75.7201 55.3948C75.9989 57.3155 75.6909 58.4558 74.5751 60.0423C73.4924 61.2882 72.2956 61.6252 70.7032 61.7522C69.2258 61.7048 68.4618 61.1634 67.4039 60.173C66.6226 59.2293 66.2957 58.5795 66.2957 57.3447C66.1115 57.3498 65.9272 57.3549 65.7374 57.3602C56.7691 57.574 48.6262 55.7394 40.2974 52.47C40.5961 54.9747 41.3809 57.1755 43.2222 58.9696C45.0147 60.1233 46.6123 60.98 48.7468 61.2444C48.7468 61.3517 48.7468 61.4589 48.7468 61.5694C45.2913 61.8059 42.8956 61.1985 40.2365 58.929C38.241 57.015 36.6199 55.1107 35.9914 52.3888C35.6636 51.4964 35.3737 50.9996 34.5344 50.5298C32.7267 49.7687 30.8334 49.3182 28.9231 48.8952C28.6702 48.8379 28.4172 48.7806 28.1565 48.7215C21.6583 47.3063 15.2299 47.443 9.09941 50.1952C8.77768 50.4096 8.45595 50.6241 8.12447 50.8451C8.47538 50.7664 8.47538 50.7664 8.83338 50.686C18.4106 48.9514 26.4948 52.8434 34.1863 58.0556C34.9366 58.5638 35.6873 59.0716 36.4383 59.5789C36.6267 59.7063 36.8151 59.8337 37.0092 59.9649C39.5414 61.671 42.096 63.2627 44.8065 64.677C45.0843 64.8221 45.3621 64.9672 45.6483 65.1167C46.8854 65.7417 48.0014 66.2831 49.3968 66.4441C49.5711 66.1492 49.7453 65.8543 49.9249 65.5504C50.6756 64.4428 51.434 63.8006 52.6466 63.1943C54.3781 62.8861 55.7184 63.1952 57.1963 64.1693C58.6406 65.7697 58.9387 66.7541 58.9113 68.8688C58.7314 70.516 57.8425 71.3599 56.6479 72.4156C55.0671 73.1911 53.6852 73.2695 51.9992 72.7406C50.5755 72.0562 49.9435 71.1301 49.2762 69.7256C49.0379 68.9308 49.0359 68.2444 49.0718 67.419C48.8037 67.3985 48.5356 67.378 48.2594 67.3568C44.9252 67.0033 42.3068 65.9541 39.3225 64.4942C39.107 64.391 38.8916 64.2877 38.6696 64.1813C36.2702 63.0303 33.9315 61.7988 31.6245 60.4726C24.9306 56.642 18.0622 53.317 10.2165 53.3434C9.90338 53.3382 9.59024 53.3329 9.26761 53.3275C6.27368 53.3255 3.71568 53.8792 1.29992 55.7198C1.04521 55.9075 0.790511 56.0952 0.528091 56.2885C0.353821 56.4226 0.179551 56.5566 0 56.6947C2.01963 51.3873 6.30724 46.8756 11.3743 44.3455C15.3973 42.6541 19.1722 41.9507 23.5204 41.9894C23.8792 41.9916 24.238 41.9938 24.6077 41.9961C27.0776 42.0275 29.4308 42.1898 31.8479 42.7206C32.304 42.8127 32.7602 42.9045 33.2164 42.9961C35.8214 43.5341 38.3539 44.1926 40.8823 45.0165C42.6809 45.5959 44.497 46.08 46.3298 46.5391C46.6006 46.6076 46.8714 46.6761 47.1504 46.7466C55.0608 48.6975 63.0033 47.6354 70.0545 43.5356C70.6511 43.1683 71.2374 42.7843 71.8203 42.3957C71.7688 42.2105 71.7173 42.0253 71.6642 41.8346C71.2708 40.1132 71.2442 38.6553 72.0641 37.0741C73.8146 35.0318 75.3716 34.8758 77.9949 35.2461Z" fill="#152A47" fill-opacity="0.7"/>
<path d="M39.9716 0.147113C41.1308 0.667539 42.0802 1.37907 43.0792 2.15792C43.3578 2.36403 43.6363 2.57014 43.9233 2.78249C44.4984 3.20842 45.0709 3.63767 45.641 4.07019C46.6479 4.83021 47.672 5.56402 48.6989 6.29664C51.7245 8.45822 54.7108 10.6748 57.7012 12.8844C59.0757 13.9 60.451 14.9146 61.8265 15.9289C62.078 16.1147 62.3295 16.3004 62.5887 16.4918C64.0318 17.5562 65.483 18.6074 66.9449 19.6459C66.6231 19.8067 66.6231 19.8067 66.2949 19.9708C65.068 19.5011 63.907 18.9118 62.7202 18.3459C62.7202 20.1691 62.7202 21.9922 62.7202 23.8706C61.7469 23.3734 60.7737 22.8762 59.8004 22.379C58.5225 21.7814 57.4975 21.5552 56.092 21.5552C55.8082 21.5544 55.5244 21.5536 55.232 21.5527C54.9231 21.5534 54.6143 21.5541 54.2962 21.5548C53.8053 21.5539 53.8053 21.5539 53.3046 21.5529C52.5942 21.5516 51.8838 21.551 51.1735 21.5508C49.6641 21.5497 48.1548 21.5428 46.6454 21.5361C43.8349 21.5238 41.0244 21.5136 38.2138 21.5143C36.259 21.5146 34.3043 21.507 32.3494 21.4942C31.6043 21.4908 30.8591 21.4903 30.114 21.4928C29.0721 21.4959 28.0308 21.4891 26.989 21.4799C26.5268 21.4849 26.5268 21.4849 26.0553 21.4899C24.5666 21.4664 23.9386 21.4472 22.7519 20.4774C22.536 20.203 22.3202 19.9286 22.0978 19.6459C19.8346 18.0573 17.6701 17.6712 14.9482 18.021C13.937 18.2727 12.9824 18.5891 12.0234 18.9959C12.0755 18.2647 12.0755 18.2647 12.3484 17.371C13.0987 16.721 13.0987 16.721 14.1155 16.0711C14.5036 15.8162 14.8912 15.5606 15.2783 15.3043C15.4876 15.1671 15.6968 15.0299 15.9124 14.8886C17.0964 14.0958 18.2445 13.2534 19.3964 12.4151C19.8978 12.0515 20.3992 11.688 20.9007 11.3246C21.2778 11.051 21.2778 11.051 21.6625 10.7719C22.412 10.2293 23.1629 9.68866 23.9144 9.14878C26.0847 7.58845 28.2492 6.02312 30.3824 4.41222C31.23 3.7726 32.0817 3.13849 32.9332 2.504C33.4013 2.15041 33.8615 1.78628 34.32 1.42037C36.1444 0.0391271 37.7101 -0.211661 39.9716 0.147113Z" fill="#152A47" fill-opacity="0.7"/>
<path d="M5.48801 11.7679C6.1473 11.7943 6.84196 12.1413 7.34293 12.5707C8.2984 13.3896 8.77358 14.5212 8.77358 15.7796C8.77358 22.0913 8.77358 28.4194 8.77358 34.9206C26.8977 34.9206 45.0217 34.9206 63.695 34.9206C63.695 37.3872 63.695 39.8537 63.695 42.3951C61.1941 43.4669 58.9586 44.1641 56.2205 44.02C56.2205 43.4838 56.2205 42.9475 56.2205 42.3951C55.7854 42.4181 55.7854 42.4181 55.3414 42.4415C48.7353 42.7412 43.1285 42.2652 36.8297 40.2053C32.4259 38.7883 28.2041 38.3037 23.6007 38.3328C23.3522 38.3335 23.1037 38.3342 22.8477 38.3349C19.0586 38.3563 15.5258 38.5612 12.0234 40.1202C11.7027 40.2613 11.7027 40.2613 11.3755 40.4052C8.43434 41.7459 5.99853 43.5046 3.57392 45.6449C2.92638 46.1894 2.27489 46.7291 1.62404 47.2698C1.58639 42.9815 1.55752 38.6933 1.53986 34.405C1.53138 32.4137 1.51987 30.4225 1.50146 28.4313C1.48381 26.5096 1.47409 24.588 1.46988 22.6662C1.46688 21.9331 1.46102 21.2 1.45224 20.4669C1.44045 19.4399 1.43882 18.4133 1.43958 17.3861C1.43374 17.0832 1.42789 16.7803 1.42188 16.4681C1.43316 15.0451 1.49467 14.0944 2.4074 12.9633C3.49398 11.9417 4.26744 11.7192 5.48801 11.7679Z" fill="#152A47"/>
<path d="M25.0233 24.5211C29.0773 24.4909 33.1312 24.4679 37.1852 24.4538C39.0679 24.447 40.9504 24.4378 42.8331 24.423C44.6515 24.4089 46.4699 24.4011 48.2884 24.3978C48.9806 24.3954 49.6727 24.3907 50.3648 24.3837C51.3378 24.3742 52.3106 24.3729 53.2836 24.3735C53.5667 24.3689 53.8498 24.3642 54.1415 24.3594C56.9554 24.378 59.5177 25.2786 61.5936 27.2174C62.9479 28.7878 63.3567 30.2858 63.6958 32.3206C50.3977 32.3206 37.0995 32.3206 23.3984 32.3206C23.9347 31.1409 24.4709 29.9613 25.0233 28.7458C25.2154 27.5101 25.2154 27.5101 25.1249 26.4101C25.1102 26.0502 25.0956 25.6903 25.0805 25.3196C25.0522 24.9243 25.0522 24.9243 25.0233 24.5211Z" fill="#152A47"/>
<path d="M18.5588 21.1733C20.3424 21.9664 21.5412 23.0797 22.4243 24.8458C22.5958 26.8645 22.666 28.667 21.4493 30.3705C20.0184 31.7709 19.0034 32.3742 17.0012 32.4219C15.12 32.3971 14.1269 32.2305 12.6749 31.0204C11.4022 29.4058 11.1638 27.713 11.2531 25.6951C11.4821 24.0991 12.0368 23.1257 13.2487 22.0721C14.9959 20.8373 16.5145 20.4944 18.5588 21.1733Z" fill="#152A47"/>
</svg>
