<svg width="283" height="84" viewBox="0 0 283 84" fill="none" xmlns="http://www.w3.org/2000/svg">
<path fill-rule="evenodd" clip-rule="evenodd" d="M76.7945 42.0006C86.4029 32.3929 86.4029 16.8153 76.7945 7.2069C67.1931 -2.39449 51.6028 -2.39449 42.0008 7.2069C32.393 16.8153 32.393 32.3929 42.0008 42.0006L55.0488 28.9532C54.1885 28.093 53.6026 26.997 53.3653 25.8039C53.1279 24.6107 53.2496 23.3739 53.7152 22.2499C54.1807 21.126 54.9691 20.1653 55.9806 19.4894C56.9921 18.8135 58.1814 18.4527 59.3979 18.4527C60.6145 18.4527 61.8037 18.8135 62.8153 19.4894C63.8268 20.1653 64.6152 21.126 65.0807 22.2499C65.5462 23.3739 65.668 24.6107 65.4306 25.8039C65.1932 26.997 64.6074 28.093 63.7471 28.9532L76.7945 42.0006Z" fill="#004E9B"/>
<path fill-rule="evenodd" clip-rule="evenodd" d="M42 76.7945C51.6084 86.4029 67.186 86.4029 76.7937 76.7945C86.3958 67.1931 86.3958 51.6028 76.7937 42.0008C67.186 32.393 51.6084 32.393 42 42.0008L55.048 55.0488C55.9082 54.1885 57.0042 53.6026 58.1974 53.3653C59.3906 53.1279 60.6274 53.2496 61.7513 53.7152C62.8753 54.1807 63.836 54.9691 64.5119 55.9806C65.1878 56.9921 65.5485 58.1814 65.5485 59.3979C65.5485 60.6145 65.1878 61.8037 64.5119 62.8153C63.836 63.8268 62.8753 64.6152 61.7513 65.0807C60.6274 65.5462 59.3906 65.668 58.1974 65.4306C57.0042 65.1932 55.9082 64.6074 55.048 63.7471L42 76.7945Z" fill="#004E9B"/>
<path fill-rule="evenodd" clip-rule="evenodd" d="M7.20583 42C-2.40194 51.6084 -2.40194 67.186 7.20583 76.7937C16.8079 86.3958 32.3982 86.3958 41.9996 76.7937C51.608 67.186 51.608 51.6084 41.9996 42L28.9522 55.048C29.8124 55.9082 30.3983 57.0042 30.6357 58.1974C30.8731 59.3906 30.7513 60.6274 30.2858 61.7513C29.8202 62.8753 29.0319 63.836 28.0203 64.5119C27.0088 65.1878 25.8196 65.5485 24.603 65.5485C23.3865 65.5485 22.1972 65.1878 21.1857 64.5119C20.1742 63.836 19.3858 62.8753 18.9203 61.7513C18.4547 60.6274 18.333 59.3906 18.5703 58.1974C18.8077 57.0042 19.3936 55.9082 20.2539 55.048L7.20583 42Z" fill="#004E9B"/>
<path fill-rule="evenodd" clip-rule="evenodd" d="M42.0006 7.20583C32.3929 -2.40194 16.8153 -2.40194 7.2069 7.20583C-2.39449 16.8079 -2.39449 32.3982 7.2069 41.9996C16.8153 51.608 32.3929 51.608 42.0006 41.9996L28.9532 28.9522C28.093 29.8124 26.997 30.3983 25.8039 30.6357C24.6107 30.8731 23.3739 30.7513 22.2499 30.2858C21.126 29.8202 20.1653 29.0319 19.4894 28.0203C18.8135 27.0088 18.4527 25.8196 18.4527 24.603C18.4527 23.3865 18.8135 22.1972 19.4894 21.1857C20.1653 20.1742 21.126 19.3858 22.2499 18.9203C23.3739 18.4547 24.6107 18.333 25.8039 18.5703C26.997 18.8077 28.093 19.3936 28.9532 20.2539L42.0006 7.20583Z" fill="#004E9B"/>
<path d="M98 47V46.58H98.168C99.176 46.58 99.988 46.272 100.604 45.656C101.22 45.04 101.528 44.228 101.528 43.22V19.28C101.528 18.272 101.22 17.46 100.604 16.844C99.988 16.228 99.176 15.92 98.168 15.92H98V15.5H111.44V15.92H111.356C110.348 15.92 109.536 16.228 108.92 16.844C108.304 17.46 107.996 18.272 107.996 19.28V29.024H121.856V19.28C121.856 18.272 121.548 17.46 120.932 16.844C120.316 16.228 119.504 15.92 118.496 15.92H118.37V15.5H131.81V15.92H131.684C130.676 15.92 129.864 16.228 129.248 16.844C128.632 17.46 128.324 18.272 128.324 19.28V43.22C128.324 44.228 128.632 45.04 129.248 45.656C129.864 46.272 130.676 46.58 131.684 46.58H131.81V47H118.37V46.58H118.496C119.504 46.58 120.316 46.272 120.932 45.656C121.548 45.04 121.856 44.228 121.856 43.22V29.612H107.996V43.22C107.996 44.228 108.304 45.04 108.92 45.656C109.536 46.272 110.348 46.58 111.356 46.58H111.44V47H98ZM147.949 48.176L147.907 42.758C147.179 44.186 146.073 45.348 144.589 46.244C143.105 47.14 141.537 47.588 139.885 47.588C138.009 47.588 136.497 46.972 135.349 45.74C134.229 44.508 133.669 42.884 133.669 40.868V29.444C133.669 28.38 133.459 27.554 133.039 26.966C132.619 26.378 131.695 26.084 130.266 26.084V25.664H134.509C135.937 25.664 137.029 25.51 137.785 25.202C138.485 24.894 138.975 24.516 139.255 24.068H139.675V41.288C139.675 42.688 139.955 43.808 140.515 44.648C141.075 45.488 141.803 45.908 142.699 45.908C143.567 45.908 144.463 45.544 145.387 44.816C146.311 44.06 147.123 43.052 147.823 41.792V29.444C147.823 28.436 147.571 27.624 147.067 27.008C146.563 26.392 145.695 26.084 144.463 26.084V25.664H148.705C150.133 25.664 151.225 25.51 151.981 25.202C152.709 24.894 153.213 24.516 153.493 24.068H153.913L153.871 43.22C153.871 44.228 154.179 45.054 154.795 45.698C155.411 46.314 156.223 46.622 157.231 46.622V47H153.073C152.345 47 151.701 47.014 151.141 47.042C150.581 47.098 150.119 47.154 149.755 47.21C148.999 47.378 148.467 47.7 148.159 48.176H147.949ZM156.781 47V46.58H156.823C157.831 46.58 158.643 46.272 159.259 45.656C159.875 45.04 160.183 44.228 160.183 43.22V29.444C160.183 28.38 159.959 27.554 159.511 26.966C159.091 26.378 158.181 26.084 156.781 26.084V25.664H160.939C162.087 25.664 162.969 25.608 163.585 25.496C164.229 25.384 164.705 25.244 165.013 25.076C165.321 24.88 165.545 24.684 165.685 24.488H166.105L166.147 29.948C166.875 28.492 167.981 27.316 169.465 26.42C170.949 25.524 172.517 25.076 174.169 25.076C175.765 25.076 177.095 25.524 178.159 26.42C179.223 27.316 179.909 28.52 180.217 30.032C181.001 28.52 182.121 27.316 183.577 26.42C185.061 25.524 186.657 25.076 188.365 25.076C190.241 25.076 191.739 25.692 192.859 26.924C194.007 28.156 194.581 29.78 194.581 31.796V43.22C194.581 44.228 194.889 45.04 195.505 45.656C196.121 46.272 196.933 46.58 197.941 46.58H197.983V47H185.173V46.58H185.215C186.223 46.58 187.035 46.272 187.651 45.656C188.267 45.04 188.575 44.228 188.575 43.22V31.376C188.575 29.976 188.295 28.856 187.735 28.016C187.175 27.176 186.447 26.756 185.551 26.756C184.683 26.756 183.773 27.148 182.821 27.932C181.869 28.688 181.043 29.682 180.343 30.914C180.371 30.97 180.385 31.04 180.385 31.124C180.385 31.208 180.385 31.278 180.385 31.334V43.22C180.385 44.228 180.693 45.04 181.309 45.656C181.925 46.272 182.737 46.58 183.745 46.58H183.787V47H170.977V46.58H171.019C172.027 46.58 172.839 46.272 173.455 45.656C174.071 45.04 174.379 44.228 174.379 43.22V31.376C174.379 29.976 174.099 28.856 173.539 28.016C173.007 27.176 172.293 26.756 171.397 26.756C170.529 26.756 169.619 27.134 168.667 27.89C167.743 28.618 166.931 29.612 166.231 30.872V43.22C166.231 44.228 166.539 45.04 167.155 45.656C167.771 46.272 168.583 46.58 169.591 46.58H169.633V47H156.781ZM207.04 47.672L198.682 28.352C198.402 27.708 198.024 27.176 197.548 26.756C197.1 26.336 196.47 26.112 195.658 26.084V25.664H207.418V26.084C206.438 26.196 205.794 26.63 205.486 27.386C205.206 28.142 205.304 29.094 205.78 30.242L210.106 40.364L214.39 30.494C214.67 29.85 214.81 29.22 214.81 28.604C214.81 27.904 214.6 27.33 214.18 26.882C213.76 26.434 213.172 26.168 212.416 26.084V25.664H219.052V26.084C218.324 26.252 217.624 26.672 216.952 27.344C216.28 28.016 215.678 28.94 215.146 30.116L207.418 47.672H207.04ZM228.773 47.588C226.477 47.588 224.461 47.126 222.725 46.202C221.017 45.278 219.687 43.976 218.735 42.296C217.783 40.616 217.307 38.628 217.307 36.332C217.307 34.036 217.783 32.048 218.735 30.368C219.687 28.688 221.017 27.386 222.725 26.462C224.461 25.538 226.477 25.076 228.773 25.076C231.069 25.076 233.071 25.538 234.779 26.462C236.487 27.386 237.817 28.688 238.769 30.368C239.721 32.048 240.197 34.036 240.197 36.332C240.197 38.628 239.721 40.616 238.769 42.296C237.817 43.976 236.487 45.278 234.779 46.202C233.071 47.126 231.069 47.588 228.773 47.588ZM228.731 47.042C229.711 47.042 230.551 46.552 231.251 45.572C231.951 44.592 232.497 43.29 232.889 41.666C233.281 40.014 233.477 38.222 233.477 36.29C233.477 34.19 233.267 32.342 232.847 30.746C232.455 29.122 231.895 27.862 231.167 26.966C230.467 26.042 229.669 25.58 228.773 25.58C227.821 25.58 226.981 26.07 226.253 27.05C225.553 28.03 225.007 29.332 224.615 30.956C224.223 32.58 224.027 34.358 224.027 36.29C224.027 38.418 224.237 40.294 224.657 41.918C225.077 43.542 225.637 44.802 226.337 45.698C227.065 46.594 227.863 47.042 228.731 47.042ZM240.781 47V46.58H240.823C241.831 46.58 242.643 46.272 243.259 45.656C243.875 45.04 244.183 44.228 244.183 43.22V29.444C244.183 28.38 243.959 27.554 243.511 26.966C243.091 26.378 242.181 26.084 240.781 26.084V25.664H244.939C246.423 25.664 247.543 25.524 248.299 25.244C249.055 24.936 249.587 24.544 249.895 24.068H250.105L250.147 30.956C250.511 30.116 250.973 29.234 251.533 28.31C252.121 27.386 252.849 26.616 253.717 26C254.613 25.356 255.677 25.034 256.909 25.034C257.329 25.034 257.777 25.076 258.253 25.16C258.729 25.244 259.233 25.398 259.765 25.622L258.127 30.536C257.119 29.976 256.237 29.584 255.481 29.36C254.753 29.136 254.109 29.024 253.549 29.024C252.597 29.024 251.883 29.318 251.407 29.906C250.959 30.494 250.567 31.194 250.231 32.006V43.22C250.231 44.228 250.539 45.04 251.155 45.656C251.771 46.272 252.583 46.58 253.591 46.58H253.633V47H240.781ZM265.712 47.588C264.004 47.588 262.632 47.126 261.596 46.202C260.56 45.278 260.042 44.06 260.042 42.548C260.042 41.904 260.154 41.302 260.378 40.742C260.602 40.154 261.022 39.58 261.638 39.02C262.282 38.46 263.164 37.886 264.284 37.298C265.404 36.682 266.888 36.038 268.736 35.366L272.642 33.938V30.788C272.642 29.192 272.39 27.932 271.886 27.008C271.382 26.056 270.682 25.58 269.786 25.58C268.722 25.608 267.812 26.308 267.056 27.68C266.328 29.052 265.838 30.956 265.586 33.392L261.05 30.788C261.526 29.64 262.254 28.632 263.234 27.764C264.214 26.896 265.334 26.224 266.594 25.748C267.882 25.272 269.226 25.034 270.626 25.034C273.006 25.034 274.938 25.706 276.422 27.05C277.934 28.366 278.69 30.172 278.69 32.468V42.59C278.69 44.214 279.236 45.026 280.328 45.026C280.972 45.026 281.602 44.676 282.218 43.976L282.554 44.27C281.826 45.25 280.944 46.048 279.908 46.664C278.872 47.28 277.864 47.588 276.884 47.588C275.82 47.588 274.896 47.224 274.112 46.496C273.356 45.768 272.88 44.802 272.684 43.598C271.312 44.998 270.108 46.02 269.072 46.664C268.064 47.28 266.944 47.588 265.712 47.588ZM268.862 44.984C269.478 44.984 270.066 44.83 270.626 44.522C271.214 44.214 271.872 43.71 272.6 43.01L272.642 34.484L270.962 35.114C269.534 35.646 268.442 36.192 267.686 36.752C266.93 37.284 266.398 37.886 266.09 38.558C265.81 39.23 265.67 40 265.67 40.868C265.67 42.072 265.964 43.066 266.552 43.85C267.168 44.606 267.938 44.984 268.862 44.984Z" fill="#004E9B"/>
<path d="M101.116 67.1355V64.7161C101.116 64.3032 101.077 63.9935 101 63.7871C100.923 63.5677 100.774 63.4129 100.555 63.3226C100.348 63.2194 100.045 63.1484 99.6452 63.1097L98.9871 63.0516V62.2968C99.2323 62.2968 99.529 62.3032 99.8774 62.3161C100.226 62.329 100.6 62.3419 101 62.3548C101.4 62.3548 101.787 62.3548 102.161 62.3548H102.394H102.587C102.923 62.3548 103.265 62.3548 103.613 62.3548C103.961 62.3419 104.29 62.329 104.6 62.3161C104.91 62.3032 105.174 62.2968 105.394 62.2968V63.0516L104.948 63.0903C104.419 63.1677 104.071 63.3097 103.903 63.5161C103.748 63.7097 103.671 64.1097 103.671 64.7161V67.1355H101.116ZM109.806 71.1613V64.6968C109.806 64.1032 109.723 63.7097 109.555 63.5161C109.4 63.3097 109.058 63.1677 108.529 63.0903L108.084 63.0323V62.2968C108.303 62.2968 108.568 62.3032 108.877 62.3161C109.187 62.329 109.516 62.3419 109.865 62.3548C110.213 62.3548 110.555 62.3548 110.89 62.3548H111.084H111.316C111.69 62.3548 112.077 62.3548 112.477 62.3548C112.877 62.3419 113.252 62.329 113.6 62.3161C113.948 62.3032 114.245 62.2968 114.49 62.2968V63.0516L113.832 63.1097C113.432 63.1484 113.123 63.2194 112.903 63.3226C112.697 63.4129 112.555 63.5677 112.477 63.7871C112.4 63.9935 112.361 64.3032 112.361 64.7161L112.342 71.1613H109.806ZM102.161 75.9419C101.787 75.9419 101.4 75.9484 101 75.9613C100.6 75.9613 100.226 75.9677 99.8774 75.9806C99.529 75.9806 99.2323 75.9871 98.9871 76V75.2452L99.6452 75.1871C100.045 75.1355 100.348 75.0645 100.555 74.9742C100.774 74.8839 100.923 74.729 101 74.5097C101.077 74.2903 101.116 73.9806 101.116 73.5806V67.1355H103.671V73.5806C103.671 74.1871 103.748 74.5935 103.903 74.8C104.071 74.9935 104.419 75.129 104.948 75.2065L105.394 75.2452V76C105.174 75.9871 104.91 75.9806 104.6 75.9806C104.29 75.9677 103.961 75.9613 103.613 75.9613C103.265 75.9484 102.923 75.9419 102.587 75.9419H102.394H102.161ZM102.665 69.4774V68.7419H110.813V69.4774H102.665ZM110.89 75.9419C110.555 75.9419 110.213 75.9484 109.865 75.9613C109.516 75.9613 109.187 75.9677 108.877 75.9806C108.568 75.9806 108.303 75.9871 108.084 76V75.2452L108.529 75.2065C109.058 75.129 109.4 74.9935 109.555 74.8C109.723 74.5935 109.806 74.1871 109.806 73.5806V71.1613H112.342V73.5806C112.342 73.9806 112.381 74.2903 112.458 74.5097C112.535 74.729 112.684 74.8839 112.903 74.9742C113.123 75.0645 113.432 75.1355 113.832 75.1871L114.49 75.2452V76C114.245 75.9871 113.942 75.9806 113.581 75.9806C113.232 75.9677 112.858 75.9613 112.458 75.9613C112.071 75.9484 111.69 75.9419 111.316 75.9419H111.084H110.89ZM118.835 72.5161V64.7161C118.835 64.3032 118.796 63.9935 118.719 63.7871C118.654 63.5677 118.512 63.4129 118.293 63.3226C118.086 63.2194 117.777 63.1484 117.364 63.1097L116.706 63.0516V62.2968C116.951 62.2968 117.248 62.3032 117.596 62.3161C117.945 62.329 118.319 62.3419 118.719 62.3548C119.119 62.3548 119.506 62.3548 119.88 62.3548H120.112C120.577 62.3548 121.003 62.3548 121.39 62.3548C121.79 62.3419 122.138 62.329 122.435 62.3161C122.745 62.3032 122.996 62.2968 123.19 62.2968C124.893 62.2968 126.196 62.5935 127.099 63.1871C128.003 63.7806 128.454 64.6323 128.454 65.7419C128.454 66.5161 128.222 67.1806 127.757 67.7355C127.306 68.2903 126.654 68.7161 125.803 69.0129C124.964 69.3097 123.951 69.4581 122.764 69.4581H120.228V68.9355H122.745C123.816 68.9355 124.609 68.6903 125.125 68.2C125.641 67.7097 125.899 66.9613 125.899 65.9548C125.899 64.9742 125.648 64.2516 125.145 63.7871C124.641 63.3097 123.867 63.071 122.822 63.071H121.39V72.5161H118.835ZM128.261 76.271C127.512 76.271 126.938 76.0903 126.538 75.729C126.138 75.3548 125.854 74.7484 125.686 73.9097L125.222 71.8C125.106 71.2452 124.951 70.8194 124.757 70.5226C124.577 70.2129 124.332 69.9935 124.022 69.8645C123.712 69.7355 123.306 69.671 122.803 69.671H120.364V69.1677H122.609C123.809 69.1677 124.757 69.2645 125.454 69.4581C126.164 69.6387 126.706 69.9613 127.08 70.4258C127.467 70.8774 127.757 71.5161 127.951 72.3419L128.28 73.6774C128.396 74.1677 128.538 74.5161 128.706 74.7226C128.874 74.929 129.106 75.0258 129.403 75.0129C129.557 75.0129 129.699 74.9806 129.828 74.9161C129.957 74.8516 130.099 74.7355 130.254 74.5677L130.641 75.1097C130.319 75.5097 129.964 75.8065 129.577 76C129.203 76.1806 128.764 76.271 128.261 76.271ZM119.88 75.9419C119.506 75.9419 119.119 75.9484 118.719 75.9613C118.319 75.9613 117.945 75.9677 117.596 75.9806C117.248 75.9806 116.951 75.9871 116.706 76V75.2452L117.364 75.1871C117.764 75.1355 118.074 75.0645 118.293 74.9742C118.512 74.8839 118.654 74.729 118.719 74.5097C118.796 74.2903 118.835 73.9806 118.835 73.5806V72.5161H121.39V73.5806C121.39 74.1871 121.461 74.5935 121.603 74.8C121.745 75.0065 122.061 75.1419 122.551 75.2065L122.919 75.2452V76C122.712 75.9871 122.461 75.9806 122.164 75.9806C121.88 75.9677 121.577 75.9613 121.254 75.9613C120.932 75.9484 120.609 75.9419 120.286 75.9419H120.132H119.88ZM139.422 76.1355L134.68 63.6129H134.371V73.5806C134.371 74.1742 134.448 74.5806 134.603 74.8C134.771 75.0065 135.138 75.1419 135.706 75.2065L136.267 75.2452V76C136.009 75.9871 135.667 75.9742 135.242 75.9613C134.816 75.9484 134.403 75.9419 134.003 75.9419C133.706 75.9419 133.396 75.9484 133.074 75.9613C132.764 75.9613 132.467 75.9677 132.184 75.9806C131.9 75.9806 131.654 75.9871 131.448 76V75.2452L132.145 75.1871C132.558 75.1484 132.867 75.0839 133.074 74.9935C133.28 74.8903 133.416 74.729 133.48 74.5097C133.558 74.2903 133.596 73.9806 133.596 73.5806V64.6968C133.596 64.2968 133.558 63.9935 133.48 63.7871C133.403 63.5677 133.254 63.4129 133.035 63.3226C132.829 63.2194 132.519 63.1484 132.106 63.1097L131.467 63.0323V62.2968C131.713 62.2968 132.009 62.3032 132.358 62.3161C132.706 62.329 133.08 62.3419 133.48 62.3548C133.88 62.3548 134.267 62.3548 134.642 62.3548H134.951C135.351 62.3548 135.713 62.3484 136.035 62.3355C136.358 62.3226 136.635 62.3097 136.867 62.2968L140.913 73.1161L140.293 73.3484L143.99 62.2968C144.39 62.3226 144.745 62.3419 145.054 62.3548C145.377 62.3548 145.706 62.3548 146.042 62.3548H146.254C146.629 62.3548 147.009 62.3548 147.396 62.3548C147.796 62.3419 148.171 62.329 148.519 62.3161C148.88 62.3032 149.184 62.2968 149.429 62.2968V63.0516L148.771 63.1097C148.371 63.1484 148.061 63.2194 147.842 63.3226C147.622 63.4129 147.474 63.5677 147.396 63.7871C147.319 63.9935 147.28 64.3032 147.28 64.7161V73.5806C147.28 73.9806 147.319 74.2903 147.396 74.5097C147.474 74.729 147.622 74.8839 147.842 74.9742C148.061 75.0645 148.371 75.1355 148.771 75.1871L149.429 75.2452V76C149.184 75.9871 148.88 75.9806 148.519 75.9806C148.171 75.9677 147.796 75.9613 147.396 75.9613C147.009 75.9484 146.629 75.9419 146.254 75.9419H146.022H145.848C145.513 75.9419 145.164 75.9484 144.803 75.9613C144.454 75.9613 144.125 75.9677 143.816 75.9806C143.506 75.9806 143.242 75.9871 143.022 76V75.2452L143.487 75.2065C143.835 75.1419 144.1 75.0645 144.28 74.9742C144.461 74.8839 144.584 74.729 144.648 74.5097C144.713 74.2903 144.745 73.9806 144.745 73.5806V63.3226H144.435L140.119 76.1355H139.422ZM157.237 76.271C156.475 76.271 155.824 76.1935 155.282 76.0387C154.753 75.8839 154.32 75.7355 153.985 75.5935C153.649 75.4387 153.378 75.3613 153.172 75.3613C153.004 75.3613 152.869 75.4258 152.766 75.5548C152.675 75.6839 152.604 75.8903 152.553 76.1742H151.778C151.804 75.8645 151.824 75.4968 151.837 75.071C151.849 74.6452 151.856 74.1032 151.856 73.4452C151.869 72.7742 151.875 71.9355 151.875 70.929H152.649C152.778 72.3484 153.217 73.4645 153.966 74.2774C154.727 75.0774 155.714 75.4774 156.927 75.4774C157.804 75.4774 158.495 75.2581 158.998 74.8194C159.514 74.3806 159.772 73.7871 159.772 73.0387C159.772 72.5742 159.656 72.1613 159.424 71.8C159.191 71.4387 158.817 71.1226 158.301 70.8516C157.798 70.5677 157.133 70.3032 156.308 70.0581C155.314 69.7742 154.501 69.4387 153.869 69.0516C153.237 68.6516 152.772 68.1871 152.475 67.6581C152.178 67.1161 152.03 66.5032 152.03 65.8194C152.03 64.6581 152.417 63.7355 153.191 63.0516C153.966 62.3677 155.017 62.0258 156.346 62.0258C157.056 62.0258 157.643 62.1032 158.108 62.2581C158.572 62.4 158.959 62.5484 159.269 62.7032C159.578 62.8581 159.837 62.9355 160.043 62.9355C160.211 62.9355 160.34 62.871 160.43 62.7419C160.533 62.6129 160.611 62.4065 160.662 62.1226H161.437C161.411 62.4194 161.391 62.7484 161.378 63.1097C161.366 63.4581 161.353 63.9097 161.34 64.4645C161.34 65.0194 161.34 65.7355 161.34 66.6129H160.566C160.475 65.8387 160.249 65.1677 159.888 64.6C159.54 64.0323 159.088 63.5935 158.533 63.2839C157.991 62.9613 157.372 62.8 156.675 62.8C155.888 62.8 155.275 63 154.837 63.4C154.398 63.7871 154.178 64.3097 154.178 64.9677C154.178 65.4194 154.295 65.8194 154.527 66.1677C154.759 66.5032 155.14 66.8129 155.669 67.0968C156.198 67.3806 156.901 67.6581 157.778 67.929C158.772 68.2129 159.585 68.5548 160.217 68.9548C160.849 69.3548 161.314 69.8258 161.611 70.3677C161.92 70.8968 162.075 71.5161 162.075 72.2258C162.075 73.4645 161.643 74.4516 160.778 75.1871C159.914 75.9097 158.733 76.271 157.237 76.271Z" fill="#404040"/>
</svg>
