<svg width="281" height="81" viewBox="0 0 281 81" fill="none" xmlns="http://www.w3.org/2000/svg">
<path fill-rule="evenodd" clip-rule="evenodd" d="M74.0504 40.4989C83.3156 31.2342 83.3156 16.213 74.0504 6.94777C64.7919 -2.31072 49.7584 -2.31072 40.4993 6.94777C31.2346 16.213 31.2346 31.2342 40.4993 40.4989L53.0813 27.9174C52.2517 27.088 51.6868 26.0311 51.4579 24.8806C51.229 23.73 51.3464 22.5374 51.7953 21.4536C52.2442 20.3697 53.0044 19.4434 53.9798 18.7916C54.9552 18.1399 56.102 17.792 57.2751 17.792C58.4482 17.792 59.595 18.1399 60.5704 18.7916C61.5458 19.4434 62.306 20.3697 62.7549 21.4536C63.2038 22.5374 63.3213 23.73 63.0923 24.8806C62.8634 26.0311 62.2985 27.088 61.4689 27.9174L74.0504 40.4989Z" fill="#0D2643"/>
<path fill-rule="evenodd" clip-rule="evenodd" d="M40.5 74.0504C49.7653 83.3156 64.7865 83.3156 74.0511 74.0504C83.3102 64.7919 83.3102 49.7584 74.0511 40.4993C64.7865 31.2346 49.7653 31.2346 40.5 40.4993L53.082 53.0813C53.9115 52.2517 54.9684 51.6868 56.1189 51.4579C57.2695 51.229 58.4621 51.3464 59.5459 51.7953C60.6297 52.2442 61.5561 53.0044 62.2079 53.9798C62.8596 54.9552 63.2075 56.102 63.2075 57.2751C63.2075 58.4482 62.8596 59.595 62.2079 60.5704C61.5561 61.5458 60.6297 62.306 59.5459 62.7549C58.4621 63.2038 57.2695 63.3213 56.1189 63.0923C54.9684 62.8634 53.9115 62.2985 53.082 61.4689L40.5 74.0504Z" fill="#0D2643"/>
<path fill-rule="evenodd" clip-rule="evenodd" d="M6.94848 40.5C-2.31616 49.7653 -2.31616 64.7865 6.94848 74.0511C16.2076 83.3102 31.2411 83.3102 40.4996 74.0511C49.7648 64.7865 49.7648 49.7653 40.4996 40.5L27.9181 53.082C28.7477 53.9115 29.3127 54.9684 29.5416 56.1189C29.7705 57.2695 29.653 58.4621 29.2041 59.5459C28.7552 60.6297 27.995 61.5561 27.0196 62.2079C26.0442 62.8596 24.8974 63.2075 23.7243 63.2075C22.5512 63.2075 21.4045 62.8596 20.4291 62.2079C19.4537 61.5561 18.6934 60.6297 18.2445 59.5459C17.7956 58.4621 17.6782 57.2695 17.9071 56.1189C18.136 54.9684 18.701 53.9115 19.5305 53.082L6.94848 40.5Z" fill="#0D2643"/>
<path fill-rule="evenodd" clip-rule="evenodd" d="M40.4989 6.94848C31.2342 -2.31616 16.213 -2.31616 6.94777 6.94848C-2.31072 16.2076 -2.31072 31.2411 6.94777 40.4996C16.213 49.7648 31.2342 49.7648 40.4989 40.4996L27.9174 27.9181C27.088 28.7477 26.0311 29.3127 24.8806 29.5416C23.73 29.7705 22.5374 29.653 21.4536 29.2041C20.3697 28.7552 19.4434 27.995 18.7916 27.0196C18.1399 26.0442 17.792 24.8974 17.792 23.7243C17.792 22.5512 18.1399 21.4045 18.7916 20.4291C19.4434 19.4537 20.3697 18.6934 21.4536 18.2445C22.5374 17.7956 23.73 17.6782 24.8806 17.9071C26.0311 18.136 27.088 18.701 27.9174 19.5305L40.4989 6.94848Z" fill="#0D2643"/>
<path d="M96 56V55.58H96.168C97.176 55.58 97.988 55.272 98.604 54.656C99.22 54.04 99.528 53.228 99.528 52.22V28.28C99.528 27.272 99.22 26.46 98.604 25.844C97.988 25.228 97.176 24.92 96.168 24.92H96V24.5H109.44V24.92H109.356C108.348 24.92 107.536 25.228 106.92 25.844C106.304 26.46 105.996 27.272 105.996 28.28V38.024H119.856V28.28C119.856 27.272 119.548 26.46 118.932 25.844C118.316 25.228 117.504 24.92 116.496 24.92H116.37V24.5H129.81V24.92H129.684C128.676 24.92 127.864 25.228 127.248 25.844C126.632 26.46 126.324 27.272 126.324 28.28V52.22C126.324 53.228 126.632 54.04 127.248 54.656C127.864 55.272 128.676 55.58 129.684 55.58H129.81V56H116.37V55.58H116.496C117.504 55.58 118.316 55.272 118.932 54.656C119.548 54.04 119.856 53.228 119.856 52.22V38.612H105.996V52.22C105.996 53.228 106.304 54.04 106.92 54.656C107.536 55.272 108.348 55.58 109.356 55.58H109.44V56H96ZM145.949 57.176L145.907 51.758C145.179 53.186 144.073 54.348 142.589 55.244C141.105 56.14 139.537 56.588 137.885 56.588C136.009 56.588 134.497 55.972 133.349 54.74C132.229 53.508 131.669 51.884 131.669 49.868V38.444C131.669 37.38 131.459 36.554 131.039 35.966C130.619 35.378 129.695 35.084 128.266 35.084V34.664H132.509C133.937 34.664 135.029 34.51 135.785 34.202C136.485 33.894 136.975 33.516 137.255 33.068H137.675V50.288C137.675 51.688 137.955 52.808 138.515 53.648C139.075 54.488 139.803 54.908 140.699 54.908C141.567 54.908 142.463 54.544 143.387 53.816C144.311 53.06 145.123 52.052 145.823 50.792V38.444C145.823 37.436 145.571 36.624 145.067 36.008C144.563 35.392 143.695 35.084 142.463 35.084V34.664H146.705C148.133 34.664 149.225 34.51 149.981 34.202C150.709 33.894 151.213 33.516 151.493 33.068H151.913L151.871 52.22C151.871 53.228 152.179 54.054 152.795 54.698C153.411 55.314 154.223 55.622 155.231 55.622V56H151.073C150.345 56 149.701 56.014 149.141 56.042C148.581 56.098 148.119 56.154 147.755 56.21C146.999 56.378 146.467 56.7 146.159 57.176H145.949ZM154.781 56V55.58H154.823C155.831 55.58 156.643 55.272 157.259 54.656C157.875 54.04 158.183 53.228 158.183 52.22V38.444C158.183 37.38 157.959 36.554 157.511 35.966C157.091 35.378 156.181 35.084 154.781 35.084V34.664H158.939C160.087 34.664 160.969 34.608 161.585 34.496C162.229 34.384 162.705 34.244 163.013 34.076C163.321 33.88 163.545 33.684 163.685 33.488H164.105L164.147 38.948C164.875 37.492 165.981 36.316 167.465 35.42C168.949 34.524 170.517 34.076 172.169 34.076C173.765 34.076 175.095 34.524 176.159 35.42C177.223 36.316 177.909 37.52 178.217 39.032C179.001 37.52 180.121 36.316 181.577 35.42C183.061 34.524 184.657 34.076 186.365 34.076C188.241 34.076 189.739 34.692 190.859 35.924C192.007 37.156 192.581 38.78 192.581 40.796V52.22C192.581 53.228 192.889 54.04 193.505 54.656C194.121 55.272 194.933 55.58 195.941 55.58H195.983V56H183.173V55.58H183.215C184.223 55.58 185.035 55.272 185.651 54.656C186.267 54.04 186.575 53.228 186.575 52.22V40.376C186.575 38.976 186.295 37.856 185.735 37.016C185.175 36.176 184.447 35.756 183.551 35.756C182.683 35.756 181.773 36.148 180.821 36.932C179.869 37.688 179.043 38.682 178.343 39.914C178.371 39.97 178.385 40.04 178.385 40.124C178.385 40.208 178.385 40.278 178.385 40.334V52.22C178.385 53.228 178.693 54.04 179.309 54.656C179.925 55.272 180.737 55.58 181.745 55.58H181.787V56H168.977V55.58H169.019C170.027 55.58 170.839 55.272 171.455 54.656C172.071 54.04 172.379 53.228 172.379 52.22V40.376C172.379 38.976 172.099 37.856 171.539 37.016C171.007 36.176 170.293 35.756 169.397 35.756C168.529 35.756 167.619 36.134 166.667 36.89C165.743 37.618 164.931 38.612 164.231 39.872V52.22C164.231 53.228 164.539 54.04 165.155 54.656C165.771 55.272 166.583 55.58 167.591 55.58H167.633V56H154.781ZM205.04 56.672L196.682 37.352C196.402 36.708 196.024 36.176 195.548 35.756C195.1 35.336 194.47 35.112 193.658 35.084V34.664H205.418V35.084C204.438 35.196 203.794 35.63 203.486 36.386C203.206 37.142 203.304 38.094 203.78 39.242L208.106 49.364L212.39 39.494C212.67 38.85 212.81 38.22 212.81 37.604C212.81 36.904 212.6 36.33 212.18 35.882C211.76 35.434 211.172 35.168 210.416 35.084V34.664H217.052V35.084C216.324 35.252 215.624 35.672 214.952 36.344C214.28 37.016 213.678 37.94 213.146 39.116L205.418 56.672H205.04ZM226.773 56.588C224.477 56.588 222.461 56.126 220.725 55.202C219.017 54.278 217.687 52.976 216.735 51.296C215.783 49.616 215.307 47.628 215.307 45.332C215.307 43.036 215.783 41.048 216.735 39.368C217.687 37.688 219.017 36.386 220.725 35.462C222.461 34.538 224.477 34.076 226.773 34.076C229.069 34.076 231.071 34.538 232.779 35.462C234.487 36.386 235.817 37.688 236.769 39.368C237.721 41.048 238.197 43.036 238.197 45.332C238.197 47.628 237.721 49.616 236.769 51.296C235.817 52.976 234.487 54.278 232.779 55.202C231.071 56.126 229.069 56.588 226.773 56.588ZM226.731 56.042C227.711 56.042 228.551 55.552 229.251 54.572C229.951 53.592 230.497 52.29 230.889 50.666C231.281 49.014 231.477 47.222 231.477 45.29C231.477 43.19 231.267 41.342 230.847 39.746C230.455 38.122 229.895 36.862 229.167 35.966C228.467 35.042 227.669 34.58 226.773 34.58C225.821 34.58 224.981 35.07 224.253 36.05C223.553 37.03 223.007 38.332 222.615 39.956C222.223 41.58 222.027 43.358 222.027 45.29C222.027 47.418 222.237 49.294 222.657 50.918C223.077 52.542 223.637 53.802 224.337 54.698C225.065 55.594 225.863 56.042 226.731 56.042ZM238.781 56V55.58H238.823C239.831 55.58 240.643 55.272 241.259 54.656C241.875 54.04 242.183 53.228 242.183 52.22V38.444C242.183 37.38 241.959 36.554 241.511 35.966C241.091 35.378 240.181 35.084 238.781 35.084V34.664H242.939C244.423 34.664 245.543 34.524 246.299 34.244C247.055 33.936 247.587 33.544 247.895 33.068H248.105L248.147 39.956C248.511 39.116 248.973 38.234 249.533 37.31C250.121 36.386 250.849 35.616 251.717 35C252.613 34.356 253.677 34.034 254.909 34.034C255.329 34.034 255.777 34.076 256.253 34.16C256.729 34.244 257.233 34.398 257.765 34.622L256.127 39.536C255.119 38.976 254.237 38.584 253.481 38.36C252.753 38.136 252.109 38.024 251.549 38.024C250.597 38.024 249.883 38.318 249.407 38.906C248.959 39.494 248.567 40.194 248.231 41.006V52.22C248.231 53.228 248.539 54.04 249.155 54.656C249.771 55.272 250.583 55.58 251.591 55.58H251.633V56H238.781ZM263.712 56.588C262.004 56.588 260.632 56.126 259.596 55.202C258.56 54.278 258.042 53.06 258.042 51.548C258.042 50.904 258.154 50.302 258.378 49.742C258.602 49.154 259.022 48.58 259.638 48.02C260.282 47.46 261.164 46.886 262.284 46.298C263.404 45.682 264.888 45.038 266.736 44.366L270.642 42.938V39.788C270.642 38.192 270.39 36.932 269.886 36.008C269.382 35.056 268.682 34.58 267.786 34.58C266.722 34.608 265.812 35.308 265.056 36.68C264.328 38.052 263.838 39.956 263.586 42.392L259.05 39.788C259.526 38.64 260.254 37.632 261.234 36.764C262.214 35.896 263.334 35.224 264.594 34.748C265.882 34.272 267.226 34.034 268.626 34.034C271.006 34.034 272.938 34.706 274.422 36.05C275.934 37.366 276.69 39.172 276.69 41.468V51.59C276.69 53.214 277.236 54.026 278.328 54.026C278.972 54.026 279.602 53.676 280.218 52.976L280.554 53.27C279.826 54.25 278.944 55.048 277.908 55.664C276.872 56.28 275.864 56.588 274.884 56.588C273.82 56.588 272.896 56.224 272.112 55.496C271.356 54.768 270.88 53.802 270.684 52.598C269.312 53.998 268.108 55.02 267.072 55.664C266.064 56.28 264.944 56.588 263.712 56.588ZM266.862 53.984C267.478 53.984 268.066 53.83 268.626 53.522C269.214 53.214 269.872 52.71 270.6 52.01L270.642 43.484L268.962 44.114C267.534 44.646 266.442 45.192 265.686 45.752C264.93 46.284 264.398 46.886 264.09 47.558C263.81 48.23 263.67 49 263.67 49.868C263.67 51.072 263.964 52.066 264.552 52.85C265.168 53.606 265.938 53.984 266.862 53.984Z" fill="#0D2643"/>
</svg>
