<svg width="289" height="62" viewBox="0 0 289 62" fill="none" xmlns="http://www.w3.org/2000/svg">
<path d="M60.1778 41.3888L56.8769 39.1035L45.9584 52.3072L36.0557 40.627L27.1686 48.4984L26.9147 48.7524L26.5338 49.1332L26.1529 49.5141L12.1875 61.956L35.2939 46.721L46.2124 59.4169L60.1778 41.3888Z" fill="#F9B318"/>
<path d="M5.58617 21.0742L0 28.1839L15.235 40.6258L20.5673 33.7701L18.0281 33.5161L11.4263 30.7231L7.36359 25.6447L5.58617 21.0742Z" fill="#004E9B"/>
<path d="M81.0008 12.1875L66.0197 21.3285L70.3363 22.0903L65.258 28.6921L63.9884 30.2156L63.2267 31.2313L60.9414 34.0243L63.9884 36.8174L74.1451 24.3755L76.1764 27.6764L81.0008 12.1875Z" fill="#F9B318"/>
<path d="M73.1278 4.5705L71.8582 4.06267L65.2564 11.1723L56.6232 10.9184V12.6958L59.6702 12.9498L59.9241 13.9654L54.8458 18.5359L51.5449 20.3133L45.1969 14.2193L42.4039 12.4419L42.9117 10.9184L44.943 10.6645L45.1969 8.12534L46.2126 7.87142L44.1813 2.28525L44.4352 0L38.3412 1.77742L36.8177 3.80875V6.34792L39.1029 9.90275L37.8334 11.6802H33.0089L26.661 13.9654L20.3131 18.282L14.7269 23.1064L12.6956 22.0908L10.9182 24.1221L6.85551 20.8212L8.12509 24.8838L11.9338 29.9622L17.52 32.2474L20.8209 32.5014L17.0122 29.2004L18.5357 27.1691L17.2661 25.3917L17.52 24.376L20.3131 21.8368L24.8836 19.0438L29.2002 17.5203L32.5011 17.2663L25.8993 31.2318L23.1062 35.8023L8.63293 51.799V52.5608L5.83984 54.3382L6.09376 61.7018L7.87118 61.9557L8.37901 61.4479L8.88685 56.8774L10.9182 53.8304L26.661 42.1502L31.4854 37.5797L36.0559 37.3258L46.7204 33.517L50.2753 33.0092L62.9711 41.3884L64.4946 43.1659H66.272L70.3347 38.3414L70.8425 37.0718L70.3347 36.3101L68.5573 36.564L66.272 38.8493L65.0025 39.3571L54.338 29.9622L50.5292 27.9308L39.8647 29.7083L35.0403 33.7709L34.5324 33.517L37.8334 29.4543L43.9274 19.2977L45.1969 21.0751L50.7831 24.6299L53.3223 23.8682L60.178 17.5203L63.479 13.2037L66.0181 12.9498L72.8739 5.84009L73.1278 4.5705Z" fill="#004E9B"/>
<path d="M115.824 47.588C112.184 47.588 108.992 46.916 106.248 45.572C103.504 44.2 101.362 42.282 99.822 39.818C98.31 37.354 97.554 34.484 97.554 31.208C97.554 27.904 98.31 25.034 99.822 22.598C101.362 20.162 103.532 18.272 106.332 16.928C109.132 15.584 112.45 14.912 116.286 14.912C117.21 14.912 117.98 14.954 118.596 15.038C119.212 15.094 119.786 15.164 120.318 15.248C120.85 15.332 121.452 15.416 122.124 15.5C122.824 15.556 123.692 15.584 124.728 15.584L125.988 23.984H125.568C125.26 22.332 124.644 20.876 123.72 19.616C122.824 18.328 121.69 17.32 120.318 16.592C118.974 15.836 117.476 15.458 115.824 15.458C114.2 15.458 112.702 15.85 111.33 16.634C109.958 17.418 108.782 18.51 107.802 19.91C106.822 21.338 106.052 23.046 105.492 25.034C104.96 26.994 104.694 29.15 104.694 31.502C104.694 34.61 105.17 37.326 106.122 39.65C107.074 41.946 108.418 43.738 110.154 45.026C111.89 46.286 113.934 46.916 116.286 46.916C118.974 46.916 121.186 46.118 122.922 44.522C124.686 42.898 125.778 40.644 126.198 37.76H126.618L125.4 46.832C124.084 46.832 122.922 46.888 121.914 47C120.906 47.14 119.926 47.266 118.974 47.378C118.05 47.518 117 47.588 115.824 47.588ZM126.164 47V46.58C126.696 46.524 127.228 46.272 127.76 45.824C128.32 45.348 128.838 44.76 129.314 44.06C129.79 43.36 130.154 42.674 130.406 42.002L141.494 14.87H141.872L152.792 42.002C154.024 45.054 155.396 46.58 156.908 46.58H157.034V47H143.594V46.58H143.762C145.022 46.58 145.862 46.202 146.282 45.446C146.73 44.662 146.674 43.584 146.114 42.212L143.594 35.954H133.472L131.12 41.792C130.616 42.996 130.672 44.088 131.288 45.068C131.932 46.02 132.954 46.524 134.354 46.58V47H126.164ZM133.682 35.408H143.384L138.596 23.312L133.682 35.408ZM155.596 47V46.58C156.604 46.58 157.416 46.272 158.032 45.656C158.648 45.04 158.956 44.228 158.956 43.22V19.28C158.956 18.272 158.648 17.46 158.032 16.844C157.416 16.228 156.604 15.92 155.596 15.92V15.5H169.624C171.64 15.5 173.39 15.85 174.874 16.55C176.386 17.222 177.548 18.174 178.36 19.406C179.2 20.61 179.62 22.024 179.62 23.648C179.62 25.692 178.99 27.442 177.73 28.898C176.47 30.354 174.762 31.236 172.606 31.544C173.082 31.684 173.642 32.104 174.286 32.804C174.958 33.504 175.602 34.372 176.218 35.408L181.51 44.48C181.902 45.124 182.364 45.642 182.896 46.034C183.456 46.398 184.072 46.58 184.744 46.58V47H176.05C175.658 46.356 175.238 45.656 174.79 44.9C174.37 44.144 173.978 43.444 173.614 42.8L169.498 35.24C168.994 34.316 168.56 33.602 168.196 33.098C167.86 32.566 167.51 32.202 167.146 32.006C166.81 31.81 166.376 31.712 165.844 31.712H165.424V43.22C165.424 44.228 165.732 45.04 166.348 45.656C166.964 46.272 167.776 46.58 168.784 46.58H168.868V47H155.596ZM165.424 31.166H167.566C169.386 31.166 170.828 30.466 171.892 29.066C172.984 27.666 173.53 25.846 173.53 23.606C173.53 21.338 173.012 19.518 171.976 18.146C170.94 16.746 169.568 16.046 167.86 16.046H165.424V31.166ZM194.396 47.63L183.476 20.498C182.272 17.446 180.914 15.92 179.402 15.92H179.276V15.5H192.716V15.92H192.548C191.26 15.92 190.406 16.312 189.986 17.096C189.566 17.852 189.636 18.916 190.196 20.288L197.672 39.188L205.358 20.288C205.862 19.028 205.792 18.006 205.148 17.222C204.532 16.41 203.468 15.976 201.956 15.92V15.5H210.146V15.92C209.614 15.948 209.068 16.2 208.508 16.676C207.976 17.152 207.472 17.74 206.996 18.44C206.548 19.112 206.184 19.798 205.904 20.498L194.816 47.63H194.396ZM208.588 47V46.58H208.63C209.638 46.58 210.45 46.272 211.066 45.656C211.682 45.04 211.99 44.228 211.99 43.22V19.28C211.99 18.272 211.682 17.46 211.066 16.844C210.45 16.228 209.638 15.92 208.63 15.92H208.588V15.5H221.902V15.92H221.86C220.852 15.92 220.04 16.228 219.424 16.844C218.808 17.46 218.5 18.272 218.5 19.28V43.22C218.5 44.228 218.808 45.04 219.424 45.656C220.04 46.272 220.852 46.58 221.86 46.58H221.902V47H208.588ZM239.372 47.588C236.012 47.588 233.058 46.916 230.51 45.572C227.99 44.2 226.016 42.296 224.588 39.86C223.188 37.396 222.488 34.526 222.488 31.25C222.488 27.974 223.188 25.118 224.588 22.682C226.016 20.218 227.99 18.314 230.51 16.97C233.058 15.598 236.012 14.912 239.372 14.912C242.732 14.912 245.672 15.598 248.192 16.97C250.74 18.314 252.714 20.218 254.114 22.682C255.542 25.118 256.256 27.974 256.256 31.25C256.256 34.526 255.542 37.396 254.114 39.86C252.714 42.296 250.74 44.2 248.192 45.572C245.672 46.916 242.732 47.588 239.372 47.588ZM239.372 46.916C240.828 46.916 242.158 46.538 243.362 45.782C244.566 45.026 245.602 43.962 246.47 42.59C247.31 41.218 247.954 39.566 248.402 37.634C248.878 35.702 249.116 33.56 249.116 31.208C249.116 28.856 248.878 26.714 248.402 24.782C247.954 22.822 247.31 21.156 246.47 19.784C245.602 18.412 244.566 17.348 243.362 16.592C242.158 15.836 240.828 15.458 239.372 15.458C237.916 15.458 236.586 15.836 235.382 16.592C234.178 17.348 233.156 18.412 232.316 19.784C231.448 21.156 230.776 22.822 230.3 24.782C229.852 26.714 229.628 28.856 229.628 31.208C229.628 33.56 229.852 35.702 230.3 37.634C230.776 39.566 231.448 41.218 232.316 42.59C233.156 43.962 234.178 45.026 235.382 45.782C236.586 46.538 237.916 46.916 239.372 46.916ZM284.299 47.588L262.291 19.532C262.095 19.28 261.871 19.028 261.619 18.776C261.395 18.524 261.185 18.314 260.989 18.146V42.17C260.989 43.374 261.353 44.41 262.081 45.278C262.809 46.146 263.775 46.58 264.979 46.58V47H256.243V46.58C257.475 46.58 258.455 46.146 259.183 45.278C259.911 44.41 260.275 43.36 260.275 42.128V17.558C259.015 16.606 257.685 16.06 256.285 15.92V15.5H267.079L283.585 36.794V20.33C283.585 19.126 283.221 18.09 282.493 17.222C281.765 16.354 280.799 15.92 279.595 15.92V15.5H288.289V15.92C287.085 15.92 286.119 16.354 285.391 17.222C284.663 18.09 284.299 19.126 284.299 20.33V47.588Z" fill="#004E9B"/>
</svg>
