<svg width="291" height="79" viewBox="0 0 291 79" fill="none" xmlns="http://www.w3.org/2000/svg">
<path d="M62.4064 47.9226L58.9832 45.5527L47.6604 59.2454L37.3909 47.1327L28.1746 55.2956L27.9113 55.5589L27.5163 55.9539L27.1213 56.3489L12.6387 69.2516L36.6009 53.4524L47.9237 66.6184L62.4064 47.9226Z" fill="#F9B318"/>
<path d="M5.79306 26.8555L0 34.2285L15.7993 47.1312L21.329 40.0215L18.6958 39.7582L11.8495 36.8617L7.63631 31.5952L5.79306 26.8555Z" fill="#004E9B"/>
<path d="M83.9996 17.6387L68.4637 27.1182L72.9401 27.9082L67.6737 34.7545L66.3571 36.3345L65.5672 37.3878L63.1973 40.2843L66.3571 43.1808L76.89 30.2781L78.9965 33.7013L83.9996 17.6387Z" fill="#F9B318"/>
<path d="M75.8367 9.73978L74.5201 9.21314L67.6738 16.5861L58.7209 16.3228V18.1661L61.8807 18.4294L62.144 19.4827L56.8776 24.2224L53.4544 26.0657L46.8714 19.746L43.9749 17.9027L44.5015 16.3228L46.6081 16.0595L46.8714 13.4263L47.9247 13.163L45.8181 7.36989L46.0815 5L39.7617 6.84325L38.1818 8.94982V11.583L40.5517 15.2695L39.2351 17.1128H34.232L27.649 19.4827L21.0659 23.9591L15.2729 28.9622L13.1663 27.9089L11.3231 30.0155L7.10993 26.5923L8.42653 30.8055L12.3763 36.0719L18.1694 38.4418L21.5926 38.7051L17.6428 35.2819L19.2227 33.1754L17.9061 31.3321L18.1694 30.2788L21.0659 27.6456L25.8057 24.7491L30.2822 23.1692L33.7054 22.9058L26.859 37.3885L23.9625 42.1283L8.95317 58.7175V59.5075L6.05664 61.3507L6.31996 68.987L8.16321 69.2503L8.68985 68.7237L9.21649 63.9839L11.3231 60.8241L27.649 48.7113L32.6521 43.9715L37.3919 43.7082L48.4513 39.7584L52.1378 39.2317L65.3039 47.9213L66.8838 49.7646H68.7271L72.9402 44.7615L73.4669 43.4449L72.9402 42.6549L71.097 42.9182L68.7271 45.2881L67.4105 45.8148L56.351 36.0719L52.4012 33.9653L41.3417 35.8086L36.3386 40.0217L35.8119 39.7584L39.2351 35.5452L45.5548 25.0124L46.8714 26.8557L52.6645 30.5421L55.2977 29.7522L62.4074 23.1692L65.8305 18.6927L68.4637 18.4294L75.5734 11.0564L75.8367 9.73978Z" fill="#004E9B"/>
<path d="M117.824 41.588C114.184 41.588 110.992 40.916 108.248 39.572C105.504 38.2 103.362 36.282 101.822 33.818C100.31 31.354 99.554 28.484 99.554 25.208C99.554 21.904 100.31 19.034 101.822 16.598C103.362 14.162 105.532 12.272 108.332 10.928C111.132 9.584 114.45 8.912 118.286 8.912C119.21 8.912 119.98 8.954 120.596 9.038C121.212 9.094 121.786 9.164 122.318 9.248C122.85 9.332 123.452 9.416 124.124 9.5C124.824 9.556 125.692 9.584 126.728 9.584L127.988 17.984H127.568C127.26 16.332 126.644 14.876 125.72 13.616C124.824 12.328 123.69 11.32 122.318 10.592C120.974 9.836 119.476 9.458 117.824 9.458C116.2 9.458 114.702 9.85 113.33 10.634C111.958 11.418 110.782 12.51 109.802 13.91C108.822 15.338 108.052 17.046 107.492 19.034C106.96 20.994 106.694 23.15 106.694 25.502C106.694 28.61 107.17 31.326 108.122 33.65C109.074 35.946 110.418 37.738 112.154 39.026C113.89 40.286 115.934 40.916 118.286 40.916C120.974 40.916 123.186 40.118 124.922 38.522C126.686 36.898 127.778 34.644 128.198 31.76H128.618L127.4 40.832C126.084 40.832 124.922 40.888 123.914 41C122.906 41.14 121.926 41.266 120.974 41.378C120.05 41.518 119 41.588 117.824 41.588ZM128.164 41V40.58C128.696 40.524 129.228 40.272 129.76 39.824C130.32 39.348 130.838 38.76 131.314 38.06C131.79 37.36 132.154 36.674 132.406 36.002L143.494 8.87H143.872L154.792 36.002C156.024 39.054 157.396 40.58 158.908 40.58H159.034V41H145.594V40.58H145.762C147.022 40.58 147.862 40.202 148.282 39.446C148.73 38.662 148.674 37.584 148.114 36.212L145.594 29.954H135.472L133.12 35.792C132.616 36.996 132.672 38.088 133.288 39.068C133.932 40.02 134.954 40.524 136.354 40.58V41H128.164ZM135.682 29.408H145.384L140.596 17.312L135.682 29.408ZM157.596 41V40.58C158.604 40.58 159.416 40.272 160.032 39.656C160.648 39.04 160.956 38.228 160.956 37.22V13.28C160.956 12.272 160.648 11.46 160.032 10.844C159.416 10.228 158.604 9.92 157.596 9.92V9.5H171.624C173.64 9.5 175.39 9.85 176.874 10.55C178.386 11.222 179.548 12.174 180.36 13.406C181.2 14.61 181.62 16.024 181.62 17.648C181.62 19.692 180.99 21.442 179.73 22.898C178.47 24.354 176.762 25.236 174.606 25.544C175.082 25.684 175.642 26.104 176.286 26.804C176.958 27.504 177.602 28.372 178.218 29.408L183.51 38.48C183.902 39.124 184.364 39.642 184.896 40.034C185.456 40.398 186.072 40.58 186.744 40.58V41H178.05C177.658 40.356 177.238 39.656 176.79 38.9C176.37 38.144 175.978 37.444 175.614 36.8L171.498 29.24C170.994 28.316 170.56 27.602 170.196 27.098C169.86 26.566 169.51 26.202 169.146 26.006C168.81 25.81 168.376 25.712 167.844 25.712H167.424V37.22C167.424 38.228 167.732 39.04 168.348 39.656C168.964 40.272 169.776 40.58 170.784 40.58H170.868V41H157.596ZM167.424 25.166H169.566C171.386 25.166 172.828 24.466 173.892 23.066C174.984 21.666 175.53 19.846 175.53 17.606C175.53 15.338 175.012 13.518 173.976 12.146C172.94 10.746 171.568 10.046 169.86 10.046H167.424V25.166ZM196.396 41.63L185.476 14.498C184.272 11.446 182.914 9.92 181.402 9.92H181.276V9.5H194.716V9.92H194.548C193.26 9.92 192.406 10.312 191.986 11.096C191.566 11.852 191.636 12.916 192.196 14.288L199.672 33.188L207.358 14.288C207.862 13.028 207.792 12.006 207.148 11.222C206.532 10.41 205.468 9.976 203.956 9.92V9.5H212.146V9.92C211.614 9.948 211.068 10.2 210.508 10.676C209.976 11.152 209.472 11.74 208.996 12.44C208.548 13.112 208.184 13.798 207.904 14.498L196.816 41.63H196.396ZM210.588 41V40.58H210.63C211.638 40.58 212.45 40.272 213.066 39.656C213.682 39.04 213.99 38.228 213.99 37.22V13.28C213.99 12.272 213.682 11.46 213.066 10.844C212.45 10.228 211.638 9.92 210.63 9.92H210.588V9.5H223.902V9.92H223.86C222.852 9.92 222.04 10.228 221.424 10.844C220.808 11.46 220.5 12.272 220.5 13.28V37.22C220.5 38.228 220.808 39.04 221.424 39.656C222.04 40.272 222.852 40.58 223.86 40.58H223.902V41H210.588ZM241.372 41.588C238.012 41.588 235.058 40.916 232.51 39.572C229.99 38.2 228.016 36.296 226.588 33.86C225.188 31.396 224.488 28.526 224.488 25.25C224.488 21.974 225.188 19.118 226.588 16.682C228.016 14.218 229.99 12.314 232.51 10.97C235.058 9.598 238.012 8.912 241.372 8.912C244.732 8.912 247.672 9.598 250.192 10.97C252.74 12.314 254.714 14.218 256.114 16.682C257.542 19.118 258.256 21.974 258.256 25.25C258.256 28.526 257.542 31.396 256.114 33.86C254.714 36.296 252.74 38.2 250.192 39.572C247.672 40.916 244.732 41.588 241.372 41.588ZM241.372 40.916C242.828 40.916 244.158 40.538 245.362 39.782C246.566 39.026 247.602 37.962 248.47 36.59C249.31 35.218 249.954 33.566 250.402 31.634C250.878 29.702 251.116 27.56 251.116 25.208C251.116 22.856 250.878 20.714 250.402 18.782C249.954 16.822 249.31 15.156 248.47 13.784C247.602 12.412 246.566 11.348 245.362 10.592C244.158 9.836 242.828 9.458 241.372 9.458C239.916 9.458 238.586 9.836 237.382 10.592C236.178 11.348 235.156 12.412 234.316 13.784C233.448 15.156 232.776 16.822 232.3 18.782C231.852 20.714 231.628 22.856 231.628 25.208C231.628 27.56 231.852 29.702 232.3 31.634C232.776 33.566 233.448 35.218 234.316 36.59C235.156 37.962 236.178 39.026 237.382 39.782C238.586 40.538 239.916 40.916 241.372 40.916ZM286.299 41.588L264.291 13.532C264.095 13.28 263.871 13.028 263.619 12.776C263.395 12.524 263.185 12.314 262.989 12.146V36.17C262.989 37.374 263.353 38.41 264.081 39.278C264.809 40.146 265.775 40.58 266.979 40.58V41H258.243V40.58C259.475 40.58 260.455 40.146 261.183 39.278C261.911 38.41 262.275 37.36 262.275 36.128V11.558C261.015 10.606 259.685 10.06 258.285 9.92V9.5H269.079L285.585 30.794V14.33C285.585 13.126 285.221 12.09 284.493 11.222C283.765 10.354 282.799 9.92 281.595 9.92V9.5H290.289V9.92C289.085 9.92 288.119 10.354 287.391 11.222C286.663 12.09 286.299 13.126 286.299 14.33V41.588Z" fill="#004E9B"/>
<path d="M101.135 66.1613V59.7161C101.135 59.1226 101.045 58.729 100.865 58.5355C100.684 58.329 100.284 58.1935 99.6645 58.129L98.5806 58.0516V57.2968C98.8774 57.2968 99.2258 57.3032 99.6258 57.3161C100.039 57.329 100.471 57.3419 100.923 57.3548C101.374 57.3548 101.819 57.3548 102.258 57.3548H102.413H102.645C103.032 57.3548 103.419 57.3548 103.806 57.3548C104.206 57.3419 104.581 57.329 104.929 57.3161C105.29 57.3032 105.587 57.2968 105.819 57.2968V58.0516L105.181 58.1097C104.768 58.1484 104.452 58.2194 104.232 58.3226C104.026 58.4129 103.884 58.5677 103.806 58.7871C103.729 58.9935 103.69 59.3032 103.69 59.7161V66.1613H101.135ZM97.7677 75.6258V74.8903C98.5935 74.8387 99.2516 74.6645 99.7419 74.3677C100.245 74.071 100.6 73.6 100.806 72.9548C101.026 72.3097 101.135 71.4581 101.135 70.4V66.1613H103.69V69.2774C103.69 70.7871 103.49 72.0065 103.09 72.9355C102.69 73.8774 102.058 74.5613 101.194 74.9871C100.329 75.4129 99.1871 75.6258 97.7677 75.6258ZM111.769 71.271C110.84 71.271 110.008 71.0839 109.272 70.7097C108.55 70.3226 107.975 69.7419 107.55 68.9677C107.137 68.1935 106.93 67.2065 106.93 66.0065C106.93 64.8065 107.137 63.8194 107.55 63.0452C107.975 62.2581 108.55 61.6774 109.272 61.3032C110.008 60.929 110.846 60.7419 111.788 60.7419C112.73 60.7419 113.563 60.929 114.285 61.3032C115.008 61.6774 115.575 62.2581 115.988 63.0452C116.414 63.8194 116.627 64.8065 116.627 66.0065C116.627 67.2065 116.414 68.1935 115.988 68.9677C115.575 69.7419 115.001 70.3226 114.266 70.7097C113.543 71.0839 112.711 71.271 111.769 71.271ZM111.788 70.5161C112.472 70.5161 113.034 70.1613 113.472 69.4516C113.911 68.729 114.13 67.5806 114.13 66.0065C114.13 64.4194 113.904 63.271 113.453 62.5613C113.014 61.8387 112.459 61.4774 111.788 61.4774C111.092 61.4774 110.517 61.8387 110.066 62.5613C109.627 63.271 109.408 64.4194 109.408 66.0065C109.408 67.5806 109.627 68.729 110.066 69.4516C110.517 70.1613 111.092 70.5161 111.788 70.5161ZM125.037 60.7613C125.863 60.7613 126.579 60.9742 127.185 61.4C127.792 61.8129 128.256 62.4065 128.579 63.1806C128.914 63.9548 129.082 64.871 129.082 65.929C129.082 67.0387 128.895 68 128.521 68.8129C128.16 69.6129 127.637 70.2323 126.953 70.671C126.282 71.0968 125.476 71.3097 124.534 71.3097C123.85 71.3097 123.256 71.1742 122.753 70.9032C122.263 70.6323 121.908 70.3097 121.689 69.9355L121.882 69.2194C122.037 69.5419 122.295 69.8129 122.656 70.0323C123.018 70.2516 123.437 70.3613 123.914 70.3613C124.792 70.3613 125.456 69.9935 125.908 69.2581C126.36 68.5226 126.585 67.4452 126.585 66.0258C126.585 64.671 126.379 63.6387 125.966 62.929C125.566 62.2194 124.973 61.8645 124.185 61.8645C123.656 61.8645 123.185 62.0194 122.773 62.329C122.36 62.6258 122.056 63.0452 121.863 63.5871L121.689 63.0645C121.921 62.3548 122.327 61.7935 122.908 61.3806C123.502 60.9677 124.211 60.7613 125.037 60.7613ZM119.695 66.0258V58.4C119.695 57.8581 119.598 57.4774 119.405 57.2581C119.211 57.0387 118.843 56.9032 118.302 56.8516L117.74 56.7935V56.0581C118.011 56.071 118.263 56.0839 118.495 56.0968C118.727 56.0968 118.979 56.0968 119.25 56.0968C119.805 56.0968 120.314 56.0774 120.779 56.0387C121.243 55.9871 121.669 55.9161 122.056 55.8258V56.0581V66.0258H119.695ZM122.056 70.2065C121.76 70.2323 121.456 70.2968 121.147 70.4C120.85 70.5032 120.566 70.6323 120.295 70.7871C120.037 70.9419 119.805 71.1161 119.598 71.3097L119.076 70.6903C119.243 70.5226 119.366 70.3548 119.443 70.1871C119.534 70.0194 119.598 69.8194 119.637 69.5871C119.676 69.3548 119.695 69.0774 119.695 68.7548V66.0258H122.056V71V70.2065ZM138.307 66.1613V59.7161C138.307 59.3161 138.269 59.0065 138.191 58.7871C138.127 58.5677 137.991 58.4129 137.785 58.3226C137.578 58.2194 137.269 58.1484 136.856 58.1097L136.159 58.0516V57.2968C136.43 57.2968 136.753 57.3032 137.127 57.3161C137.514 57.329 137.92 57.3419 138.346 57.3548C138.785 57.3548 139.211 57.3548 139.623 57.3548C140.062 57.3548 140.501 57.3484 140.94 57.3355C141.391 57.3097 141.753 57.2968 142.023 57.2968H142.682C144.385 57.2968 145.694 57.6516 146.611 58.3613C147.527 59.0581 147.985 60.0516 147.985 61.3419C147.985 62.2323 147.753 63.0065 147.288 63.6645C146.836 64.3097 146.185 64.8065 145.333 65.1548C144.494 65.4903 143.475 65.6581 142.275 65.6581C142.017 65.6581 141.759 65.6516 141.501 65.6387C141.243 65.6129 140.998 65.5806 140.765 65.5419C140.546 65.5032 140.353 65.4581 140.185 65.4065V64.671C140.443 64.7355 140.727 64.7935 141.036 64.8452C141.359 64.8839 141.682 64.9032 142.004 64.9032C143.127 64.9032 143.953 64.6194 144.482 64.0516C145.023 63.4839 145.294 62.6065 145.294 61.4194C145.294 60.271 145.049 59.4258 144.559 58.8839C144.082 58.3419 143.333 58.071 142.314 58.071H140.862V66.1613H138.307ZM139.353 70.9419C138.978 70.9419 138.591 70.9484 138.191 70.9613C137.791 70.9613 137.417 70.9677 137.069 70.9806C136.72 70.9806 136.423 70.9871 136.178 71V70.2452L136.817 70.1871C137.23 70.1355 137.54 70.0645 137.746 69.9742C137.965 69.8839 138.114 69.729 138.191 69.5097C138.269 69.2903 138.307 68.9806 138.307 68.5806V66.1613H140.862V68.5806C140.862 69.1742 140.953 69.5742 141.133 69.7806C141.327 69.9742 141.727 70.1032 142.333 70.1677L143.417 70.2452V71C143.12 70.9871 142.765 70.9806 142.353 70.9806C141.953 70.9677 141.527 70.9613 141.075 70.9613C140.623 70.9484 140.178 70.9419 139.74 70.9419H139.604H139.353ZM154.472 71.271C153.543 71.271 152.711 71.0839 151.975 70.7097C151.253 70.3226 150.679 69.7419 150.253 68.9677C149.84 68.1935 149.633 67.2065 149.633 66.0065C149.633 64.8065 149.84 63.8194 150.253 63.0452C150.679 62.2581 151.253 61.6774 151.975 61.3032C152.711 60.929 153.55 60.7419 154.491 60.7419C155.433 60.7419 156.266 60.929 156.988 61.3032C157.711 61.6774 158.279 62.2581 158.691 63.0452C159.117 63.8194 159.33 64.8065 159.33 66.0065C159.33 67.2065 159.117 68.1935 158.691 68.9677C158.279 69.7419 157.704 70.3226 156.969 70.7097C156.246 71.0839 155.414 71.271 154.472 71.271ZM154.491 70.5161C155.175 70.5161 155.737 70.1613 156.175 69.4516C156.614 68.729 156.833 67.5806 156.833 66.0065C156.833 64.4194 156.608 63.271 156.156 62.5613C155.717 61.8387 155.162 61.4774 154.491 61.4774C153.795 61.4774 153.221 61.8387 152.769 62.5613C152.33 63.271 152.111 64.4194 152.111 66.0065C152.111 67.5806 152.33 68.729 152.769 69.4516C153.221 70.1613 153.795 70.5161 154.491 70.5161ZM164.188 70.9419C163.595 70.9419 163.053 70.9484 162.562 70.9613C162.085 70.9742 161.582 70.9871 161.053 71V70.2452L161.633 70.2065C162.162 70.1548 162.524 70.0258 162.717 69.8194C162.911 69.6 163.008 69.2258 163.008 68.6968V66.0258H165.369V68.6968C165.369 69.0452 165.414 69.3226 165.504 69.529C165.608 69.7355 165.769 69.8903 165.988 69.9935C166.208 70.0839 166.517 70.1484 166.917 70.1871L167.653 70.2452V71C167.266 70.9871 166.891 70.9806 166.53 70.9806C166.169 70.9677 165.795 70.9613 165.408 70.9613C165.033 70.9484 164.627 70.9419 164.188 70.9419ZM163.008 66.0258V63.3742C163.008 62.8194 162.911 62.4387 162.717 62.2323C162.524 62.0129 162.156 61.8774 161.614 61.8258L161.053 61.7677V61.0129C161.324 61.0258 161.575 61.0387 161.808 61.0516C162.04 61.0516 162.291 61.0516 162.562 61.0516C163.117 61.0516 163.627 61.0323 164.091 60.9935C164.556 60.9419 164.982 60.8774 165.369 60.8V61.0129V66.0258H163.008ZM168.775 64.4C168.479 64.4 168.233 64.3161 168.04 64.1484C167.859 63.9806 167.769 63.7613 167.769 63.4903C167.769 63.3097 167.801 63.1484 167.866 63.0065C167.93 62.8645 167.995 62.729 168.059 62.6C168.124 62.4581 168.156 62.329 168.156 62.2129C168.156 61.929 167.969 61.7871 167.595 61.7871C167.311 61.7871 167.014 61.8581 166.704 62C166.408 62.1419 166.13 62.3355 165.872 62.5806C165.627 62.8258 165.44 63.1032 165.311 63.4129L165.253 62.6C165.588 62.0065 166.021 61.5484 166.55 61.2258C167.091 60.8903 167.659 60.7226 168.253 60.7226C168.859 60.7226 169.337 60.8968 169.685 61.2452C170.033 61.5935 170.208 62.071 170.208 62.6774C170.208 63.1935 170.079 63.6129 169.821 63.9355C169.562 64.2452 169.214 64.4 168.775 64.4ZM176.178 71.271C175.184 71.271 174.436 70.9935 173.932 70.4387C173.442 69.871 173.197 69.0258 173.197 67.9032V66.0258H175.539V68.5032C175.539 69.0452 175.648 69.4452 175.868 69.7032C176.087 69.9613 176.416 70.0903 176.855 70.0903C177.268 70.0903 177.61 69.9613 177.881 69.7032C178.165 69.4452 178.39 69.0581 178.558 68.5419L179.158 68.7742C178.913 69.6387 178.552 70.271 178.074 70.671C177.597 71.071 176.965 71.271 176.178 71.271ZM173.197 66.0258V58.1484C173.648 58.1484 174.068 58.1226 174.455 58.071C174.842 58.0065 175.203 57.9226 175.539 57.8194V66.0258H173.197ZM170.99 61.7871V61.0323H178.636V61.7871H170.99ZM186.723 66.0258V63.4323C186.723 62.7871 186.555 62.3097 186.22 62C185.884 61.6774 185.381 61.5161 184.71 61.5161C184.245 61.5161 183.858 61.5871 183.549 61.729C183.252 61.8581 183.103 62.0258 183.103 62.2323C183.103 62.3613 183.149 62.5032 183.239 62.6581C183.342 62.8 183.439 62.9613 183.529 63.1419C183.62 63.3097 183.665 63.4903 183.665 63.6839C183.665 63.9548 183.555 64.1742 183.336 64.3419C183.116 64.5097 182.826 64.5935 182.465 64.5935C182.052 64.5935 181.723 64.4774 181.478 64.2452C181.232 64 181.11 63.671 181.11 63.2581C181.11 62.7548 181.284 62.3161 181.632 61.9419C181.994 61.5677 182.49 61.2774 183.123 61.071C183.768 60.8516 184.503 60.7419 185.329 60.7419C186.658 60.7419 187.613 61.0387 188.194 61.6323C188.787 62.2258 189.084 63.1871 189.084 64.5161V66.0258H186.723ZM183.587 71.271C182.71 71.271 182.013 71.0452 181.497 70.5935C180.981 70.1419 180.723 69.5355 180.723 68.7742C180.723 68.1677 180.865 67.6839 181.149 67.3226C181.445 66.9484 181.82 66.6516 182.271 66.4323C182.723 66.2 183.207 66.0129 183.723 65.871C184.239 65.7161 184.723 65.5742 185.174 65.4452C185.639 65.3032 186.013 65.1419 186.297 64.9613C186.594 64.7677 186.742 64.5097 186.742 64.1871L186.82 65.1548C186.729 65.3871 186.549 65.5871 186.278 65.7548C186.007 65.9097 185.697 66.0581 185.349 66.2C185.013 66.3419 184.678 66.5032 184.342 66.6839C184.02 66.8516 183.749 67.0774 183.529 67.3613C183.323 67.6323 183.22 67.9935 183.22 68.4452C183.22 68.9097 183.349 69.2774 183.607 69.5484C183.865 69.8065 184.226 69.9355 184.69 69.9355C185.116 69.9355 185.516 69.8258 185.89 69.6065C186.265 69.3742 186.594 69.0323 186.878 68.5806L186.897 69.3935C186.484 70.0258 186 70.4968 185.445 70.8065C184.903 71.1161 184.284 71.271 183.587 71.271ZM189.084 69.3742C189.084 69.6839 189.129 69.9097 189.22 70.0516C189.31 70.1806 189.465 70.2452 189.684 70.2452C189.878 70.2452 190.071 70.2 190.265 70.1097C190.458 70.0194 190.652 69.9032 190.845 69.7613L191.174 70.3806C190.839 70.6645 190.471 70.8839 190.071 71.0387C189.671 71.1935 189.22 71.271 188.716 71.271C188.032 71.271 187.529 71.1226 187.207 70.8258C186.884 70.529 186.723 70.071 186.723 69.4516V66.0258H189.084V69.3742ZM195.36 70.9419C194.767 70.9419 194.225 70.9484 193.734 70.9613C193.257 70.9742 192.754 70.9871 192.225 71V70.2452L192.805 70.2065C193.334 70.1548 193.696 70.0258 193.889 69.8194C194.083 69.6 194.179 69.2258 194.179 68.6968V66.0258H196.541V68.6968C196.541 69.2258 196.638 69.6 196.831 69.8194C197.025 70.0258 197.386 70.1548 197.915 70.2065L198.496 70.2452V71C197.967 70.9871 197.457 70.9742 196.967 70.9613C196.489 70.9484 195.954 70.9419 195.36 70.9419ZM194.179 66.0258V58.4C194.179 57.8581 194.083 57.4774 193.889 57.2581C193.696 57.0387 193.328 56.9032 192.786 56.8516L192.225 56.7935V56.0581C192.496 56.071 192.747 56.0839 192.979 56.0968C193.212 56.0968 193.463 56.0968 193.734 56.0968C194.289 56.0968 194.799 56.0774 195.263 56.0387C195.728 55.9871 196.154 55.9161 196.541 55.8258V56.0581V66.0258H194.179Z" fill="#CACACA"/>
</svg>
