<svg width="278" height="73" viewBox="0 0 278 73" fill="none" xmlns="http://www.w3.org/2000/svg">
<path d="M52.0516 17.1205C53.7765 18.3225 53.7765 18.3225 54.0639 19.2425C54.0895 19.3928 54.0895 19.3928 54.1157 19.5461C53.9804 19.6028 53.8451 19.6594 53.7057 19.7178C52.1762 20.4103 51.2479 21.1588 50.5935 22.7236C50.4252 23.7892 50.3887 24.8721 50.6689 25.9227C51.0954 25.8374 51.0954 25.8374 51.5306 25.7504C51.4737 25.5797 51.4168 25.4091 51.3582 25.2333C51.2332 24.0273 51.2393 23.0719 51.9749 22.076C52.7986 21.103 53.4931 20.4816 54.797 20.327C55.0438 20.3211 55.2907 20.3195 55.5375 20.3216C55.7316 20.3231 55.7316 20.3231 55.9296 20.3246C57.3655 20.3706 58.3629 20.8623 59.4259 21.8188C60.0758 22.5208 60.4632 23.3263 60.837 24.1993C60.9116 24.3664 60.9863 24.5334 61.0632 24.7055C61.2438 25.5103 61.2079 26.3079 61.1816 27.1291C61.0047 27.0881 61.0047 27.0881 60.8242 27.0463C59.5063 26.8123 57.9965 26.6982 56.8173 27.4179C55.7239 28.2819 55.0873 29.3035 54.9229 30.6917C54.8639 32.0693 55.265 32.9031 56.0114 34.0227C56.1252 34.0227 56.2389 34.0227 56.3561 34.0227C56.4836 33.7148 56.4836 33.7148 56.5285 33.3333C56.361 32.9628 56.361 32.9628 56.1084 32.6009C55.6321 31.788 55.5329 31.3406 55.6668 30.4035C56.0649 29.1645 56.8683 28.3726 57.9933 27.7538C59.0912 27.4793 60.024 27.6491 61.0093 28.1631C62.0707 28.8556 62.6954 29.7428 63.0047 30.9717C63.2418 32.4907 63.2913 34.0184 62.4957 35.3745C61.7425 36.374 60.8426 37.1737 59.5781 37.3537C59.1937 37.3992 58.8099 37.4376 58.4242 37.4695C58.3673 37.7539 58.3105 38.0382 58.2519 38.3312C59.8645 38.3249 61.3462 37.9386 62.5516 36.8104C63.1373 36.0832 63.478 35.2762 63.791 34.4017C63.9391 34.0227 63.9391 34.0227 64.2838 33.5057C65.7025 34.9933 66.6805 36.4154 66.7504 38.5359C66.7038 40.4262 66.1733 42.0261 64.9731 43.5014C64.7298 43.6903 64.4821 43.8738 64.2299 44.0508C63.6374 44.5241 63.5083 44.9112 63.4208 45.6612C63.4 45.9027 63.38 46.1443 63.3607 46.3859C63.1889 48.4616 62.3349 50.1591 60.8323 51.5893C58.8675 53.245 56.7705 53.5339 54.288 53.4972C54.2456 53.65 54.2032 53.8029 54.1594 53.9603C53.5667 55.5263 52.0312 56.7303 50.5456 57.4274C48.9679 58.09 47.0082 58.09 45.3741 57.6219C43.9721 56.9714 42.9368 56.0045 42.3359 54.5682C42.1033 53.7736 42.1465 52.9472 42.1464 52.1256C42.1443 51.9208 42.1423 51.7161 42.1403 51.5052C42.1355 50.9465 42.133 50.3879 42.1321 49.8291C42.1313 49.4794 42.1299 49.1297 42.1282 48.78C42.1224 47.5582 42.1194 46.3364 42.1189 45.1145C42.1184 43.9784 42.1114 42.8424 42.1015 41.7063C42.0932 40.7283 42.0897 39.7503 42.0897 38.7722C42.0896 38.1892 42.0876 37.6063 42.0808 37.0233C42.0745 36.3727 42.0758 35.7225 42.079 35.0719C42.0755 34.8806 42.072 34.6892 42.0684 34.492C42.0841 33.3203 42.2919 32.7059 43.1295 31.8729C43.4867 31.5609 43.8373 31.2717 44.2384 31.0175C44.3635 30.936 44.4886 30.8544 44.6174 30.7704C45.6215 30.2341 46.8056 30.269 47.9114 30.4035C48.9174 30.8027 49.7303 31.3815 50.3242 32.2993C50.6654 32.214 50.6654 32.214 51.0136 32.127C50.7378 31.085 49.991 30.5782 49.1293 30.0124C47.936 29.3741 46.6453 29.3604 45.3263 29.5418C44.2123 29.9281 43.3961 30.4362 42.5689 31.2653C42.4551 31.2653 42.3414 31.2653 42.2242 31.2653C42.2081 29.9947 42.1959 28.7242 42.1885 27.4536C42.1849 26.8634 42.1801 26.2733 42.1722 25.6832C42.1632 25.0025 42.1599 24.3219 42.1569 23.6412C42.1533 23.4323 42.1498 23.2235 42.1461 23.0083C42.1456 20.9096 42.7243 19.2614 44.163 17.715C46.2442 15.692 49.6502 15.7342 52.0516 17.1205Z" fill="#48BFE8"/>
<path d="M36.084 17.1011C36.3079 17.2877 36.3079 17.2877 36.5364 17.4781C36.6348 17.557 36.7332 17.6358 36.8346 17.7171C37.9086 18.6629 38.4979 19.9203 38.6792 21.3361C38.7034 21.9648 38.7016 22.5876 38.6886 23.2165C38.6868 23.5564 38.6868 23.5564 38.6849 23.9032C38.6817 24.4982 38.6732 25.093 38.6636 25.688C38.6547 26.2981 38.6508 26.9082 38.6465 27.5183C38.6373 28.7099 38.6227 29.9015 38.6044 31.093C38.1681 30.8321 37.7334 30.5701 37.3031 30.2993C35.8304 29.4556 34.5695 29.3181 32.9172 29.5419C31.6334 29.9085 30.7353 30.6891 29.9874 31.7824C29.9021 32.0383 29.9021 32.0383 29.8151 32.2994C30.0994 32.4131 30.3838 32.5269 30.6768 32.6441C30.7052 32.5232 30.7337 32.4024 30.763 32.2778C31.2223 31.3974 32.1743 30.7735 33.0896 30.4036C34.7034 30.1705 36.0841 30.4613 37.3981 31.4377C38.2382 32.1752 38.8477 32.8155 38.9484 33.9619C38.9549 34.3304 38.954 34.6991 38.947 35.0676C38.9486 35.2701 38.9502 35.4726 38.9518 35.6813C38.9552 36.3474 38.9487 37.0129 38.9417 37.679C38.9407 38.144 38.9414 38.6091 38.942 39.0741C38.9421 40.0475 38.9369 41.0208 38.9281 41.9942C38.9181 43.1156 38.916 44.2369 38.9183 45.3584C38.9204 46.4419 38.9175 47.5254 38.9122 48.6089C38.91 49.0678 38.9096 49.5267 38.91 49.9856C38.9098 50.6283 38.9039 51.2706 38.8965 51.9132C38.8979 52.1951 38.8979 52.1951 38.8993 52.4828C38.8712 54.0513 38.4011 55.232 37.355 56.4055C36.7058 57.0104 35.9788 57.3223 35.1576 57.6334C35.0439 57.6903 34.9301 57.7472 34.813 57.8058C32.2758 57.9408 30.3024 57.7673 28.3286 56.0285C26.8798 54.389 26.8798 54.389 26.713 53.4973C26.5752 53.5033 26.4375 53.5093 26.2956 53.5154C23.8718 53.5752 21.7786 53.0631 19.9304 51.411C18.4765 49.8698 17.6921 48.051 17.7297 45.9251C17.7313 45.8072 17.7328 45.6893 17.7344 45.5679C17.7384 45.2812 17.7446 44.9946 17.7513 44.7079C17.6495 44.6599 17.5478 44.6119 17.4429 44.5625C16.0389 43.8282 15.2081 42.5985 14.6424 41.146C14.0475 39.2195 14.1452 37.4067 14.9938 35.5739C15.4761 34.7683 16.0023 33.9533 16.7172 33.3334C16.831 33.3334 16.9447 33.3334 17.0619 33.3334C17.0748 33.4378 17.0877 33.5423 17.1009 33.6498C17.3131 35.0017 17.7572 36.1979 18.823 37.1061C19.7933 37.7723 20.6713 38.1811 21.8551 38.2667C22.1074 38.286 22.1074 38.286 22.3647 38.3057C22.555 38.3184 22.555 38.3184 22.7491 38.3313C22.6923 37.9901 22.6354 37.6488 22.5768 37.2973C22.4808 37.3053 22.3848 37.3133 22.286 37.3215C21.0607 37.3794 20.234 37.129 19.3111 36.3097C18.0055 34.9384 17.821 33.5695 17.8637 31.7124C17.9951 30.3542 18.6291 29.2409 19.647 28.3356C20.3801 27.8215 21.1195 27.5153 22.0349 27.5695C23.083 27.7871 24.0165 28.2626 24.6556 29.1326C25.2022 30.0848 25.2594 30.8772 25.1619 31.9547C24.9249 32.5364 24.9249 32.5364 24.6449 32.9888C24.5773 33.1238 24.5098 33.2589 24.4402 33.3981C24.394 33.4905 24.3478 33.5829 24.3002 33.6781C24.4708 33.8487 24.6414 34.0193 24.8172 34.1951C24.9866 33.9191 25.1552 33.6425 25.3235 33.3657C25.4174 33.2118 25.5114 33.0578 25.6082 32.8992C26.1043 32.0266 26.1259 31.2122 26.0236 30.2313C25.7002 29.131 25.1253 28.0112 24.0969 27.4362C22.6108 26.754 21.39 26.6163 19.8193 27.1292C19.7082 25.1939 20.1262 23.6418 21.3704 22.1313C22.5204 20.9276 23.4839 20.3877 25.1511 20.3433C26.7771 20.3846 27.8246 20.7733 28.9534 21.959C29.5758 22.8304 29.665 23.5297 29.6535 24.5872C29.652 24.7729 29.6504 24.9586 29.6488 25.15C29.6468 25.2912 29.6448 25.4325 29.6427 25.5781C29.8702 25.6919 30.0977 25.8056 30.3321 25.9228C30.683 24.3019 30.6202 23.0486 29.8117 21.5699C29.0732 20.5473 28.0478 19.9814 26.8853 19.5462C27.6221 17.9839 28.8449 17.0818 30.427 16.4373C32.4179 15.7747 34.2393 16.1105 36.084 17.1011Z" fill="#08384F"/>
<path d="M10.3404 42.8105C11.2539 42.9128 11.9917 43.2196 12.8178 43.5969C12.9447 43.6536 13.0715 43.7104 13.2022 43.7689C13.5126 43.9079 13.8223 44.0484 14.1319 44.1893C14.075 44.3812 14.0182 44.5732 13.9596 44.7709C13.552 46.6347 13.4571 48.8968 14.4766 50.5659C15.7924 52.6012 17.6379 53.475 19.7761 54.4543C20.0384 54.5759 20.3008 54.6977 20.563 54.8197C21.2239 55.1266 21.8856 55.4317 22.5476 55.7363C23.1082 55.9945 23.6681 56.254 24.228 56.5136C24.4292 56.607 24.6305 56.7003 24.8379 56.7965C25.6174 57.1582 26.3967 57.5202 27.1757 57.883C27.5596 58.0617 27.9438 58.2401 28.328 58.418C32.9765 60.5763 37.4806 62.9172 39.466 67.9722C39.6127 68.4897 39.7165 68.9927 39.8106 69.5233C41.5809 69.5449 42.8228 69.0726 44.1003 67.8268C44.1954 67.7255 44.2905 67.6242 44.3884 67.5199C45.6972 66.1369 47.6757 65.7473 49.4509 65.2579C49.7162 65.1834 49.9815 65.1088 50.2467 65.0342C52.3793 64.4377 54.5226 63.8841 56.669 63.3403C58.1757 62.9581 59.6735 62.5539 61.1653 62.1172C62.2832 61.7918 63.4089 61.5086 64.5399 61.2322C65.5709 60.978 66.5916 60.6961 67.6113 60.4C69.3571 59.8938 71.1124 59.4314 72.8727 58.9787C73.4647 58.8259 74.0562 58.6716 74.6476 58.5171C75.0632 58.4087 75.4788 58.3003 75.8944 58.1919C76.0879 58.1413 76.2815 58.0907 76.4809 58.0385C77.5239 57.7672 78.5675 57.5134 79.6213 57.2871C79.8526 57.7927 80.0818 58.2992 80.3106 58.8059C80.3764 58.9495 80.4422 59.0931 80.5099 59.2411C80.5721 59.3794 80.6343 59.5177 80.6984 59.6602C80.7562 59.7874 80.8139 59.9147 80.8734 60.0458C81 60.3893 81 60.3893 81 60.9063C78.5168 61.4725 76.0325 62.0337 73.5463 62.5866C73.3821 62.6232 73.2179 62.6597 73.0487 62.6974C70.4404 63.2776 67.8289 63.841 65.2153 64.3964C63.1096 64.8444 61.0118 65.3161 58.9172 65.8133C57.082 66.2465 55.2393 66.6384 53.3937 67.0245C51.8196 67.3543 50.2498 67.6995 48.6852 68.072C48.5458 68.1046 48.4064 68.1372 48.2627 68.1708C48.1437 68.1993 48.0247 68.2277 47.902 68.257C47.566 68.3169 47.566 68.3169 46.8766 68.3169C46.8342 68.4696 46.7917 68.6222 46.748 68.7794C46.2369 70.1313 45.0798 71.1269 43.8155 71.7745C43.6882 71.8278 43.5609 71.8811 43.4298 71.9361C43.2823 71.9987 43.1348 72.0614 42.9828 72.1259C42.1621 72.3424 41.3777 72.3442 40.5323 72.3454C40.3691 72.3496 40.206 72.3538 40.0378 72.3582C38.167 72.3659 36.5413 71.541 35.1871 70.2591C34.6269 69.6433 34.3666 69.1224 34.1234 68.3169C33.9251 68.2946 33.9251 68.2946 33.7228 68.2718C32.5289 68.1207 31.3708 67.9057 30.2027 67.6168C28.3655 67.1631 26.5172 66.77 24.6662 66.3781C22.2012 65.8553 19.7421 65.3121 17.2879 64.7409C16.7291 64.6109 16.1704 64.481 15.6116 64.3511C15.4808 64.3207 15.35 64.2903 15.2153 64.2589C13.0167 63.7486 10.8095 63.2804 8.60019 62.8189C8.02414 62.6984 7.4481 62.5779 6.87207 62.4574C6.72986 62.4276 6.58765 62.3979 6.44112 62.3672C4.28516 61.9157 2.13749 61.4394 0 60.9063C0.111996 60.0939 0.433542 59.4282 0.786303 58.6982C0.871445 58.5191 0.871445 58.5191 0.958307 58.3363C1.09759 58.0436 1.23804 57.7515 1.37872 57.4595C2.74326 57.58 4.05108 57.9307 5.37487 58.2673C5.49725 58.2982 5.61964 58.329 5.74573 58.3608C7.53475 58.8115 9.31185 59.2942 11.083 59.811C12.854 60.3268 14.6447 60.7731 16.4316 61.2301C16.893 61.3482 17.3543 61.4665 17.8157 61.5849C17.9318 61.6146 18.0478 61.6444 18.1674 61.6751C19.7266 62.0755 21.2776 62.4972 22.8227 62.9491C23.9297 63.27 25.044 63.5515 26.1634 63.8253C34.9251 65.9805 34.9251 65.9805 37.6012 68.389C38.1538 68.8693 38.5541 69.1786 39.2936 69.1786C36.0533 65.2592 31.3681 63.5945 26.7235 61.9403C26.1786 61.745 25.6337 61.5493 25.0889 61.3536C24.7209 61.2214 24.3529 61.0894 23.9849 60.9575C22.4751 60.416 20.9689 59.8654 19.4636 59.3118C17.1356 58.4557 14.8039 57.6107 12.4691 56.7735C12.2813 56.7061 12.2813 56.7061 12.0898 56.6374C10.8261 56.1842 9.56238 55.7312 8.29816 55.2796C7.82432 55.1102 7.35061 54.9405 6.87692 54.7707C6.65434 54.6911 6.43171 54.6115 6.20902 54.5322C5.90158 54.4226 5.59436 54.3125 5.28714 54.2023C5.02749 54.1095 5.02749 54.1095 4.7626 54.0149C4.36615 53.8625 3.99437 53.6938 3.61915 53.4957C3.88239 52.7482 4.27262 52.1168 4.70705 51.4599C4.78583 51.3394 4.86461 51.2189 4.94578 51.0947C5.24954 50.6306 5.55459 50.1674 5.85957 49.7042C6.24019 49.1249 6.62055 48.5454 7.00089 47.966C7.40425 47.3515 7.80782 46.7372 8.21196 46.1232C8.93354 45.0262 9.65235 43.929 10.3404 42.8105Z" fill="#08384F"/>
<path d="M10.3404 42.8105C11.2539 42.9128 11.9917 43.2196 12.8178 43.5969C12.9447 43.6536 13.0715 43.7104 13.2022 43.7689C13.5126 43.9079 13.8223 44.0484 14.1319 44.1893C14.075 44.3812 14.0182 44.5732 13.9596 44.7709C13.5519 46.6347 13.4571 48.8968 14.4766 50.5659C15.7924 52.6012 17.6379 53.475 19.7761 54.4543C20.0384 54.5759 20.3007 54.6977 20.563 54.8197C21.2239 55.1266 21.8856 55.4317 22.5476 55.7363C23.1082 55.9945 23.6681 56.254 24.228 56.5136C24.5299 56.6536 24.5299 56.6536 24.8379 56.7965C25.6173 57.1582 26.3967 57.5202 27.1757 57.883C27.5596 58.0617 27.9437 58.2401 28.328 58.418C32.9765 60.5763 37.4806 62.9172 39.4659 67.9723C39.6127 68.4897 39.7165 68.9927 39.8106 69.5233C39.1143 69.2912 39.0003 68.9242 38.6042 68.3169C37.6532 67.286 36.5736 66.4588 35.3944 65.7103C35.2949 65.6464 35.1955 65.5824 35.093 65.5166C32.5607 63.9668 29.7566 62.9962 26.9713 62.0157C26.3911 61.8096 25.811 61.6028 25.231 61.3961C24.8415 61.2573 24.4518 61.1187 24.0622 60.9803C22.3779 60.3817 20.6994 59.7682 19.0221 59.1506C16.8419 58.3487 14.6577 57.5582 12.4711 56.7742C12.3459 56.7292 12.2206 56.6843 12.0916 56.638C10.8273 56.1846 9.56288 55.7314 8.29801 55.2795C7.82421 55.1102 7.35053 54.9405 6.87688 54.7707C6.65431 54.6911 6.43169 54.6115 6.20902 54.5322C5.90158 54.4226 5.59435 54.3125 5.28713 54.2023C5.02748 54.1095 5.02748 54.1095 4.76259 54.0149C4.36614 53.8625 3.99436 53.6938 3.61914 53.4957C3.88238 52.7482 4.27261 52.1168 4.70704 51.4599C4.78582 51.3394 4.8646 51.2189 4.94577 51.0947C5.24953 50.6306 5.55458 50.1674 5.85957 49.7042C6.24018 49.1249 6.62054 48.5454 7.00088 47.966C7.40424 47.3515 7.80782 46.7372 8.21195 46.1232C8.93353 45.0262 9.65235 43.929 10.3404 42.8105Z" fill="#48BFE8"/>
<path d="M70.3197 42.8066C70.8674 43.093 71.1272 43.5947 71.446 44.1046C71.5212 44.221 71.5964 44.3375 71.6738 44.4575C71.9121 44.827 72.1476 45.1982 72.3831 45.5695C72.596 45.9011 72.8098 46.2321 73.0237 46.5631C73.1728 46.7937 73.3215 47.0245 73.4699 47.2556C74.0006 48.079 74.5422 48.8947 75.0887 49.7077C75.1593 49.8129 75.23 49.9182 75.3028 50.0267C75.659 50.5572 76.0159 51.0872 76.3742 51.6164C76.5058 51.8122 76.6374 52.008 76.769 52.2039C76.8869 52.3784 77.0048 52.5529 77.1263 52.7327C77.3809 53.1525 77.3809 53.1525 77.3809 53.4971C72.3087 55.3773 67.2312 57.2414 62.1393 59.0677C61.7838 59.1952 61.4283 59.3228 61.0729 59.4505C57.0888 60.8808 57.0888 60.8808 55.1043 61.5871C47.5464 64.0658 47.5464 64.0658 41.7065 69.1801C41.7633 69.2939 41.6479 69.4076 41.7065 69.5248C41.479 69.5248 41.4238 69.5248 41.1895 69.5248C41.6772 66.3813 43.7543 63.8693 46.1873 61.9418C49.0477 59.8573 52.3987 58.4301 55.6196 57.0039C57.2533 56.2796 58.8717 55.5216 60.4924 54.7692C60.9572 54.5549 61.4233 54.3442 61.8905 54.1353C64.3204 53.0413 65.9699 51.8831 67.0297 49.3394C67.511 47.6968 67.3255 45.8106 66.8682 44.1907C67.2235 44.0253 67.579 43.8602 67.9345 43.6953C68.2314 43.5573 68.2314 43.5573 68.5344 43.4166C68.7239 43.3308 68.9134 43.2451 69.1086 43.1567C69.2608 43.0852 69.413 43.0136 69.5697 42.9399C69.9703 42.812 69.9703 42.812 70.3197 42.8066Z" fill="#48BFE8"/>
<path d="M48.5792 0.00605884C48.7536 0.00405943 48.928 0.00206001 49.1077 0C50.3315 0.00470075 51.402 0.210105 52.5646 0.587708C52.478 1.66297 52.2241 2.5167 51.7783 3.49595C51.7167 3.63187 51.6552 3.76779 51.5918 3.90783C50.5175 6.197 48.948 7.66862 46.6492 8.69713C45.514 9.09815 44.3822 9.05313 43.1936 9.04316C43.0174 9.04238 42.8412 9.04161 42.6597 9.0408C42.2273 9.03878 41.7949 9.03596 41.3625 9.03239C41.1901 8.51537 41.1901 8.51537 41.3887 8.09865C42.6892 6.08105 44.1666 4.91634 46.188 3.68984C44.1948 4.08941 42.1854 5.67971 41.0178 7.30898C39.8458 9.07995 39.5943 10.8869 39.8114 12.9962C39.982 13.5304 40.1974 14.0158 40.4355 14.523C42.2645 18.6888 41.0586 22.9255 39.9838 27.1281C39.9269 27.1281 39.87 27.1281 39.8114 27.1281C39.8137 26.9712 39.8137 26.9712 39.816 26.8111C39.8315 25.7036 39.8418 24.5962 39.8493 23.4886C39.8527 23.0775 39.8574 22.6664 39.8634 22.2553C39.9211 18.2226 39.7634 13.7303 36.8816 10.5835C35.7464 9.57568 34.492 8.90703 33.0901 8.34303C33.211 8.41612 33.3318 8.48921 33.4564 8.56451C34.9168 9.46735 36.4404 10.4958 37.3986 11.9622C37.3986 12.1328 37.3986 12.3034 37.3986 12.4792C35.6212 12.9719 33.4483 12.8726 31.8003 12.0578C29.8672 10.8631 28.6638 9.08714 27.9199 6.9643C27.9199 6.73681 27.9199 6.50933 27.9199 6.27494C29.6661 5.50459 32.1544 5.45182 33.9518 6.1026C36.3509 7.06147 37.3436 8.70367 38.4327 10.9281C38.4896 10.9281 38.5464 10.9281 38.605 10.9281C38.6448 10.7844 38.6846 10.6407 38.7255 10.4926C39.0405 9.40581 39.3879 8.46652 39.9696 7.49816C40.1637 7.12199 40.2441 6.80868 40.3177 6.39343C40.7036 4.37948 41.9439 2.66747 43.5524 1.43729C45.1988 0.336628 46.6099 -0.0163478 48.5792 0.00605884Z" fill="#48BFE8"/>
<path d="M54.1132 34.0215C54.1701 34.3627 54.2269 34.704 54.2855 35.0555C54.1007 35.1728 53.9159 35.2901 53.7254 35.411C53.0818 35.8836 52.6156 36.3433 52.3898 37.1236C52.2499 38.3349 52.2016 39.5533 52.8482 40.6256C53.5295 41.4797 54.3729 42.2253 55.4838 42.3517C56.7162 42.3663 57.5537 42.2658 58.594 41.6045C58.8228 41.4875 59.0523 41.372 59.2834 41.2598C59.454 41.4873 59.6246 41.7148 59.8004 41.9491C58.4443 43.201 57.2336 43.6275 55.3714 43.5655C54.5854 43.4753 54.0592 43.2739 53.4238 42.8108C53.3054 42.7291 53.187 42.6473 53.065 42.5631C52.0743 41.7985 51.5069 40.9178 51.1834 39.7087C51.0149 38.2726 50.995 36.9429 51.8728 35.7449C51.9392 35.65 52.0056 35.5552 52.0741 35.4574C52.5578 34.8234 53.2646 34.0215 54.1132 34.0215Z" fill="#F4FBE9"/>
<path d="M26.8845 34.1953C27.9561 34.3295 28.4643 34.9368 29.1249 35.7464C29.9155 36.9157 29.9781 38.1618 29.8143 39.5379C29.5315 40.68 29.0046 41.7085 28.0909 42.4677C26.6143 43.3545 25.3353 43.6801 23.61 43.5017C22.7024 43.1891 21.9528 42.7072 21.1973 42.123C21.311 41.8955 21.4248 41.668 21.5419 41.4336C22.3633 41.4336 22.608 41.6615 23.2654 42.123C24.425 42.5095 25.6731 42.4493 26.7876 41.9506C27.7858 41.3889 28.253 40.6026 28.6079 39.5379C28.7267 38.2975 28.7685 37.2344 28.0067 36.2042C27.6073 35.7666 27.1876 35.4108 26.7122 35.057C26.769 34.7727 26.8259 34.4883 26.8845 34.1953Z" fill="#ECF7FB"/>
<path d="M54.4713 44.8913C55.7142 45.5875 56.6042 46.6238 57.0463 47.9827C57.08 48.4815 57.08 48.4815 57.0678 48.9844C57.0647 49.1526 57.0616 49.3208 57.0584 49.494C57.0544 49.6209 57.0504 49.7478 57.0463 49.8784C56.7051 49.8216 56.3638 49.7647 56.0123 49.7061C56.0078 49.5937 56.0034 49.4813 55.9988 49.3655C55.9144 48.0658 55.6122 47.3902 54.6551 46.4747C53.7412 45.8167 52.8275 45.5736 51.7037 45.7423C50.6831 46.0743 50.0815 46.604 49.4633 47.4657C49.2536 47.8851 49.2359 48.2271 49.194 48.6936C49.1724 48.9289 49.1724 48.9289 49.1503 49.1689C49.1398 49.2893 49.1294 49.4097 49.1186 49.5338C48.8343 49.6475 48.5499 49.7613 48.2569 49.8784C47.9524 49.5739 48.0334 49.161 48.02 48.7475C48.0351 47.4727 48.4032 46.8122 49.2802 45.9193C50.7145 44.5964 52.6091 44.2444 54.4713 44.8913Z" fill="#F3FAEA"/>
<path d="M30.6766 45.0528C31.6919 45.7284 32.5495 46.6337 32.917 47.8103C32.9507 48.3091 32.9507 48.3091 32.9386 48.812C32.9355 48.9802 32.9324 49.1483 32.9292 49.3216C32.9252 49.4485 32.9212 49.5753 32.917 49.706C32.2708 49.8999 32.2708 49.8999 31.883 49.706C31.8359 49.3108 31.8359 49.3108 31.8184 48.812C31.7498 47.9426 31.6319 47.4338 31.0213 46.7762C29.9989 46.0197 29.0503 45.5535 27.7468 45.7422C26.6645 46.0942 25.8549 46.5788 25.3038 47.5921C25.0915 48.1757 25.04 48.7431 25.0136 49.3607C24.9894 49.706 24.9894 49.706 24.817 49.8784C24.5299 49.8854 24.2425 49.8857 23.9553 49.8784C23.8347 48.468 23.9986 47.4343 24.817 46.2592C26.2625 44.6318 28.6719 44.0333 30.6766 45.0528Z" fill="#EDF6FA"/>
<path d="M96.336 52L96.378 51.58H96.42C97.428 51.58 98.24 51.314 98.856 50.782C99.472 50.25 99.78 49.48 99.78 48.472V24.28C99.78 23.272 99.472 22.46 98.856 21.844C98.24 21.228 97.428 20.92 96.42 20.92L96.378 20.5H118.89L120.15 28.942H119.73C118.89 23.678 115.572 21.046 109.776 21.046H106.248V33.184H110.028C111.428 33.184 112.548 32.764 113.388 31.924C114.228 31.056 114.648 29.922 114.648 28.522H115.068V38.854H114.648C114.62 37.342 114.144 36.11 113.22 35.158C112.296 34.206 111.078 33.73 109.566 33.73H106.248V48.472C106.248 50.46 107.228 51.454 109.188 51.454H110.952C113.668 51.454 115.824 50.754 117.42 49.354C119.016 47.954 120.038 45.756 120.486 42.76H120.906L119.646 52H96.336ZM138.026 53.596L137.984 47.632C137.312 49.088 136.304 50.292 134.96 51.244C133.616 52.168 132.174 52.63 130.634 52.63C129.122 52.63 127.764 52.154 126.56 51.202C125.356 50.25 124.404 48.948 123.704 47.296C123.004 45.616 122.654 43.726 122.654 41.626C122.654 39.274 123.088 37.23 123.956 35.494C124.852 33.758 126.084 32.428 127.652 31.504C129.22 30.552 131.026 30.076 133.07 30.076C134.218 30.076 135.156 30.258 135.884 30.622C136.612 30.958 137.27 31.546 137.858 32.386V24.28C137.858 23.272 137.536 22.46 136.892 21.844C136.276 21.228 135.464 20.92 134.456 20.92V20.5H138.74C140.14 20.5 141.204 20.36 141.932 20.08C142.66 19.8 143.178 19.408 143.486 18.904H143.906V48.22C143.906 49.228 144.214 50.04 144.83 50.656C145.446 51.272 146.272 51.58 147.308 51.58V52H143.024C141.792 52 140.812 52.126 140.084 52.378C139.384 52.63 138.838 53.036 138.446 53.596H138.026ZM132.944 50.95C133.588 50.95 134.232 50.754 134.876 50.362C135.548 49.942 136.15 49.396 136.682 48.724C137.214 48.052 137.606 47.338 137.858 46.582V36.334C137.718 34.654 137.298 33.31 136.598 32.302C135.926 31.294 135.044 30.79 133.952 30.79C132.496 30.79 131.362 31.714 130.55 33.562C129.766 35.41 129.374 38.14 129.374 41.752C129.374 47.884 130.564 50.95 132.944 50.95ZM163.626 53.176L163.584 47.758C162.856 49.186 161.75 50.348 160.266 51.244C158.782 52.14 157.214 52.588 155.562 52.588C153.686 52.588 152.174 51.972 151.026 50.74C149.906 49.508 149.346 47.884 149.346 45.868V34.444C149.346 33.38 149.136 32.554 148.716 31.966C148.296 31.378 147.372 31.084 145.944 31.084V30.664H150.186C151.614 30.664 152.706 30.51 153.462 30.202C154.162 29.894 154.652 29.516 154.932 29.068H155.352V46.288C155.352 47.688 155.632 48.808 156.192 49.648C156.752 50.488 157.48 50.908 158.376 50.908C159.244 50.908 160.14 50.544 161.064 49.816C161.988 49.06 162.8 48.052 163.5 46.792V34.444C163.5 33.436 163.248 32.624 162.744 32.008C162.24 31.392 161.372 31.084 160.14 31.084V30.664H164.382C165.81 30.664 166.902 30.51 167.658 30.202C168.386 29.894 168.89 29.516 169.17 29.068H169.59L169.548 48.22C169.548 49.228 169.856 50.054 170.472 50.698C171.088 51.314 171.9 51.622 172.908 51.622V52H168.75C168.022 52 167.378 52.014 166.818 52.042C166.258 52.098 165.796 52.154 165.432 52.21C164.676 52.378 164.144 52.7 163.836 53.176H163.626ZM181.825 52.672L173.467 33.352C173.187 32.708 172.809 32.176 172.333 31.756C171.885 31.336 171.255 31.112 170.443 31.084V30.664H182.203V31.084C181.223 31.196 180.579 31.63 180.271 32.386C179.991 33.142 180.089 34.094 180.565 35.242L184.891 45.364L189.175 35.494C189.455 34.85 189.595 34.22 189.595 33.604C189.595 32.904 189.385 32.33 188.965 31.882C188.545 31.434 187.957 31.168 187.201 31.084V30.664H193.837V31.084C193.109 31.252 192.409 31.672 191.737 32.344C191.065 33.016 190.463 33.94 189.931 35.116L182.203 52.672H181.825ZM197.841 52.588C196.133 52.588 194.761 52.126 193.725 51.202C192.689 50.278 192.171 49.06 192.171 47.548C192.171 46.904 192.283 46.302 192.507 45.742C192.731 45.154 193.151 44.58 193.767 44.02C194.411 43.46 195.293 42.886 196.413 42.298C197.533 41.682 199.017 41.038 200.865 40.366L204.771 38.938V35.788C204.771 34.192 204.519 32.932 204.015 32.008C203.511 31.056 202.811 30.58 201.915 30.58C200.851 30.608 199.941 31.308 199.185 32.68C198.457 34.052 197.967 35.956 197.715 38.392L193.179 35.788C193.655 34.64 194.383 33.632 195.363 32.764C196.343 31.896 197.463 31.224 198.723 30.748C200.011 30.272 201.355 30.034 202.755 30.034C205.135 30.034 207.067 30.706 208.551 32.05C210.063 33.366 210.819 35.172 210.819 37.468V47.59C210.819 49.214 211.365 50.026 212.457 50.026C213.101 50.026 213.731 49.676 214.347 48.976L214.683 49.27C213.955 50.25 213.073 51.048 212.037 51.664C211.001 52.28 209.993 52.588 209.013 52.588C207.949 52.588 207.025 52.224 206.241 51.496C205.485 50.768 205.009 49.802 204.813 48.598C203.441 49.998 202.237 51.02 201.201 51.664C200.193 52.28 199.073 52.588 197.841 52.588ZM200.991 49.984C201.607 49.984 202.195 49.83 202.755 49.522C203.343 49.214 204.001 48.71 204.729 48.01L204.771 39.484L203.091 40.114C201.663 40.646 200.571 41.192 199.815 41.752C199.059 42.284 198.527 42.886 198.219 43.558C197.939 44.23 197.799 45 197.799 45.868C197.799 47.072 198.093 48.066 198.681 48.85C199.297 49.606 200.067 49.984 200.991 49.984ZM213.844 52V51.58H213.886C214.894 51.58 215.706 51.272 216.322 50.656C216.938 50.04 217.246 49.228 217.246 48.22V34.444C217.246 33.38 217.022 32.554 216.574 31.966C216.154 31.378 215.244 31.084 213.844 31.084V30.664H218.002C219.43 30.664 220.522 30.51 221.278 30.202C221.978 29.894 222.468 29.516 222.748 29.068H223.168L223.21 34.948C223.938 33.492 225.044 32.316 226.528 31.42C228.012 30.524 229.58 30.076 231.232 30.076C233.108 30.076 234.606 30.692 235.726 31.924C236.874 33.156 237.448 34.78 237.448 36.796V48.22C237.448 49.228 237.756 50.04 238.372 50.656C238.988 51.272 239.8 51.58 240.808 51.58H240.85V52H228.04V51.58H228.082C229.09 51.58 229.902 51.272 230.518 50.656C231.134 50.04 231.442 49.228 231.442 48.22V36.376C231.442 34.976 231.162 33.856 230.602 33.016C230.07 32.176 229.356 31.756 228.46 31.756C227.592 31.756 226.682 32.134 225.73 32.89C224.806 33.618 223.994 34.612 223.294 35.872V48.22C223.294 49.228 223.602 50.04 224.218 50.656C224.834 51.272 225.646 51.58 226.654 51.58H226.696V52H213.844ZM247.52 52.588C246.064 52.588 244.874 52.126 243.95 51.202C243.026 50.278 242.564 49.074 242.564 47.59V31.42H238.994V30.874C240.926 30.734 242.648 30.118 244.16 29.026C245.7 27.934 246.96 26.464 247.94 24.616H248.612V30.664H254.198L253.778 31.42H248.612V46.666C248.612 48.906 249.368 50.026 250.88 50.026C251.384 50.026 251.958 49.872 252.602 49.564C253.274 49.256 253.904 48.85 254.492 48.346V48.766C253.568 49.942 252.476 50.88 251.216 51.58C249.956 52.252 248.724 52.588 247.52 52.588ZM260.964 52.588C259.256 52.588 257.884 52.126 256.848 51.202C255.812 50.278 255.294 49.06 255.294 47.548C255.294 46.904 255.406 46.302 255.63 45.742C255.854 45.154 256.274 44.58 256.89 44.02C257.534 43.46 258.416 42.886 259.536 42.298C260.656 41.682 262.14 41.038 263.988 40.366L267.894 38.938V35.788C267.894 34.192 267.642 32.932 267.138 32.008C266.634 31.056 265.934 30.58 265.038 30.58C263.974 30.608 263.064 31.308 262.308 32.68C261.58 34.052 261.09 35.956 260.838 38.392L256.302 35.788C256.778 34.64 257.506 33.632 258.486 32.764C259.466 31.896 260.586 31.224 261.846 30.748C263.134 30.272 264.478 30.034 265.878 30.034C268.258 30.034 270.19 30.706 271.674 32.05C273.186 33.366 273.942 35.172 273.942 37.468V47.59C273.942 49.214 274.488 50.026 275.58 50.026C276.224 50.026 276.854 49.676 277.47 48.976L277.806 49.27C277.078 50.25 276.196 51.048 275.16 51.664C274.124 52.28 273.116 52.588 272.136 52.588C271.072 52.588 270.148 52.224 269.364 51.496C268.608 50.768 268.132 49.802 267.936 48.598C266.564 49.998 265.36 51.02 264.324 51.664C263.316 52.28 262.196 52.588 260.964 52.588ZM264.114 49.984C264.73 49.984 265.318 49.83 265.878 49.522C266.466 49.214 267.124 48.71 267.852 48.01L267.894 39.484L266.214 40.114C264.786 40.646 263.694 41.192 262.938 41.752C262.182 42.284 261.65 42.886 261.342 43.558C261.062 44.23 260.922 45 260.922 45.868C260.922 47.072 261.216 48.066 261.804 48.85C262.42 49.606 263.19 49.984 264.114 49.984Z" fill="#08384F"/>
</svg>
