<svg width="309" height="101" viewBox="0 0 309 101" fill="none" xmlns="http://www.w3.org/2000/svg">
<path d="M71.972 23.6731C74.3569 25.3351 74.3569 25.3351 74.7543 26.6072C74.7898 26.815 74.7898 26.815 74.826 27.027C74.6389 27.1053 74.4519 27.1837 74.2591 27.2644C72.1442 28.2219 70.8606 29.2569 69.9558 31.4206C69.7232 32.8939 69.6727 34.3914 70.06 35.844C70.6498 35.7261 70.6498 35.7261 71.2515 35.6057C71.1729 35.3698 71.0943 35.1339 71.0132 34.8908C70.8403 33.2233 70.8488 31.9022 71.8659 30.5251C73.0048 29.1797 73.9651 28.3206 75.768 28.1068C76.1093 28.0986 76.4507 28.0963 76.792 28.0993C77.0603 28.1014 77.0603 28.1014 77.3341 28.1035C79.3195 28.1671 80.6987 28.847 82.1686 30.1696C83.0672 31.1402 83.6029 32.2539 84.1196 33.461C84.2228 33.692 84.326 33.923 84.4324 34.161C84.6822 35.2738 84.6326 36.3767 84.5962 37.5121C84.3515 37.4554 84.3515 37.4554 84.1019 37.3976C82.2797 37.074 80.192 36.9164 78.5615 37.9114C77.0497 39.1061 76.1694 40.5187 75.9421 42.4382C75.8605 44.343 76.4152 45.4959 77.4473 47.044C77.6046 47.044 77.7618 47.044 77.9239 47.044C78.1002 46.6183 78.1002 46.6183 78.1622 46.0908C77.9307 45.5785 77.9307 45.5785 77.5813 45.0781C76.9227 43.954 76.7856 43.3354 76.9707 42.0398C77.5213 40.3265 78.6321 39.2315 80.1877 38.3759C81.7058 37.9964 82.9955 38.2312 84.3579 38.9419C85.8256 39.8994 86.6893 41.1262 87.117 42.8254C87.4448 44.9257 87.5133 47.0381 86.4132 48.9132C85.3717 50.2952 84.1274 51.4009 82.3789 51.6499C81.8475 51.7128 81.3168 51.7658 80.7835 51.81C80.7048 52.2032 80.6262 52.5964 80.5452 53.0015C82.775 52.9927 84.8237 52.4586 86.4905 50.8987C87.3003 49.8931 87.7714 48.7772 88.2042 47.5681C88.409 47.044 88.409 47.044 88.8856 46.3291C90.8473 48.3861 92.1996 50.3525 92.2962 53.2844C92.2319 55.8983 91.4982 58.1105 89.8388 60.1504C89.5023 60.4116 89.1598 60.6653 88.8111 60.91C87.9918 61.5645 87.8133 62.0997 87.6923 63.1368C87.6636 63.4707 87.6359 63.8048 87.6093 64.1389C87.3717 67.0089 86.1908 69.356 84.1131 71.3336C81.3964 73.623 78.4968 74.0224 75.0643 73.9717C75.0056 74.183 74.947 74.3944 74.8865 74.6121C74.0668 76.7775 71.9437 78.4421 69.8896 79.406C67.708 80.3223 64.9984 80.3223 62.7389 79.675C60.8003 78.7755 59.3687 77.4386 58.5379 75.4526C58.2163 74.354 58.276 73.2112 58.2758 72.0751C58.273 71.7921 58.2703 71.509 58.2674 71.2174C58.2608 70.4448 58.2574 69.6724 58.256 68.8998C58.255 68.4163 58.253 67.9328 58.2507 67.4492C58.2426 65.7598 58.2386 64.0704 58.2379 62.3809C58.2372 60.8099 58.2275 59.2392 58.2138 57.6683C58.2024 56.3159 58.1974 54.9637 58.1974 53.6113C58.1973 52.8051 58.1946 51.9991 58.1852 51.193C58.1765 50.2934 58.1783 49.3944 58.1827 48.4948C58.1779 48.2302 58.173 47.9656 58.168 47.693C58.1898 46.0728 58.4771 45.2233 59.6352 44.0715C60.1292 43.64 60.614 43.2402 61.1686 42.8887C61.3415 42.776 61.5144 42.6632 61.6926 42.5471C63.081 41.8054 64.7183 41.8537 66.2473 42.0398C67.6383 42.5917 68.7623 43.392 69.5835 44.661C70.0553 44.5431 70.0553 44.5431 70.5366 44.4227C70.1553 42.9821 69.1227 42.2812 67.9312 41.4989C66.2813 40.6163 64.4965 40.5974 62.6728 40.8483C61.1324 41.3824 60.0038 42.085 58.86 43.2313C58.7028 43.2313 58.5455 43.2313 58.3835 43.2313C58.3612 41.4745 58.3444 39.7177 58.3341 37.9609C58.3291 37.1448 58.3224 36.3288 58.3115 35.5128C58.2991 34.5717 58.2946 33.6306 58.2904 32.6894C58.2854 32.4006 58.2805 32.1118 58.2755 31.8142C58.2747 28.9124 59.075 26.6333 61.0643 24.4951C63.9419 21.6979 68.6515 21.7563 71.972 23.6731Z" fill="#48BFE8"/>
<path d="M49.8939 23.6449C50.2036 23.9029 50.2036 23.9029 50.5195 24.1661C50.6555 24.2752 50.7916 24.3842 50.9318 24.4966C52.4169 25.8043 53.2317 27.543 53.4823 29.5007C53.5158 30.3699 53.5133 31.2311 53.4954 32.1007C53.4929 32.5707 53.4929 32.5707 53.4903 33.0501C53.4858 33.8729 53.4741 34.6954 53.4608 35.5181C53.4485 36.3616 53.4432 37.2052 53.4372 38.0489C53.4245 39.6966 53.4043 41.3441 53.379 42.9917C52.7757 42.6309 52.1746 42.2686 51.5797 41.8942C49.5433 40.7277 47.7999 40.5375 45.5152 40.847C43.7401 41.3538 42.4983 42.4332 41.4641 43.9449C41.3462 44.2987 41.3462 44.2987 41.2258 44.6598C41.619 44.817 42.0122 44.9743 42.4173 45.1364C42.4566 44.9692 42.496 44.8021 42.5365 44.63C43.1716 43.4126 44.488 42.5498 45.7535 42.0385C47.985 41.7161 49.894 42.1182 51.7109 43.4683C52.8726 44.4881 53.7154 45.3734 53.8546 46.9585C53.8637 47.468 53.8624 47.9778 53.8527 48.4874C53.8549 48.7674 53.857 49.0474 53.8593 49.336C53.864 50.257 53.855 51.1772 53.8454 52.0982C53.8439 52.7412 53.845 53.3843 53.8458 54.0273C53.846 55.3732 53.8387 56.719 53.8266 58.0649C53.8128 59.6155 53.8098 61.1659 53.813 62.7166C53.8158 64.2148 53.8119 65.713 53.8046 67.2112C53.8016 67.8458 53.801 68.4802 53.8016 69.1148C53.8012 70.0034 53.7931 70.8915 53.7828 71.78C53.7848 72.1699 53.7848 72.1699 53.7868 72.5676C53.7478 74.7364 53.0979 76.369 51.6514 77.9917C50.7538 78.8281 49.7486 79.2594 48.6131 79.6895C48.4558 79.7682 48.2985 79.8468 48.1365 79.9278C44.6283 80.1146 41.8997 79.8746 39.1705 77.4704C37.1672 75.2034 37.1672 75.2034 36.9365 73.9704C36.746 73.9787 36.5556 73.987 36.3594 73.9955C33.008 74.0781 30.1137 73.37 27.5582 71.0857C25.5478 68.9546 24.4632 66.4398 24.5152 63.5002C24.5174 63.3372 24.5195 63.1743 24.5217 63.0064C24.5273 62.6099 24.5358 62.2136 24.545 61.8172C24.4043 61.7508 24.2636 61.6845 24.1187 61.6161C22.1773 60.6009 21.0285 58.9004 20.2463 56.8921C19.4238 54.2283 19.5589 51.7217 20.7322 49.1874C21.399 48.0735 22.1267 46.9466 23.1152 46.0895C23.2725 46.0895 23.4298 46.0895 23.5918 46.0895C23.6096 46.2339 23.6274 46.3783 23.6458 46.527C23.9391 48.3962 24.5533 50.0503 26.0269 51.306C27.3685 52.2273 28.5826 52.7925 30.2195 52.9108C30.5683 52.9375 30.5683 52.9375 30.9241 52.9648C31.1872 52.9823 31.1872 52.9823 31.4556 53.0002C31.377 52.5283 31.2984 52.0565 31.2173 51.5704C31.0846 51.5814 30.9519 51.5925 30.8152 51.6039C29.121 51.684 27.9779 51.3378 26.7018 50.2048C24.8966 48.3088 24.6414 46.4159 24.7004 43.8481C24.8821 41.9702 25.7588 40.4307 27.1663 39.1789C28.18 38.468 29.2024 38.0447 30.468 38.1196C31.9173 38.4205 33.2081 39.078 34.0918 40.281C34.8476 41.5976 34.9266 42.6932 34.7918 44.1832C34.4641 44.9874 34.4641 44.9874 34.0769 45.6129C33.9835 45.7997 33.8901 45.9865 33.7939 46.1789C33.73 46.3067 33.6661 46.4345 33.6003 46.5661C33.8362 46.8021 34.0721 47.038 34.3152 47.281C34.5494 46.8993 34.7825 46.5169 35.0152 46.1342C35.1451 45.9213 35.2751 45.7085 35.409 45.4891C36.0949 44.2826 36.1248 43.1564 35.9833 41.8002C35.5361 40.2788 34.7412 38.7304 33.3192 37.9353C31.2643 36.9921 29.5764 36.8016 27.4046 37.5108C27.2508 34.8348 27.8288 32.6887 29.5492 30.6002C31.1393 28.9357 32.4716 28.1892 34.7769 28.1278C37.0252 28.185 38.4735 28.7224 40.0344 30.3619C40.895 31.5668 41.0183 32.5338 41.0024 33.9959C41.0003 34.2527 40.9981 34.5095 40.9959 34.7741C40.9932 34.9695 40.9904 35.1649 40.9875 35.3661C41.3021 35.5234 41.6166 35.6807 41.9407 35.8427C42.4259 33.6015 42.3391 31.8685 41.2212 29.8239C40.2 28.4099 38.7822 27.6274 37.1748 27.0257C38.1936 24.8654 39.8844 23.6182 42.072 22.727C44.8248 21.8109 47.3433 22.2751 49.8939 23.6449Z" fill="#08384F"/>
<path d="M14.2979 59.1953C15.5609 59.3368 16.5811 59.761 17.7234 60.2825C17.8988 60.361 18.0742 60.4395 18.2549 60.5204C18.6841 60.7127 19.1124 60.907 19.5404 61.1017C19.4618 61.3671 19.3832 61.6325 19.3021 61.906C18.7385 64.4831 18.6074 67.6109 20.017 69.9187C21.8364 72.733 24.3882 73.9413 27.3447 75.2953C27.7075 75.4635 28.0702 75.6319 28.4328 75.8005C29.3467 76.2249 30.2616 76.6469 31.177 77.068C31.9521 77.425 32.7263 77.7838 33.5004 78.1428C33.7787 78.2718 34.057 78.4009 34.3438 78.5339C35.4215 79.0341 36.4991 79.5346 37.5762 80.0363C38.1071 80.2834 38.6383 80.5299 39.1696 80.776C45.5971 83.7603 51.8251 86.9971 54.5702 93.9868C54.7731 94.7023 54.9166 95.3977 55.0468 96.1315C57.4946 96.1614 59.2118 95.5083 60.9782 93.7857C61.1097 93.6457 61.2411 93.5056 61.3766 93.3613C63.1863 91.4491 65.9219 90.9103 68.3766 90.2336C68.7434 90.1306 69.1102 90.0275 69.477 89.9243C72.4256 89.0996 75.3893 88.3341 78.3572 87.5821C80.4404 87.0537 82.5114 86.4948 84.5742 85.891C86.12 85.441 87.6766 85.0494 89.2403 84.6673C90.6659 84.3157 92.0772 83.926 93.4872 83.5166C95.9011 82.8166 98.3283 82.1772 100.762 81.5512C101.581 81.34 102.399 81.1267 103.216 80.913C103.791 80.7631 104.366 80.6133 104.94 80.4634C105.208 80.3934 105.476 80.3234 105.751 80.2512C107.194 79.8762 108.637 79.5252 110.094 79.2123C110.414 79.9114 110.73 80.6117 111.047 81.3123C111.138 81.5109 111.229 81.7095 111.322 81.9141C111.408 82.1053 111.494 82.2966 111.583 82.4936C111.663 82.6695 111.743 82.8455 111.825 83.0268C112 83.5017 112 83.5017 112 84.2166C108.566 84.9995 105.131 85.7755 101.694 86.54C101.467 86.5905 101.24 86.6411 101.006 86.6932C97.3991 87.4954 93.7881 88.2744 90.1742 89.0424C87.2627 89.6619 84.362 90.3141 81.4658 91.0016C78.9283 91.6006 76.3802 92.1424 73.8284 92.6763C71.6518 93.1323 69.4812 93.6097 67.3178 94.1247C67.125 94.1698 66.9322 94.2149 66.7336 94.2614C66.5691 94.3007 66.4045 94.34 66.2349 94.3805C65.7702 94.4634 65.7702 94.4634 64.817 94.4634C64.7584 94.6744 64.6997 94.8855 64.6392 95.1029C63.9325 96.9722 62.3326 98.3488 60.5844 99.2442C60.4084 99.318 60.2324 99.3917 60.0511 99.4677C59.8471 99.5543 59.6431 99.6409 59.433 99.7302C58.2982 100.029 57.2135 100.032 56.0447 100.034C55.8191 100.039 55.5934 100.045 55.361 100.051C52.7742 100.062 50.5262 98.9213 48.6537 97.1489C47.8792 96.2973 47.5193 95.5772 47.183 94.4634C46.9088 94.4325 46.9088 94.4325 46.6291 94.401C44.9783 94.192 43.377 93.8948 41.7617 93.4953C39.2215 92.868 36.6658 92.3245 34.1064 91.7825C30.698 91.0597 27.2978 90.3086 23.9043 89.5187C23.1317 89.339 22.3591 89.1594 21.5864 88.9798C21.4056 88.9377 21.2247 88.8957 21.0384 88.8523C17.9984 88.1467 14.9464 87.4993 11.8916 86.8611C11.0951 86.6946 10.2986 86.528 9.50213 86.3613C9.30549 86.3201 9.10885 86.279 8.90625 86.2366C5.92516 85.6123 2.95554 84.9537 0 84.2166C0.154858 83.0933 0.599465 82.1727 1.08723 81.1634C1.20496 80.9157 1.20496 80.9157 1.32507 80.6631C1.51765 80.2584 1.71186 79.8544 1.90638 79.4506C3.79315 79.6173 5.60149 80.1022 7.43192 80.5677C7.60114 80.6103 7.77037 80.6529 7.94472 80.6968C10.4184 81.3201 12.8756 81.9875 15.3246 82.7021C17.7735 83.4153 20.2494 84.0325 22.7202 84.6643C23.3582 84.8277 23.9961 84.9912 24.634 85.1549C24.7945 85.196 24.955 85.2372 25.1204 85.2796C27.2763 85.8332 29.4209 86.4163 31.5573 87.0413C33.0879 87.485 34.6287 87.8742 36.1766 88.2528C48.2915 91.2327 48.2915 91.2327 51.9918 94.563C52.7559 95.2271 53.3094 95.6549 54.3319 95.6549C49.8515 90.2354 43.3732 87.9336 36.9511 85.6464C36.1975 85.3763 35.4441 85.1057 34.6908 84.8351C34.182 84.6523 33.6732 84.4698 33.1643 84.2873C31.0768 83.5386 28.994 82.7774 26.9126 82.0119C23.6937 80.8282 20.4696 79.6597 17.2412 78.5021C16.9816 78.409 16.9816 78.409 16.7167 78.314C14.9695 77.6872 13.2221 77.061 11.474 76.4365C10.8188 76.2023 10.1638 75.9676 9.50882 75.7329C9.20106 75.6227 8.89323 75.5127 8.58531 75.403C8.16021 75.2515 7.73541 75.0992 7.31061 74.9469C6.95159 74.8186 6.95159 74.8186 6.58532 74.6877C6.03714 74.477 5.52308 74.2438 5.00426 73.9698C5.36824 72.9362 5.90782 72.0632 6.50851 71.1549C6.61744 70.9883 6.72638 70.8216 6.83861 70.65C7.25863 70.0083 7.68042 69.3678 8.10213 68.7272C8.62841 67.9262 9.15434 67.125 9.68024 66.3238C10.238 65.4742 10.796 64.6247 11.3548 63.7757C12.3526 62.2589 13.3465 60.7418 14.2979 59.1953Z" fill="#08384F"/>
<path d="M14.2975 59.1953C15.5605 59.3368 16.5807 59.761 17.7231 60.2825C17.8985 60.361 18.0739 60.4395 18.2546 60.5204C18.6837 60.7127 19.112 60.907 19.5401 61.1017C19.4614 61.3671 19.3828 61.6325 19.3018 61.906C18.7382 64.4831 18.607 67.6109 20.0167 69.9187C21.836 72.733 24.3879 73.9413 27.3443 75.2953C27.7071 75.4635 28.0698 75.6319 28.4324 75.8005C29.3463 76.2249 30.2613 76.6469 31.1766 77.068C31.9517 77.425 32.7259 77.7838 33.5001 78.1428C33.9175 78.3364 33.9175 78.3364 34.3434 78.5339C35.4212 79.0341 36.4988 79.5347 37.5759 80.0363C38.1068 80.2834 38.6379 80.5299 39.1693 80.776C45.5968 83.7603 51.8247 86.9971 54.5699 93.9868C54.7728 94.7023 54.9163 95.3977 55.0465 96.1315C54.0836 95.8105 53.926 95.3031 53.3784 94.4634C52.0633 93.038 50.5706 91.8941 48.9401 90.8591C48.8025 90.7708 48.665 90.6824 48.5233 90.5913C45.0219 88.4484 41.1446 87.1063 37.2933 85.7506C36.491 85.4655 35.689 85.1797 34.887 84.8939C34.3483 84.702 33.8096 84.5103 33.2708 84.3189C30.942 83.4912 28.6211 82.6429 26.3018 81.7889C23.2872 80.6801 20.2672 79.5872 17.2437 78.503C17.0705 78.4409 16.8973 78.3788 16.7189 78.3148C14.9708 77.6878 13.2224 77.0612 11.4735 76.4364C10.8183 76.2022 10.1634 75.9676 9.50843 75.7329C9.20069 75.6227 8.89287 75.5127 8.58497 75.403C8.15987 75.2515 7.73506 75.0992 7.31026 74.9469C6.95124 74.8186 6.95124 74.8186 6.58497 74.6877C6.03679 74.477 5.52273 74.2438 5.00391 73.9698C5.36789 72.9362 5.90747 72.0632 6.50816 71.1549C6.6171 70.9883 6.72603 70.8216 6.83826 70.65C7.25828 70.0083 7.68007 69.3678 8.10178 68.7272C8.62806 67.9262 9.15399 67.125 9.6799 66.3238C10.2376 65.4742 10.7957 64.6247 11.3545 63.7757C12.3522 62.2589 13.3461 60.7418 14.2975 59.1953Z" fill="#48BFE8"/>
<path d="M97.232 59.1895C97.9893 59.5854 98.3486 60.2792 98.7893 60.9841C98.8933 61.1452 98.9973 61.3062 99.1044 61.4721C99.4338 61.9831 99.7594 62.4963 100.085 63.0097C100.38 63.4682 100.675 63.9259 100.971 64.3835C101.177 64.7024 101.383 65.0216 101.588 65.341C102.322 66.4796 103.07 67.6074 103.826 68.7316C103.924 68.8772 104.022 69.0228 104.122 69.1727C104.615 69.9063 105.108 70.6392 105.604 71.3708C105.786 71.6416 105.968 71.9124 106.15 72.1832C106.313 72.4245 106.476 72.6657 106.644 72.9143C106.996 73.4948 106.996 73.4948 106.996 73.9714C99.9822 76.571 92.9615 79.1486 85.9209 81.6739C85.4293 81.8502 84.9378 82.0267 84.4463 82.2031C78.9374 84.1809 78.9374 84.1809 76.1934 85.1575C65.7429 88.5848 65.7429 88.5848 57.668 95.6565C57.7467 95.8138 57.587 95.971 57.668 96.1331C57.3535 96.1331 57.2772 96.1331 56.9531 96.1331C57.6276 91.7866 60.4996 88.3131 63.8638 85.648C67.8189 82.7657 72.4523 80.7923 76.9059 78.8202C79.1648 77.8188 81.4026 76.7707 83.6437 75.7302C84.2863 75.4339 84.9308 75.1427 85.5768 74.8538C88.9367 73.3411 91.2174 71.7396 92.6829 68.2224C93.3483 65.9511 93.0919 63.343 92.4595 61.1033C92.9508 60.8745 93.4424 60.6463 93.934 60.4182C94.3445 60.2274 94.3445 60.2274 94.7634 60.0328C95.0254 59.9142 95.2874 59.7957 95.5574 59.6735C95.7678 59.5746 95.9782 59.4757 96.195 59.3738C96.7489 59.1969 96.7489 59.1969 97.232 59.1895Z" fill="#48BFE8"/>
<path d="M67.1714 0.00837766C67.4126 0.00561303 67.6537 0.0028484 67.9021 0C69.5943 0.0064998 71.0745 0.290515 72.6821 0.812633C72.5624 2.29942 72.2113 3.47989 71.5948 4.83391C71.5097 5.02185 71.4246 5.20978 71.3369 5.40342C69.8515 8.56869 67.6813 10.6035 64.5027 12.0257C62.9331 12.5802 61.3681 12.5179 59.7246 12.5041C59.481 12.503 59.2374 12.502 58.9865 12.5009C58.3885 12.4981 57.7906 12.4942 57.1927 12.4892C56.9544 11.7743 56.9544 11.7743 57.229 11.1981C59.0272 8.40837 61.0699 6.7979 63.865 5.10199C61.109 5.6545 58.3306 7.85342 56.7161 10.1063C55.0956 12.555 54.7479 15.0535 55.048 17.9701C55.2839 18.7087 55.5818 19.3798 55.9109 20.0813C58.4399 25.8413 56.7725 31.6995 55.2863 37.5105C55.2077 37.5105 55.129 37.5105 55.048 37.5105C55.0512 37.2935 55.0512 37.2935 55.0544 37.0722C55.0758 35.5408 55.09 34.0095 55.1004 32.4781C55.1051 31.9096 55.1116 31.3412 55.1199 30.7728C55.1997 25.1967 54.9816 18.9851 50.997 14.6339C49.4272 13.2404 47.6928 12.3159 45.7544 11.536C45.9215 11.6371 46.0886 11.7382 46.2608 11.8423C48.2801 13.0907 50.3869 14.5128 51.7119 16.5403C51.7119 16.7762 51.7119 17.0121 51.7119 17.2552C49.2542 17.9364 46.2497 17.7992 43.9709 16.6725C41.2981 15.0206 39.634 12.5649 38.6055 9.62965C38.6055 9.3151 38.6055 9.00055 38.6055 8.67646C41.0199 7.61129 44.4606 7.53832 46.9459 8.43817C50.2632 9.764 51.6358 12.0347 53.1416 15.1105C53.2203 15.1105 53.2989 15.1105 53.3799 15.1105C53.4349 14.9118 53.4899 14.713 53.5466 14.5082C53.982 13.0056 54.4624 11.7068 55.2668 10.3678C55.5351 9.84769 55.6463 9.41448 55.748 8.84029C56.2817 6.05558 57.9966 3.68836 60.2208 1.98737C62.4973 0.465461 64.4484 -0.0226044 67.1714 0.00837766Z" fill="#48BFE8"/>
<path d="M74.8242 47.043C74.9028 47.5148 74.9815 47.9866 75.0625 48.4728C74.8069 48.6349 74.5514 48.7971 74.288 48.9642C73.3981 49.6177 72.7535 50.2533 72.4412 51.3323C72.2478 53.0071 72.1811 54.6919 73.0751 56.1746C74.0172 57.3556 75.1833 58.3866 76.7194 58.5613C78.4235 58.5815 79.5815 58.4426 81.02 57.5281C81.3362 57.3663 81.6536 57.2067 81.9731 57.0515C82.2091 57.366 82.445 57.6806 82.688 58.0047C80.8129 59.7356 79.1388 60.3254 76.564 60.2396C75.4771 60.1149 74.7495 59.8365 73.871 59.1962C73.7073 59.0831 73.5436 58.9701 73.3749 58.8536C72.005 57.7964 71.2205 56.5786 70.7731 54.9068C70.5401 52.921 70.5126 51.0825 71.7263 49.4259C71.8182 49.2948 71.91 49.1636 72.0047 49.0285C72.6735 48.1518 73.6508 47.043 74.8242 47.043Z" fill="#F4FBE9"/>
<path d="M37.1744 47.2812C38.6561 47.4668 39.3588 48.3065 40.2722 49.4259C41.3653 51.0427 41.452 52.7658 41.2254 54.6685C40.8345 56.2478 40.1059 57.6698 38.8425 58.7195C36.8008 59.9458 35.0323 60.396 32.6467 60.1493C31.3917 59.7171 30.3553 59.0508 29.3105 58.243C29.4678 57.9284 29.6251 57.6138 29.7871 57.2898C30.9229 57.2898 31.2613 57.6048 32.1701 58.243C33.7735 58.7774 35.4993 58.6942 37.0403 58.0047C38.4206 57.228 39.0666 56.1406 39.5574 54.6685C39.7216 52.9533 39.7795 51.4835 38.7261 50.0589C38.1739 49.4539 37.5935 48.962 36.9361 48.4727C37.0147 48.0795 37.0934 47.6864 37.1744 47.2812Z" fill="#ECF7FB"/>
<path d="M75.3174 62.0725C77.036 63.0351 78.2666 64.4681 78.8779 66.347C78.9245 67.0367 78.9245 67.0367 78.9077 67.7321C78.9034 67.9646 78.8991 68.1972 78.8947 68.4367C78.8892 68.6121 78.8836 68.7875 78.8779 68.9683C78.4061 68.8896 77.9343 68.811 77.4482 68.73C77.442 68.5745 77.4359 68.4191 77.4295 68.2589C77.3129 66.4619 76.895 65.5278 75.5716 64.2619C74.3079 63.3521 73.0445 63.0159 71.4907 63.2491C70.0795 63.7082 69.2476 64.4406 68.3928 65.6321C68.1028 66.2121 68.0784 66.685 68.0205 67.33C67.9905 67.6553 67.9905 67.6553 67.96 67.9871C67.9455 68.1536 67.9311 68.3201 67.9162 68.4917C67.523 68.6489 67.1299 68.8062 66.7247 68.9683C66.3037 68.5472 66.4157 67.9763 66.3971 67.4044C66.418 65.6418 66.9271 64.7285 68.1396 63.4939C70.1229 61.6647 72.7425 61.178 75.3174 62.0725Z" fill="#F3FAEA"/>
<path d="M42.4168 62.2957C43.8206 63.2299 45.0065 64.4817 45.5147 66.1085C45.5612 66.7983 45.5612 66.7983 45.5445 67.4936C45.5402 67.7261 45.5359 67.9587 45.5314 68.1983C45.5259 68.3737 45.5204 68.5491 45.5147 68.7298C44.6211 68.9979 44.6211 68.9979 44.0849 68.7298C44.0197 68.1834 44.0197 68.1834 43.9955 67.4936C43.9007 66.2915 43.7377 65.588 42.8934 64.6787C41.4797 63.6327 40.1681 62.988 38.3657 63.2489C36.8692 63.7356 35.7498 64.4057 34.9877 65.8069C34.6941 66.6138 34.623 67.3983 34.5865 68.2523C34.553 68.7298 34.553 68.7298 34.3147 68.9681C33.9176 68.9778 33.5202 68.9783 33.1232 68.9681C32.9564 67.018 33.183 65.5886 34.3147 63.9638C36.3133 61.7136 39.6449 60.886 42.4168 62.2957Z" fill="#EDF6FA"/>
<path d="M127.336 71L127.378 70.58H127.42C128.428 70.58 129.24 70.314 129.856 69.782C130.472 69.25 130.78 68.48 130.78 67.472V43.28C130.78 42.272 130.472 41.46 129.856 40.844C129.24 40.228 128.428 39.92 127.42 39.92L127.378 39.5H149.89L151.15 47.942H150.73C149.89 42.678 146.572 40.046 140.776 40.046H137.248V52.184H141.028C142.428 52.184 143.548 51.764 144.388 50.924C145.228 50.056 145.648 48.922 145.648 47.522H146.068V57.854H145.648C145.62 56.342 145.144 55.11 144.22 54.158C143.296 53.206 142.078 52.73 140.566 52.73H137.248V67.472C137.248 69.46 138.228 70.454 140.188 70.454H141.952C144.668 70.454 146.824 69.754 148.42 68.354C150.016 66.954 151.038 64.756 151.486 61.76H151.906L150.646 71H127.336ZM169.026 72.596L168.984 66.632C168.312 68.088 167.304 69.292 165.96 70.244C164.616 71.168 163.174 71.63 161.634 71.63C160.122 71.63 158.764 71.154 157.56 70.202C156.356 69.25 155.404 67.948 154.704 66.296C154.004 64.616 153.654 62.726 153.654 60.626C153.654 58.274 154.088 56.23 154.956 54.494C155.852 52.758 157.084 51.428 158.652 50.504C160.22 49.552 162.026 49.076 164.07 49.076C165.218 49.076 166.156 49.258 166.884 49.622C167.612 49.958 168.27 50.546 168.858 51.386V43.28C168.858 42.272 168.536 41.46 167.892 40.844C167.276 40.228 166.464 39.92 165.456 39.92V39.5H169.74C171.14 39.5 172.204 39.36 172.932 39.08C173.66 38.8 174.178 38.408 174.486 37.904H174.906V67.22C174.906 68.228 175.214 69.04 175.83 69.656C176.446 70.272 177.272 70.58 178.308 70.58V71H174.024C172.792 71 171.812 71.126 171.084 71.378C170.384 71.63 169.838 72.036 169.446 72.596H169.026ZM163.944 69.95C164.588 69.95 165.232 69.754 165.876 69.362C166.548 68.942 167.15 68.396 167.682 67.724C168.214 67.052 168.606 66.338 168.858 65.582V55.334C168.718 53.654 168.298 52.31 167.598 51.302C166.926 50.294 166.044 49.79 164.952 49.79C163.496 49.79 162.362 50.714 161.55 52.562C160.766 54.41 160.374 57.14 160.374 60.752C160.374 66.884 161.564 69.95 163.944 69.95ZM194.626 72.176L194.584 66.758C193.856 68.186 192.75 69.348 191.266 70.244C189.782 71.14 188.214 71.588 186.562 71.588C184.686 71.588 183.174 70.972 182.026 69.74C180.906 68.508 180.346 66.884 180.346 64.868V53.444C180.346 52.38 180.136 51.554 179.716 50.966C179.296 50.378 178.372 50.084 176.944 50.084V49.664H181.186C182.614 49.664 183.706 49.51 184.462 49.202C185.162 48.894 185.652 48.516 185.932 48.068H186.352V65.288C186.352 66.688 186.632 67.808 187.192 68.648C187.752 69.488 188.48 69.908 189.376 69.908C190.244 69.908 191.14 69.544 192.064 68.816C192.988 68.06 193.8 67.052 194.5 65.792V53.444C194.5 52.436 194.248 51.624 193.744 51.008C193.24 50.392 192.372 50.084 191.14 50.084V49.664H195.382C196.81 49.664 197.902 49.51 198.658 49.202C199.386 48.894 199.89 48.516 200.17 48.068H200.59L200.548 67.22C200.548 68.228 200.856 69.054 201.472 69.698C202.088 70.314 202.9 70.622 203.908 70.622V71H199.75C199.022 71 198.378 71.014 197.818 71.042C197.258 71.098 196.796 71.154 196.432 71.21C195.676 71.378 195.144 71.7 194.836 72.176H194.626ZM212.825 71.672L204.467 52.352C204.187 51.708 203.809 51.176 203.333 50.756C202.885 50.336 202.255 50.112 201.443 50.084V49.664H213.203V50.084C212.223 50.196 211.579 50.63 211.271 51.386C210.991 52.142 211.089 53.094 211.565 54.242L215.891 64.364L220.175 54.494C220.455 53.85 220.595 53.22 220.595 52.604C220.595 51.904 220.385 51.33 219.965 50.882C219.545 50.434 218.957 50.168 218.201 50.084V49.664H224.837V50.084C224.109 50.252 223.409 50.672 222.737 51.344C222.065 52.016 221.463 52.94 220.931 54.116L213.203 71.672H212.825ZM228.841 71.588C227.133 71.588 225.761 71.126 224.725 70.202C223.689 69.278 223.171 68.06 223.171 66.548C223.171 65.904 223.283 65.302 223.507 64.742C223.731 64.154 224.151 63.58 224.767 63.02C225.411 62.46 226.293 61.886 227.413 61.298C228.533 60.682 230.017 60.038 231.865 59.366L235.771 57.938V54.788C235.771 53.192 235.519 51.932 235.015 51.008C234.511 50.056 233.811 49.58 232.915 49.58C231.851 49.608 230.941 50.308 230.185 51.68C229.457 53.052 228.967 54.956 228.715 57.392L224.179 54.788C224.655 53.64 225.383 52.632 226.363 51.764C227.343 50.896 228.463 50.224 229.723 49.748C231.011 49.272 232.355 49.034 233.755 49.034C236.135 49.034 238.067 49.706 239.551 51.05C241.063 52.366 241.819 54.172 241.819 56.468V66.59C241.819 68.214 242.365 69.026 243.457 69.026C244.101 69.026 244.731 68.676 245.347 67.976L245.683 68.27C244.955 69.25 244.073 70.048 243.037 70.664C242.001 71.28 240.993 71.588 240.013 71.588C238.949 71.588 238.025 71.224 237.241 70.496C236.485 69.768 236.009 68.802 235.813 67.598C234.441 68.998 233.237 70.02 232.201 70.664C231.193 71.28 230.073 71.588 228.841 71.588ZM231.991 68.984C232.607 68.984 233.195 68.83 233.755 68.522C234.343 68.214 235.001 67.71 235.729 67.01L235.771 58.484L234.091 59.114C232.663 59.646 231.571 60.192 230.815 60.752C230.059 61.284 229.527 61.886 229.219 62.558C228.939 63.23 228.799 64 228.799 64.868C228.799 66.072 229.093 67.066 229.681 67.85C230.297 68.606 231.067 68.984 231.991 68.984ZM244.844 71V70.58H244.886C245.894 70.58 246.706 70.272 247.322 69.656C247.938 69.04 248.246 68.228 248.246 67.22V53.444C248.246 52.38 248.022 51.554 247.574 50.966C247.154 50.378 246.244 50.084 244.844 50.084V49.664H249.002C250.43 49.664 251.522 49.51 252.278 49.202C252.978 48.894 253.468 48.516 253.748 48.068H254.168L254.21 53.948C254.938 52.492 256.044 51.316 257.528 50.42C259.012 49.524 260.58 49.076 262.232 49.076C264.108 49.076 265.606 49.692 266.726 50.924C267.874 52.156 268.448 53.78 268.448 55.796V67.22C268.448 68.228 268.756 69.04 269.372 69.656C269.988 70.272 270.8 70.58 271.808 70.58H271.85V71H259.04V70.58H259.082C260.09 70.58 260.902 70.272 261.518 69.656C262.134 69.04 262.442 68.228 262.442 67.22V55.376C262.442 53.976 262.162 52.856 261.602 52.016C261.07 51.176 260.356 50.756 259.46 50.756C258.592 50.756 257.682 51.134 256.73 51.89C255.806 52.618 254.994 53.612 254.294 54.872V67.22C254.294 68.228 254.602 69.04 255.218 69.656C255.834 70.272 256.646 70.58 257.654 70.58H257.696V71H244.844ZM278.52 71.588C277.064 71.588 275.874 71.126 274.95 70.202C274.026 69.278 273.564 68.074 273.564 66.59V50.42H269.994V49.874C271.926 49.734 273.648 49.118 275.16 48.026C276.7 46.934 277.96 45.464 278.94 43.616H279.612V49.664H285.198L284.778 50.42H279.612V65.666C279.612 67.906 280.368 69.026 281.88 69.026C282.384 69.026 282.958 68.872 283.602 68.564C284.274 68.256 284.904 67.85 285.492 67.346V67.766C284.568 68.942 283.476 69.88 282.216 70.58C280.956 71.252 279.724 71.588 278.52 71.588ZM291.964 71.588C290.256 71.588 288.884 71.126 287.848 70.202C286.812 69.278 286.294 68.06 286.294 66.548C286.294 65.904 286.406 65.302 286.63 64.742C286.854 64.154 287.274 63.58 287.89 63.02C288.534 62.46 289.416 61.886 290.536 61.298C291.656 60.682 293.14 60.038 294.988 59.366L298.894 57.938V54.788C298.894 53.192 298.642 51.932 298.138 51.008C297.634 50.056 296.934 49.58 296.038 49.58C294.974 49.608 294.064 50.308 293.308 51.68C292.58 53.052 292.09 54.956 291.838 57.392L287.302 54.788C287.778 53.64 288.506 52.632 289.486 51.764C290.466 50.896 291.586 50.224 292.846 49.748C294.134 49.272 295.478 49.034 296.878 49.034C299.258 49.034 301.19 49.706 302.674 51.05C304.186 52.366 304.942 54.172 304.942 56.468V66.59C304.942 68.214 305.488 69.026 306.58 69.026C307.224 69.026 307.854 68.676 308.47 67.976L308.806 68.27C308.078 69.25 307.196 70.048 306.16 70.664C305.124 71.28 304.116 71.588 303.136 71.588C302.072 71.588 301.148 71.224 300.364 70.496C299.608 69.768 299.132 68.802 298.936 67.598C297.564 68.998 296.36 70.02 295.324 70.664C294.316 71.28 293.196 71.588 291.964 71.588ZM295.114 68.984C295.73 68.984 296.318 68.83 296.878 68.522C297.466 68.214 298.124 67.71 298.852 67.01L298.894 58.484L297.214 59.114C295.786 59.646 294.694 60.192 293.938 60.752C293.182 61.284 292.65 61.886 292.342 62.558C292.062 63.23 291.922 64 291.922 64.868C291.922 66.072 292.216 67.066 292.804 67.85C293.42 68.606 294.19 68.984 295.114 68.984Z" fill="#08384F"/>
</svg>
