<svg width="336" height="79" viewBox="0 0 336 79" fill="none" xmlns="http://www.w3.org/2000/svg">
<path d="M53.978 17.7549C55.7667 19.0013 55.7667 19.0013 56.0648 19.9554C56.0914 20.1112 56.0914 20.1112 56.1185 20.2702C55.9782 20.329 55.8379 20.3877 55.6934 20.4483C54.1072 21.1664 53.1445 21.9426 52.4659 23.5655C52.2914 24.6705 52.2535 25.7935 52.5441 26.883C52.9864 26.7945 52.9864 26.7945 53.4377 26.7043C53.3787 26.5274 53.3197 26.3504 53.259 26.1681C53.1293 24.9174 53.1356 23.9266 53.8984 22.8939C54.7526 21.8848 55.4728 21.2404 56.825 21.0801C57.081 21.074 57.337 21.0722 57.593 21.0745C57.7943 21.076 57.7943 21.076 57.9996 21.0776C59.4887 21.1253 60.523 21.6352 61.6254 22.6272C62.2994 23.3552 62.7012 24.1904 63.0887 25.0958C63.1661 25.269 63.2436 25.4423 63.3233 25.6208C63.5107 26.4553 63.4735 27.2825 63.4462 28.1341C63.2627 28.0916 63.2627 28.0916 63.0755 28.0482C61.7088 27.8055 60.143 27.6873 58.9202 28.4336C57.7863 29.3296 57.1261 30.389 56.9556 31.8286C56.8944 33.2572 57.3104 34.1219 58.0845 35.283C58.2024 35.283 58.3204 35.283 58.4419 35.283C58.5742 34.9637 58.5742 34.9637 58.6207 34.5681C58.447 34.1839 58.447 34.1839 58.185 33.8085C57.6911 32.9655 57.5882 32.5016 57.727 31.5298C58.14 30.2449 58.9731 29.4236 60.1398 28.7819C61.2783 28.4973 62.2457 28.6734 63.2675 29.2064C64.3682 29.9246 65.016 30.8446 65.3367 32.1191C65.5826 33.6943 65.634 35.2786 64.809 36.6849C64.0278 37.7214 63.0945 38.5507 61.7832 38.7374C61.3846 38.7846 60.9866 38.8244 60.5866 38.8575C60.5276 39.1524 60.4687 39.4473 60.4079 39.7511C62.0802 39.7445 63.6168 39.3439 64.8669 38.174C65.4742 37.4198 65.8276 36.5829 66.1522 35.6761C66.3058 35.283 66.3058 35.283 66.6632 34.7468C68.1345 36.2896 69.1487 37.7644 69.2212 39.9633C69.1729 41.9237 68.6227 43.5829 67.3781 45.1128C67.1257 45.3087 66.8689 45.499 66.6074 45.6825C65.9929 46.1733 65.859 46.5748 65.7683 47.3526C65.7467 47.6031 65.726 47.8536 65.706 48.1042C65.5278 50.2567 64.6421 52.017 63.0839 53.5002C61.0463 55.2172 58.8717 55.5168 56.2973 55.4788C56.2532 55.6373 56.2092 55.7958 56.1639 55.9591C55.5492 57.5831 53.9568 58.8316 52.4162 59.5545C50.78 60.2417 48.7478 60.2417 47.0532 59.7563C45.5992 59.0816 44.5256 58.0789 43.9025 56.5895C43.6613 55.7655 43.7061 54.9084 43.7059 54.0563C43.7038 53.844 43.7017 53.6317 43.6996 53.413C43.6946 52.8336 43.6921 52.2543 43.691 51.6749C43.6903 51.3122 43.6888 50.9496 43.687 50.5869C43.681 49.3198 43.6779 48.0528 43.6774 46.7857C43.6769 45.6074 43.6697 44.4294 43.6594 43.2512C43.6508 42.237 43.6471 41.2228 43.6471 40.2085C43.647 39.6038 43.645 38.9994 43.638 38.3948C43.6314 37.7201 43.6328 37.0458 43.6361 36.3711C43.6324 36.1727 43.6288 35.9742 43.625 35.7697C43.6414 34.5546 43.8568 33.9174 44.7255 33.0536C45.0959 32.73 45.4595 32.4301 45.8754 32.1665C46.0052 32.082 46.1349 31.9974 46.2685 31.9103C47.3098 31.3541 48.5377 31.3903 49.6845 31.5298C50.7277 31.9438 51.5707 32.544 52.1866 33.4958C52.5405 33.4073 52.5405 33.4073 52.9015 33.3171C52.6155 32.2366 51.841 31.7109 50.9474 31.1242C49.71 30.4622 48.3714 30.448 47.0036 30.6362C45.8483 31.0368 45.0019 31.5637 44.1441 32.4234C44.0261 32.4234 43.9081 32.4234 43.7866 32.4234C43.7699 31.1059 43.7573 29.7883 43.7496 28.4706C43.7459 27.8586 43.7408 27.2466 43.7327 26.6346C43.7233 25.9288 43.7199 25.2229 43.7168 24.517C43.7131 24.3004 43.7094 24.0838 43.7056 23.8607C43.7051 21.6843 44.3052 19.975 45.7973 18.3713C47.9555 16.2734 51.4877 16.3172 53.978 17.7549Z" fill="#48BFE8"/>
<path d="M37.4214 17.7341C37.6537 17.9277 37.6537 17.9277 37.8906 18.1251C37.9926 18.2069 38.0947 18.2887 38.1998 18.3729C39.3136 19.3537 39.9248 20.6578 40.1127 22.126C40.1378 22.7779 40.136 23.4238 40.1225 24.076C40.1206 24.4285 40.1206 24.4285 40.1187 24.7881C40.1153 25.4052 40.1066 26.0221 40.0966 26.6391C40.0874 27.2717 40.0834 27.9044 40.0789 28.5371C40.0694 29.7729 40.0542 31.0086 40.0353 32.2442C39.5828 31.9737 39.1319 31.702 38.6858 31.4211C37.1585 30.5462 35.8509 30.4036 34.1374 30.6357C32.8061 31.0159 31.8747 31.8254 31.0991 32.9591C31.0106 33.2245 31.0106 33.2245 30.9204 33.4953C31.2153 33.6133 31.5101 33.7312 31.814 33.8528C31.8435 33.7274 31.873 33.6021 31.9033 33.473C32.3797 32.5599 33.367 31.9129 34.3161 31.5293C35.9898 31.2876 37.4215 31.5892 38.7842 32.6017C39.6554 33.3666 40.2876 34.0305 40.3919 35.2194C40.3987 35.6015 40.3978 35.9839 40.3905 36.366C40.3921 36.576 40.3938 36.7861 40.3955 37.0025C40.399 37.6932 40.3923 38.3834 40.385 39.0741C40.3839 39.5564 40.3847 40.0387 40.3853 40.521C40.3855 41.5304 40.38 42.5397 40.3709 43.5491C40.3606 44.7121 40.3584 45.8749 40.3607 47.0379C40.3629 48.1616 40.3599 49.2852 40.3544 50.4089C40.3522 50.8848 40.3517 51.3606 40.3522 51.8366C40.3519 52.503 40.3458 53.1691 40.3381 53.8355C40.3396 54.1279 40.3396 54.1279 40.341 54.4262C40.3119 56.0528 39.8244 57.2772 38.7395 58.4942C38.0663 59.1216 37.3124 59.445 36.4608 59.7676C36.3428 59.8266 36.2249 59.8856 36.1033 59.9464C33.4722 60.0864 31.4257 59.9065 29.3789 58.1033C27.8763 56.4031 27.8763 56.4031 27.7033 55.4783C27.5605 55.4845 27.4177 55.4907 27.2705 55.4971C24.757 55.5591 22.5863 55.028 20.6696 53.3147C19.1618 51.7165 18.3484 49.8303 18.3874 47.6256C18.389 47.5034 18.3906 47.3812 18.3923 47.2553C18.3964 46.9579 18.4028 46.6607 18.4097 46.3634C18.3042 46.3136 18.1987 46.2639 18.09 46.2126C16.634 45.4511 15.7723 44.1758 15.1857 42.6695C14.5688 40.6717 14.6701 38.7917 15.5501 36.891C16.0503 36.0556 16.596 35.2104 17.3374 34.5676C17.4553 34.5676 17.5733 34.5676 17.6948 34.5676C17.7082 34.6759 17.7215 34.7842 17.7353 34.8958C17.9553 36.2977 18.4159 37.5382 19.5212 38.48C20.5274 39.171 21.4379 39.5949 22.6656 39.6836C22.9272 39.7036 22.9272 39.7036 23.1941 39.7241C23.3914 39.7372 23.3914 39.7372 23.5927 39.7506C23.5337 39.3967 23.4747 39.0429 23.414 38.6783C23.3144 38.6866 23.2149 38.6949 23.1124 38.7034C21.8418 38.7635 20.9844 38.5038 20.0273 37.6541C18.6734 36.2321 18.482 34.8124 18.5263 32.8865C18.6626 31.4781 19.3201 30.3235 20.3757 29.3847C21.136 28.8515 21.9028 28.534 22.852 28.5902C23.939 28.8159 24.907 29.309 25.5698 30.2113C26.1367 31.1987 26.1959 32.0204 26.0948 33.1379C25.8491 33.741 25.8491 33.741 25.5587 34.2102C25.4886 34.3503 25.4186 34.4903 25.3464 34.6347C25.2985 34.7305 25.2506 34.8263 25.2012 34.9251C25.3781 35.102 25.5551 35.279 25.7374 35.4613C25.913 35.175 26.0879 34.8882 26.2624 34.6012C26.3598 34.4415 26.4573 34.2818 26.5577 34.1173C27.0722 33.2124 27.0946 32.3678 26.9884 31.3506C26.6531 30.2096 26.0569 29.0483 24.9904 28.452C23.4492 27.7445 22.1833 27.6017 20.5544 28.1336C20.4391 26.1266 20.8726 24.517 22.1629 22.9506C23.3555 21.7023 24.3547 21.1424 26.0837 21.0964C27.7699 21.1392 28.8561 21.5423 30.0267 22.7719C30.6722 23.6756 30.7647 24.4008 30.7528 25.4974C30.7512 25.69 30.7496 25.8826 30.7479 26.0811C30.7458 26.2276 30.7438 26.3741 30.7416 26.5251C30.9775 26.643 31.2135 26.761 31.4565 26.8825C31.8204 25.2016 31.7553 23.9019 30.9169 22.3684C30.151 21.3079 29.0877 20.7211 27.8821 20.2698C28.6462 18.6496 29.9143 17.7141 31.555 17.0458C33.6196 16.3586 35.5085 16.7068 37.4214 17.7341Z" fill="#08384F"/>
<path d="M10.7234 44.3965C11.6707 44.5026 12.4358 44.8207 13.2926 45.2119C13.4241 45.2708 13.5557 45.3296 13.6912 45.3903C14.0131 45.5345 14.3343 45.6802 14.6553 45.8263C14.5963 46.0253 14.5374 46.2244 14.4766 46.4295C14.0539 48.3623 13.9555 50.7081 15.0128 52.439C16.3773 54.5497 18.2912 55.4559 20.5085 56.4715C20.7806 56.5976 21.0526 56.7239 21.3246 56.8504C22.01 57.1687 22.6962 57.4851 23.3827 57.801C23.964 58.0687 24.5447 58.3378 25.1253 58.6071C25.334 58.7039 25.5428 58.8007 25.7578 58.9004C26.5661 59.2755 27.3743 59.651 28.1822 60.0272C28.5804 60.2125 28.9787 60.3975 29.3772 60.582C34.1978 62.8202 38.8688 65.2478 40.9277 70.4901C41.0798 71.0267 41.1875 71.5483 41.2851 72.0986C43.1209 72.121 44.4089 71.6312 45.7336 70.3393C45.8322 70.2342 45.9309 70.1292 46.0324 70.021C47.3897 68.5868 49.4414 68.1827 51.2824 67.6752C51.5576 67.598 51.8327 67.5206 52.1077 67.4433C54.3192 66.8247 56.5419 66.2505 58.7679 65.6866C60.3303 65.2903 61.8836 64.8711 63.4307 64.4182C64.59 64.0808 65.7574 63.7871 66.9303 63.5005C67.9994 63.2368 69.0579 62.9445 70.1154 62.6374C71.9259 62.1124 73.7462 61.6329 75.5717 61.1634C76.1856 61.005 76.799 60.845 77.4124 60.6847C77.8434 60.5723 78.2743 60.4599 78.7053 60.3475C78.906 60.295 79.1067 60.2425 79.3135 60.1884C80.3952 59.9071 81.4774 59.6439 82.5702 59.4092C82.8101 59.9335 83.0478 60.4588 83.2851 60.9842C83.3533 61.1332 83.4215 61.2821 83.4918 61.4356C83.5563 61.579 83.6208 61.7224 83.6872 61.8702C83.7471 62.0022 83.807 62.1341 83.8688 62.2701C84 62.6263 84 62.6263 84 63.1624C81.4248 63.7496 78.8485 64.3316 76.2702 64.905C76.0999 64.9429 75.9296 64.9808 75.7542 65.0199C73.0493 65.6216 70.3411 66.2058 67.6307 66.7818C65.447 67.2464 63.2715 67.7356 61.0994 68.2512C59.1962 68.7005 57.2852 69.1068 55.3713 69.5073C53.7389 69.8492 52.1109 70.2073 50.4883 70.5935C50.3438 70.6273 50.1992 70.6612 50.0502 70.6961C49.9268 70.7255 49.8033 70.755 49.6762 70.7854C49.3277 70.8475 49.3277 70.8475 48.6128 70.8475C48.5688 71.0058 48.5248 71.1641 48.4794 71.3272C47.9494 72.7291 46.7495 73.7616 45.4383 74.4332C45.3063 74.4885 45.1743 74.5438 45.0383 74.6007C44.8853 74.6657 44.7323 74.7307 44.5747 74.7976C43.7236 75.0221 42.9102 75.024 42.0335 75.0252C41.8643 75.0296 41.6951 75.034 41.5207 75.0385C39.5806 75.0465 37.8946 74.191 36.4903 72.8617C35.9094 72.223 35.6395 71.6829 35.3872 70.8475C35.1816 70.8244 35.1816 70.8244 34.9718 70.8008C33.7337 70.644 32.5327 70.4211 31.3213 70.1215C29.4161 69.651 27.4994 69.2434 25.5798 68.8369C23.0235 68.2948 20.4733 67.7315 17.9282 67.139C17.3487 67.0043 16.7693 66.8695 16.1898 66.7348C16.0542 66.7033 15.9186 66.6717 15.7788 66.6392C13.4988 66.11 11.2098 65.6245 8.91872 65.1459C8.32133 65.021 7.72396 64.896 7.1266 64.771C6.97912 64.7401 6.83163 64.7093 6.67968 64.6775C4.44387 64.2092 2.21666 63.7153 0 63.1624C0.116144 62.32 0.449599 61.6296 0.815426 60.8725C0.903721 60.6868 0.903721 60.6868 0.9938 60.4973C1.13824 60.1938 1.28389 59.8908 1.42979 59.588C2.84487 59.713 4.20112 60.0767 5.57394 60.4257C5.70086 60.4577 5.82777 60.4897 5.95854 60.5226C7.81381 60.99 9.65673 61.4906 11.4935 62.0266C13.3301 62.5615 15.1871 63.0243 17.0402 63.4982C17.5187 63.6208 17.9971 63.7434 18.4755 63.8662C18.5959 63.897 18.7163 63.9279 18.8403 63.9597C20.4572 64.3749 22.0657 64.8122 23.668 65.2809C24.816 65.6137 25.9715 65.9057 27.1324 66.1896C36.2186 68.4246 36.2186 68.4246 38.9938 70.9222C39.5669 71.4203 39.982 71.7412 40.7489 71.7412C37.3886 67.6766 32.5299 65.9502 27.7133 64.2348C27.1481 64.0322 26.5831 63.8293 26.0181 63.6263C25.6365 63.4893 25.2549 63.3523 24.8732 63.2155C23.3076 62.654 21.7455 62.083 20.1845 61.5089C17.7703 60.6211 15.3522 59.7448 12.9309 58.8766C12.7362 58.8067 12.7362 58.8067 12.5376 58.7355C11.2271 58.2654 9.91654 57.7957 8.6055 57.3273C8.11411 57.1517 7.62285 56.9757 7.13162 56.7997C6.9008 56.717 6.66992 56.6346 6.43898 56.5523C6.12016 56.4386 5.80156 56.3244 5.48296 56.2102C5.21369 56.1139 5.21369 56.1139 4.93899 56.0158C4.52786 55.8578 4.14231 55.6828 3.75319 55.4773C4.02618 54.7022 4.43087 54.0474 4.88138 53.3662C4.96308 53.2412 5.04478 53.1162 5.12896 52.9875C5.44397 52.5062 5.76031 52.0258 6.0766 51.5454C6.47131 50.9447 6.86575 50.3438 7.26018 49.7429C7.67848 49.1056 8.097 48.4685 8.51611 47.8318C9.26442 46.6942 10.0098 45.5564 10.7234 44.3965Z" fill="#08384F"/>
<path d="M10.7241 44.3965C11.6714 44.5026 12.4365 44.8207 13.2933 45.2119C13.4248 45.2708 13.5564 45.3296 13.6919 45.3903C14.0138 45.5345 14.335 45.6802 14.656 45.8263C14.5971 46.0253 14.5381 46.2244 14.4773 46.4295C14.0546 48.3623 13.9562 50.7081 15.0135 52.439C16.378 54.5497 18.2919 55.4559 20.5092 56.4715C20.7813 56.5976 21.0534 56.7239 21.3253 56.8504C22.0107 57.1687 22.6969 57.4851 23.3834 57.801C23.9648 58.0687 24.5454 58.3378 25.126 58.6071C25.4391 58.7523 25.4391 58.7523 25.7585 58.9004C26.5669 59.2755 27.3751 59.651 28.1829 60.0272C28.5811 60.2125 28.9794 60.3975 29.3779 60.582C34.1985 62.8202 38.8695 65.2478 40.9284 70.4901C41.0805 71.0267 41.1882 71.5483 41.2858 72.0986C40.5637 71.8579 40.4455 71.4774 40.0348 70.8475C39.0485 69.7785 37.9289 68.9206 36.706 68.1444C36.6029 68.0781 36.4997 68.0118 36.3934 67.9435C33.7674 66.3363 30.8594 65.3297 27.9709 64.313C27.3692 64.0992 26.7677 63.8848 26.1662 63.6704C25.7622 63.5265 25.3582 63.3827 24.9541 63.2392C23.2075 62.6184 21.4668 61.9822 19.7273 61.3417C17.4664 60.5101 15.2014 59.6904 12.9337 58.8773C12.8039 58.8307 12.674 58.7841 12.5402 58.7361C11.229 58.2658 9.91779 57.7959 8.60606 57.3273C8.11472 57.1517 7.62349 56.9757 7.1323 56.7996C6.90149 56.717 6.67063 56.6346 6.4397 56.5523C6.12088 56.4386 5.80227 56.3244 5.48367 56.2102C5.21441 56.1139 5.21441 56.1139 4.9397 56.0158C4.52857 55.8578 4.14302 55.6828 3.75391 55.4773C4.0269 54.7022 4.43158 54.0474 4.8821 53.3662C4.9638 53.2412 5.0455 53.1162 5.12968 52.9875C5.44469 52.5062 5.76103 52.0258 6.07731 51.5454C6.47202 50.9447 6.86647 50.3438 7.2609 49.7429C7.67919 49.1056 8.09772 48.4685 8.51682 47.8318C9.26513 46.6942 10.0106 45.5564 10.7241 44.3965Z" fill="#48BFE8"/>
<path d="M72.924 44.3926C73.492 44.6895 73.7614 45.2099 74.092 45.7386C74.17 45.8594 74.2479 45.9801 74.3283 46.1046C74.5753 46.4878 74.8196 46.8727 75.0638 47.2577C75.2846 47.6016 75.5063 47.9449 75.7281 48.2881C75.8827 48.5273 76.0369 48.7667 76.1908 49.0063C76.7412 49.8602 77.3029 50.7061 77.8696 51.5492C77.9429 51.6584 78.0162 51.7676 78.0917 51.88C78.461 52.4302 78.8312 52.9799 79.2027 53.5286C79.3392 53.7317 79.4757 53.9348 79.6122 54.1379C79.7344 54.3188 79.8567 54.4998 79.9826 54.6862C80.2468 55.1216 80.2468 55.1216 80.2468 55.479C74.9867 57.4288 69.7211 59.3619 64.4407 61.2559C64.072 61.3882 63.7033 61.5205 63.3347 61.6528C59.2031 63.1362 59.2031 63.1362 57.145 63.8686C49.3072 66.4391 49.3072 66.4391 43.251 71.7428C43.31 71.8608 43.1902 71.9788 43.251 72.1003C43.0151 72.1003 42.9579 72.1003 42.7148 72.1003C43.2207 68.8404 45.3747 66.2353 47.8978 64.2365C50.8641 62.0748 54.3392 60.5947 57.6794 59.1156C59.3736 58.3646 61.0519 57.5785 62.7327 56.7981C63.2147 56.5759 63.6981 56.3575 64.1826 56.1409C66.7025 55.0063 68.4131 53.8052 69.5122 51.1673C70.0112 49.4638 69.8189 47.5078 69.3446 45.828C69.7131 45.6564 70.0818 45.4852 70.4505 45.3141C70.7584 45.1711 70.7584 45.1711 71.0725 45.0251C71.269 44.9362 71.4656 44.8472 71.668 44.7556C71.8258 44.6814 71.9837 44.6072 72.1463 44.5308C72.5617 44.3982 72.5617 44.3982 72.924 44.3926Z" fill="#48BFE8"/>
<path d="M50.3776 0.00628325C50.5584 0.00420978 50.7393 0.0021363 50.9256 0C52.1947 0.00487485 53.3049 0.217887 54.5106 0.609475C54.4208 1.72456 54.1575 2.60991 53.6951 3.62543C53.6313 3.76639 53.5675 3.90734 53.5017 4.05256C52.3877 6.42652 50.76 7.95265 48.376 9.01925C47.1989 9.43512 46.0251 9.38843 44.7925 9.37809C44.6098 9.37729 44.4271 9.37648 44.2389 9.37565C43.7904 9.37355 43.342 9.37062 42.8935 9.36692C42.7148 8.83075 42.7148 8.83075 42.9208 8.3986C44.2694 6.30628 45.8015 5.09842 47.8978 3.8265C45.8307 4.24087 43.747 5.89007 42.5361 7.57969C41.3207 9.41625 41.0599 11.2902 41.285 13.4776C41.4619 14.0315 41.6854 14.5349 41.9322 15.0609C43.829 19.381 42.5784 23.7746 41.4638 28.1329C41.4048 28.1329 41.3458 28.1329 41.285 28.1329C41.2874 27.9701 41.2874 27.9701 41.2899 27.8041C41.3059 26.6556 41.3165 25.5072 41.3243 24.3586C41.3279 23.9322 41.3327 23.5059 41.339 23.0796C41.3988 18.8976 41.2352 14.2388 38.2467 10.9754C37.0694 9.93033 35.7686 9.23692 34.3148 8.65203C34.4402 8.72783 34.5655 8.80362 34.6946 8.88172C36.2091 9.81799 37.7892 10.8846 38.7829 12.4052C38.7829 12.5822 38.7829 12.7591 38.7829 12.9414C36.9396 13.4523 34.6863 13.3494 32.9772 12.5044C30.9726 11.2655 29.7245 9.4237 28.9531 7.22224C28.9531 6.98633 28.9531 6.75041 28.9531 6.50735C30.7639 5.70847 33.3445 5.65374 35.2084 6.32862C37.6964 7.323 38.7259 9.02602 39.8553 11.3329C39.9142 11.3329 39.9732 11.3329 40.034 11.3329C40.0752 11.1838 40.1165 11.0348 40.1589 10.8812C40.4856 9.75418 40.8458 8.78009 41.4491 7.77587C41.6503 7.38577 41.7338 7.06086 41.81 6.63022C42.2103 4.54169 43.4965 2.76627 45.1646 1.49053C46.872 0.349096 48.3354 -0.0169533 50.3776 0.00628325Z" fill="#48BFE8"/>
<path d="M56.1177 35.2812C56.1766 35.6351 56.2356 35.989 56.2964 36.3536C56.1047 36.4752 55.913 36.5969 55.7155 36.7222C55.0481 37.2123 54.5646 37.689 54.3304 38.4983C54.1854 39.7544 54.1353 41.0179 54.8059 42.13C55.5124 43.0157 56.387 43.789 57.5391 43.92C58.8171 43.9352 59.6856 43.8309 60.7645 43.1451C61.0017 43.0238 61.2397 42.904 61.4794 42.7876C61.6563 43.0235 61.8332 43.2595 62.0155 43.5025C60.6092 44.8007 59.3536 45.2431 57.4225 45.1788C56.6074 45.0852 56.0617 44.8764 55.4028 44.3961C55.28 44.3114 55.1572 44.2266 55.0307 44.1392C54.0033 43.3463 53.4149 42.433 53.0794 41.1791C52.9046 39.6898 52.884 38.3109 53.7943 37.0685C53.8632 36.9701 53.932 36.8717 54.003 36.7704C54.5047 36.1129 55.2376 35.2812 56.1177 35.2812Z" fill="#F4FBE9"/>
<path d="M27.8803 35.4609C28.9916 35.6001 29.5186 36.2299 30.2037 37.0694C31.0235 38.282 31.0885 39.5744 30.9186 41.0014C30.6254 42.1858 30.0789 43.2524 29.1314 44.0397C27.6001 44.9594 26.2738 45.297 24.4845 45.112C23.5433 44.7878 22.766 44.2881 21.9824 43.6822C22.1004 43.4463 22.2183 43.2104 22.3399 42.9673C23.1917 42.9673 23.4455 43.2036 24.1271 43.6822C25.3297 44.0831 26.624 44.0206 27.7798 43.5035C28.8149 42.921 29.2995 42.1055 29.6675 41.0014C29.7907 39.715 29.8341 38.6126 29.0441 37.5442C28.6299 37.0904 28.1946 36.7215 27.7016 36.3546C27.7605 36.0597 27.8195 35.7648 27.8803 35.4609Z" fill="#ECF7FB"/>
<path d="M56.4876 46.5534C57.7765 47.2753 58.6995 48.3501 59.158 49.7593C59.1929 50.2766 59.1929 50.2766 59.1803 50.7981C59.1771 50.9725 59.1739 51.1469 59.1705 51.3266C59.1664 51.4581 59.1622 51.5897 59.158 51.7252C58.8041 51.6662 58.4502 51.6073 58.0856 51.5465C58.081 51.4299 58.0764 51.3133 58.0717 51.1932C57.9842 49.8455 57.6707 49.1448 56.6782 48.1954C55.7304 47.5131 54.7829 47.2609 53.6175 47.4359C52.5591 47.7802 51.9352 48.3294 51.2941 49.2231C51.0766 49.6581 51.0583 50.0128 51.0149 50.4965C50.9924 50.7405 50.9924 50.7405 50.9695 50.9894C50.9587 51.1142 50.9478 51.2391 50.9367 51.3678C50.6418 51.4857 50.3469 51.6037 50.0431 51.7252C49.7273 51.4094 49.8113 50.9812 49.7973 50.5523C49.813 49.2304 50.1948 48.5454 51.1042 47.6195C52.5917 46.2475 54.5564 45.8825 56.4876 46.5534Z" fill="#F3FAEA"/>
<path d="M31.8116 46.7218C32.8645 47.4224 33.7539 48.3613 34.135 49.5814C34.1699 50.0987 34.1699 50.0987 34.1574 50.6202C34.1541 50.7946 34.1509 50.969 34.1476 51.1487C34.1435 51.2802 34.1393 51.4118 34.135 51.5473C33.4648 51.7484 33.4648 51.7484 33.0627 51.5473C33.0138 51.1375 33.0138 51.1375 32.9957 50.6202C32.9245 49.7186 32.8023 49.191 32.1691 48.509C31.1088 47.7245 30.1251 47.241 28.7733 47.4367C27.651 47.8017 26.8114 48.3043 26.2398 49.3552C26.0196 49.9603 25.9663 50.5487 25.9389 51.1892C25.9138 51.5473 25.9138 51.5473 25.735 51.7261C25.4372 51.7333 25.1392 51.7337 24.8414 51.7261C24.7163 50.2635 24.8863 49.1915 25.735 47.9729C27.234 46.2852 29.7327 45.6645 31.8116 46.7218Z" fill="#EDF6FA"/>
<path d="M98.336 42L98.378 41.58H98.42C99.428 41.58 100.24 41.314 100.856 40.782C101.472 40.25 101.78 39.48 101.78 38.472V14.28C101.78 13.272 101.472 12.46 100.856 11.844C100.24 11.228 99.428 10.92 98.42 10.92L98.378 10.5H120.89L122.15 18.942H121.73C120.89 13.678 117.572 11.046 111.776 11.046H108.248V23.184H112.028C113.428 23.184 114.548 22.764 115.388 21.924C116.228 21.056 116.648 19.922 116.648 18.522H117.068V28.854H116.648C116.62 27.342 116.144 26.11 115.22 25.158C114.296 24.206 113.078 23.73 111.566 23.73H108.248V38.472C108.248 40.46 109.228 41.454 111.188 41.454H112.952C115.668 41.454 117.824 40.754 119.42 39.354C121.016 37.954 122.038 35.756 122.486 32.76H122.906L121.646 42H98.336ZM140.026 43.596L139.984 37.632C139.312 39.088 138.304 40.292 136.96 41.244C135.616 42.168 134.174 42.63 132.634 42.63C131.122 42.63 129.764 42.154 128.56 41.202C127.356 40.25 126.404 38.948 125.704 37.296C125.004 35.616 124.654 33.726 124.654 31.626C124.654 29.274 125.088 27.23 125.956 25.494C126.852 23.758 128.084 22.428 129.652 21.504C131.22 20.552 133.026 20.076 135.07 20.076C136.218 20.076 137.156 20.258 137.884 20.622C138.612 20.958 139.27 21.546 139.858 22.386V14.28C139.858 13.272 139.536 12.46 138.892 11.844C138.276 11.228 137.464 10.92 136.456 10.92V10.5H140.74C142.14 10.5 143.204 10.36 143.932 10.08C144.66 9.8 145.178 9.408 145.486 8.904H145.906V38.22C145.906 39.228 146.214 40.04 146.83 40.656C147.446 41.272 148.272 41.58 149.308 41.58V42H145.024C143.792 42 142.812 42.126 142.084 42.378C141.384 42.63 140.838 43.036 140.446 43.596H140.026ZM134.944 40.95C135.588 40.95 136.232 40.754 136.876 40.362C137.548 39.942 138.15 39.396 138.682 38.724C139.214 38.052 139.606 37.338 139.858 36.582V26.334C139.718 24.654 139.298 23.31 138.598 22.302C137.926 21.294 137.044 20.79 135.952 20.79C134.496 20.79 133.362 21.714 132.55 23.562C131.766 25.41 131.374 28.14 131.374 31.752C131.374 37.884 132.564 40.95 134.944 40.95ZM165.626 43.176L165.584 37.758C164.856 39.186 163.75 40.348 162.266 41.244C160.782 42.14 159.214 42.588 157.562 42.588C155.686 42.588 154.174 41.972 153.026 40.74C151.906 39.508 151.346 37.884 151.346 35.868V24.444C151.346 23.38 151.136 22.554 150.716 21.966C150.296 21.378 149.372 21.084 147.944 21.084V20.664H152.186C153.614 20.664 154.706 20.51 155.462 20.202C156.162 19.894 156.652 19.516 156.932 19.068H157.352V36.288C157.352 37.688 157.632 38.808 158.192 39.648C158.752 40.488 159.48 40.908 160.376 40.908C161.244 40.908 162.14 40.544 163.064 39.816C163.988 39.06 164.8 38.052 165.5 36.792V24.444C165.5 23.436 165.248 22.624 164.744 22.008C164.24 21.392 163.372 21.084 162.14 21.084V20.664H166.382C167.81 20.664 168.902 20.51 169.658 20.202C170.386 19.894 170.89 19.516 171.17 19.068H171.59L171.548 38.22C171.548 39.228 171.856 40.054 172.472 40.698C173.088 41.314 173.9 41.622 174.908 41.622V42H170.75C170.022 42 169.378 42.014 168.818 42.042C168.258 42.098 167.796 42.154 167.432 42.21C166.676 42.378 166.144 42.7 165.836 43.176H165.626ZM183.825 42.672L175.467 23.352C175.187 22.708 174.809 22.176 174.333 21.756C173.885 21.336 173.255 21.112 172.443 21.084V20.664H184.203V21.084C183.223 21.196 182.579 21.63 182.271 22.386C181.991 23.142 182.089 24.094 182.565 25.242L186.891 35.364L191.175 25.494C191.455 24.85 191.595 24.22 191.595 23.604C191.595 22.904 191.385 22.33 190.965 21.882C190.545 21.434 189.957 21.168 189.201 21.084V20.664H195.837V21.084C195.109 21.252 194.409 21.672 193.737 22.344C193.065 23.016 192.463 23.94 191.931 25.116L184.203 42.672H183.825ZM199.841 42.588C198.133 42.588 196.761 42.126 195.725 41.202C194.689 40.278 194.171 39.06 194.171 37.548C194.171 36.904 194.283 36.302 194.507 35.742C194.731 35.154 195.151 34.58 195.767 34.02C196.411 33.46 197.293 32.886 198.413 32.298C199.533 31.682 201.017 31.038 202.865 30.366L206.771 28.938V25.788C206.771 24.192 206.519 22.932 206.015 22.008C205.511 21.056 204.811 20.58 203.915 20.58C202.851 20.608 201.941 21.308 201.185 22.68C200.457 24.052 199.967 25.956 199.715 28.392L195.179 25.788C195.655 24.64 196.383 23.632 197.363 22.764C198.343 21.896 199.463 21.224 200.723 20.748C202.011 20.272 203.355 20.034 204.755 20.034C207.135 20.034 209.067 20.706 210.551 22.05C212.063 23.366 212.819 25.172 212.819 27.468V37.59C212.819 39.214 213.365 40.026 214.457 40.026C215.101 40.026 215.731 39.676 216.347 38.976L216.683 39.27C215.955 40.25 215.073 41.048 214.037 41.664C213.001 42.28 211.993 42.588 211.013 42.588C209.949 42.588 209.025 42.224 208.241 41.496C207.485 40.768 207.009 39.802 206.813 38.598C205.441 39.998 204.237 41.02 203.201 41.664C202.193 42.28 201.073 42.588 199.841 42.588ZM202.991 39.984C203.607 39.984 204.195 39.83 204.755 39.522C205.343 39.214 206.001 38.71 206.729 38.01L206.771 29.484L205.091 30.114C203.663 30.646 202.571 31.192 201.815 31.752C201.059 32.284 200.527 32.886 200.219 33.558C199.939 34.23 199.799 35 199.799 35.868C199.799 37.072 200.093 38.066 200.681 38.85C201.297 39.606 202.067 39.984 202.991 39.984ZM215.844 42V41.58H215.886C216.894 41.58 217.706 41.272 218.322 40.656C218.938 40.04 219.246 39.228 219.246 38.22V24.444C219.246 23.38 219.022 22.554 218.574 21.966C218.154 21.378 217.244 21.084 215.844 21.084V20.664H220.002C221.43 20.664 222.522 20.51 223.278 20.202C223.978 19.894 224.468 19.516 224.748 19.068H225.168L225.21 24.948C225.938 23.492 227.044 22.316 228.528 21.42C230.012 20.524 231.58 20.076 233.232 20.076C235.108 20.076 236.606 20.692 237.726 21.924C238.874 23.156 239.448 24.78 239.448 26.796V38.22C239.448 39.228 239.756 40.04 240.372 40.656C240.988 41.272 241.8 41.58 242.808 41.58H242.85V42H230.04V41.58H230.082C231.09 41.58 231.902 41.272 232.518 40.656C233.134 40.04 233.442 39.228 233.442 38.22V26.376C233.442 24.976 233.162 23.856 232.602 23.016C232.07 22.176 231.356 21.756 230.46 21.756C229.592 21.756 228.682 22.134 227.73 22.89C226.806 23.618 225.994 24.612 225.294 25.872V38.22C225.294 39.228 225.602 40.04 226.218 40.656C226.834 41.272 227.646 41.58 228.654 41.58H228.696V42H215.844ZM249.52 42.588C248.064 42.588 246.874 42.126 245.95 41.202C245.026 40.278 244.564 39.074 244.564 37.59V21.42H240.994V20.874C242.926 20.734 244.648 20.118 246.16 19.026C247.7 17.934 248.96 16.464 249.94 14.616H250.612V20.664H256.198L255.778 21.42H250.612V36.666C250.612 38.906 251.368 40.026 252.88 40.026C253.384 40.026 253.958 39.872 254.602 39.564C255.274 39.256 255.904 38.85 256.492 38.346V38.766C255.568 39.942 254.476 40.88 253.216 41.58C251.956 42.252 250.724 42.588 249.52 42.588ZM262.964 42.588C261.256 42.588 259.884 42.126 258.848 41.202C257.812 40.278 257.294 39.06 257.294 37.548C257.294 36.904 257.406 36.302 257.63 35.742C257.854 35.154 258.274 34.58 258.89 34.02C259.534 33.46 260.416 32.886 261.536 32.298C262.656 31.682 264.14 31.038 265.988 30.366L269.894 28.938V25.788C269.894 24.192 269.642 22.932 269.138 22.008C268.634 21.056 267.934 20.58 267.038 20.58C265.974 20.608 265.064 21.308 264.308 22.68C263.58 24.052 263.09 25.956 262.838 28.392L258.302 25.788C258.778 24.64 259.506 23.632 260.486 22.764C261.466 21.896 262.586 21.224 263.846 20.748C265.134 20.272 266.478 20.034 267.878 20.034C270.258 20.034 272.19 20.706 273.674 22.05C275.186 23.366 275.942 25.172 275.942 27.468V37.59C275.942 39.214 276.488 40.026 277.58 40.026C278.224 40.026 278.854 39.676 279.47 38.976L279.806 39.27C279.078 40.25 278.196 41.048 277.16 41.664C276.124 42.28 275.116 42.588 274.136 42.588C273.072 42.588 272.148 42.224 271.364 41.496C270.608 40.768 270.132 39.802 269.936 38.598C268.564 39.998 267.36 41.02 266.324 41.664C265.316 42.28 264.196 42.588 262.964 42.588ZM266.114 39.984C266.73 39.984 267.318 39.83 267.878 39.522C268.466 39.214 269.124 38.71 269.852 38.01L269.894 29.484L268.214 30.114C266.786 30.646 265.694 31.192 264.938 31.752C264.182 32.284 263.65 32.886 263.342 33.558C263.062 34.23 262.922 35 262.922 35.868C262.922 37.072 263.216 38.066 263.804 38.85C264.42 39.606 265.19 39.984 266.114 39.984Z" fill="#006799"/>
<path d="M105.161 70.9419C104.787 70.9419 104.4 70.9484 104 70.9613C103.6 70.9613 103.226 70.9677 102.877 70.9806C102.529 70.9806 102.232 70.9871 101.987 71V70.2452L102.645 70.1871C103.045 70.1355 103.348 70.0645 103.555 69.9742C103.774 69.8839 103.923 69.729 104 69.5097C104.077 69.2903 104.116 68.9806 104.116 68.5806V62.1355H106.671V68.7355C106.671 69.1355 106.703 69.4452 106.768 69.6645C106.832 69.871 106.968 70.0129 107.174 70.0903C107.394 70.1548 107.723 70.1871 108.161 70.1871H108.8C109.381 70.1871 109.89 70.1161 110.329 69.9742C110.768 69.8323 111.148 69.6 111.471 69.2774C111.806 68.9548 112.103 68.529 112.361 68C112.632 67.471 112.884 66.8258 113.116 66.0645H113.89C113.8 66.9161 113.729 67.7484 113.677 68.5613C113.626 69.3742 113.6 70.1871 113.6 71C113.045 70.9742 112.381 70.9613 111.606 70.9613C110.832 70.9484 109.89 70.9419 108.781 70.9419H105.394H105.161ZM105.161 57.3548H105.413H105.568C106.006 57.3548 106.445 57.3548 106.884 57.3548C107.335 57.3419 107.761 57.329 108.161 57.3161C108.574 57.3032 108.935 57.2968 109.245 57.2968V58.0516L108.142 58.129C107.535 58.1935 107.135 58.329 106.942 58.5355C106.761 58.729 106.671 59.1226 106.671 59.7161V62.1355H104.116V59.7161C104.116 59.3032 104.077 58.9935 104 58.7871C103.935 58.5677 103.794 58.4129 103.574 58.3226C103.355 58.2194 103.045 58.1484 102.645 58.1097L101.987 58.0516V57.2968C102.232 57.2968 102.529 57.3032 102.877 57.3161C103.226 57.329 103.6 57.3419 104 57.3548C104.4 57.3548 104.787 57.3548 105.161 57.3548ZM120.52 71.271C119.566 71.271 118.733 71.0645 118.024 70.6516C117.327 70.2258 116.785 69.6194 116.398 68.8323C116.024 68.0452 115.837 67.1097 115.837 66.0258C115.837 64.9161 116.03 63.9677 116.417 63.1806C116.817 62.3935 117.378 61.7935 118.101 61.3806C118.837 60.9548 119.695 60.7419 120.675 60.7419C121.553 60.7419 122.308 60.9097 122.94 61.2452C123.572 61.5677 124.049 62.0774 124.372 62.7742C124.708 63.471 124.862 64.3742 124.837 65.4839H117.482L117.443 64.7484H122.611C122.624 64.1161 122.559 63.5548 122.417 63.0645C122.288 62.5742 122.075 62.1871 121.778 61.9032C121.482 61.6194 121.101 61.4774 120.637 61.4774C120.043 61.4774 119.527 61.7548 119.088 62.3097C118.649 62.8516 118.391 63.7161 118.314 64.9032L118.353 64.9613C118.34 65.0903 118.327 65.2258 118.314 65.3677C118.314 65.5097 118.314 65.671 118.314 65.8516C118.314 67.1677 118.566 68.1935 119.069 68.929C119.572 69.6516 120.301 70.0129 121.256 70.0129C121.901 70.0129 122.462 69.8581 122.94 69.5484C123.43 69.2258 123.843 68.729 124.178 68.0581L124.856 68.4645C124.495 69.3548 123.94 70.0452 123.191 70.5355C122.443 71.0258 121.553 71.271 120.52 71.271ZM133.145 66.0258V63.4323C133.145 62.7871 132.977 62.3097 132.641 62C132.306 61.6774 131.803 61.5161 131.132 61.5161C130.667 61.5161 130.28 61.5871 129.97 61.729C129.674 61.8581 129.525 62.0258 129.525 62.2323C129.525 62.3613 129.57 62.5032 129.661 62.6581C129.764 62.8 129.861 62.9613 129.951 63.1419C130.041 63.3097 130.087 63.4903 130.087 63.6839C130.087 63.9548 129.977 64.1742 129.758 64.3419C129.538 64.5097 129.248 64.5935 128.887 64.5935C128.474 64.5935 128.145 64.4774 127.899 64.2452C127.654 64 127.532 63.671 127.532 63.2581C127.532 62.7548 127.706 62.3161 128.054 61.9419C128.416 61.5677 128.912 61.2774 129.545 61.071C130.19 60.8516 130.925 60.7419 131.751 60.7419C133.08 60.7419 134.035 61.0387 134.616 61.6323C135.209 62.2258 135.506 63.1871 135.506 64.5161V66.0258H133.145ZM130.009 71.271C129.132 71.271 128.435 71.0452 127.919 70.5935C127.403 70.1419 127.145 69.5355 127.145 68.7742C127.145 68.1677 127.287 67.6839 127.57 67.3226C127.867 66.9484 128.241 66.6516 128.693 66.4323C129.145 66.2 129.628 66.0129 130.145 65.871C130.661 65.7161 131.145 65.5742 131.596 65.4452C132.061 65.3032 132.435 65.1419 132.719 64.9613C133.016 64.7677 133.164 64.5097 133.164 64.1871L133.241 65.1548C133.151 65.3871 132.97 65.5871 132.699 65.7548C132.428 65.9097 132.119 66.0581 131.77 66.2C131.435 66.3419 131.099 66.5032 130.764 66.6839C130.441 66.8516 130.17 67.0774 129.951 67.3613C129.745 67.6323 129.641 67.9935 129.641 68.4452C129.641 68.9097 129.77 69.2774 130.028 69.5484C130.287 69.8065 130.648 69.9355 131.112 69.9355C131.538 69.9355 131.938 69.8258 132.312 69.6065C132.687 69.3742 133.016 69.0323 133.299 68.5806L133.319 69.3935C132.906 70.0258 132.422 70.4968 131.867 70.8065C131.325 71.1161 130.706 71.271 130.009 71.271ZM135.506 69.3742C135.506 69.6839 135.551 69.9097 135.641 70.0516C135.732 70.1806 135.887 70.2452 136.106 70.2452C136.299 70.2452 136.493 70.2 136.687 70.1097C136.88 70.0194 137.074 69.9032 137.267 69.7613L137.596 70.3806C137.261 70.6645 136.893 70.8839 136.493 71.0387C136.093 71.1935 135.641 71.271 135.138 71.271C134.454 71.271 133.951 71.1226 133.628 70.8258C133.306 70.529 133.145 70.071 133.145 69.4516V66.0258H135.506V69.3742ZM141.852 70.9419C141.259 70.9419 140.717 70.9484 140.227 70.9613C139.749 70.9742 139.246 70.9871 138.717 71V70.2452L139.297 70.2065C139.827 70.1548 140.188 70.0258 140.381 69.8194C140.575 69.6 140.672 69.2258 140.672 68.6968V66.0258H143.033V68.6968C143.033 69.0452 143.078 69.3226 143.168 69.529C143.272 69.7355 143.433 69.8903 143.652 69.9935C143.872 70.0839 144.181 70.1484 144.581 70.1871L145.317 70.2452V71C144.93 70.9871 144.556 70.9806 144.194 70.9806C143.833 70.9677 143.459 70.9613 143.072 70.9613C142.697 70.9484 142.291 70.9419 141.852 70.9419ZM140.672 66.0258V63.3742C140.672 62.8194 140.575 62.4387 140.381 62.2323C140.188 62.0129 139.82 61.8774 139.278 61.8258L138.717 61.7677V61.0129C138.988 61.0258 139.239 61.0387 139.472 61.0516C139.704 61.0516 139.956 61.0516 140.227 61.0516C140.781 61.0516 141.291 61.0323 141.756 60.9935C142.22 60.9419 142.646 60.8774 143.033 60.8V61.0129V66.0258H140.672ZM146.439 64.4C146.143 64.4 145.897 64.3161 145.704 64.1484C145.523 63.9806 145.433 63.7613 145.433 63.4903C145.433 63.3097 145.465 63.1484 145.53 63.0065C145.594 62.8645 145.659 62.729 145.723 62.6C145.788 62.4581 145.82 62.329 145.82 62.2129C145.82 61.929 145.633 61.7871 145.259 61.7871C144.975 61.7871 144.678 61.8581 144.368 62C144.072 62.1419 143.794 62.3355 143.536 62.5806C143.291 62.8258 143.104 63.1032 142.975 63.4129L142.917 62.6C143.252 62.0065 143.685 61.5484 144.214 61.2258C144.756 60.8903 145.323 60.7226 145.917 60.7226C146.523 60.7226 147.001 60.8968 147.349 61.2452C147.697 61.5935 147.872 62.071 147.872 62.6774C147.872 63.1935 147.743 63.6129 147.485 63.9355C147.227 64.2452 146.878 64.4 146.439 64.4ZM152.188 70.9419C151.595 70.9419 151.053 70.9484 150.562 70.9613C150.085 70.9742 149.582 70.9871 149.053 71V70.2452L149.633 70.2065C150.162 70.1548 150.524 70.0258 150.717 69.8194C150.911 69.6 151.008 69.2258 151.008 68.6968V66.0258H153.369V68.6968C153.369 69.2258 153.453 69.6065 153.621 69.8387C153.801 70.0581 154.117 70.1871 154.569 70.2258L154.821 70.2452V71C154.369 70.9871 153.937 70.9742 153.524 70.9613C153.124 70.9484 152.679 70.9419 152.188 70.9419ZM151.008 66.0258V63.3742C151.008 62.8194 150.911 62.4387 150.717 62.2323C150.524 62.0129 150.156 61.8774 149.614 61.8258L149.053 61.7677V61.0129C149.324 61.0258 149.575 61.0387 149.808 61.0516C150.04 61.0516 150.291 61.0516 150.562 61.0516C151.117 61.0516 151.627 61.0323 152.091 60.9935C152.556 60.9419 152.982 60.8774 153.369 60.8V61.0129V66.0258H151.008ZM157.53 66.0258V64.1484C157.53 63.4 157.382 62.8387 157.085 62.4645C156.788 62.0903 156.337 61.9032 155.73 61.9032C155.111 61.9032 154.556 62.1032 154.066 62.5032C153.588 62.8903 153.169 63.5032 152.808 64.3419L152.653 63.9742C153.079 62.8516 153.621 62.0323 154.279 61.5161C154.95 61 155.743 60.7419 156.659 60.7419C157.704 60.7419 158.504 61.0516 159.059 61.671C159.614 62.2774 159.891 63.1613 159.891 64.3226V66.0258H157.53ZM158.711 70.9419C158.233 70.9419 157.795 70.9484 157.395 70.9613C156.995 70.9742 156.575 70.9871 156.137 71V70.2452L156.35 70.2258C156.801 70.1871 157.111 70.0581 157.279 69.8387C157.446 69.6065 157.53 69.2258 157.53 68.6968V66.0258H159.891V68.6968C159.891 69.2258 159.988 69.6 160.182 69.8194C160.388 70.0258 160.75 70.1548 161.266 70.2065L161.846 70.2452V71C161.317 70.9871 160.808 70.9742 160.317 70.9613C159.84 70.9484 159.304 70.9419 158.711 70.9419ZM165.07 66.0258V63.3742C165.07 62.8194 164.973 62.4387 164.78 62.2323C164.586 62.0129 164.218 61.8774 163.677 61.8258L163.115 61.7677V61.0129C163.386 61.0258 163.638 61.0387 163.87 61.0516C164.102 61.0516 164.354 61.0516 164.625 61.0516C165.18 61.0516 165.689 61.0323 166.154 60.9935C166.618 60.9419 167.044 60.8774 167.431 60.8V61.0129V66.0258H165.07ZM166.251 70.9419C165.657 70.9419 165.115 70.9484 164.625 70.9613C164.148 70.9742 163.644 70.9871 163.115 71V70.2452L163.696 70.2065C164.225 70.1548 164.586 70.0258 164.78 69.8194C164.973 69.6 165.07 69.2258 165.07 68.6968V66.0258H167.431V68.6968C167.431 69.2258 167.528 69.6 167.722 69.8194C167.915 70.0258 168.277 70.1548 168.806 70.2065L169.386 70.2452V71C168.857 70.9871 168.348 70.9742 167.857 70.9613C167.38 70.9484 166.844 70.9419 166.251 70.9419ZM166.251 58.9226C165.825 58.9226 165.457 58.7871 165.148 58.5161C164.838 58.2452 164.683 57.8968 164.683 57.471C164.683 57.0323 164.838 56.6839 165.148 56.4258C165.457 56.1548 165.825 56.0194 166.251 56.0194C166.677 56.0194 167.044 56.1548 167.354 56.4258C167.664 56.6839 167.818 57.0323 167.818 57.471C167.818 57.8968 167.664 58.2452 167.354 58.5161C167.044 58.7871 166.677 58.9226 166.251 58.9226ZM173.798 70.9419C173.204 70.9419 172.662 70.9484 172.172 70.9613C171.694 70.9742 171.191 70.9871 170.662 71V70.2452L171.243 70.2065C171.772 70.1548 172.133 70.0258 172.327 69.8194C172.52 69.6 172.617 69.2258 172.617 68.6968V66.0258H174.978V68.6968C174.978 69.2258 175.062 69.6065 175.23 69.8387C175.411 70.0581 175.727 70.1871 176.178 70.2258L176.43 70.2452V71C175.978 70.9871 175.546 70.9742 175.133 70.9613C174.733 70.9484 174.288 70.9419 173.798 70.9419ZM172.617 66.0258V63.3742C172.617 62.8194 172.52 62.4387 172.327 62.2323C172.133 62.0129 171.765 61.8774 171.223 61.8258L170.662 61.7677V61.0129C170.933 61.0258 171.185 61.0387 171.417 61.0516C171.649 61.0516 171.901 61.0516 172.172 61.0516C172.727 61.0516 173.236 61.0323 173.701 60.9935C174.165 60.9419 174.591 60.8774 174.978 60.8V61.0129V66.0258H172.617ZM179.14 66.0258V64.1484C179.14 63.4 178.991 62.8387 178.694 62.4645C178.398 62.0903 177.946 61.9032 177.34 61.9032C176.72 61.9032 176.165 62.1032 175.675 62.5032C175.198 62.8903 174.778 63.5032 174.417 64.3419L174.262 63.9742C174.688 62.8516 175.23 62.0323 175.888 61.5161C176.559 61 177.352 60.7419 178.269 60.7419C179.314 60.7419 180.114 61.0516 180.669 61.671C181.223 62.2774 181.501 63.1613 181.501 64.3226V66.0258H179.14ZM180.32 70.9419C179.843 70.9419 179.404 70.9484 179.004 70.9613C178.604 70.9742 178.185 70.9871 177.746 71V70.2452L177.959 70.2258C178.411 70.1871 178.72 70.0581 178.888 69.8387C179.056 69.6065 179.14 69.2258 179.14 68.6968V66.0258H181.501V68.6968C181.501 69.2258 181.598 69.6 181.791 69.8194C181.998 70.0258 182.359 70.1548 182.875 70.2065L183.456 70.2452V71C182.927 70.9871 182.417 70.9742 181.927 70.9613C181.449 70.9484 180.914 70.9419 180.32 70.9419ZM188.765 75.6258C187.436 75.6258 186.39 75.4 185.629 74.9484C184.881 74.4968 184.507 73.9032 184.507 73.1677C184.507 72.5742 184.732 72.0452 185.184 71.5806C185.649 71.129 186.32 70.7484 187.197 70.4387L187.72 70.7484C187.345 70.9419 187.049 71.2194 186.829 71.5806C186.623 71.9548 186.52 72.3613 186.52 72.8C186.52 73.471 186.752 73.9871 187.216 74.3484C187.681 74.7097 188.332 74.8903 189.171 74.8903C189.829 74.8903 190.41 74.7806 190.913 74.5613C191.429 74.3419 191.829 74.0387 192.113 73.6516C192.41 73.2774 192.558 72.8452 192.558 72.3548C192.558 71.9032 192.41 71.5613 192.113 71.329C191.816 71.0968 191.378 70.9806 190.797 70.9806H188.765C187.952 70.9806 187.307 70.8258 186.829 70.5161C186.352 70.1935 186.113 69.7677 186.113 69.2387C186.113 68.8129 186.261 68.4194 186.558 68.0581C186.855 67.6968 187.3 67.3548 187.894 67.0323L188.552 67.1097C188.307 67.2774 188.126 67.4452 188.01 67.6129C187.894 67.7806 187.836 67.9613 187.836 68.1548C187.836 68.4129 187.945 68.6065 188.165 68.7355C188.384 68.8645 188.694 68.929 189.094 68.929H191.242C192.326 68.929 193.152 69.1548 193.72 69.6065C194.3 70.0452 194.59 70.6903 194.59 71.5419C194.59 72.3419 194.339 73.0452 193.836 73.6516C193.345 74.271 192.661 74.7548 191.784 75.1032C190.92 75.4516 189.913 75.6258 188.765 75.6258ZM189.094 67.2258C187.868 67.2258 186.907 66.9419 186.21 66.3742C185.513 65.7935 185.165 64.9935 185.165 63.9742C185.165 62.9677 185.513 62.1806 186.21 61.6129C186.907 61.0323 187.861 60.7419 189.074 60.7419C190.3 60.7419 191.255 61.0258 191.939 61.5935C192.623 62.1613 192.965 62.9548 192.965 63.9742C192.965 64.9935 192.623 65.7935 191.939 66.3742C191.255 66.9419 190.307 67.2258 189.094 67.2258ZM189.094 66.4903C189.649 66.4903 190.061 66.2839 190.332 65.871C190.616 65.4581 190.758 64.8258 190.758 63.9742C190.758 63.1226 190.616 62.4903 190.332 62.0774C190.061 61.6645 189.649 61.4581 189.094 61.4581C188.552 61.4581 188.139 61.6645 187.855 62.0774C187.584 62.4903 187.449 63.1226 187.449 63.9742C187.449 64.8258 187.584 65.4581 187.855 65.871C188.126 66.2839 188.539 66.4903 189.094 66.4903ZM194.707 63.3548C194.449 63.3548 194.255 63.2774 194.126 63.1226C194.01 62.9548 193.92 62.7613 193.855 62.5419C193.79 62.3226 193.72 62.129 193.642 61.9613C193.578 61.7935 193.474 61.7097 193.332 61.7097C193.242 61.7097 193.126 61.7548 192.984 61.8452C192.842 61.9226 192.694 62.0387 192.539 62.1935C192.384 62.3484 192.249 62.5355 192.132 62.7548L191.784 62.1935C192.055 61.7677 192.416 61.4194 192.868 61.1484C193.332 60.8774 193.797 60.7419 194.261 60.7419C194.674 60.7419 195.003 60.8645 195.249 61.1097C195.494 61.3419 195.616 61.6774 195.616 62.1161C195.616 62.4903 195.532 62.7935 195.365 63.0258C195.21 63.2452 194.99 63.3548 194.707 63.3548ZM209.946 71.1355L205.204 58.6129H204.894V68.5806C204.894 69.1742 204.971 69.5806 205.126 69.8C205.294 70.0065 205.662 70.1419 206.23 70.2065L206.791 70.2452V71C206.533 70.9871 206.191 70.9742 205.765 70.9613C205.339 70.9484 204.926 70.9419 204.526 70.9419C204.23 70.9419 203.92 70.9484 203.597 70.9613C203.288 70.9613 202.991 70.9677 202.707 70.9806C202.423 70.9806 202.178 70.9871 201.971 71V70.2452L202.668 70.1871C203.081 70.1484 203.391 70.0839 203.597 69.9935C203.804 69.8903 203.939 69.729 204.004 69.5097C204.081 69.2903 204.12 68.9806 204.12 68.5806V59.6968C204.12 59.2968 204.081 58.9935 204.004 58.7871C203.926 58.5677 203.778 58.4129 203.559 58.3226C203.352 58.2194 203.042 58.1484 202.63 58.1097L201.991 58.0323V57.2968C202.236 57.2968 202.533 57.3032 202.881 57.3161C203.23 57.329 203.604 57.3419 204.004 57.3548C204.404 57.3548 204.791 57.3548 205.165 57.3548H205.475C205.875 57.3548 206.236 57.3484 206.559 57.3355C206.881 57.3226 207.159 57.3097 207.391 57.2968L211.436 68.1161L210.817 68.3484L214.513 57.2968C214.913 57.3226 215.268 57.3419 215.578 57.3548C215.901 57.3548 216.23 57.3548 216.565 57.3548H216.778C217.152 57.3548 217.533 57.3548 217.92 57.3548C218.32 57.3419 218.694 57.329 219.042 57.3161C219.404 57.3032 219.707 57.2968 219.952 57.2968V58.0516L219.294 58.1097C218.894 58.1484 218.584 58.2194 218.365 58.3226C218.146 58.4129 217.997 58.5677 217.92 58.7871C217.842 58.9935 217.804 59.3032 217.804 59.7161V68.5806C217.804 68.9806 217.842 69.2903 217.92 69.5097C217.997 69.729 218.146 69.8839 218.365 69.9742C218.584 70.0645 218.894 70.1355 219.294 70.1871L219.952 70.2452V71C219.707 70.9871 219.404 70.9806 219.042 70.9806C218.694 70.9677 218.32 70.9613 217.92 70.9613C217.533 70.9484 217.152 70.9419 216.778 70.9419H216.546H216.371C216.036 70.9419 215.688 70.9484 215.326 70.9613C214.978 70.9613 214.649 70.9677 214.339 70.9806C214.03 70.9806 213.765 70.9871 213.546 71V70.2452L214.01 70.2065C214.359 70.1419 214.623 70.0645 214.804 69.9742C214.984 69.8839 215.107 69.729 215.171 69.5097C215.236 69.2903 215.268 68.9806 215.268 68.5806V58.3226H214.959L210.642 71.1355H209.946ZM227.809 66.0258V63.4323C227.809 62.7871 227.641 62.3097 227.305 62C226.97 61.6774 226.467 61.5161 225.796 61.5161C225.331 61.5161 224.944 61.5871 224.634 61.729C224.338 61.8581 224.189 62.0258 224.189 62.2323C224.189 62.3613 224.234 62.5032 224.325 62.6581C224.428 62.8 224.525 62.9613 224.615 63.1419C224.705 63.3097 224.751 63.4903 224.751 63.6839C224.751 63.9548 224.641 64.1742 224.422 64.3419C224.202 64.5097 223.912 64.5935 223.551 64.5935C223.138 64.5935 222.809 64.4774 222.564 64.2452C222.318 64 222.196 63.671 222.196 63.2581C222.196 62.7548 222.37 62.3161 222.718 61.9419C223.08 61.5677 223.576 61.2774 224.209 61.071C224.854 60.8516 225.589 60.7419 226.415 60.7419C227.744 60.7419 228.699 61.0387 229.28 61.6323C229.873 62.2258 230.17 63.1871 230.17 64.5161V66.0258H227.809ZM224.673 71.271C223.796 71.271 223.099 71.0452 222.583 70.5935C222.067 70.1419 221.809 69.5355 221.809 68.7742C221.809 68.1677 221.951 67.6839 222.234 67.3226C222.531 66.9484 222.905 66.6516 223.357 66.4323C223.809 66.2 224.293 66.0129 224.809 65.871C225.325 65.7161 225.809 65.5742 226.26 65.4452C226.725 65.3032 227.099 65.1419 227.383 64.9613C227.68 64.7677 227.828 64.5097 227.828 64.1871L227.905 65.1548C227.815 65.3871 227.634 65.5871 227.364 65.7548C227.093 65.9097 226.783 66.0581 226.434 66.2C226.099 66.3419 225.764 66.5032 225.428 66.6839C225.105 66.8516 224.834 67.0774 224.615 67.3613C224.409 67.6323 224.305 67.9935 224.305 68.4452C224.305 68.9097 224.434 69.2774 224.693 69.5484C224.951 69.8065 225.312 69.9355 225.776 69.9355C226.202 69.9355 226.602 69.8258 226.976 69.6065C227.351 69.3742 227.68 69.0323 227.964 68.5806L227.983 69.3935C227.57 70.0258 227.086 70.4968 226.531 70.8065C225.989 71.1161 225.37 71.271 224.673 71.271ZM230.17 69.3742C230.17 69.6839 230.215 69.9097 230.305 70.0516C230.396 70.1806 230.551 70.2452 230.77 70.2452C230.964 70.2452 231.157 70.2 231.351 70.1097C231.544 70.0194 231.738 69.9032 231.931 69.7613L232.26 70.3806C231.925 70.6645 231.557 70.8839 231.157 71.0387C230.757 71.1935 230.305 71.271 229.802 71.271C229.118 71.271 228.615 71.1226 228.293 70.8258C227.97 70.529 227.809 70.071 227.809 69.4516V66.0258H230.17V69.3742ZM236.516 70.9419C235.923 70.9419 235.381 70.9484 234.891 70.9613C234.413 70.9742 233.91 70.9871 233.381 71V70.2452L233.962 70.2065C234.491 70.1548 234.852 70.0258 235.045 69.8194C235.239 69.6 235.336 69.2258 235.336 68.6968V66.0258H237.697V68.6968C237.697 69.2258 237.781 69.6065 237.949 69.8387C238.129 70.0581 238.445 70.1871 238.897 70.2258L239.149 70.2452V71C238.697 70.9871 238.265 70.9742 237.852 70.9613C237.452 70.9484 237.007 70.9419 236.516 70.9419ZM235.336 66.0258V63.3742C235.336 62.8194 235.239 62.4387 235.045 62.2323C234.852 62.0129 234.484 61.8774 233.942 61.8258L233.381 61.7677V61.0129C233.652 61.0258 233.903 61.0387 234.136 61.0516C234.368 61.0516 234.62 61.0516 234.891 61.0516C235.445 61.0516 235.955 61.0323 236.42 60.9935C236.884 60.9419 237.31 60.8774 237.697 60.8V61.0129V66.0258H235.336ZM241.858 66.0258V64.1484C241.858 63.4 241.71 62.8387 241.413 62.4645C241.116 62.0903 240.665 61.9032 240.058 61.9032C239.439 61.9032 238.884 62.1032 238.394 62.5032C237.916 62.8903 237.497 63.5032 237.136 64.3419L236.981 63.9742C237.407 62.8516 237.949 62.0323 238.607 61.5161C239.278 61 240.071 60.7419 240.987 60.7419C242.033 60.7419 242.833 61.0516 243.387 61.671C243.942 62.2774 244.22 63.1613 244.22 64.3226V66.0258H241.858ZM243.039 70.9419C242.562 70.9419 242.123 70.9484 241.723 70.9613C241.323 70.9742 240.903 70.9871 240.465 71V70.2452L240.678 70.2258C241.129 70.1871 241.439 70.0581 241.607 69.8387C241.774 69.6065 241.858 69.2258 241.858 68.6968V66.0258H244.22V68.6968C244.22 69.2258 244.316 69.6 244.51 69.8194C244.716 70.0258 245.078 70.1548 245.594 70.2065L246.174 70.2452V71C245.645 70.9871 245.136 70.9742 244.645 70.9613C244.168 70.9484 243.633 70.9419 243.039 70.9419ZM253.871 66.0258V63.4323C253.871 62.7871 253.703 62.3097 253.368 62C253.032 61.6774 252.529 61.5161 251.858 61.5161C251.394 61.5161 251.007 61.5871 250.697 61.729C250.4 61.8581 250.252 62.0258 250.252 62.2323C250.252 62.3613 250.297 62.5032 250.387 62.6581C250.491 62.8 250.587 62.9613 250.678 63.1419C250.768 63.3097 250.813 63.4903 250.813 63.6839C250.813 63.9548 250.703 64.1742 250.484 64.3419C250.265 64.5097 249.974 64.5935 249.613 64.5935C249.2 64.5935 248.871 64.4774 248.626 64.2452C248.381 64 248.258 63.671 248.258 63.2581C248.258 62.7548 248.432 62.3161 248.781 61.9419C249.142 61.5677 249.639 61.2774 250.271 61.071C250.916 60.8516 251.652 60.7419 252.478 60.7419C253.807 60.7419 254.761 61.0387 255.342 61.6323C255.936 62.2258 256.232 63.1871 256.232 64.5161V66.0258H253.871ZM250.736 71.271C249.858 71.271 249.161 71.0452 248.645 70.5935C248.129 70.1419 247.871 69.5355 247.871 68.7742C247.871 68.1677 248.013 67.6839 248.297 67.3226C248.594 66.9484 248.968 66.6516 249.42 66.4323C249.871 66.2 250.355 66.0129 250.871 65.871C251.387 65.7161 251.871 65.5742 252.323 65.4452C252.787 65.3032 253.161 65.1419 253.445 64.9613C253.742 64.7677 253.891 64.5097 253.891 64.1871L253.968 65.1548C253.878 65.3871 253.697 65.5871 253.426 65.7548C253.155 65.9097 252.845 66.0581 252.497 66.2C252.161 66.3419 251.826 66.5032 251.491 66.6839C251.168 66.8516 250.897 67.0774 250.678 67.3613C250.471 67.6323 250.368 67.9935 250.368 68.4452C250.368 68.9097 250.497 69.2774 250.755 69.5484C251.013 69.8065 251.374 69.9355 251.839 69.9355C252.265 69.9355 252.665 69.8258 253.039 69.6065C253.413 69.3742 253.742 69.0323 254.026 68.5806L254.045 69.3935C253.632 70.0258 253.149 70.4968 252.594 70.8065C252.052 71.1161 251.432 71.271 250.736 71.271ZM256.232 69.3742C256.232 69.6839 256.278 69.9097 256.368 70.0516C256.458 70.1806 256.613 70.2452 256.832 70.2452C257.026 70.2452 257.22 70.2 257.413 70.1097C257.607 70.0194 257.8 69.9032 257.994 69.7613L258.323 70.3806C257.987 70.6645 257.62 70.8839 257.22 71.0387C256.82 71.1935 256.368 71.271 255.865 71.271C255.181 71.271 254.678 71.1226 254.355 70.8258C254.032 70.529 253.871 70.071 253.871 69.4516V66.0258H256.232V69.3742ZM263.507 75.6258C262.178 75.6258 261.133 75.4 260.371 74.9484C259.623 74.4968 259.249 73.9032 259.249 73.1677C259.249 72.5742 259.475 72.0452 259.926 71.5806C260.391 71.129 261.062 70.7484 261.939 70.4387L262.462 70.7484C262.087 70.9419 261.791 71.2194 261.571 71.5806C261.365 71.9548 261.262 72.3613 261.262 72.8C261.262 73.471 261.494 73.9871 261.958 74.3484C262.423 74.7097 263.075 74.8903 263.913 74.8903C264.571 74.8903 265.152 74.7806 265.655 74.5613C266.171 74.3419 266.571 74.0387 266.855 73.6516C267.152 73.2774 267.3 72.8452 267.3 72.3548C267.3 71.9032 267.152 71.5613 266.855 71.329C266.558 71.0968 266.12 70.9806 265.539 70.9806H263.507C262.694 70.9806 262.049 70.8258 261.571 70.5161C261.094 70.1935 260.855 69.7677 260.855 69.2387C260.855 68.8129 261.004 68.4194 261.3 68.0581C261.597 67.6968 262.042 67.3548 262.636 67.0323L263.294 67.1097C263.049 67.2774 262.868 67.4452 262.752 67.6129C262.636 67.7806 262.578 67.9613 262.578 68.1548C262.578 68.4129 262.687 68.6065 262.907 68.7355C263.126 68.8645 263.436 68.929 263.836 68.929H265.984C267.068 68.929 267.894 69.1548 268.462 69.6065C269.042 70.0452 269.333 70.6903 269.333 71.5419C269.333 72.3419 269.081 73.0452 268.578 73.6516C268.087 74.271 267.404 74.7548 266.526 75.1032C265.662 75.4516 264.655 75.6258 263.507 75.6258ZM263.836 67.2258C262.61 67.2258 261.649 66.9419 260.952 66.3742C260.255 65.7935 259.907 64.9935 259.907 63.9742C259.907 62.9677 260.255 62.1806 260.952 61.6129C261.649 61.0323 262.604 60.7419 263.817 60.7419C265.042 60.7419 265.997 61.0258 266.681 61.5935C267.365 62.1613 267.707 62.9548 267.707 63.9742C267.707 64.9935 267.365 65.7935 266.681 66.3742C265.997 66.9419 265.049 67.2258 263.836 67.2258ZM263.836 66.4903C264.391 66.4903 264.804 66.2839 265.075 65.871C265.358 65.4581 265.5 64.8258 265.5 63.9742C265.5 63.1226 265.358 62.4903 265.075 62.0774C264.804 61.6645 264.391 61.4581 263.836 61.4581C263.294 61.4581 262.881 61.6645 262.597 62.0774C262.326 62.4903 262.191 63.1226 262.191 63.9742C262.191 64.8258 262.326 65.4581 262.597 65.871C262.868 66.2839 263.281 66.4903 263.836 66.4903ZM269.449 63.3548C269.191 63.3548 268.997 63.2774 268.868 63.1226C268.752 62.9548 268.662 62.7613 268.597 62.5419C268.533 62.3226 268.462 62.129 268.384 61.9613C268.32 61.7935 268.217 61.7097 268.075 61.7097C267.984 61.7097 267.868 61.7548 267.726 61.8452C267.584 61.9226 267.436 62.0387 267.281 62.1935C267.126 62.3484 266.991 62.5355 266.875 62.7548L266.526 62.1935C266.797 61.7677 267.158 61.4194 267.61 61.1484C268.075 60.8774 268.539 60.7419 269.004 60.7419C269.417 60.7419 269.746 60.8645 269.991 61.1097C270.236 61.3419 270.358 61.6774 270.358 62.1161C270.358 62.4903 270.275 62.7935 270.107 63.0258C269.952 63.2452 269.733 63.3548 269.449 63.3548ZM276.731 71.271C275.777 71.271 274.944 71.0645 274.235 70.6516C273.538 70.2258 272.996 69.6194 272.609 68.8323C272.235 68.0452 272.047 67.1097 272.047 66.0258C272.047 64.9161 272.241 63.9677 272.628 63.1806C273.028 62.3935 273.589 61.7935 274.312 61.3806C275.047 60.9548 275.906 60.7419 276.886 60.7419C277.764 60.7419 278.518 60.9097 279.151 61.2452C279.783 61.5677 280.26 62.0774 280.583 62.7742C280.918 63.471 281.073 64.3742 281.047 65.4839H273.693L273.654 64.7484H278.822C278.835 64.1161 278.77 63.5548 278.628 63.0645C278.499 62.5742 278.286 62.1871 277.989 61.9032C277.693 61.6194 277.312 61.4774 276.847 61.4774C276.254 61.4774 275.738 61.7548 275.299 62.3097C274.86 62.8516 274.602 63.7161 274.525 64.9032L274.564 64.9613C274.551 65.0903 274.538 65.2258 274.525 65.3677C274.525 65.5097 274.525 65.671 274.525 65.8516C274.525 67.1677 274.777 68.1935 275.28 68.929C275.783 69.6516 276.512 70.0129 277.467 70.0129C278.112 70.0129 278.673 69.8581 279.151 69.5484C279.641 69.2258 280.054 68.729 280.389 68.0581L281.067 68.4645C280.706 69.3548 280.151 70.0452 279.402 70.5355C278.654 71.0258 277.764 71.271 276.731 71.271ZM285.852 70.9419C285.259 70.9419 284.717 70.9484 284.227 70.9613C283.749 70.9742 283.246 70.9871 282.717 71V70.2452L283.297 70.2065C283.827 70.1548 284.188 70.0258 284.381 69.8194C284.575 69.6 284.672 69.2258 284.672 68.6968V66.0258H287.033V68.6968C287.033 69.2258 287.117 69.6065 287.285 69.8387C287.452 70.0581 287.762 70.1871 288.214 70.2258L288.427 70.2452V71C287.988 70.9871 287.568 70.9742 287.168 70.9613C286.768 70.9484 286.33 70.9419 285.852 70.9419ZM284.672 66.0258V63.3742C284.672 62.8194 284.575 62.4387 284.381 62.2323C284.188 62.0129 283.82 61.8774 283.278 61.8258L282.717 61.7677V61.0129C282.988 61.0258 283.239 61.0387 283.472 61.0516C283.704 61.0516 283.956 61.0516 284.227 61.0516C284.781 61.0516 285.291 61.0323 285.756 60.9935C286.22 60.9419 286.646 60.8774 287.033 60.8V61.0129V66.0258H284.672ZM291.078 66.0258V64.071C291.078 63.3484 290.93 62.8065 290.633 62.4452C290.349 62.0839 289.91 61.9032 289.317 61.9032C288.71 61.9032 288.168 62.1032 287.691 62.5032C287.227 62.9032 286.814 63.5226 286.452 64.3613L286.317 63.9742C286.73 62.8645 287.265 62.0516 287.923 61.5355C288.581 61.0065 289.362 60.7419 290.265 60.7419C291.297 60.7419 292.078 61.0452 292.607 61.6516C293.149 62.2452 293.42 63.1161 293.42 64.2645V66.0258H291.078ZM292.239 70.9419C291.762 70.9419 291.323 70.9484 290.923 70.9613C290.536 70.9742 290.117 70.9871 289.665 71V70.2452L289.897 70.2258C290.336 70.1871 290.639 70.0581 290.807 69.8387C290.988 69.6065 291.078 69.2258 291.078 68.6968V66.0258H293.42V68.6968C293.42 69.2258 293.504 69.6065 293.672 69.8387C293.852 70.0581 294.162 70.1871 294.601 70.2258L294.833 70.2452V71C294.381 70.9871 293.956 70.9742 293.556 70.9613C293.168 70.9484 292.73 70.9419 292.239 70.9419ZM297.465 66.0258V64.0903C297.465 63.3548 297.317 62.8065 297.02 62.4452C296.723 62.0839 296.265 61.9032 295.646 61.9032C295.052 61.9032 294.51 62.0903 294.02 62.4645C293.543 62.8387 293.123 63.4194 292.762 64.2065L292.549 63.7419C292.949 62.7226 293.491 61.9677 294.175 61.4774C294.872 60.9871 295.691 60.7419 296.633 60.7419C297.678 60.7419 298.472 61.0452 299.014 61.6516C299.556 62.2452 299.827 63.1161 299.827 64.2645V66.0258H297.465ZM298.646 70.9419C298.168 70.9419 297.73 70.9484 297.33 70.9613C296.93 70.9742 296.51 70.9871 296.072 71V70.2452L296.285 70.2258C296.736 70.1871 297.046 70.0581 297.214 69.8387C297.381 69.6065 297.465 69.2258 297.465 68.6968V66.0258H299.807V68.6968C299.807 69.2258 299.904 69.6 300.097 69.8194C300.304 70.0258 300.665 70.1548 301.181 70.2065L301.781 70.2452V71C301.252 70.9871 300.743 70.9742 300.252 70.9613C299.775 70.9484 299.239 70.9419 298.646 70.9419ZM307.95 71.271C306.995 71.271 306.163 71.0645 305.453 70.6516C304.757 70.2258 304.215 69.6194 303.828 68.8323C303.453 68.0452 303.266 67.1097 303.266 66.0258C303.266 64.9161 303.46 63.9677 303.847 63.1806C304.247 62.3935 304.808 61.7935 305.531 61.3806C306.266 60.9548 307.124 60.7419 308.105 60.7419C308.982 60.7419 309.737 60.9097 310.369 61.2452C311.002 61.5677 311.479 62.0774 311.802 62.7742C312.137 63.471 312.292 64.3742 312.266 65.4839H304.911L304.873 64.7484H310.04C310.053 64.1161 309.989 63.5548 309.847 63.0645C309.718 62.5742 309.505 62.1871 309.208 61.9032C308.911 61.6194 308.531 61.4774 308.066 61.4774C307.473 61.4774 306.957 61.7548 306.518 62.3097C306.079 62.8516 305.821 63.7161 305.744 64.9032L305.782 64.9613C305.769 65.0903 305.757 65.2258 305.744 65.3677C305.744 65.5097 305.744 65.671 305.744 65.8516C305.744 67.1677 305.995 68.1935 306.498 68.929C307.002 69.6516 307.731 70.0129 308.686 70.0129C309.331 70.0129 309.892 69.8581 310.369 69.5484C310.86 69.2258 311.273 68.729 311.608 68.0581L312.286 68.4645C311.924 69.3548 311.369 70.0452 310.621 70.5355C309.873 71.0258 308.982 71.271 307.95 71.271ZM317.071 70.9419C316.478 70.9419 315.936 70.9484 315.445 70.9613C314.968 70.9742 314.465 70.9871 313.936 71V70.2452L314.516 70.2065C315.045 70.1548 315.407 70.0258 315.6 69.8194C315.794 69.6 315.89 69.2258 315.89 68.6968V66.0258H318.252V68.6968C318.252 69.2258 318.336 69.6065 318.503 69.8387C318.684 70.0581 319 70.1871 319.452 70.2258L319.703 70.2452V71C319.252 70.9871 318.819 70.9742 318.407 70.9613C318.007 70.9484 317.561 70.9419 317.071 70.9419ZM315.89 66.0258V63.3742C315.89 62.8194 315.794 62.4387 315.6 62.2323C315.407 62.0129 315.039 61.8774 314.497 61.8258L313.936 61.7677V61.0129C314.207 61.0258 314.458 61.0387 314.69 61.0516C314.923 61.0516 315.174 61.0516 315.445 61.0516C316 61.0516 316.51 61.0323 316.974 60.9935C317.439 60.9419 317.865 60.8774 318.252 60.8V61.0129V66.0258H315.89ZM322.413 66.0258V64.1484C322.413 63.4 322.265 62.8387 321.968 62.4645C321.671 62.0903 321.219 61.9032 320.613 61.9032C319.994 61.9032 319.439 62.1032 318.948 62.5032C318.471 62.8903 318.052 63.5032 317.69 64.3419L317.536 63.9742C317.961 62.8516 318.503 62.0323 319.161 61.5161C319.832 61 320.626 60.7419 321.542 60.7419C322.587 60.7419 323.387 61.0516 323.942 61.671C324.497 62.2774 324.774 63.1613 324.774 64.3226V66.0258H322.413ZM323.594 70.9419C323.116 70.9419 322.678 70.9484 322.278 70.9613C321.878 70.9742 321.458 70.9871 321.019 71V70.2452L321.232 70.2258C321.684 70.1871 321.994 70.0581 322.161 69.8387C322.329 69.6065 322.413 69.2258 322.413 68.6968V66.0258H324.774V68.6968C324.774 69.2258 324.871 69.6 325.065 69.8194C325.271 70.0258 325.632 70.1548 326.148 70.2065L326.729 70.2452V71C326.2 70.9871 325.69 70.9742 325.2 70.9613C324.723 70.9484 324.187 70.9419 323.594 70.9419ZM332.084 71.271C331.09 71.271 330.342 70.9935 329.839 70.4387C329.348 69.871 329.103 69.0258 329.103 67.9032V66.0258H331.445V68.5032C331.445 69.0452 331.555 69.4452 331.774 69.7032C331.993 69.9613 332.322 70.0903 332.761 70.0903C333.174 70.0903 333.516 69.9613 333.787 69.7032C334.071 69.4452 334.297 69.0581 334.464 68.5419L335.064 68.7742C334.819 69.6387 334.458 70.271 333.981 70.671C333.503 71.071 332.871 71.271 332.084 71.271ZM329.103 66.0258V58.1484C329.555 58.1484 329.974 58.1226 330.361 58.071C330.748 58.0065 331.11 57.9226 331.445 57.8194V66.0258H329.103ZM326.897 61.7871V61.0323H334.542V61.7871H326.897Z" fill="#CACACA"/>
</svg>
