<svg width="3455" height="2160" viewBox="0 0 3455 2160" fill="none" xmlns="http://www.w3.org/2000/svg">
<path d="M836.963 1530.88C838.022 1530.87 839.082 1530.87 840.173 1530.87C841.349 1530.87 842.526 1530.87 843.738 1530.87C844.984 1530.87 846.231 1530.87 847.516 1530.87C851.009 1530.87 854.503 1530.87 857.997 1530.87C861.799 1530.88 865.602 1530.87 869.404 1530.87C876.105 1530.87 882.806 1530.87 889.507 1530.87C899.539 1530.87 909.57 1530.87 919.602 1530.87C936.695 1530.86 953.788 1530.86 970.882 1530.87C988.214 1530.87 1005.55 1530.87 1022.88 1530.87C1023.97 1530.87 1025.07 1530.87 1026.19 1530.87C1030.64 1530.87 1035.09 1530.87 1039.54 1530.87C1081.05 1530.86 1122.55 1530.86 1164.05 1530.86C1165.28 1530.86 1166.51 1530.86 1167.78 1530.86C1169.01 1530.86 1170.25 1530.86 1171.52 1530.86C1209.03 1530.87 1246.55 1530.87 1284.06 1530.87C1286.57 1530.87 1289.08 1530.87 1291.59 1530.87C1301.67 1530.87 1311.75 1530.87 1321.84 1530.87C1350.02 1530.86 1378.21 1530.86 1406.4 1530.86C1407.68 1530.86 1408.96 1530.86 1410.29 1530.86C1451.21 1530.86 1492.13 1530.86 1533.06 1530.87C1533.72 1530.87 1534.38 1530.87 1535.07 1530.87C1557.3 1530.87 1579.54 1530.87 1601.78 1530.87C1669.03 1530.87 1736.28 1530.88 1856.38 1530.87C1878.61 1530.87 1900.85 1530.87 1923.08 1530.87C1924.07 1530.87 1924.07 1530.87 1925.09 1530.87C1966.64 1530.86 2008.19 1530.86 2049.74 1530.86C2051.02 1530.86 2052.31 1530.86 2053.63 1530.86C2081.78 1530.86 2109.94 1530.86 2138.09 1530.87C2148.16 1530.87 2158.24 1530.87 2168.31 1530.87C2170.82 1530.87 2173.32 1530.87 2175.83 1530.87C2213.34 1530.87 2250.85 1530.87 2288.35 1530.86C2289.58 1530.86 2290.82 1530.86 2292.08 1530.86C2293.31 1530.86 2294.54 1530.86 2295.81 1530.86C2337.19 1530.86 2378.56 1530.86 2419.94 1530.87C2424.38 1530.87 2428.82 1530.87 2433.25 1530.87C2434.89 1530.87 2434.89 1530.87 2436.55 1530.87C2453.84 1530.87 2471.14 1530.87 2488.43 1530.87C2505.4 1530.86 2522.37 1530.87 2539.35 1530.87C2549.32 1530.87 2559.29 1530.87 2569.26 1530.87C2575.86 1530.87 2582.47 1530.87 2589.07 1530.87C2592.82 1530.87 2596.58 1530.87 2600.33 1530.87C2604.35 1530.87 2608.37 1530.87 2612.39 1530.87C2613.57 1530.87 2614.74 1530.87 2615.96 1530.87C2617.02 1530.87 2618.07 1530.87 2619.16 1530.88C2620.08 1530.88 2621 1530.88 2621.94 1530.88C2624 1531 2624 1531 2625 1532C2625.17 1533.96 2625.17 1533.96 2625.19 1536.38C2625.2 1537.17 2625.22 1537.96 2625.23 1538.77C2625 1541 2625 1541 2623 1544C2622.34 1544 2621.68 1544 2621 1544C2621 1545.32 2621 1546.64 2621 1548C2620.01 1548 2619.02 1548 2618 1548C2618 1550.31 2618 1552.62 2618 1555C2617.01 1555 2616.02 1555 2615 1555C2615 1556.98 2615 1558.96 2615 1561C2613.68 1561 2612.36 1561 2611 1561C2611 1563.31 2611 1565.62 2611 1568C2610.01 1568 2609.02 1568 2608 1568C2608 1569.65 2608 1571.3 2608 1573C2606.52 1573.5 2606.52 1573.5 2605 1574C2605 1575.32 2605 1576.64 2605 1578C2603.68 1578 2602.36 1578 2601 1578C2601 1580.31 2601 1582.62 2601 1585C2600.01 1585 2599.02 1585 2598 1585C2598 1586.98 2598 1588.96 2598 1591C2597.01 1591 2596.02 1591 2595 1591C2594.67 1593.31 2594.34 1595.62 2594 1598C2593.01 1598 2592.02 1598 2591 1598C2591 1598.99 2591 1599.98 2591 1601C2590.01 1601 2589.02 1601 2588 1601C2588 1603.31 2588 1605.62 2588 1608C2587.01 1608 2586.02 1608 2585 1608C2584.81 1609.21 2584.81 1609.21 2584.62 1610.44C2584.42 1611.28 2584.21 1612.13 2584 1613C2583.34 1613.33 2582.68 1613.66 2582 1614C2581.35 1616.02 2581.35 1616.02 2581 1618C2580.01 1618 2579.02 1618 2578 1618C2578 1619.65 2578 1621.3 2578 1623C2576.52 1623.5 2576.52 1623.5 2575 1624C2575 1625.32 2575 1626.64 2575 1628C2573.68 1628 2572.36 1628 2571 1628C2571 1629.98 2571 1631.96 2571 1634C2570.01 1634 2569.02 1634 2568 1634C2568 1635.32 2568 1636.64 2568 1638C2567.01 1638 2566.02 1638 2565 1638C2565.06 1638.78 2565.12 1639.57 2565.19 1640.38C2565.13 1641.24 2565.06 1642.11 2565 1643C2563.52 1643.99 2563.52 1643.99 2562 1645C2561.67 1645.99 2561.34 1646.98 2561 1648C2560.01 1648 2559.02 1648 2558 1648C2558 1649.98 2558 1651.96 2558 1654C2557.34 1654.33 2556.68 1654.66 2556 1655C2555.67 1655.99 2555.34 1656.98 2555 1658C2554.01 1658 2553.02 1658 2552 1658C2551.67 1659.98 2551.34 1661.96 2551 1664C2550.01 1664 2549.02 1664 2548 1664C2548 1665.32 2548 1666.64 2548 1668C2547.01 1668 2546.02 1668 2545 1668C2545 1668.99 2545 1669.98 2545 1671C2544.01 1671 2543.02 1671 2542 1671C2541.34 1673.31 2540.68 1675.62 2540 1678C2539.34 1678 2538.68 1678 2538 1678C2538 1678.99 2538 1679.98 2538 1681C2537.01 1681 2536.02 1681 2535 1681C2534.67 1682.32 2534.34 1683.64 2534 1685C2533.34 1685 2532.68 1685 2532 1685C2531.34 1686.98 2530.68 1688.96 2530 1691C2529.34 1691 2528.68 1691 2528 1691C2527.67 1692.32 2527.34 1693.64 2527 1695C2526.34 1695 2525.68 1695 2525 1695C2525 1695.99 2525 1696.98 2525 1698C2524.01 1698 2523.02 1698 2522 1698C2521.67 1699.98 2521.34 1701.96 2521 1704C2520.01 1704 2519.02 1704 2518 1704C2518 1705.32 2518 1706.64 2518 1708C2517.01 1708 2516.02 1708 2515 1708C2515 1708.99 2515 1709.98 2515 1711C2514.01 1711 2513.02 1711 2512 1711C2511.67 1712.32 2511.34 1713.64 2511 1715C2510.01 1715 2509.02 1715 2508 1715C2508 1716.65 2508 1718.3 2508 1720C2507.34 1720.33 2506.68 1720.66 2506 1721C2505.67 1721.99 2505.34 1722.98 2505 1724C2504.01 1724 2503.02 1724 2502 1724C2501.67 1725.32 2501.34 1726.64 2501 1728C2500.01 1728 2499.02 1728 2498 1728C2498 1728.99 2498 1729.98 2498 1731C2497.01 1731 2496.02 1731 2495 1731C2494.67 1732.32 2494.34 1733.64 2494 1735C2493.34 1735 2492.68 1735 2492 1735C2491.67 1735.99 2491.34 1736.98 2491 1738C2490.01 1738 2489.02 1738 2488 1738C2488 1739.65 2488 1741.3 2488 1743C2487.01 1743.33 2486.02 1743.66 2485 1744C2484.27 1746.02 2484.27 1746.02 2484 1748C2483.34 1748 2482.68 1748 2482 1748C2481.67 1748.99 2481.34 1749.98 2481 1751C2480.01 1751 2479.02 1751 2478 1751C2478 1751.99 2478 1752.98 2478 1754C2477.34 1754.33 2476.68 1754.66 2476 1755C2475.67 1755.99 2475.34 1756.98 2475 1758C2474.01 1758 2473.02 1758 2472 1758C2472 1758.99 2472 1759.98 2472 1761C2470.68 1761 2469.36 1761 2468 1761C2467.67 1762.32 2467.34 1763.64 2467 1765C2466.34 1765 2465.68 1765 2465 1765C2465 1765.99 2465 1766.98 2465 1768C2464.01 1768 2463.02 1768 2462 1768C2462 1768.99 2462 1769.98 2462 1771C2460.68 1771 2459.36 1771 2458 1771C2457.67 1772.32 2457.34 1773.64 2457 1775C2456.34 1775 2455.68 1775 2455 1775C2455 1775.99 2455 1776.98 2455 1778C2454.34 1778 2453.68 1778 2453 1778C2452.67 1778.99 2452.34 1779.98 2452 1781C2451.34 1781 2450.68 1781 2450 1781C2450 1781.66 2450 1782.32 2450 1783C2448.36 1784.69 2446.69 1786.35 2445 1788C2444.09 1789.1 2443.2 1790.2 2442.31 1791.31C2441.17 1792.64 2441.17 1792.64 2440 1794C2439.34 1794 2438.68 1794 2438 1794C2437.67 1794.99 2437.34 1795.98 2437 1797C2436.34 1797 2435.68 1797 2435 1797C2435 1797.99 2435 1798.98 2435 1800C2433.02 1800.5 2433.02 1800.5 2431 1801C2431 1801.99 2431 1802.98 2431 1804C2430.01 1804 2429.02 1804 2428 1804C2428 1804.99 2428 1805.98 2428 1807C2426.19 1809.19 2426.19 1809.19 2424 1811C2423.01 1811 2422.02 1811 2421 1811C2421 1811.66 2421 1812.32 2421 1813C2419.02 1813.33 2417.04 1813.66 2415 1814C2415 1815.32 2415 1816.64 2415 1818C2414.01 1818 2413.02 1818 2412 1818C2412 1818.99 2412 1819.98 2412 1821C2410.68 1821 2409.36 1821 2408 1821C2408 1821.99 2408 1822.98 2408 1824C2407.01 1824 2406.02 1824 2405 1824C2405 1825.32 2405 1826.64 2405 1828C2404.01 1828 2403.02 1828 2402 1828C2401.67 1828.99 2401.34 1829.98 2401 1831C2400.01 1831 2399.02 1831 2398 1831C2398 1831.99 2398 1832.98 2398 1834C2397.01 1834 2396.02 1834 2395 1834C2394.63 1834.9 2394.63 1834.9 2394.25 1835.81C2392.8 1838.36 2391.52 1839.52 2389 1841C2387.68 1841 2386.36 1841 2385 1841C2385 1841.99 2385 1842.98 2385 1844C2384.01 1844 2383.02 1844 2382 1844C2382 1845.32 2382 1846.64 2382 1848C2380.68 1848 2379.36 1848 2378 1848C2378 1848.99 2378 1849.98 2378 1851C2377.01 1851 2376.02 1851 2375 1851C2375 1851.99 2375 1852.98 2375 1854C2374.01 1854 2373.02 1854 2372 1854C2371.9 1854.64 2371.79 1855.28 2371.69 1855.94C2371.46 1856.62 2371.23 1857.3 2371 1858C2370.01 1858.33 2369.02 1858.66 2368 1859C2367.67 1859.66 2367.34 1860.32 2367 1861C2365.35 1861 2363.7 1861 2362 1861C2362 1861.99 2362 1862.98 2362 1864C2360.68 1864 2359.36 1864 2358 1864C2358 1865.32 2358 1866.64 2358 1868C2357.01 1868 2356.02 1868 2355 1868C2354.67 1868.99 2354.34 1869.98 2354 1871C2352.02 1871 2350.04 1871 2348 1871C2348 1871.99 2348 1872.98 2348 1874C2347.01 1874 2346.02 1874 2345 1874C2345 1875.32 2345 1876.64 2345 1878C2344.01 1878 2343.02 1878 2342 1878C2341.67 1878.99 2341.34 1879.98 2341 1881C2340.01 1881 2339.02 1881 2338 1881C2337.67 1881.99 2337.34 1882.98 2337 1884C2335.35 1884 2333.7 1884 2332 1884C2332 1885.32 2332 1886.64 2332 1888C2330.68 1888 2329.36 1888 2328 1888C2328 1888.99 2328 1889.98 2328 1891C2327.01 1891 2326.02 1891 2325 1891C2325 1891.99 2325 1892.98 2325 1894C2322.69 1894 2320.38 1894 2318 1894C2318 1895.32 2318 1896.64 2318 1898C2317.01 1898 2316.02 1898 2315 1898C2315 1898.99 2315 1899.98 2315 1901C2313.68 1901 2312.36 1901 2311 1901C2311 1901.66 2311 1902.32 2311 1903C2309.02 1903.33 2307.04 1903.66 2305 1904C2305 1905.32 2305 1906.64 2305 1908C2298.38 1911 2298.38 1911 2295 1911C2295 1911.99 2295 1912.98 2295 1914C2293.68 1914 2292.36 1914 2291 1914C2291 1914.99 2291 1915.98 2291 1917C2289.02 1917.33 2287.04 1917.66 2285 1918C2285 1918.99 2285 1919.98 2285 1921C2284.01 1921 2283.02 1921 2282 1921C2281.67 1921.99 2281.34 1922.98 2281 1924C2279.02 1924 2277.04 1924 2275 1924C2275 1925.32 2275 1926.64 2275 1928C2271.67 1930.66 2269.22 1931.36 2265 1931C2265 1931.99 2265 1932.98 2265 1934C2263.68 1934 2262.36 1934 2261 1934C2260.67 1934.99 2260.34 1935.98 2260 1937C2258.35 1937.33 2256.7 1937.66 2255 1938C2255 1938.99 2255 1939.98 2255 1941C2253.02 1941 2251.04 1941 2249 1941C2248.67 1941.99 2248.34 1942.98 2248 1944C2246.02 1944 2244.04 1944 2242 1944C2242 1945.32 2242 1946.64 2242 1948C2240.68 1948 2239.36 1948 2238 1948C2237.67 1948.99 2237.34 1949.98 2237 1951C2235.35 1951 2233.7 1951 2232 1951C2232 1951.99 2232 1952.98 2232 1954C2229.69 1954 2227.38 1954 2225 1954C2225 1955.32 2225 1956.64 2225 1958C2224.2 1958.12 2223.39 1958.25 2222.56 1958.38C2221.72 1958.58 2220.87 1958.79 2220 1959C2219.67 1959.66 2219.34 1960.32 2219 1961C2217.68 1961 2216.36 1961 2215 1961C2215 1961.99 2215 1962.98 2215 1964C2213.02 1964 2211.04 1964 2209 1964C2208.67 1965.32 2208.34 1966.64 2208 1968C2206.02 1968 2204.04 1968 2202 1968C2202 1968.99 2202 1969.98 2202 1971C2199.69 1971 2197.38 1971 2195 1971C2195 1971.99 2195 1972.98 2195 1974C2193.02 1974 2191.04 1974 2189 1974C2188.67 1975.32 2188.34 1976.64 2188 1978C2186.02 1978 2184.04 1978 2182 1978C2182 1978.99 2182 1979.98 2182 1981C2179.69 1981 2177.38 1981 2175 1981C2175 1981.99 2175 1982.98 2175 1984C2173.02 1984 2171.04 1984 2169 1984C2168.67 1985.32 2168.34 1986.64 2168 1988C2166.02 1988 2164.04 1988 2162 1988C2162 1988.99 2162 1989.98 2162 1991C2159.69 1991 2157.38 1991 2155 1991C2155 1991.99 2155 1992.98 2155 1994C2153.02 1994 2151.04 1994 2149 1994C2148.67 1995.32 2148.34 1996.64 2148 1998C2146.02 1998 2144.04 1998 2142 1998C2142 1998.99 2142 1999.98 2142 2001C2139.36 2001 2136.72 2001 2134 2001C2134 2001.66 2134 2002.32 2134 2003C2131.04 2004.48 2128.26 2004.06 2125 2004C2124.67 2005.32 2124.34 2006.64 2124 2008C2122.87 2008.31 2121.73 2008.62 2120.56 2008.94C2117.21 2009.63 2117.21 2009.63 2116 2011C2113.67 2011.04 2111.33 2011.04 2109 2011C2109 2011.99 2109 2012.98 2109 2014C2106.69 2014 2104.38 2014 2102 2014C2101.67 2014.99 2101.34 2015.98 2101 2017C2098.04 2018.48 2095.26 2018.06 2092 2018C2092 2018.99 2092 2019.98 2092 2021C2089.69 2021 2087.38 2021 2085 2021C2085 2021.99 2085 2022.98 2085 2024C2081.7 2024 2078.4 2024 2075 2024C2075 2025.32 2075 2026.64 2075 2028C2071.7 2028 2068.4 2028 2065 2028C2065 2028.99 2065 2029.98 2065 2031C2061.7 2031 2058.4 2031 2055 2031C2055 2031.99 2055 2032.98 2055 2034C2051.7 2034 2048.4 2034 2045 2034C2044.67 2035.32 2044.34 2036.64 2044 2038C2041.03 2038 2038.06 2038 2035 2038C2035 2038.99 2035 2039.98 2035 2041C2031.7 2041 2028.4 2041 2025 2041C2025 2041.99 2025 2042.98 2025 2044C2021.7 2044 2018.4 2044 2015 2044C2014.67 2045.32 2014.34 2046.64 2014 2048C2010.04 2048 2006.08 2048 2002 2048C2002 2048.99 2002 2049.98 2002 2051C1998.37 2051 1994.74 2051 1991 2051C1991 2051.66 1991 2052.32 1991 2053C1988.24 2054.38 1985.95 2054.1 1982.88 2054.06C1981.78 2054.05 1980.68 2054.04 1979.55 2054.04C1978.71 2054.02 1977.87 2054.01 1977 2054C1977 2054.66 1977 2055.32 1977 2056C1976.34 2056 1975.68 2056 1975 2056C1975 2056.66 1975 2057.32 1975 2058C1974.31 2058.05 1973.63 2058.1 1972.92 2058.15C1972.02 2058.22 1971.12 2058.3 1970.19 2058.38C1969.29 2058.44 1968.4 2058.51 1967.48 2058.59C1964.76 2058.87 1964.76 2058.87 1962 2061C1959.52 2061.2 1959.52 2061.2 1956.81 2061.13C1955.46 2061.1 1955.46 2061.1 1954.08 2061.07C1953.05 2061.04 1953.05 2061.04 1952 2061C1951.67 2061.99 1951.34 2062.98 1951 2064C1945.72 2064 1940.44 2064 1935 2064C1935 2064.99 1935 2065.98 1935 2067C1930.64 2068.45 1926.19 2068.36 1921.63 2068.52C1919.75 2068.61 1917.87 2068.8 1916 2069C1915.67 2069.66 1915.34 2070.32 1915 2071C1909.72 2071 1904.44 2071 1899 2071C1898.67 2071.99 1898.34 2072.98 1898 2074C1891.73 2074 1885.46 2074 1879 2074C1879 2074.99 1879 2075.98 1879 2077C1876.39 2078.31 1874.36 2078.18 1871.44 2078.25C1870.33 2078.28 1869.23 2078.31 1868.08 2078.35C1865.74 2078.41 1863.4 2078.46 1861.05 2078.52C1859.94 2078.55 1858.83 2078.59 1857.69 2078.62C1856.16 2078.66 1856.16 2078.66 1854.6 2078.7C1851.77 2078.83 1851.77 2078.83 1849 2081C1845.91 2081.23 1845.91 2081.23 1842.14 2081.2C1841.48 2081.19 1840.82 2081.19 1840.14 2081.19C1838.03 2081.18 1835.92 2081.15 1833.81 2081.13C1832.38 2081.12 1830.95 2081.11 1829.52 2081.1C1826.01 2081.08 1822.51 2081.04 1819 2081C1819 2081.99 1819 2082.98 1819 2084C1799.86 2084 1780.72 2084 1761 2084C1761 2084.66 1761 2085.32 1761 2086C1739.55 2086 1718.1 2086 1696 2086C1696 2085.34 1696 2084.68 1696 2084C1676.53 2084 1657.06 2084 1637 2084C1636.67 2083.01 1636.34 2082.02 1636 2081C1626.43 2081 1616.86 2081 1607 2081C1606.67 2080.01 1606.34 2079.02 1606 2078C1604.84 2078.02 1604.84 2078.02 1603.66 2078.03C1600.17 2078.07 1596.68 2078.1 1593.19 2078.13C1591.97 2078.14 1590.76 2078.16 1589.51 2078.18C1587.76 2078.19 1587.76 2078.19 1585.98 2078.2C1584.37 2078.21 1584.37 2078.21 1582.73 2078.23C1580 2078 1580 2078 1577 2076C1577 2075.34 1577 2074.68 1577 2074C1571.39 2074 1565.78 2074 1560 2074C1559.67 2073.01 1559.34 2072.02 1559 2071C1553.06 2071 1547.12 2071 1541 2071C1540.67 2070.01 1540.34 2069.02 1540 2068C1534.72 2068 1529.44 2068 1524 2068C1523.67 2066.68 1523.34 2065.36 1523 2064C1517.39 2064 1511.78 2064 1506 2064C1506 2063.01 1506 2062.02 1506 2061C1501.71 2061 1497.42 2061 1493 2061C1493 2060.01 1493 2059.02 1493 2058C1489.04 2058 1485.08 2058 1481 2058C1480.67 2056.68 1480.34 2055.36 1480 2054C1475.71 2054 1471.42 2054 1467 2054C1466.67 2053.01 1466.34 2052.02 1466 2051C1462.04 2051 1458.08 2051 1454 2051C1453.67 2050.01 1453.34 2049.02 1453 2048C1451.97 2048.04 1451.97 2048.04 1450.92 2048.07C1449.57 2048.1 1449.57 2048.1 1448.19 2048.13C1447.29 2048.15 1446.4 2048.17 1445.48 2048.2C1443 2048 1443 2048 1440 2046C1440 2045.34 1440 2044.68 1440 2044C1437.03 2044 1434.06 2044 1431 2044C1430.67 2043.01 1430.34 2042.02 1430 2041C1428.36 2041.06 1428.36 2041.06 1426.69 2041.13C1423 2041 1423 2041 1420 2039C1417.66 2038.45 1415.33 2038.06 1412.96 2037.66C1412.31 2037.44 1411.67 2037.22 1411 2037C1410.67 2036.01 1410.34 2035.02 1410 2034C1406.7 2034 1403.4 2034 1400 2034C1400 2033.01 1400 2032.02 1400 2031C1398.08 2031.03 1398.08 2031.03 1396.12 2031.06C1392.25 2031.13 1392.25 2031.13 1390 2030C1390 2029.34 1390 2028.68 1390 2028C1388.91 2028.02 1387.81 2028.04 1386.69 2028.06C1383 2028 1383 2028 1380 2027C1380 2026.01 1380 2025.02 1380 2024C1377.69 2024 1375.38 2024 1373 2024C1373 2023.01 1373 2022.02 1373 2021C1370.03 2021 1367.06 2021 1364 2021C1363.67 2020.01 1363.34 2019.02 1363 2018C1361.02 2018 1359.04 2018 1357 2018C1356.67 2016.68 1356.34 2015.36 1356 2014C1353.03 2014 1350.06 2014 1347 2014C1347 2013.01 1347 2012.02 1347 2011C1344.69 2011 1342.38 2011 1340 2011C1340 2010.01 1340 2009.02 1340 2008C1338.36 2008.06 1338.36 2008.06 1336.69 2008.13C1333 2008 1333 2008 1330 2006C1330 2005.34 1330 2004.68 1330 2004C1327.69 2004 1325.38 2004 1323 2004C1323 2003.01 1323 2002.02 1323 2001C1320.69 2001 1318.38 2001 1316 2001C1315.67 2000.34 1315.34 1999.68 1315 1999C1313.02 1998.28 1311.02 1997.62 1309 1997C1308.34 1996.67 1307.68 1996.34 1307 1996C1307 1995.34 1307 1994.68 1307 1994C1305.35 1994 1303.7 1994 1302 1994C1301.67 1993.01 1301.34 1992.02 1301 1991C1299.82 1991.06 1299.82 1991.06 1298.62 1991.13C1296 1991 1296 1991 1294 1989C1291.68 1987.96 1289.35 1986.96 1287 1986C1287 1985.34 1287 1984.68 1287 1984C1285.02 1984 1283.04 1984 1281 1984C1280.67 1983.01 1280.34 1982.02 1280 1981C1278.02 1981 1276.04 1981 1274 1981C1273.67 1980.34 1273.34 1979.68 1273 1979C1271.02 1978.27 1269.02 1977.6 1267 1977C1267 1976.01 1267 1975.02 1267 1974C1264.69 1974 1262.38 1974 1260 1974C1260 1973.01 1260 1972.02 1260 1971C1258.02 1971 1256.04 1971 1254 1971C1253.67 1970.01 1253.34 1969.02 1253 1968C1251.35 1967.67 1249.7 1967.34 1248 1967C1247.67 1966.01 1247.34 1965.02 1247 1964C1245.68 1964 1244.36 1964 1243 1964C1243 1963.01 1243 1962.02 1243 1961C1241.02 1961 1239.04 1961 1237 1961C1236.67 1960.34 1236.34 1959.68 1236 1959C1234.02 1958.27 1232.02 1957.6 1230 1957C1230 1956.01 1230 1955.02 1230 1954C1228.35 1953.67 1226.7 1953.34 1225 1953C1225 1952.34 1225 1951.68 1225 1951C1223.35 1951 1221.7 1951 1220 1951C1220 1950.01 1220 1949.02 1220 1948C1218.02 1948 1216.04 1948 1214 1948C1213.67 1946.68 1213.34 1945.36 1213 1944C1211.02 1944 1209.04 1944 1207 1944C1207 1943.01 1207 1942.02 1207 1941C1205.68 1941 1204.36 1941 1203 1941C1203 1940.01 1203 1939.02 1203 1938C1201.02 1938 1199.04 1938 1197 1938C1197 1936.68 1197 1935.36 1197 1934C1194.69 1934 1192.38 1934 1190 1934C1190 1933.01 1190 1932.02 1190 1931C1189.01 1931 1188.02 1931 1187 1931C1187 1930.01 1187 1929.02 1187 1928C1185.02 1927.67 1183.04 1927.34 1181 1927C1180.67 1926.01 1180.34 1925.02 1180 1924C1179.01 1924 1178.02 1924 1177 1924C1177 1923.01 1177 1922.02 1177 1921C1175.02 1921 1173.04 1921 1171 1921C1170.67 1920.34 1170.34 1919.68 1170 1919C1169.01 1918.67 1168.02 1918.34 1167 1918C1167 1916.68 1167 1915.36 1167 1914C1165.02 1914 1163.04 1914 1161 1914C1160.67 1913.01 1160.34 1912.02 1160 1911C1159.01 1911 1158.02 1911 1157 1911C1157 1910.01 1157 1909.02 1157 1908C1156.22 1907.86 1155.43 1907.71 1154.62 1907.56C1152 1907 1152 1907 1150 1906C1150 1905.34 1150 1904.68 1150 1904C1149.01 1904 1148.02 1904 1147 1904C1147 1903.01 1147 1902.02 1147 1901C1146.28 1900.88 1145.56 1900.75 1144.81 1900.63C1142.04 1900.01 1139.6 1899.12 1137 1898C1137 1896.68 1137 1895.36 1137 1894C1135.68 1894 1134.36 1894 1133 1894C1133 1893.01 1133 1892.02 1133 1891C1132.46 1890.9 1131.93 1890.79 1131.38 1890.69C1128.37 1889.82 1125.76 1888.44 1123 1887C1123 1886.01 1123 1885.02 1123 1884C1122.01 1884 1121.02 1884 1120 1884C1120 1883.01 1120 1882.02 1120 1881C1119.01 1881 1118.02 1881 1117 1881C1117 1880.01 1117 1879.02 1117 1878C1114.69 1877.67 1112.38 1877.34 1110 1877C1110 1876.01 1110 1875.02 1110 1874C1109.01 1874 1108.02 1874 1107 1874C1107 1873.01 1107 1872.02 1107 1871C1105.68 1871 1104.36 1871 1103 1871C1103 1870.01 1103 1869.02 1103 1868C1101.35 1867.67 1099.7 1867.34 1098 1867C1097.67 1866.01 1097.34 1865.02 1097 1864C1094.98 1863.27 1094.98 1863.27 1093 1863C1093 1862.34 1093 1861.68 1093 1861C1092.01 1861 1091.02 1861 1090 1861C1090 1860.01 1090 1859.02 1090 1858C1089.01 1858 1088.02 1858 1087 1858C1087 1856.68 1087 1855.36 1087 1854C1085.02 1854 1083.04 1854 1081 1854C1080.67 1853.01 1080.34 1852.02 1080 1851C1079.01 1851 1078.02 1851 1077 1851C1077 1850.01 1077 1849.02 1077 1848C1076.01 1848 1075.02 1848 1074 1848C1073.67 1846.68 1073.34 1845.36 1073 1844C1072.01 1844 1071.02 1844 1070 1844C1070 1843.01 1070 1842.02 1070 1841C1069.01 1841 1068.02 1841 1067 1841C1067 1840.01 1067 1839.02 1067 1838C1065.68 1837.67 1064.36 1837.34 1063 1837C1063 1836.01 1063 1835.02 1063 1834C1062.01 1834 1061.02 1834 1060 1834C1060 1833.01 1060 1832.02 1060 1831C1059.01 1831 1058.02 1831 1057 1831C1057 1830.01 1057 1829.02 1057 1828C1055.02 1827.67 1053.04 1827.34 1051 1827C1050.67 1826.01 1050.34 1825.02 1050 1824C1049.01 1824 1048.02 1824 1047 1824C1047 1823.01 1047 1822.02 1047 1821C1045.68 1820.67 1044.36 1820.34 1043 1820C1043 1819.34 1043 1818.68 1043 1818C1042.01 1818 1041.02 1818 1040 1818C1040 1816.68 1040 1815.36 1040 1814C1039.01 1814 1038.02 1814 1037 1814C1037 1813.01 1037 1812.02 1037 1811C1035.68 1811 1034.36 1811 1033 1811C1033 1810.01 1033 1809.02 1033 1808C1032.01 1808 1031.02 1808 1030 1808C1030 1806.68 1030 1805.36 1030 1804C1029.01 1804 1028.02 1804 1027 1804C1027 1803.01 1027 1802.02 1027 1801C1025.68 1801 1024.36 1801 1023 1801C1023 1800.01 1023 1799.02 1023 1798C1022.01 1798 1021.02 1798 1020 1798C1020 1796.68 1020 1795.36 1020 1794C1019.01 1794 1018.02 1794 1017 1794C1017 1793.01 1017 1792.02 1017 1791C1015.68 1790.67 1014.36 1790.34 1013 1790C1013 1789.34 1013 1788.68 1013 1788C1012.01 1788 1011.02 1788 1010 1788C1010 1786.68 1010 1785.36 1010 1784C1009.01 1784 1008.02 1784 1007 1784C1007 1783.01 1007 1782.02 1007 1781C1005.68 1780.67 1004.36 1780.34 1003 1780C1003 1779.34 1003 1778.68 1003 1778C1002.01 1778 1001.02 1778 1000 1778C1000 1776.68 1000 1775.36 1000 1774C999.01 1774 998.02 1774 997 1774C997 1773.01 997 1772.02 997 1771C995.68 1770.67 994.36 1770.34 993 1770C993 1769.34 993 1768.68 993 1768C992.01 1768 991.02 1768 990 1768C990 1766.68 990 1765.36 990 1764C989.01 1764 988.02 1764 987 1764C987 1763.01 987 1762.02 987 1761C985.68 1760.67 984.36 1760.34 983 1760C983 1759.34 983 1758.68 983 1758C982.34 1758 981.68 1758 981 1758C977 1751.38 977 1751.38 977 1748C975.68 1747.67 974.36 1747.34 973 1747C973 1746.34 973 1745.68 973 1745C972.01 1744.67 971.02 1744.34 970 1744C970 1743.01 970 1742.02 970 1741C969.01 1741 968.02 1741 967 1741C967 1740.01 967 1739.02 967 1738C966.01 1738 965.02 1738 964 1738C963.897 1737.36 963.794 1736.72 963.688 1736.06C963.461 1735.38 963.234 1734.7 963 1734C962.01 1733.67 961.02 1733.34 960 1733C960 1732.01 960 1731.02 960 1730C959.34 1730 958.68 1730 958 1730C957.505 1727.53 957.505 1727.53 957 1725C955.68 1724.67 954.36 1724.34 953 1724C953 1723.01 953 1722.02 953 1721C952.01 1721 951.02 1721 950 1721C950 1720.01 950 1719.02 950 1718C949.01 1718 948.02 1718 947 1718C946.67 1717.01 946.34 1716.02 946 1715C945.34 1714.67 944.68 1714.34 944 1714C944 1713.01 944 1712.02 944 1711C942.68 1710.67 941.36 1710.34 940 1710C940 1708.35 940 1706.7 940 1705C939.01 1705 938.02 1705 937 1705C937 1703.68 937 1702.36 937 1701C935.68 1700.67 934.36 1700.34 933 1700C933 1699.34 933 1698.68 933 1698C932.34 1698 931.68 1698 931 1698C930.505 1694.54 930.505 1694.54 930 1691C929.01 1691 928.02 1691 927 1691C927 1690.01 927 1689.02 927 1688C926.01 1688 925.02 1688 924 1688C924 1686.68 924 1685.36 924 1684C922.68 1683.67 921.36 1683.34 920 1683C920 1681.35 920 1679.7 920 1678C919.01 1678 918.02 1678 917 1678C917 1677.01 917 1676.02 917 1675C916.01 1674.67 915.02 1674.34 914 1674C914 1673.01 914 1672.02 914 1671C912.68 1670.67 911.36 1670.34 910 1670C910 1668.35 910 1666.7 910 1665C909.01 1665 908.02 1665 907 1665C907 1663.68 907 1662.36 907 1661C906.01 1661 905.02 1661 904 1661C904 1660.01 904 1659.02 904 1658C902.02 1657.01 902.02 1657.01 900 1656C900 1654.35 900 1652.7 900 1651C899.01 1651 898.02 1651 897 1651C896.67 1650.01 896.34 1649.02 896 1648C895.34 1647.67 894.68 1647.34 894 1647C894 1645.02 894 1643.04 894 1641C892.68 1641 891.36 1641 890 1641C888.578 1637.68 887.61 1634.56 887 1631C886.01 1631 885.02 1631 884 1631C884 1629.02 884 1627.04 884 1625C882.68 1624.67 881.36 1624.34 880 1624C880 1623.01 880 1622.02 880 1621C879.01 1621 878.02 1621 877 1621C877 1619.02 877 1617.04 877 1615C876.01 1615 875.02 1615 874 1615C874 1613.68 874 1612.36 874 1611C872.68 1610.67 871.36 1610.34 870 1610C870 1608.35 870 1606.7 870 1605C869.01 1605 868.02 1605 867 1605C867 1603.68 867 1602.36 867 1601C866.01 1600.67 865.02 1600.34 864 1600C864 1598.35 864 1596.7 864 1595C862.68 1594.67 861.36 1594.34 860 1594C860 1592.02 860 1590.04 860 1588C859.01 1588 858.02 1588 857 1588C857 1585.69 857 1583.38 857 1581C856.01 1581 855.02 1581 854 1581C854 1579.68 854 1578.36 854 1577C852.515 1576.51 852.515 1576.51 851 1576C850.505 1573.53 850.505 1573.53 850 1571C849.01 1571 848.02 1571 847 1571C847 1569.02 847 1567.04 847 1565C845.515 1564.51 845.515 1564.51 844 1564C844 1562.02 844 1560.04 844 1558C842.68 1557.67 841.36 1557.34 840 1557C840 1555.02 840 1553.04 840 1551C839.01 1551 838.02 1551 837 1551C836.876 1550.36 836.753 1549.72 836.625 1549.06C836.419 1548.38 836.213 1547.7 836 1547C835.34 1546.67 834.68 1546.34 834 1546C834 1544.35 834 1542.7 834 1541C832.68 1540.67 831.36 1540.34 830 1540C830 1537.36 830 1534.72 830 1532C832.497 1530.75 834.168 1530.88 836.963 1530.88Z" fill="#216097"/>
<path d="M946.999 442C994.743 441.978 1042.49 441.957 1090.23 441.936C1091.63 441.936 1091.63 441.936 1093.06 441.935C1193.14 441.892 1293.22 441.856 1393.29 441.83C1395.51 441.83 1397.74 441.829 1399.96 441.829C1446.6 441.817 1493.25 441.806 1539.89 441.796C1563.32 441.791 1586.75 441.786 1610.18 441.781C1613.71 441.78 1617.25 441.779 1620.78 441.779C1675.22 441.766 1729.66 441.751 1784.1 441.725C1785.28 441.725 1786.45 441.724 1787.65 441.724C1806.53 441.715 1825.42 441.706 1844.3 441.696C1898.67 441.67 1953.03 441.646 2007.4 441.635C2009.08 441.635 2009.08 441.635 2010.79 441.635C2035.31 441.63 2059.84 441.626 2084.36 441.624C2094.23 441.623 2104.1 441.622 2113.96 441.62C2115.04 441.62 2116.12 441.62 2117.24 441.62C2152.07 441.616 2186.9 441.598 2221.73 441.575C2256.8 441.551 2291.87 441.539 2326.93 441.545C2331.77 441.546 2336.61 441.547 2341.45 441.547C2342.4 441.548 2343.35 441.548 2344.33 441.548C2359.39 441.549 2374.45 441.537 2389.5 441.52C2404.29 441.503 2419.08 441.5 2433.86 441.513C2442.55 441.519 2451.23 441.515 2459.91 441.495C2465.66 441.483 2471.42 441.485 2477.17 441.499C2480.44 441.506 2483.71 441.505 2486.98 441.491C2490.49 441.477 2493.99 441.487 2497.49 441.503C2498.51 441.493 2499.53 441.483 2500.58 441.473C2507.34 441.541 2507.34 441.541 2510.66 443.843C2512 446 2512 446 2512 449C2512.99 449 2513.98 449 2515 449C2515 449.99 2515 450.98 2515 452C2515.99 452 2516.98 452 2518 452C2518 453.32 2518 454.64 2518 456C2518.99 456 2519.98 456 2521 456C2521.33 457.98 2521.66 459.96 2522 462C2522.99 462 2523.98 462 2525 462C2525 462.99 2525 463.98 2525 465C2525.99 465.33 2526.98 465.66 2528 466C2528 466.99 2528 467.98 2528 469C2528.99 469 2529.98 469 2531 469C2531.33 470.65 2531.66 472.3 2532 474C2532.66 474 2533.32 474 2534 474C2534.33 475.65 2534.66 477.3 2535 479C2535.99 479 2536.98 479 2538 479C2538 479.99 2538 480.98 2538 482C2538.99 482 2539.98 482 2541 482C2541.66 484.31 2542.32 486.62 2543 489C2543.66 489 2544.32 489 2545 489C2545 489.99 2545 490.98 2545 492C2545.99 492 2546.98 492 2548 492C2548 493.32 2548 494.64 2548 496C2548.99 496 2549.98 496 2551 496C2551.33 497.98 2551.66 499.96 2552 502C2552.99 502 2553.98 502 2555 502C2555.33 502.99 2555.66 503.98 2556 505C2556.66 505.33 2557.32 505.66 2558 506C2558 507.98 2558 509.96 2558 512C2558.99 512 2559.98 512 2561 512C2561 512.99 2561 513.98 2561 515C2562.32 515.33 2563.64 515.66 2565 516C2565.33 517.98 2565.66 519.96 2566 522C2566.66 522 2567.32 522 2568 522C2568 522.99 2568 523.98 2568 525C2568.99 525.33 2569.98 525.66 2571 526C2571 527.98 2571 529.96 2571 532C2572.32 532 2573.64 532 2575 532C2575.33 532.99 2575.66 533.98 2576 535C2576.66 535.33 2577.32 535.66 2578 536C2578 537.98 2578 539.96 2578 542C2578.99 542 2579.98 542 2581 542C2581 543.32 2581 544.64 2581 546C2582.32 546.33 2583.64 546.66 2585 547C2585.03 548.812 2585.05 550.625 2585.06 552.437C2585.07 553.447 2585.08 554.456 2585.1 555.496C2585 558 2585 558 2584 559C2582.46 559.098 2580.91 559.125 2579.37 559.125C2578.36 559.127 2577.35 559.13 2576.31 559.132C2575.18 559.13 2574.05 559.128 2572.89 559.125C2571.11 559.127 2571.11 559.127 2569.28 559.129C2565.94 559.132 2562.6 559.131 2559.26 559.127C2555.63 559.125 2551.99 559.128 2548.36 559.13C2541.95 559.134 2535.55 559.133 2529.14 559.13C2519.55 559.126 2509.96 559.128 2500.37 559.131C2484.03 559.135 2467.69 559.135 2451.35 559.133C2434.78 559.13 2418.21 559.129 2401.64 559.131C2400.07 559.131 2400.07 559.131 2398.47 559.132C2394.22 559.132 2389.96 559.133 2385.71 559.133C2346.03 559.139 2306.36 559.139 2266.68 559.136C2265.51 559.136 2264.33 559.136 2263.12 559.136C2261.94 559.136 2260.76 559.136 2259.55 559.136C2223.68 559.133 2187.82 559.132 2151.96 559.134C2149.56 559.134 2147.16 559.134 2144.76 559.134C2135.12 559.134 2125.48 559.135 2115.85 559.135C2088.9 559.136 2061.95 559.136 2035.01 559.137C2033.17 559.137 2033.17 559.137 2031.29 559.137C1992.17 559.137 1953.05 559.136 1913.93 559.134C1912.02 559.134 1912.02 559.134 1910.08 559.134C1889.46 559.132 1868.84 559.131 1848.23 559.13C1766.45 559.125 1684.67 559.125 1602.89 559.13C1582.29 559.131 1561.68 559.133 1541.07 559.134C1539.17 559.134 1539.17 559.134 1537.23 559.134C1498.15 559.136 1459.07 559.137 1419.99 559.137C1418.76 559.137 1417.54 559.137 1416.27 559.137C1389.36 559.136 1362.44 559.136 1335.53 559.135C1325.9 559.134 1316.27 559.134 1306.64 559.134C1304.24 559.134 1301.85 559.134 1299.45 559.134C1263.59 559.132 1227.74 559.133 1191.88 559.136C1190.12 559.136 1190.12 559.136 1188.31 559.136C1187.14 559.136 1185.97 559.136 1184.76 559.136C1145.2 559.139 1105.64 559.138 1066.08 559.133C1061.84 559.132 1057.6 559.132 1053.36 559.131C1052.32 559.131 1051.28 559.131 1050.21 559.131C1033.67 559.129 1017.14 559.13 1000.61 559.133C984.386 559.136 968.159 559.135 951.933 559.13C942.401 559.127 932.87 559.127 923.338 559.132C917.025 559.134 910.712 559.133 904.399 559.129C900.809 559.126 897.22 559.126 893.63 559.129C889.788 559.133 885.947 559.13 882.106 559.125C880.416 559.129 880.416 559.129 878.692 559.132C877.681 559.13 876.671 559.128 875.63 559.125C874.753 559.125 873.876 559.125 872.972 559.125C870.999 559 870.999 559 869.999 558C869.858 555.329 869.957 552.676 869.999 550C871.979 549.505 871.979 549.505 873.999 549C873.999 547.35 873.999 545.7 873.999 544C874.989 543.505 874.989 543.505 875.999 543C876.651 540.975 876.651 540.975 876.999 539C877.989 539 878.979 539 879.999 539C879.999 537.35 879.999 535.7 879.999 534C881.979 533.01 881.979 533.01 883.999 532C883.999 531.01 883.999 530.02 883.999 529C884.989 529 885.979 529 886.999 529C886.999 527.02 886.999 525.04 886.999 523C888.484 522.505 888.484 522.505 889.999 522C889.999 521.01 889.999 520.02 889.999 519C891.319 519 892.639 519 893.999 519C893.999 517.02 893.999 515.04 893.999 513C895.484 512.505 895.484 512.505 896.999 512C896.999 511.01 896.999 510.02 896.999 509C897.989 509 898.979 509 899.999 509C900.123 508.03 900.247 507.061 900.374 506.062C900.58 505.052 900.787 504.041 900.999 503C901.989 502.505 901.989 502.505 902.999 502C903.329 501.01 903.659 500.02 903.999 499C904.989 499 905.979 499 906.999 499C907.329 497.35 907.659 495.7 907.999 494C908.659 494 909.319 494 909.999 494C910.329 492.35 910.659 490.7 910.999 489C911.989 489 912.979 489 913.999 489C913.999 487.68 913.999 486.36 913.999 485C914.989 485 915.979 485 916.999 485C917.329 483.35 917.659 481.7 917.999 480C918.659 480 919.319 480 919.999 480C919.999 478.68 919.999 477.36 919.999 476C921.812 473.75 921.812 473.75 923.999 472C924.989 472 925.979 472 926.999 472C926.999 470.35 926.999 468.7 926.999 467C927.989 466.67 928.979 466.34 929.999 466C930.732 463.985 930.732 463.985 930.999 462C931.659 462 932.319 462 932.999 462C933.494 460.515 933.494 460.515 933.999 459C934.989 459 935.979 459 936.999 459C936.999 457.68 936.999 456.36 936.999 455C937.989 455 938.979 455 939.999 455C939.999 453.35 939.999 451.7 939.999 450C940.989 449.67 941.979 449.34 942.999 449C943.329 448.01 943.659 447.02 943.999 446C944.659 445.67 945.319 445.34 945.999 445C946.329 444.01 946.659 443.02 946.999 442Z" fill="#68A5CE"/>
<path d="M1177 236C1541.65 236 1906.3 236 2282 236C2282 236.99 2282 237.98 2282 239C2282.99 239 2283.98 239 2285 239C2285 239.99 2285 240.98 2285 242C2286.65 242 2288.3 242 2290 242C2290.66 243.32 2291.32 244.64 2292 246C2292.99 246 2293.98 246 2295 246C2295 246.99 2295 247.98 2295 249C2296.65 249 2298.3 249 2300 249C2300.33 249.99 2300.66 250.98 2301 252C2302.32 252 2303.64 252 2305 252C2305 253.32 2305 254.64 2305 256C2306.98 256.33 2308.96 256.66 2311 257C2311 257.66 2311 258.32 2311 259C2312.32 259 2313.64 259 2315 259C2315 259.99 2315 260.98 2315 262C2315.99 262 2316.98 262 2318 262C2318 263.32 2318 264.64 2318 266C2320.31 266 2322.62 266 2325 266C2325 266.99 2325 267.98 2325 269C2325.99 269 2326.98 269 2328 269C2328 269.99 2328 270.98 2328 272C2329.32 272 2330.64 272 2332 272C2332 273.32 2332 274.64 2332 276C2333.98 276 2335.96 276 2338 276C2338 276.99 2338 277.98 2338 279C2339.32 279 2340.64 279 2342 279C2342 279.99 2342 280.98 2342 282C2342.99 282 2343.98 282 2345 282C2345 283.32 2345 284.64 2345 286C2346.65 286 2348.3 286 2350 286C2350.33 286.99 2350.66 287.98 2351 289C2352.32 289 2353.64 289 2355 289C2355 289.99 2355 290.98 2355 292C2355.99 292 2356.98 292 2358 292C2358 293.32 2358 294.64 2358 296C2359.65 296.33 2361.3 296.66 2363 297C2363 297.66 2363 298.32 2363 299C2364.65 299.33 2366.3 299.66 2368 300C2368 300.66 2368 301.32 2368 302C2368.99 302 2369.98 302 2371 302C2371.33 303.32 2371.66 304.64 2372 306C2372.99 306 2373.98 306 2375 306C2375 306.99 2375 307.98 2375 309C2375.99 309 2376.98 309 2378 309C2378 309.99 2378 310.98 2378 312C2379.32 312 2380.64 312 2382 312C2382 313.32 2382 314.64 2382 316C2383.65 316.33 2385.3 316.66 2387 317C2387 317.66 2387 318.32 2387 319C2388.32 319 2389.64 319 2391 319C2391 319.99 2391 320.98 2391 322C2392.32 322.33 2393.64 322.66 2395 323C2395 323.99 2395 324.98 2395 326C2395.99 326 2396.98 326 2398 326C2398 326.99 2398 327.98 2398 329C2399.32 329 2400.64 329 2402 329C2402 329.99 2402 330.98 2402 332C2402.99 332 2403.98 332 2405 332C2405 333.32 2405 334.64 2405 336C2405.99 336 2406.98 336 2408 336C2408 336.99 2408 337.98 2408 339C2409.32 339 2410.64 339 2412 339C2412 339.99 2412 340.98 2412 342C2412.99 342 2413.98 342 2415 342C2415 343.32 2415 344.64 2415 346C2416.65 346.33 2418.3 346.66 2420 347C2420 347.66 2420 348.32 2420 349C2420.58 349.082 2421.16 349.165 2421.75 349.25C2424.65 350.218 2426.04 351.687 2428 354C2428 354.66 2428 355.32 2428 356C2428.99 356 2429.98 356 2431 356C2431 356.99 2431 357.98 2431 359C2432.32 359.33 2433.64 359.66 2435 360C2435 360.66 2435 361.32 2435 362C2435.99 362.33 2436.98 362.66 2438 363C2438 363.99 2438 364.98 2438 366C2439.32 366.33 2440.64 366.66 2442 367C2441.67 368.65 2441.34 370.3 2441 372C1974.38 372 1507.76 372 1027 372C1027 366.72 1027 361.44 1027 356C1027.99 356 1028.98 356 1030 356C1030 354.68 1030 353.36 1030 352C1030.99 352 1031.98 352 1033 352C1033 351.01 1033 350.02 1033 349C1034.32 349 1035.64 349 1037 349C1037 348.01 1037 347.02 1037 346C1037.99 346 1038.98 346 1040 346C1040 344.68 1040 343.36 1040 342C1040.99 342 1041.98 342 1043 342C1043.5 340.515 1043.5 340.515 1044 339C1044.99 339 1045.98 339 1047 339C1047 338.01 1047 337.02 1047 336C1047.99 336 1048.98 336 1050 336C1050.66 334.68 1051.32 333.36 1052 332C1052.66 332 1053.32 332 1054 332C1054.5 330.515 1054.5 330.515 1055 329C1055.99 329 1056.98 329 1058 329C1058 328.34 1058 327.68 1058 327C1060.47 326.505 1060.47 326.505 1063 326C1063 324.68 1063 323.36 1063 322C1064.32 322 1065.64 322 1067 322C1067 321.01 1067 320.02 1067 319C1067.99 319 1068.98 319 1070 319C1070 318.01 1070 317.02 1070 316C1070.99 316 1071.98 316 1073 316C1073.49 314.02 1073.49 314.02 1074 312C1074.99 312 1075.98 312 1077 312C1077.49 310.515 1077.49 310.515 1078 309C1079.32 309 1080.64 309 1082 309C1082.49 307.515 1082.49 307.515 1083 306C1084.32 306 1085.64 306 1087 306C1087 304.68 1087 303.36 1087 302C1087.99 302 1088.98 302 1090 302C1090 301.01 1090 300.02 1090 299C1090.99 299 1091.98 299 1093 299C1093 298.01 1093 297.02 1093 296C1094.32 296 1095.64 296 1097 296C1097.33 294.68 1097.66 293.36 1098 292C1099.65 292 1101.3 292 1103 292C1103 291.01 1103 290.02 1103 289C1104.32 289 1105.64 289 1107 289C1107 288.01 1107 287.02 1107 286C1107.99 286 1108.98 286 1110 286C1110.04 285.402 1110.08 284.804 1110.12 284.188C1111 282 1111 282 1113.88 280.25C1117 279 1117 279 1120 279C1120 278.01 1120 277.02 1120 276C1120.99 276 1121.98 276 1123 276C1123.06 275.402 1123.12 274.804 1123.19 274.188C1124.35 271.056 1126.03 270.381 1129 269C1130.32 269 1131.64 269 1133 269C1133 268.01 1133 267.02 1133 266C1134.32 266 1135.64 266 1137 266C1137 264.68 1137 263.36 1137 262C1140.32 260.578 1143.44 259.61 1147 259C1147 258.01 1147 257.02 1147 256C1147.99 256 1148.98 256 1150 256C1150.5 254.515 1150.5 254.515 1151 253C1152.98 252.67 1154.96 252.34 1157 252C1157 251.01 1157 250.02 1157 249C1157.99 249 1158.98 249 1160 249C1160 248.01 1160 247.02 1160 246C1162.31 246 1164.62 246 1167 246C1167 244.68 1167 243.36 1167 242C1167.99 242 1168.98 242 1170 242C1170 241.01 1170 240.02 1170 239C1172.31 239 1174.62 239 1177 239C1177 238.01 1177 237.02 1177 236Z" fill="#7FB9DB"/>
<path d="M770 769C1402.94 769 2035.88 769 2688 769C2688 772.3 2688 775.6 2688 779C2688.99 779 2689.98 779 2691 779C2691 782.63 2691 786.26 2691 790C2691.66 790 2692.32 790 2693 790C2693 790.66 2693 791.32 2693 792C2693.66 792 2694.32 792 2695 792C2695 795.3 2695 798.6 2695 802C2695.99 802 2696.98 802 2698 802C2698 805.96 2698 809.92 2698 814C2698.99 814.33 2699.98 814.66 2701 815C2701 818.63 2701 822.26 2701 826C2701.66 826 2702.32 826 2703 826C2703 832.27 2703 838.54 2703 845C2059.17 845 1415.34 845 752 845C752 840.71 752 836.42 752 832C752.66 832 753.32 832 754 832C754 828.04 754 824.08 754 820C755.485 819.505 755.485 819.505 757 819C757 815.7 757 812.4 757 809C757.99 809 758.98 809 760 809C760 805.04 760 801.08 760 797C761.32 796.34 762.64 795.68 764 795C764 791.7 764 788.4 764 785C764.99 785 765.98 785 767 785C767 781.7 767 778.4 767 775C767.66 774.67 768.32 774.34 769 774C769.33 772.35 769.66 770.7 770 769Z" fill="#2D7BAF"/>
<path d="M833.06 618.875C834.438 618.875 834.438 618.875 835.844 618.875C837.431 618.872 837.431 618.872 839.051 618.868C840.231 618.871 841.411 618.873 842.627 618.876C843.874 618.874 845.121 618.873 846.406 618.872C849.905 618.868 853.404 618.871 856.903 618.875C860.709 618.878 864.516 618.875 868.323 618.873C875.032 618.871 881.742 618.872 888.452 618.875C898.496 618.88 908.541 618.879 918.586 618.878C935.701 618.875 952.816 618.876 969.931 618.881C987.286 618.885 1004.64 618.887 1022 618.887C1023.09 618.887 1024.19 618.887 1025.31 618.887C1030.89 618.887 1036.47 618.886 1042.05 618.886C1082.48 618.885 1122.91 618.888 1163.35 618.894C1203.4 618.9 1243.46 618.904 1283.51 618.905C1284.75 618.905 1285.99 618.905 1287.28 618.905C1298.63 618.906 1309.98 618.906 1321.33 618.906C1349.55 618.907 1377.77 618.908 1405.99 618.909C1407.28 618.909 1408.56 618.909 1409.89 618.909C1450.86 618.911 1491.83 618.914 1532.81 618.918C1533.8 618.918 1533.8 618.918 1534.82 618.918C1555.06 618.92 1575.29 618.922 1595.52 618.924C1617.92 618.927 1640.31 618.929 1662.7 618.931C1663.37 618.931 1664.05 618.931 1664.74 618.932C1728.67 618.938 1792.61 618.942 1856.54 618.945C1859.25 618.945 1861.96 618.945 1864.67 618.945C1889.58 618.947 1914.5 618.948 1939.42 618.949C1940.08 618.949 1940.74 618.949 1941.42 618.949C1943.43 618.949 1945.44 618.949 1947.44 618.949C2001 618.952 2054.55 618.954 2108.11 618.957C2110.66 618.958 2113.21 618.958 2115.76 618.958C2230.62 618.964 2345.48 618.973 2460.33 618.984C2461.41 618.984 2462.48 618.984 2463.59 618.984C2517.39 618.989 2571.2 618.995 2625 619C2625 619.99 2625 620.98 2625 622C2625.66 622 2626.32 622 2627 622C2627.33 624.31 2627.66 626.62 2628 629C2628.99 629 2629.98 629 2631 629C2631 631.31 2631 633.62 2631 636C2631.99 636 2632.98 636 2634 636C2634.2 636.566 2634.41 637.132 2634.62 637.715C2634.89 638.448 2635.16 639.182 2635.44 639.937C2635.84 641.034 2635.84 641.034 2636.25 642.152C2636.85 643.983 2636.85 643.983 2638 645C2638.04 646.666 2638.04 648.334 2638 650C2638.66 650 2639.32 650 2640 650C2641.48 652.957 2641.06 655.742 2641 659C2642.32 659 2643.64 659 2645 659C2645 660.98 2645 662.96 2645 665C2645.99 665.33 2646.98 665.66 2648 666C2648 667.98 2648 669.96 2648 672C2648.99 672 2649.98 672 2651 672C2651.1 673.093 2651.21 674.186 2651.31 675.312C2651.61 678.922 2651.61 678.922 2653.56 680.5C2655 682 2655 682 2655.19 685.687C2655.13 686.781 2655.06 687.874 2655 689C2655.99 689 2656.98 689 2658 689C2658 691.97 2658 694.94 2658 698C2655.46 699.268 2653.71 699.125 2650.87 699.125C2649.23 699.129 2649.23 699.129 2647.55 699.133C2645.72 699.129 2645.72 699.129 2643.86 699.125C2642.57 699.127 2641.28 699.128 2639.95 699.13C2636.33 699.133 2632.71 699.131 2629.1 699.127C2625.16 699.125 2621.23 699.128 2617.29 699.13C2610.35 699.134 2603.42 699.133 2596.48 699.131C2586.1 699.126 2575.71 699.128 2565.33 699.131C2547.63 699.136 2529.94 699.135 2512.24 699.133C2494.3 699.13 2476.36 699.129 2458.42 699.131C2456.72 699.132 2456.72 699.132 2454.99 699.132C2450.38 699.132 2445.77 699.133 2441.17 699.133C2398.2 699.139 2355.24 699.139 2312.28 699.136C2311.01 699.136 2309.73 699.136 2308.42 699.136C2307.14 699.136 2305.87 699.136 2304.55 699.136C2265.72 699.133 2226.88 699.133 2188.05 699.134C2185.45 699.134 2182.86 699.134 2180.26 699.134C2169.82 699.134 2159.39 699.135 2148.95 699.135C2119.77 699.136 2090.59 699.136 2061.41 699.137C2060.75 699.137 2060.09 699.137 2059.4 699.137C2016.37 699.137 1973.33 699.136 1930.3 699.134C1929.61 699.134 1928.93 699.134 1928.22 699.134C1905.2 699.133 1882.18 699.131 1859.16 699.13C1789.55 699.126 1719.93 699.124 1595.61 699.13C1572.59 699.131 1549.58 699.133 1526.56 699.134C1525.53 699.134 1525.53 699.134 1524.48 699.134C1481.47 699.136 1438.46 699.137 1395.45 699.137C1394.78 699.137 1394.12 699.137 1393.44 699.137C1363.62 699.136 1333.81 699.136 1303.99 699.135C1293.56 699.135 1283.14 699.134 1272.71 699.134C1270.11 699.134 1267.52 699.134 1264.93 699.134C1226.1 699.132 1187.27 699.133 1148.44 699.136C1147.17 699.136 1145.9 699.136 1144.58 699.136C1142.67 699.136 1142.67 699.136 1140.73 699.137C1097.9 699.139 1055.06 699.138 1012.23 699.133C1007.64 699.132 1003.04 699.132 998.451 699.131C997.324 699.131 996.197 699.131 995.035 699.131C977.136 699.129 959.236 699.13 941.336 699.133C923.766 699.136 906.195 699.135 888.625 699.13C878.304 699.127 867.983 699.128 857.662 699.132C850.826 699.134 843.991 699.133 837.155 699.129C833.268 699.126 829.381 699.126 825.494 699.13C821.335 699.133 817.175 699.13 813.016 699.125C811.186 699.129 811.186 699.129 809.319 699.133C808.225 699.13 807.131 699.128 806.003 699.125C805.054 699.125 804.104 699.125 803.126 699.125C801 699 801 699 800 698C799.927 695.98 799.916 693.958 799.937 691.937C799.946 690.833 799.955 689.728 799.965 688.59C799.976 687.735 799.988 686.881 800 686C801.98 685.01 801.98 685.01 804 684C804 681.36 804 678.72 804 676C804.99 675.505 804.99 675.505 806 675C806.658 671.971 806.658 671.971 807 669C807.99 669 808.98 669 810 669C810 666.69 810 664.38 810 662C811.32 662 812.64 662 814 662C814 659.36 814 656.72 814 654C814.99 653.505 814.99 653.505 816 653C816.165 652.01 816.33 651.02 816.5 650C816.665 649.01 816.83 648.02 817 647C817.66 646.67 818.32 646.34 819 646C820.053 643.69 821.057 641.357 822 639C822.66 639 823.32 639 824 639C824 637.02 824 635.04 824 633C824.99 632.67 825.98 632.34 827 632C827 630.02 827 628.04 827 626C827.99 626 828.98 626 830 626C829.979 625.031 829.959 624.061 829.937 623.062C830.019 619.059 830.019 619.059 833.06 618.875Z" fill="#478EBD"/>
<path d="M471 1410C1300.62 1410 2130.24 1410 2985 1410C2985 1422.21 2985 1434.42 2985 1447C2155.38 1447 1325.76 1447 471 1447C471 1434.79 471 1422.58 471 1410Z" fill="#005998"/>
<path d="M471 919C1300.62 919 2130.24 919 2985 919C2985 931.21 2985 943.42 2985 956C2155.38 956 1325.76 956 471 956C471 943.79 471 931.58 471 919Z" fill="#005998"/>
<path d="M1686 74C1714.05 74 1742.1 74 1771 74C1771 74.66 1771 75.32 1771 76C1787.5 76 1804 76 1821 76C1821.33 76.99 1821.66 77.98 1822 79C1831.9 79 1841.8 79 1852 79C1852 79.66 1852 80.32 1852 81C1852.68 81.0198 1853.35 81.0396 1854.05 81.0601C1857.12 81.1554 1860.18 81.2651 1863.25 81.375C1864.31 81.4059 1865.38 81.4369 1866.47 81.4688C1867.5 81.5074 1868.52 81.5461 1869.58 81.5859C1870.52 81.6174 1871.46 81.6488 1872.43 81.6812C1875.05 82.006 1876.74 82.6768 1879 84C1879 84.66 1879 85.32 1879 86C1879.6 85.9948 1880.19 85.9895 1880.8 85.9841C1883.49 85.9634 1886.18 85.9503 1888.87 85.9375C1889.81 85.9291 1890.75 85.9207 1891.71 85.9121C1893.06 85.9073 1893.06 85.9073 1894.43 85.9023C1895.26 85.8971 1896.08 85.8919 1896.94 85.8865C1899 86 1899 86 1901 87C1901 87.66 1901 88.32 1901 89C1901.98 88.9768 1902.95 88.9536 1903.96 88.9297C1905.23 88.9116 1906.5 88.8936 1907.81 88.875C1909.08 88.8518 1910.34 88.8286 1911.64 88.8047C1915 89 1915 89 1918 91C1920.32 91.2711 1922.66 91.448 1925 91.5625C1931.72 91.9053 1931.72 91.9053 1935 93C1935 93.99 1935 94.98 1935 96C1940.28 96 1945.56 96 1951 96C1951.33 96.99 1951.66 97.98 1952 99C1955.96 99 1959.92 99 1964 99C1964.33 99.99 1964.66 100.98 1965 102C1965.68 101.977 1966.35 101.954 1967.05 101.93C1968.38 101.903 1968.38 101.903 1969.75 101.875C1971.07 101.84 1971.07 101.84 1972.42 101.805C1975.11 102.009 1976.7 102.634 1979 104C1979 104.66 1979 105.32 1979 106C1983.29 106 1987.58 106 1992 106C1992 106.99 1992 107.98 1992 109C1993.03 108.965 1993.03 108.965 1994.08 108.93C1994.98 108.912 1995.88 108.894 1996.81 108.875C1997.71 108.852 1998.6 108.829 1999.52 108.805C2002 109 2002 109 2005 111C2006.71 111.437 2008.45 111.808 2010.19 112.125C2011.09 112.293 2011.99 112.46 2012.92 112.633C2013.6 112.754 2014.29 112.875 2015 113C2015 113.99 2015 114.98 2015 116C2018.3 116 2021.6 116 2025 116C2025 116.99 2025 117.98 2025 119C2028.3 119 2031.6 119 2035 119C2035 119.99 2035 120.98 2035 122C2036.03 121.965 2036.03 121.965 2037.08 121.93C2037.98 121.912 2038.88 121.894 2039.81 121.875C2040.71 121.852 2041.6 121.829 2042.52 121.805C2045 122 2045 122 2048 124C2048 124.66 2048 125.32 2048 126C2049.67 125.969 2049.67 125.969 2051.37 125.938C2055 126 2055 126 2057 127C2057 127.66 2057 128.32 2057 129C2059.64 129 2062.28 129 2065 129C2065 129.99 2065 130.98 2065 132C2067.97 132 2070.94 132 2074 132C2074.33 133.32 2074.66 134.64 2075 136C2077.97 136 2080.94 136 2084 136C2084.33 136.99 2084.66 137.98 2085 139C2087.31 139 2089.62 139 2092 139C2092 139.99 2092 140.98 2092 142C2094.97 142 2097.94 142 2101 142C2101.33 143.32 2101.66 144.64 2102 146C2104.31 146 2106.62 146 2109 146C2109 146.99 2109 147.98 2109 149C2110.28 148.959 2111.56 148.918 2112.87 148.875C2115.05 148.805 2115.05 148.805 2117 149C2117.66 149.66 2118.32 150.32 2119 151C2120.98 151.714 2122.98 152.386 2125 153C2125 153.99 2125 154.98 2125 156C2127.31 156 2129.62 156 2132 156C2132 156.99 2132 157.98 2132 159C2134.97 159 2137.94 159 2141 159C2141.33 159.66 2141.66 160.32 2142 161C2142.99 161.165 2143.98 161.33 2145 161.5C2145.99 161.665 2146.98 161.83 2148 162C2149.49 164.982 2149.12 167.716 2149 171C2148 172 2148 172 2145.66 172.125C2144.61 172.125 2143.56 172.124 2142.48 172.124C2140.67 172.128 2140.67 172.128 2138.82 172.131C2137.46 172.128 2136.1 172.126 2134.74 172.123C2133.31 172.124 2131.87 172.125 2130.44 172.127C2126.46 172.13 2122.47 172.126 2118.49 172.122C2114.18 172.119 2109.86 172.121 2105.54 172.123C2097.96 172.125 2090.39 172.123 2082.81 172.119C2071.54 172.113 2060.27 172.113 2049 172.114C2030.05 172.115 2011.1 172.112 1992.14 172.106C1973.37 172.1 1954.59 172.096 1935.82 172.095C1934.65 172.095 1933.49 172.095 1932.29 172.095C1926.37 172.094 1920.45 172.094 1914.53 172.094C1872.55 172.092 1830.58 172.085 1788.61 172.075C1747.83 172.066 1707.04 172.059 1666.26 172.055C1665 172.055 1663.75 172.055 1662.45 172.055C1649.83 172.053 1637.22 172.052 1624.6 172.051C1598.9 172.048 1573.2 172.045 1547.49 172.042C1545.72 172.042 1545.72 172.042 1543.91 172.042C1464.94 172.033 1385.97 172.017 1307 172C1305.9 167.281 1305.9 167.281 1306.81 164.75C1308 163 1308 163 1310 162C1312 161.96 1314 161.957 1316 162C1316.33 161.01 1316.66 160.02 1317 159C1318.98 159 1320.96 159 1323 159C1323 158.01 1323 157.02 1323 156C1325.31 156 1327.62 156 1330 156C1330.49 154.515 1330.49 154.515 1331 153C1333.96 151.522 1336.74 151.94 1340 152C1340 151.01 1340 150.02 1340 149C1341.98 149 1343.96 149 1346 149C1346.49 147.515 1346.49 147.515 1347 146C1348.98 146 1350.96 146 1353 146C1353.49 144.515 1353.49 144.515 1354 143C1356.96 141.522 1359.74 141.94 1363 142C1363.49 140.515 1363.49 140.515 1364 139C1366.97 139 1369.94 139 1373 139C1373 138.01 1373 137.02 1373 136C1375.64 136 1378.28 136 1381 136C1381 135.34 1381 134.68 1381 134C1381.66 134 1382.32 134 1383 134C1383 133.34 1383 132.68 1383 132C1385.31 132 1387.62 132 1390 132C1390.33 131.01 1390.66 130.02 1391 129C1393.97 129 1396.94 129 1400 129C1400 128.01 1400 127.02 1400 126C1403.3 126 1406.6 126 1410 126C1410.33 124.68 1410.66 123.36 1411 122C1413.97 122 1416.94 122 1420 122C1420.33 121.01 1420.66 120.02 1421 119C1423.97 119 1426.94 119 1430 119C1430.33 118.01 1430.66 117.02 1431 116C1434.96 116 1438.92 116 1443 116C1443.33 114.68 1443.66 113.36 1444 112C1446.97 112 1449.94 112 1453 112C1453 111.01 1453 110.02 1453 109C1457.29 109 1461.58 109 1466 109C1466 108.01 1466 107.02 1466 106C1470.62 106 1475.24 106 1480 106C1480 104.68 1480 103.36 1480 102C1484.29 102 1488.58 102 1493 102C1493 101.01 1493 100.02 1493 99C1497.29 99 1501.58 99 1506 99C1506 98.01 1506 97.02 1506 96C1511.61 96 1517.22 96 1523 96C1523.33 94.68 1523.66 93.36 1524 92C1525.07 91.951 1526.14 91.902 1527.25 91.8516C1528.64 91.7765 1530.04 91.701 1531.44 91.625C1532.14 91.5941 1532.85 91.5631 1533.58 91.5312C1535.39 91.4272 1537.2 91.2208 1539 91C1539.33 90.34 1539.66 89.68 1540 89C1545.28 89 1550.56 89 1556 89C1556.33 88.01 1556.66 87.02 1557 86C1564.26 86 1571.52 86 1579 86C1579.66 84.68 1580.32 83.36 1581 82C1588.26 82 1595.52 82 1603 82C1603.33 81.01 1603.66 80.02 1604 79C1614.56 79 1625.12 79 1636 79C1636 78.01 1636 77.02 1636 76C1652.5 76 1669 76 1686 76C1686 75.34 1686 74.68 1686 74Z" fill="#93CBE8"/>
<path d="M178.562 1037.63C179.267 1037.63 179.972 1037.63 180.699 1037.63C191.922 1037.65 202.248 1038.67 213 1042C214.521 1042.4 214.521 1042.4 216.074 1042.81C229.182 1046.56 242.849 1053.9 253 1063C253.791 1063.66 254.583 1064.33 255.398 1065.01C275.459 1082.23 286.91 1104.47 292 1130C292.184 1130.78 292.368 1131.56 292.558 1132.36C296.778 1157.64 293.094 1185.35 281 1208C280.453 1209.03 279.906 1210.05 279.343 1211.11C275.51 1217.97 271.072 1224.01 266 1230C265.497 1230.64 264.994 1231.27 264.476 1231.93C260.592 1236.76 255.987 1240.35 251 1244C257.872 1253.41 265.374 1262.29 272.912 1271.16C276.551 1275.45 280.115 1279.8 283.66 1284.16C285.399 1286.27 287.153 1288.36 288.933 1290.43C289.432 1291.02 289.931 1291.6 290.445 1292.2C291.417 1293.33 292.392 1294.46 293.371 1295.59C295.68 1298.28 297.493 1300.8 299 1304C290.359 1304.42 281.723 1304.74 273.075 1304.93C269.057 1305.03 265.047 1305.15 261.033 1305.36C235.266 1306.64 235.266 1306.64 228.331 1302.35C224.058 1298.29 221.407 1293.56 219.009 1288.22C217.681 1285.3 215.982 1282.71 214.195 1280.05C213.683 1279.25 213.171 1278.44 212.643 1277.61C207.91 1270.1 207.91 1270.1 200.449 1266.03C197.206 1266.28 194.209 1266.81 191.054 1267.58C187.349 1268.34 183.642 1268.28 179.875 1268.25C179.082 1268.25 178.289 1268.25 177.472 1268.24C145.118 1267.81 116.042 1255.76 93.3158 1232.73C71.9509 1210.23 62.3747 1180.53 62.6483 1149.84C63.5052 1117.5 76.2089 1089.82 98.9996 1067C120.887 1047.02 149.329 1037.55 178.562 1037.63ZM134.345 1106.41C120.434 1122.84 118.561 1144.56 120.17 1165.18C121.97 1181.22 130.07 1195.79 142.441 1206.02C153.133 1213.97 165.087 1217.41 178.312 1217.31C179.556 1217.3 179.556 1217.3 180.826 1217.3C195.802 1217 208.872 1211.84 219.75 1201.41C234.076 1186.04 237.831 1167.49 237.273 1147.08C236.508 1130.09 230.792 1114.67 218.769 1102.41C194.543 1081.36 156.343 1082.74 134.345 1106.41Z" fill="#005998"/>
<path d="M1249 1041C1376.38 1041 1376.38 1041 1399 1060C1399.64 1060.53 1400.28 1061.06 1400.95 1061.61C1412.17 1071.8 1419.29 1088.42 1420.14 1103.46C1420.94 1126.05 1417.9 1144.61 1402.63 1162.37C1390.58 1174.42 1375.66 1180.92 1359 1184C1358.18 1184.17 1357.37 1184.35 1356.52 1184.53C1351.57 1185.19 1346.68 1185.12 1341.7 1185.1C1340.74 1185.1 1339.78 1185.1 1338.79 1185.09C1335.24 1185.09 1331.68 1185.08 1328.12 1185.06C1320.16 1185.04 1312.2 1185.02 1304 1185C1304 1211.73 1304 1238.46 1304 1266C1285.85 1266 1267.7 1266 1249 1266C1249 1191.75 1249 1117.5 1249 1041ZM1304 1086C1304 1104.15 1304 1122.3 1304 1141C1312.6 1141.09 1312.6 1141.09 1321.38 1141.19C1324.06 1141.23 1324.06 1141.23 1326.79 1141.27C1337.51 1141.37 1347.29 1141.09 1356 1134C1361.84 1128.16 1364.09 1121.86 1364.44 1113.62C1364.23 1106.47 1361.87 1100.31 1358.38 1094.12C1350.99 1087.52 1342.88 1085.84 1333.3 1085.9C1332.18 1085.9 1332.18 1085.9 1331.05 1085.91C1328.28 1085.91 1325.52 1085.92 1322.75 1085.94C1316.56 1085.96 1310.38 1085.98 1304 1086Z" fill="#005998"/>
<path d="M1115.55 1140.96C1119.84 1144.63 1122.96 1148.21 1126 1153C1126.59 1152.29 1127.19 1151.57 1127.8 1150.84C1136.85 1140.38 1147.94 1132.1 1162 1130C1179.56 1128.89 1195.11 1130.87 1209.25 1142.19C1220.01 1152.2 1225.38 1166.69 1226.11 1181.14C1226.28 1187.16 1226.23 1193.18 1226.2 1199.2C1226.19 1201.14 1226.19 1203.07 1226.19 1205C1226.18 1210.05 1226.16 1215.1 1226.14 1220.15C1226.11 1226.23 1226.1 1232.31 1226.09 1238.39C1226.07 1247.6 1226.03 1256.8 1226 1266C1212.14 1266 1198.28 1266 1184 1266C1183.96 1260.33 1183.93 1254.66 1183.89 1248.82C1183.86 1245.21 1183.83 1241.61 1183.79 1238C1183.74 1232.29 1183.69 1226.57 1183.65 1220.86C1183.63 1216.25 1183.59 1211.64 1183.54 1207.03C1183.52 1205.27 1183.51 1203.52 1183.5 1201.77C1183.81 1187.12 1183.81 1187.12 1177.75 1174.19C1170.88 1168.72 1164.86 1166.42 1156 1167C1149.09 1168.31 1143.5 1170.45 1139 1176C1133.92 1185.22 1134.4 1195.16 1134.39 1205.36C1134.38 1207.11 1134.36 1208.87 1134.34 1210.62C1134.3 1215.21 1134.28 1219.79 1134.26 1224.38C1134.24 1229.9 1134.19 1235.42 1134.14 1240.94C1134.07 1249.29 1134.04 1257.65 1134 1266C1120.14 1266 1106.28 1266 1092 1266C1091.94 1257.37 1091.94 1257.37 1091.89 1248.56C1091.86 1244.91 1091.83 1241.25 1091.79 1237.6C1091.74 1231.8 1091.69 1226.01 1091.65 1220.21C1091.63 1215.54 1091.59 1210.86 1091.54 1206.19C1091.52 1204.41 1091.51 1202.63 1091.5 1200.85C1091.49 1198.35 1091.46 1195.84 1091.43 1193.34C1091.43 1192.62 1091.44 1191.89 1091.44 1191.14C1091.32 1184.67 1089.89 1179.19 1085.56 1174.19C1084.72 1173.47 1083.87 1172.74 1083 1172C1082.4 1171.44 1081.8 1170.89 1081.19 1170.31C1075.29 1166.78 1068.23 1166.19 1061.59 1167.46C1055.01 1169.14 1049.53 1171.77 1045.94 1177.77C1043.27 1183.64 1042.85 1189.37 1042.79 1195.73C1042.78 1196.49 1042.77 1197.25 1042.76 1198.04C1042.73 1200.54 1042.71 1203.05 1042.68 1205.55C1042.66 1207.29 1042.64 1209.03 1042.62 1210.78C1042.57 1215.35 1042.52 1219.93 1042.47 1224.5C1042.41 1230 1042.34 1235.49 1042.28 1240.98C1042.18 1249.32 1042.09 1257.66 1042 1266C1028.14 1266 1014.28 1266 1000 1266C1000 1221.45 1000 1176.9 1000 1131C1013.86 1131 1027.72 1131 1042 1131C1042.49 1137.93 1042.49 1137.93 1043 1145C1044.07 1143.97 1045.15 1142.94 1046.25 1141.87C1065.51 1125.07 1095.62 1125.64 1115.55 1140.96Z" fill="#005998"/>
<path d="M542.001 1140C544.246 1142.23 546.08 1144.47 548.001 1147C548.331 1141.72 548.661 1136.44 549.001 1131C562.861 1131 576.721 1131 591.001 1131C591.001 1175.55 591.001 1220.1 591.001 1266C577.141 1266 563.281 1266 549.001 1266C548.671 1260.72 548.341 1255.44 548.001 1250C545.526 1252.97 545.526 1252.97 543.001 1256C530.267 1265.8 516.665 1268.96 500.739 1267.53C485.277 1265.33 472.913 1258.05 463.001 1246C449.986 1227.56 446.379 1204.71 449.823 1182.65C453.091 1164.52 461.822 1148.45 477.016 1137.86C497.074 1125.36 522.943 1125.86 542.001 1140ZM498.7 1175.49C491.553 1184.64 491.025 1194.8 492.001 1206C493.909 1215.29 498.661 1221.63 506.063 1227.37C513.141 1231.29 520.519 1232.47 528.43 1230.35C537.329 1226.76 543.034 1221.04 547.09 1212.43C550.664 1202.89 550.205 1191.25 546.001 1182C542.011 1175.05 536.357 1170.13 529.188 1166.62C517.815 1164.39 506.586 1166.45 498.7 1175.49Z" fill="#005998"/>
<path d="M1873.84 1146.69C1887.89 1160.6 1893.07 1178.39 1893.25 1197.75C1893.19 1201.76 1892.8 1205.02 1892 1209C1861.64 1209 1831.28 1209 1800 1209C1803.32 1221.84 1803.32 1221.84 1812.44 1229.81C1819.15 1232.95 1826.25 1233.32 1833.39 1231.34C1837.17 1229.67 1839.25 1227.77 1841.57 1224.39C1843.43 1222.19 1844.47 1221.14 1847.27 1220.38C1850.01 1220.19 1852.68 1220.21 1855.43 1220.32C1856.42 1220.33 1857.41 1220.34 1858.43 1220.35C1861.58 1220.39 1864.73 1220.47 1867.87 1220.56C1870.02 1220.6 1872.16 1220.63 1874.3 1220.66C1879.53 1220.74 1884.77 1220.85 1890 1221C1887.31 1229.62 1884.28 1236.65 1879 1244C1878.56 1244.64 1878.12 1245.27 1877.67 1245.93C1868.68 1257.7 1852.27 1265.33 1837.92 1267.28C1817.03 1269.28 1797.84 1266.05 1780.68 1253.27C1767.7 1242.47 1760 1226.61 1758 1210C1756.3 1189.25 1758.91 1169.62 1771.87 1152.69C1782.36 1140.37 1795.96 1132.71 1812 1130C1812.77 1129.86 1813.54 1129.72 1814.33 1129.57C1835.51 1126.58 1858.15 1131.85 1873.84 1146.69ZM1805 1172C1801.86 1176.23 1800.89 1179.68 1800 1185C1816.5 1185 1833 1185 1850 1185C1848.86 1177 1847.38 1172.63 1841.19 1167.69C1829.58 1159.65 1814.39 1161.56 1805 1172Z" fill="#005998"/>
<path d="M722 1138C733.711 1147 740.366 1158.51 743 1173C744.299 1183.26 744.129 1193.57 744.098 1203.89C744.096 1205.69 744.094 1207.49 744.093 1209.29C744.09 1213.98 744.08 1218.68 744.069 1223.37C744.057 1229.03 744.052 1234.68 744.046 1240.34C744.037 1248.89 744.017 1257.45 744 1266C730.14 1266 716.28 1266 702 1266C701.963 1260.41 701.925 1254.83 701.887 1249.07C701.856 1245.52 701.825 1241.96 701.791 1238.41C701.737 1232.77 701.686 1227.14 701.654 1221.51C701.627 1216.96 701.587 1212.42 701.537 1207.87C701.52 1206.14 701.509 1204.42 701.502 1202.69C701.723 1185.82 701.723 1185.82 693.855 1171.47C688.252 1167.02 681.596 1165.28 674.516 1165.62C668.332 1166.55 662.907 1168.58 658.562 1173.19C651.792 1182.65 652.528 1193.28 652.488 1204.38C652.471 1206.16 652.453 1207.94 652.434 1209.72C652.387 1214.38 652.357 1219.04 652.33 1223.7C652.295 1229.31 652.238 1234.91 652.185 1240.52C652.107 1249.01 652.056 1257.51 652 1266C638.14 1266 624.28 1266 610 1266C610 1221.45 610 1176.9 610 1131C623.86 1131 637.72 1131 652 1131C652.495 1138.42 652.495 1138.42 653 1146C654.65 1144.35 656.3 1142.7 658 1141C675.587 1127.13 703.268 1124.8 722 1138Z" fill="#005998"/>
<path d="M305 1131C318.53 1131 332.06 1131 346 1131C346.037 1136.51 346.075 1142.03 346.113 1147.71C346.144 1151.22 346.175 1154.73 346.209 1158.24C346.263 1163.8 346.314 1169.36 346.347 1174.92C346.373 1179.41 346.413 1183.89 346.463 1188.38C346.48 1190.09 346.491 1191.79 346.498 1193.5C346.538 1210.48 346.538 1210.48 354.149 1225.3C359.752 1230.44 366.933 1231.69 374.324 1231.39C382.474 1230.21 387.649 1226.22 392.688 1219.88C397.099 1210.21 396.34 1198.93 396.414 1188.52C396.433 1186.85 396.452 1185.19 396.473 1183.52C396.524 1179.17 396.564 1174.83 396.601 1170.48C396.648 1165.24 396.71 1160 396.769 1154.77C396.857 1146.85 396.927 1138.92 397 1131C410.86 1131 424.72 1131 439 1131C439 1175.55 439 1220.1 439 1266C425.14 1266 411.28 1266 397 1266C396.67 1260.72 396.34 1255.44 396 1250C394.453 1251.76 394.453 1251.76 392.875 1253.56C384.019 1262.43 371.63 1267.14 359.201 1267.38C358.018 1267.38 358.018 1267.38 356.813 1267.38C355.984 1267.37 355.155 1267.37 354.302 1267.37C347.041 1267.23 340.726 1265.78 334 1263C333.245 1262.7 332.489 1262.4 331.711 1262.09C322.773 1258.1 316.858 1251.31 312 1243C311.62 1242.37 311.24 1241.75 310.848 1241.11C303.897 1228.65 304.594 1214.61 304.707 1200.82C304.713 1198.8 304.717 1196.78 304.72 1194.76C304.731 1189.48 304.761 1184.2 304.794 1178.92C304.83 1172.57 304.844 1166.21 304.861 1159.85C304.89 1150.24 304.948 1140.62 305 1131Z" fill="#005898"/>
<path d="M1429 1131C1442.53 1131 1456.06 1131 1470 1131C1470.05 1136.29 1470.1 1141.57 1470.15 1147.02C1470.18 1150.39 1470.22 1153.76 1470.26 1157.12C1470.32 1162.46 1470.38 1167.79 1470.42 1173.13C1470.46 1177.43 1470.51 1181.74 1470.56 1186.04C1470.58 1187.68 1470.59 1189.31 1470.6 1190.95C1470.28 1209.13 1470.28 1209.13 1478 1225C1485.04 1230.69 1492.17 1231.93 1501 1231C1506.55 1229.74 1510.79 1227.82 1514.44 1223.38C1520.75 1213.26 1520.47 1202.49 1520.51 1190.96C1520.53 1189.23 1520.55 1187.49 1520.57 1185.76C1520.61 1181.22 1520.64 1176.69 1520.67 1172.16C1520.7 1166.7 1520.76 1161.24 1520.81 1155.79C1520.89 1147.52 1520.94 1139.26 1521 1131C1534.86 1131 1548.72 1131 1563 1131C1563 1175.55 1563 1220.1 1563 1266C1549.14 1266 1535.28 1266 1521 1266C1520.67 1260.72 1520.34 1255.44 1520 1250C1517.52 1252.97 1517.52 1252.97 1515 1256C1500.61 1266.15 1485.88 1268.89 1468.56 1266.53C1455.63 1263.7 1445.03 1256.77 1437.67 1245.81C1431.3 1235.1 1428.66 1223.97 1428.77 1211.6C1428.77 1210.72 1428.77 1209.84 1428.77 1208.94C1428.77 1206.07 1428.79 1203.2 1428.8 1200.34C1428.81 1198.33 1428.81 1196.33 1428.81 1194.33C1428.82 1189.08 1428.84 1183.84 1428.86 1178.59C1428.89 1172.29 1428.9 1165.98 1428.91 1159.67C1428.93 1150.11 1428.97 1140.56 1429 1131Z" fill="#005998"/>
<path d="M847.999 1131C861.529 1131 875.059 1131 888.999 1131C889.048 1136.45 889.097 1141.91 889.148 1147.53C889.183 1151 889.219 1154.46 889.257 1157.93C889.317 1163.43 889.376 1168.93 889.421 1174.42C889.458 1178.86 889.505 1183.29 889.557 1187.73C889.576 1189.41 889.591 1191.1 889.603 1192.79C889.508 1210.71 889.508 1210.71 897.999 1226C904.817 1230.68 911.866 1231.78 919.999 1231C926.926 1229.05 931.311 1225.48 935.687 1219.81C940.086 1210.39 939.342 1199.57 939.413 1189.4C939.432 1187.71 939.452 1186.02 939.472 1184.33C939.523 1179.91 939.563 1175.5 939.6 1171.08C939.648 1165.77 939.709 1160.45 939.768 1155.14C939.856 1147.09 939.926 1139.05 939.999 1131C953.859 1131 967.719 1131 981.999 1131C981.999 1175.55 981.999 1220.1 981.999 1266C968.139 1266 954.279 1266 939.999 1266C939.669 1260.72 939.339 1255.44 938.999 1250C937.453 1251.76 937.453 1251.76 935.874 1253.56C927.017 1262.44 914.631 1267.14 902.2 1267.38C888.795 1267.35 878.162 1264.74 866.999 1257C865.422 1255.92 865.422 1255.92 863.812 1254.81C853.469 1244.47 847.901 1229.98 847.875 1215.48C847.879 1214.65 847.882 1213.82 847.886 1212.97C847.886 1212.08 847.886 1211.19 847.885 1210.27C847.886 1207.35 847.894 1204.43 847.902 1201.51C847.904 1199.48 847.905 1197.44 847.906 1195.41C847.91 1190.08 847.92 1184.74 847.931 1179.4C847.943 1173 847.947 1166.59 847.953 1160.18C847.963 1150.45 847.982 1140.73 847.999 1131Z" fill="#005998"/>
<path d="M3061 1147C3062.65 1148.98 3064.3 1150.96 3066 1153C3066.33 1146.73 3066.66 1140.46 3067 1134C3074.59 1134 3082.18 1134 3090 1134C3090.07 1152.83 3090.12 1171.66 3090.16 1190.49C3090.17 1199.23 3090.19 1207.97 3090.23 1216.72C3090.26 1224.34 3090.28 1231.97 3090.28 1239.59C3090.29 1243.63 3090.3 1247.66 3090.32 1251.69C3090.34 1255.5 3090.34 1259.3 3090.34 1263.11C3090.34 1264.5 3090.35 1265.88 3090.36 1267.27C3090.5 1285.41 3085.64 1301.32 3072.8 1314.53C3055.7 1329.65 3035.81 1331.25 3014 1330C2998.22 1328.21 2983.6 1320.8 2973 1309C2967.25 1301.31 2964.56 1293.38 2963 1284C2970.59 1284 2978.18 1284 2986 1284C2987.21 1286.47 2987.21 1286.47 2988.44 1289C2994.16 1299.38 3001.93 1304.27 3013 1308C3017.55 1309.31 3021.98 1309.22 3026.69 1309.25C3027.55 1309.27 3028.41 1309.29 3029.3 1309.31C3040.44 1309.38 3048.77 1305.51 3057 1298C3065.85 1286.99 3066.43 1274.89 3066.19 1261.37C3066.17 1259.88 3066.16 1258.38 3066.15 1256.89C3066.11 1253.26 3066.06 1249.63 3066 1246C3065.29 1246.9 3064.58 1247.79 3063.85 1248.71C3054.76 1259.59 3041.05 1266.56 3027 1268C3009.49 1269.11 2992.94 1265.71 2979.21 1254.29C2964.39 1241.1 2957.57 1223.46 2956.15 1203.92C2955.25 1184.43 2959.98 1165.52 2973.19 1150.75C2984.45 1138.69 2999.38 1131.92 3015.83 1131.04C3033.07 1130.7 3047.99 1135.35 3061 1147ZM2997 1160C2996.11 1160.58 2995.23 1161.15 2994.31 1161.75C2984.7 1171.1 2980.01 1183.28 2979.71 1196.54C2979.6 1209.38 2981.92 1220.07 2989 1231C2989.56 1231.87 2990.11 1232.73 2990.69 1233.62C2999.45 1242.62 3010.63 1247.71 3023.13 1248.25C3034.76 1248.07 3045.72 1243.67 3054.31 1235.84C3065.35 1223.83 3067.91 1209.81 3067.38 1194.05C3066.68 1182.25 3062.37 1173.08 3054.63 1164.31C3037.64 1149.35 3016.11 1146.34 2997 1160Z" fill="#005998"/>
<path d="M1691.09 1128.88C1706.87 1128.38 1722.81 1131.6 1735 1142C1744.23 1150.73 1748.68 1160.6 1751 1173C1751 1173.99 1751 1174.98 1751 1176C1738.13 1176 1725.26 1176 1712 1176C1710.68 1173.03 1709.36 1170.06 1708 1167C1701.41 1161.62 1695.23 1161.37 1687 1162C1682.61 1163.5 1682.61 1163.5 1680 1167C1679.47 1171.88 1679.47 1171.88 1681.6 1176.08C1684.56 1178.45 1687.11 1179.26 1690.75 1180.31C1691.77 1180.62 1691.77 1180.62 1692.82 1180.93C1697.16 1182.22 1701.53 1183.42 1705.9 1184.63C1736.95 1193.28 1736.95 1193.28 1745 1204C1745.48 1204.63 1745.96 1205.26 1746.45 1205.91C1751.71 1213.98 1752.82 1224.41 1751.44 1233.81C1748.66 1245.65 1742.6 1253.31 1732.44 1259.69C1723.02 1264.93 1712.75 1267.57 1702 1268C1701.32 1268.04 1700.65 1268.08 1699.95 1268.12C1680.39 1268.75 1661.73 1263.22 1647.19 1249.81C1639.83 1242.09 1635 1231.73 1635 1221C1648.86 1221 1662.72 1221 1677 1221C1677.99 1223.64 1678.98 1226.28 1680 1229C1682.32 1231.42 1682.32 1231.42 1685 1233C1685.6 1233.39 1686.2 1233.78 1686.81 1234.19C1693.26 1236.58 1699.61 1236.44 1706 1234C1709.23 1232.02 1709.23 1232.02 1711 1229C1711 1225.59 1710.91 1223.21 1708.82 1220.43C1706.33 1218.47 1703.9 1217.73 1700.88 1216.75C1700.24 1216.54 1699.61 1216.34 1698.96 1216.13C1691.35 1213.7 1683.63 1211.64 1675.92 1209.59C1662.85 1206.04 1650.19 1201.16 1643 1189C1637.99 1179.62 1637.97 1168.01 1641 1158C1645.77 1146.57 1653.86 1139.17 1665 1134C1673.64 1130.85 1681.97 1129.41 1691.09 1128.88Z" fill="#005998"/>
<path d="M768 1099C781.86 1099 795.72 1099 810 1099C810 1109.56 810 1120.12 810 1131C818.91 1131 827.82 1131 837 1131C837 1142.55 837 1154.1 837 1166C828.09 1166 819.18 1166 810 1166C810.047 1173.49 810.097 1180.97 810.184 1188.46C810.223 1191.95 810.256 1195.43 810.271 1198.92C810.289 1202.92 810.339 1206.92 810.391 1210.92C810.392 1212.17 810.393 1213.42 810.394 1214.7C810.414 1215.86 810.434 1217.03 810.454 1218.22C810.463 1219.24 810.472 1220.26 810.481 1221.32C811.134 1224.69 812.37 1225.86 815 1228C817.349 1229.17 818.951 1229.2 821.57 1229.32C822.377 1229.35 823.185 1229.39 824.016 1229.43C825.042 1229.47 826.068 1229.52 827.125 1229.56C830.384 1229.71 833.643 1229.85 837 1230C837 1241.88 837 1253.76 837 1266C791.891 1266.47 791.891 1266.47 778 1253C773.135 1247.29 770.671 1241.26 769 1234C768.826 1233.26 768.652 1232.51 768.473 1231.75C767.942 1228.66 767.88 1225.78 767.886 1222.65C767.887 1221.39 767.887 1220.13 767.887 1218.83C767.892 1217.46 767.897 1216.1 767.902 1214.73C767.904 1213.33 767.906 1211.92 767.907 1210.51C767.91 1206.83 767.92 1203.14 767.931 1199.45C767.942 1195.68 767.946 1191.92 767.951 1188.15C767.962 1180.77 767.979 1173.38 768 1166C762.72 1166 757.44 1166 752 1166C752 1154.45 752 1142.9 752 1131C757.28 1131 762.56 1131 768 1131C768 1120.44 768 1109.88 768 1099Z" fill="#005998"/>
<path d="M3264.19 1148.62C3280.74 1166.23 3281 1184.42 3281 1208C3246.35 1208 3211.7 1208 3176 1208C3180.71 1227.5 3180.71 1227.5 3194 1241C3205.51 1247.14 3217.49 1248.94 3230.35 1246.32C3242.2 1242.3 3248.52 1234.96 3254 1224C3262.25 1224 3270.5 1224 3279 1224C3274.23 1239.89 3266.41 1251.39 3252 1260C3234.65 1269.22 3214.76 1270.43 3196 1265C3180.54 1259.95 3168.47 1249.98 3160.38 1235.88C3151.36 1217.07 3149.64 1193.47 3155.69 1173.46C3161.98 1156.87 3172.47 1144.45 3188.6 1136.76C3193.93 1134.49 3199.28 1132.91 3205 1132C3205.85 1131.86 3206.69 1131.73 3207.56 1131.59C3228.19 1129.1 3248.75 1134.35 3264.19 1148.62ZM3186.13 1163.87C3180.28 1171.14 3176 1180.54 3176 1190C3203.06 1190 3230.12 1190 3258 1190C3256.88 1177.65 3254.27 1168.78 3245.19 1160.31C3227.9 1146.4 3201.36 1147.34 3186.13 1163.87Z" fill="#005998"/>
<path d="M2189.69 1149.06C2205.78 1166.13 2206 1184.68 2206 1208C2171.35 1208 2136.7 1208 2101 1208C2105.71 1227.5 2105.71 1227.5 2119 1241C2130.88 1247.34 2144.41 1249.38 2157.63 1245.87C2168.37 1241.94 2174.02 1233.97 2179 1224C2187.25 1224 2195.5 1224 2204 1224C2198.71 1241.65 2189.34 1253.43 2173.06 1262.25C2155.83 1270.36 2135.66 1269.68 2117.88 1264C2102.23 1258.12 2090.22 1246.4 2083.29 1231.25C2075.18 1210.74 2075.4 1187.81 2083.44 1167.34C2090.16 1152.48 2101.1 1142.07 2116.13 1135.69C2120.69 1134.01 2125.2 1132.77 2130 1132C2130.85 1131.86 2131.69 1131.73 2132.56 1131.59C2153.58 1129.05 2173.99 1134.6 2189.69 1149.06ZM2111.13 1163.87C2105.32 1171.1 2101 1180.57 2101 1190C2128.06 1190 2155.12 1190 2183 1190C2181.74 1176.19 2179.32 1168.14 2169 1159C2151.3 1146.68 2126.15 1147.56 2111.13 1163.87Z" fill="#005998"/>
<path d="M2355 1088C2362.26 1088 2369.52 1088 2377 1088C2377.33 1108.46 2377.66 1128.92 2378 1150C2380.31 1147.36 2382.62 1144.72 2385 1142C2396.55 1132.79 2411.6 1130.1 2426 1131C2438.73 1132.6 2451.55 1137.08 2460.33 1146.85C2469.63 1158.82 2473.18 1171.88 2473.11 1186.87C2473.11 1187.73 2473.11 1188.59 2473.11 1189.48C2473.11 1192.3 2473.11 1195.11 2473.1 1197.93C2473.1 1199.9 2473.09 1201.86 2473.09 1203.82C2473.09 1208.97 2473.08 1214.12 2473.07 1219.27C2473.06 1224.54 2473.05 1229.8 2473.05 1235.06C2473.04 1245.37 2473.02 1255.69 2473 1266C2465.74 1266 2458.48 1266 2451 1266C2450.97 1262.66 2450.97 1262.66 2450.94 1259.25C2450.87 1251.83 2450.79 1244.41 2450.71 1237C2450.66 1232.51 2450.62 1228.02 2450.58 1223.53C2450.54 1219.18 2450.49 1214.84 2450.44 1210.49C2450.42 1208.85 2450.41 1207.2 2450.4 1205.56C2450.24 1183.51 2450.24 1183.51 2442.31 1163.25C2434.48 1155.63 2425.42 1152.1 2414.5 1151.62C2403.97 1152.08 2394.82 1155.3 2387.25 1162.71C2376.58 1175.32 2377.85 1193.65 2377.68 1209.16C2377.66 1210.81 2377.64 1212.45 2377.62 1214.1C2377.57 1218.4 2377.52 1222.69 2377.47 1226.99C2377.42 1231.39 2377.36 1235.79 2377.31 1240.18C2377.2 1248.79 2377.1 1257.39 2377 1266C2369.74 1266 2362.48 1266 2355 1266C2355 1207.26 2355 1148.52 2355 1088Z" fill="#005998"/>
<path d="M2743.69 1150.25C2756.72 1163.88 2761.66 1180.93 2762.25 1199.5C2761.59 1220.06 2754.89 1237.63 2740 1252C2726.16 1264.03 2708.1 1268.9 2689.95 1268.29C2671.76 1266.97 2656.52 1259.98 2643.75 1246.94C2630.59 1231.22 2626.77 1210.71 2628.24 1190.75C2630.36 1171.89 2638.5 1156.41 2653 1144C2680.07 1123.83 2719.68 1127.65 2743.69 1150.25ZM2664 1163C2653.98 1174.88 2650.32 1188.87 2651.15 1204.23C2652.34 1218.1 2657.3 1229.51 2667.31 1239.25C2678.19 1246.34 2689 1249.58 2701.95 1247.54C2709.21 1245.97 2714.93 1243.24 2721 1239C2722.05 1238.28 2723.1 1237.56 2724.19 1236.81C2734.85 1226.15 2738.31 1213.5 2738.44 1198.81C2738.45 1197.9 2738.46 1196.98 2738.47 1196.04C2738.31 1183.93 2734.05 1172.07 2725.69 1163.13C2708.21 1147.07 2681.63 1147.46 2664 1163Z" fill="#005998"/>
<path d="M2929.36 1148.47C2942.95 1161.51 2948.76 1177.92 2949.33 1196.44C2949.61 1214.42 2945.72 1231.54 2933.56 1245.44C2932.06 1246.98 2930.54 1248.5 2929 1250C2928.39 1250.63 2927.77 1251.27 2927.14 1251.92C2914.14 1264.48 2895.52 1268.41 2878.03 1268.2C2862.18 1267.58 2845.38 1261.42 2834 1250C2818.64 1232.53 2814.78 1213.48 2815.79 1190.85C2817.07 1173.58 2824.95 1158.66 2837.34 1146.75C2863.52 1124.35 2903.85 1126.63 2929.36 1148.47ZM2852.03 1162.87C2841.47 1173.94 2838.63 1186.63 2838.7 1201.53C2838.99 1213.84 2842.18 1226.92 2851 1236C2859.98 1244.13 2871.36 1248.38 2883.44 1248.22C2896.74 1247.08 2907.03 1241.76 2916 1232C2925.63 1219.09 2927.67 1204.27 2925.53 1188.55C2922.94 1175.54 2916.8 1165.06 2905.77 1157.64C2888.8 1147.57 2866.58 1149.07 2852.03 1162.87Z" fill="#005998"/>
<path d="M1581 1088C1594.86 1088 1608.72 1088 1623 1088C1623 1146.74 1623 1205.48 1623 1266C1609.14 1266 1595.28 1266 1581 1266C1581 1207.26 1581 1148.52 1581 1088Z" fill="#005998"/>
<path d="M2595.38 1141.75C2606.84 1151.72 2612.23 1164.01 2614 1179C2614.35 1185.69 2614.23 1192.41 2614.2 1199.11C2614.19 1201.04 2614.19 1202.97 2614.19 1204.91C2614.18 1209.97 2614.16 1215.03 2614.14 1220.08C2614.12 1225.26 2614.11 1230.44 2614.1 1235.61C2614.08 1245.74 2614.04 1255.87 2614 1266C2606.41 1266 2598.82 1266 2591 1266C2590.99 1263.49 2590.98 1260.99 2590.97 1258.4C2590.94 1250.08 2590.88 1241.75 2590.82 1233.43C2590.78 1228.38 2590.74 1223.34 2590.73 1218.3C2590.71 1213.42 2590.68 1208.54 2590.63 1203.67C2590.62 1201.82 2590.61 1199.97 2590.61 1198.12C2590.6 1185.22 2590.53 1173.43 2582 1163C2582 1162.34 2582 1161.68 2582 1161C2581.46 1160.75 2580.93 1160.5 2580.38 1160.25C2578 1159 2578 1159 2575.5 1157.06C2567.67 1151.77 2557.18 1151 2548.09 1152.47C2538.24 1154.56 2530.93 1158.6 2525.21 1167.02C2517.81 1179.12 2518.68 1194.25 2518.59 1207.99C2518.57 1209.68 2518.55 1211.36 2518.53 1213.04C2518.48 1217.43 2518.44 1221.81 2518.4 1226.19C2518.36 1230.68 2518.31 1235.18 2518.26 1239.67C2518.16 1248.44 2518.08 1257.22 2518 1266C2510.74 1266 2503.48 1266 2496 1266C2496 1222.44 2496 1178.88 2496 1134C2503.26 1134 2510.52 1134 2518 1134C2518.33 1138.95 2518.66 1143.9 2519 1149C2520.09 1147.8 2521.19 1146.61 2522.31 1145.37C2540.97 1126.75 2574.67 1126.03 2595.38 1141.75Z" fill="#005998"/>
<path d="M3377.19 1143.31C3387.15 1152.68 3389.61 1160.05 3391 1174C3383.41 1174 3375.82 1174 3368 1174C3367.01 1170.7 3366.02 1167.4 3365 1164C3360.44 1157.42 3354.94 1153.53 3347 1152C3337.79 1151.28 3327.66 1151.17 3320.25 1157.5C3317.26 1160.91 3316.09 1163.82 3315.75 1168.31C3316.08 1173.19 3316.99 1176.2 3320.71 1179.53C3329.42 1185.88 3340.08 1188.4 3350.23 1191.59C3380.31 1201.06 3380.31 1201.06 3387.7 1212.66C3392.08 1221.15 3393.46 1229.45 3391.35 1238.91C3387.58 1250.36 3380.7 1257.6 3370 1263C3354.05 1269.48 3335.19 1270.58 3318.97 1264.2C3304.98 1258.24 3297.09 1251.22 3291 1237C3290 1234 3290 1234 3290 1226C3297.59 1226 3305.18 1226 3313 1226C3314.32 1229.3 3315.64 1232.6 3317 1236C3320.96 1242.55 3326.66 1245.16 3334 1247C3343.36 1248.2 3353.86 1248.34 3362 1243C3365.92 1239.84 3367.87 1235.89 3368.84 1231.02C3369.11 1227.57 3368.39 1225.13 3367 1222C3358.74 1214.48 3347.13 1212 3336.62 1209.06C3303.54 1199.45 3303.54 1199.45 3294.89 1183.96C3290.85 1175.11 3290.89 1165.53 3293.96 1156.38C3298.43 1146.12 3307.26 1139.22 3317.34 1135C3336.76 1127.71 3361.23 1129.45 3377.19 1143.31Z" fill="#005998"/>
<path d="M2324.56 1148.06C2331.61 1155.47 2339 1166.42 2339 1177C2331.08 1177 2323.16 1177 2315 1177C2314.11 1175.31 2313.23 1173.62 2312.31 1171.87C2307.08 1162.37 2301.41 1156.5 2290.88 1153.19C2278.99 1150.3 2267.11 1151.16 2256.56 1157.5C2254.61 1158.77 2253.03 1159.97 2251.4 1161.66C2250 1163 2250 1163 2248 1163C2247.73 1163.72 2247.46 1164.44 2247.19 1165.19C2246 1168 2246 1168 2244.56 1170.37C2236.55 1183.84 2236.04 1200.97 2239.19 1216.06C2242.58 1228.58 2248.26 1236.56 2259.09 1243.48C2265.24 1246.69 2271.01 1247.36 2277.81 1247.31C2278.61 1247.31 2279.4 1247.3 2280.22 1247.29C2291.94 1247.05 2299.56 1243.56 2307.75 1235.19C2310.68 1231.25 2310.68 1231.25 2314 1223C2322.25 1223 2330.5 1223 2339 1223C2334.2 1240.6 2325.52 1251.89 2309.97 1261.22C2293.78 1269.98 2273.28 1270.02 2256 1265C2247.85 1262.31 2241.39 1258.71 2235 1253C2233.98 1252.14 2233.98 1252.14 2232.95 1251.27C2221.55 1240.91 2214.7 1224.7 2213.86 1209.44C2213.14 1187.73 2215.04 1167.51 2230.25 1150.56C2254.47 1125.04 2298.77 1124.43 2324.56 1148.06Z" fill="#005998"/>
<path d="M1958 1098C1995.62 1098 2033.24 1098 2072 1098C2072 1104.27 2072 1110.54 2072 1117C2057.15 1117 2042.3 1117 2027 1117C2027 1166.17 2027 1215.34 2027 1266C2019.41 1266 2011.82 1266 2004 1266C2004 1216.83 2004 1167.66 2004 1117C1988.82 1117 1973.64 1117 1958 1117C1958 1110.73 1958 1104.46 1958 1098Z" fill="#005998"/>
<path d="M2777 1088C2784.59 1088 2792.18 1088 2800 1088C2800 1146.74 2800 1205.48 2800 1266C2792.41 1266 2784.82 1266 2777 1266C2777 1207.26 2777 1148.52 2777 1088Z" fill="#005998"/>
<path d="M3114 1134C3121.59 1134 3129.18 1134 3137 1134C3137 1177.56 3137 1221.12 3137 1266C3129.41 1266 3121.82 1266 3114 1266C3114 1222.44 3114 1178.88 3114 1134Z" fill="#005998"/>
<path d="M871 549C871.99 549 872.98 549 874 549C873.979 550.114 873.959 551.227 873.938 552.375C873.736 555.832 873.736 555.832 875 558C1438.97 558 2002.94 558 2584 558C2584 558.33 2584 558.66 2584 559C2531.59 559.006 2479.18 559.011 2426.77 559.016C2425.23 559.016 2425.23 559.016 2423.66 559.016C2313.81 559.027 2203.96 559.036 2094.11 559.042C2091.67 559.042 2089.23 559.043 2086.79 559.043C2035.59 559.046 1984.4 559.048 1933.21 559.051C1907.49 559.052 1881.78 559.053 1856.06 559.055C1852.18 559.055 1848.3 559.055 1844.42 559.055C1784.67 559.058 1724.91 559.062 1665.15 559.069C1663.22 559.069 1663.22 559.069 1661.25 559.069C1640.53 559.071 1619.8 559.074 1599.07 559.076C1539.39 559.082 1479.71 559.089 1420.03 559.091C1418.81 559.091 1417.58 559.091 1416.32 559.091C1389.4 559.092 1362.49 559.093 1335.57 559.094C1324.74 559.094 1313.91 559.095 1303.08 559.095C1301.9 559.095 1300.71 559.095 1299.49 559.095C1261.26 559.096 1223.02 559.1 1184.79 559.106C1146.29 559.112 1107.8 559.115 1069.31 559.114C1064 559.113 1058.69 559.113 1053.38 559.113C1052.34 559.113 1051.3 559.113 1050.22 559.113C1033.69 559.113 1017.16 559.116 1000.63 559.12C984.399 559.124 968.17 559.125 951.942 559.122C942.409 559.12 932.877 559.121 923.345 559.126C917.031 559.129 910.717 559.129 904.403 559.125C900.813 559.123 897.223 559.123 893.633 559.127C889.791 559.132 885.95 559.128 882.108 559.124C880.981 559.127 879.854 559.129 878.693 559.132C877.683 559.129 876.672 559.127 875.631 559.125C874.754 559.125 873.877 559.125 872.973 559.125C871 559 871 559 870 558C869.867 556.188 869.867 556.188 869.875 554C869.872 553.278 869.87 552.556 869.867 551.812C870 550 870 550 871 549Z" fill="#5555AA"/>
<path d="M2581 546C2582.32 546.33 2583.64 546.66 2585 547C2585 550.63 2585 554.26 2585 558C2020.7 558 1456.4 558 875 558C875 557.67 875 557.34 875 557C927.155 556.964 979.311 556.928 1031.47 556.892C1032.49 556.892 1033.51 556.891 1034.56 556.89C1143.88 556.815 1253.2 556.742 1362.52 556.672C1364.95 556.67 1367.38 556.669 1369.8 556.667C1420.75 556.634 1471.7 556.602 1522.65 556.569C1548.25 556.553 1573.84 556.537 1599.43 556.52C1603.29 556.518 1607.15 556.515 1611.01 556.513C1670.48 556.475 1729.95 556.436 1789.42 556.395C1790.7 556.394 1791.98 556.393 1793.3 556.392C1813.92 556.378 1834.55 556.364 1855.18 556.349C1914.57 556.308 1973.96 556.267 2033.35 556.229C2034.57 556.229 2035.79 556.228 2037.05 556.227C2063.83 556.21 2090.62 556.193 2117.41 556.177C2128.19 556.171 2138.97 556.164 2149.75 556.157C2150.92 556.157 2152.1 556.156 2153.32 556.155C2191.37 556.132 2229.42 556.105 2267.47 556.077C2305.77 556.048 2344.08 556.023 2382.39 556.002C2387.67 555.999 2392.96 555.996 2398.25 555.993C2399.28 555.993 2400.32 555.992 2401.39 555.992C2417.84 555.982 2434.29 555.97 2450.74 555.956C2466.89 555.942 2483.04 555.932 2499.19 555.925C2508.68 555.922 2518.16 555.915 2527.65 555.904C2533.93 555.897 2540.22 555.894 2546.5 555.894C2550.07 555.894 2553.65 555.892 2557.22 555.886C2561.04 555.879 2564.87 555.88 2568.69 555.882C2569.81 555.879 2570.93 555.876 2572.08 555.873C2573.59 555.875 2573.59 555.875 2575.14 555.878C2576.01 555.877 2576.89 555.877 2577.79 555.876C2580 556 2580 556 2583 557C2583 554.69 2583 552.38 2583 550C2582.34 549.67 2581.68 549.34 2581 549C2581 548.01 2581 547.02 2581 546Z" fill="#5592C2"/>
<path d="M1308 163C1308.66 163 1309.32 163 1310 163C1310.31 163.969 1310.62 164.939 1310.94 165.938C1311.7 168.841 1311.7 168.841 1313 170C1314.82 170.098 1316.64 170.125 1318.46 170.125C1319.65 170.128 1320.84 170.13 1322.07 170.133C1323.42 170.131 1324.76 170.128 1326.11 170.126C1327.53 170.127 1328.95 170.128 1330.37 170.13C1334.3 170.134 1338.24 170.132 1342.17 170.128C1346.44 170.126 1350.71 170.129 1354.98 170.132C1362.47 170.135 1369.96 170.135 1377.46 170.133C1388.6 170.129 1399.74 170.131 1410.88 170.134C1430.77 170.139 1450.67 170.139 1470.56 170.136C1487.97 170.133 1505.38 170.133 1522.79 170.134C1523.95 170.134 1525.1 170.134 1526.29 170.134C1530.97 170.134 1535.65 170.135 1540.33 170.135C1584.27 170.138 1628.21 170.135 1672.15 170.13C1711.22 170.125 1750.29 170.126 1789.36 170.13C1833.21 170.136 1877.07 170.138 1920.92 170.135C1925.6 170.134 1930.27 170.134 1934.94 170.134C1936.09 170.134 1937.24 170.134 1938.43 170.134C1955.83 170.132 1973.23 170.134 1990.63 170.136C2010.41 170.139 2030.19 170.138 2049.97 170.133C2061.05 170.13 2072.14 170.13 2083.22 170.134C2090.61 170.136 2098 170.135 2105.39 170.13C2109.61 170.128 2113.83 170.127 2118.04 170.131C2121.88 170.134 2125.71 170.132 2129.54 170.127C2130.92 170.126 2132.31 170.127 2133.69 170.13C2135.56 170.133 2137.43 170.129 2139.29 170.125C2140.33 170.125 2141.37 170.125 2142.44 170.125C2145.12 170.109 2145.12 170.109 2148 169C2148 167.35 2148 165.7 2148 164C2148.33 164 2148.66 164 2149 164C2149.04 166.333 2149.04 168.667 2149 171C2148 172 2148 172 2145.66 172.125C2144.61 172.125 2143.56 172.124 2142.48 172.124C2140.67 172.128 2140.67 172.128 2138.82 172.131C2137.46 172.128 2136.1 172.126 2134.74 172.123C2133.31 172.124 2131.87 172.125 2130.44 172.127C2126.46 172.13 2122.47 172.126 2118.49 172.122C2114.18 172.119 2109.86 172.121 2105.54 172.123C2097.96 172.125 2090.39 172.123 2082.81 172.119C2071.54 172.113 2060.27 172.113 2049 172.114C2030.05 172.115 2011.1 172.112 1992.14 172.106C1973.37 172.1 1954.6 172.096 1935.82 172.095C1934.65 172.095 1933.49 172.095 1932.29 172.095C1926.37 172.094 1920.45 172.094 1914.53 172.094C1872.55 172.092 1830.58 172.085 1788.61 172.075C1747.83 172.066 1707.04 172.059 1666.26 172.055C1665 172.055 1663.75 172.055 1662.45 172.055C1649.84 172.053 1637.22 172.052 1624.6 172.051C1598.9 172.048 1573.2 172.045 1547.49 172.042C1545.72 172.042 1545.72 172.042 1543.91 172.042C1464.94 172.033 1385.97 172.017 1307 172C1305.88 167.289 1305.88 167.289 1306.94 164.688C1307.29 164.131 1307.64 163.574 1308 163Z" fill="#6DB5D8"/>
<path d="M3131 1083C3135.47 1085.15 3138.03 1087.44 3140 1092C3141.39 1098.05 3141.17 1102.56 3138 1108C3133.24 1112.53 3130.01 1113.35 3123.61 1113.28C3118.6 1112.74 3115.32 1110.63 3112.12 1106.69C3109.64 1100.74 3109.57 1095.98 3112 1090C3117.82 1083.28 3122.35 1082 3131 1083Z" fill="#005997"/>
<path d="M1480 2054C1481.32 2054.33 1482.64 2054.66 1484 2055C1484 2055.66 1484 2056.32 1484 2057C1487.96 2057 1491.92 2057 1496 2057C1496.33 2057.66 1496.66 2058.32 1497 2059C1499.32 2059.41 1501.66 2059.74 1504 2060C1504 2060.33 1504 2060.66 1504 2061C1500.37 2061 1496.74 2061 1493 2061C1493 2060.01 1493 2059.02 1493 2058C1489.04 2058 1485.08 2058 1481 2058C1480.67 2056.68 1480.34 2055.36 1480 2054Z" fill="#11427F"/>
<path d="M1073 1844C1074.32 1844 1075.64 1844 1077 1844C1078.04 1845.64 1079.04 1847.31 1080 1849C1082.07 1850.33 1082.07 1850.33 1084 1851C1084 1851.99 1084 1852.98 1084 1854C1082.68 1853.67 1081.36 1853.34 1080 1853C1080 1852.34 1080 1851.68 1080 1851C1079.01 1851 1078.02 1851 1077 1851C1077 1850.01 1077 1849.02 1077 1848C1076.01 1848 1075.02 1848 1074 1848C1073.67 1846.68 1073.34 1845.36 1073 1844Z" fill="#092A54"/>
<path d="M934 459C934.66 459.33 935.32 459.66 936 460C934.688 462.938 934.688 462.938 933 466C932.01 466.33 931.02 466.66 930 467C928.781 469.504 928.781 469.504 928 472C927.67 472 927.34 472 927 472C927 470.35 927 468.7 927 467C927.99 466.67 928.98 466.34 930 466C930.733 463.985 930.733 463.985 931 462C931.66 462 932.32 462 933 462C933.33 461.01 933.66 460.02 934 459Z" fill="#376583"/>
<path d="M870.999 549C871.989 549 872.979 549 873.999 549C873.669 551.97 873.339 554.94 872.999 558C872.009 558 871.019 558 869.999 558C869.901 551.848 869.901 551.848 869.999 550C870.329 549.67 870.659 549.34 870.999 549Z" fill="#3E7FA0"/>
<path d="M937 1704C938.32 1704 939.64 1704 941 1704C941 1704.99 941 1705.98 941 1707C941.66 1707 942.32 1707 943 1707C943 1707.99 943 1708.98 943 1710C944.32 1710.33 945.64 1710.66 947 1711C946.67 1712.32 946.34 1713.64 946 1715C945.34 1714.67 944.68 1714.34 944 1714C944 1713.01 944 1712.02 944 1711C942.68 1710.67 941.36 1710.34 940 1710C940 1708.35 940 1706.7 940 1705C939.01 1704.67 938.02 1704.34 937 1704Z" fill="#093865"/>
<path d="M2112 149C2114.38 148.875 2114.38 148.875 2117 149C2117.66 149.66 2118.32 150.32 2119 151C2120.98 151.714 2122.98 152.386 2125 153C2125 153.99 2125 154.98 2125 156C2124.34 156 2123.68 156 2123 156C2123 155.01 2123 154.02 2123 153C2120.36 153 2117.72 153 2115 153C2114.67 152.01 2114.34 151.02 2114 150C2113.34 149.67 2112.68 149.34 2112 149Z" fill="#6291A8"/>
<path d="M1819 2081C1819 2081.99 1819 2082.98 1819 2084C1815.04 2084 1811.08 2084 1807 2084C1811.14 2081.24 1814.07 2080.86 1819 2081Z" fill="#134680"/>
<path d="M1356 2016C1359.63 2016.33 1363.26 2016.66 1367 2017C1367.33 2018.32 1367.66 2019.64 1368 2021C1366.35 2020.67 1364.7 2020.34 1363 2020C1363 2019.34 1363 2018.68 1363 2018C1361.02 2018 1359.04 2018 1357 2018C1356.67 2017.34 1356.34 2016.68 1356 2016Z" fill="#093369"/>
<path d="M802 684C802.66 684 803.32 684 804 684C803.125 687.875 803.125 687.875 802 689C801.929 690.352 801.916 691.708 801.938 693.062C801.958 694.362 801.979 695.661 802 697C801.01 697.495 801.01 697.495 800 698C799.946 696.042 799.907 694.084 799.875 692.125C799.852 691.034 799.829 689.944 799.805 688.82C800 686 800 686 802 684Z" fill="#286B93"/>
<path d="M2388 319C2388.99 319 2389.98 319 2391 319C2391 319.99 2391 320.98 2391 322C2392.32 322.33 2393.64 322.66 2395 323C2395 323.99 2395 324.98 2395 326C2392.2 325.614 2391.18 325.199 2389.25 323.062C2388 321 2388 321 2388 319Z" fill="#3B7C93"/>
<path d="M1912 2067C1914.64 2067 1917.28 2067 1920 2067C1919.36 2067.29 1918.72 2067.58 1918.06 2067.88C1915.85 2068.83 1915.85 2068.83 1915 2071C1912.69 2071 1910.38 2071 1908 2071C1909.32 2070.34 1910.64 2069.68 1912 2069C1912 2068.34 1912 2067.68 1912 2067Z" fill="#124579"/>
<path d="M960 1731C961.32 1731 962.64 1731 964 1731C967 1735.07 967 1735.07 967 1738C966.01 1738 965.02 1738 964 1738C963.897 1737.36 963.794 1736.72 963.688 1736.06C963.461 1735.38 963.234 1734.7 963 1734C962.01 1733.67 961.02 1733.34 960 1733C960 1732.34 960 1731.68 960 1731Z" fill="#083861"/>
<path d="M2285 1918C2285 1918.99 2285 1919.98 2285 1921C2284.01 1921 2283.02 1921 2282 1921C2281.67 1921.99 2281.34 1922.98 2281 1924C2280.01 1924 2279.02 1924 2278 1924C2278 1923.01 2278 1922.02 2278 1921C2280.53 1918.64 2281.47 1918 2285 1918Z" fill="#093161"/>
<path d="M2331 1885C2331.33 1885.99 2331.66 1886.98 2332 1888C2330.68 1888 2329.36 1888 2328 1888C2328 1888.99 2328 1889.98 2328 1891C2327.01 1891 2326.02 1891 2325 1891C2325 1891.99 2325 1892.98 2325 1894C2324.01 1893.67 2323.02 1893.34 2322 1893C2325.52 1888.31 2325.52 1888.31 2327 1887C2328.32 1887 2329.64 1887 2331 1887C2331 1886.34 2331 1885.68 2331 1885Z" fill="#07366B"/>
<path d="M1093 296C1093.66 297.32 1094.32 298.64 1095 300C1092.6 302.899 1090.69 303.502 1087 304C1087 303.34 1087 302.68 1087 302C1087.99 302 1088.98 302 1090 302C1090 301.01 1090 300.02 1090 299C1090.99 299 1091.98 299 1093 299C1093 298.01 1093 297.02 1093 296Z" fill="#6F97B5"/>
<path d="M807 669C807.99 669.33 808.98 669.66 810 670C809.424 672.386 808.778 674.667 808 677C805.938 677.688 805.938 677.688 804 678C804 677.34 804 676.68 804 676C804.66 675.67 805.32 675.34 806 675C806.658 671.971 806.658 671.971 807 669Z" fill="#1F618C"/>
<path d="M831 619C831.99 619 832.98 619 834 619C834.33 619.99 834.66 620.98 835 622C833.35 623.32 831.7 624.64 830 626C829.957 624 829.959 622 830 620C830.33 619.67 830.66 619.34 831 619Z" fill="#2B6F94"/>
<path d="M2561 515C2562.32 515.33 2563.64 515.66 2565 516C2565.12 516.969 2565.25 517.939 2565.38 518.938C2565.58 519.948 2565.79 520.959 2566 522C2566.66 522.33 2567.32 522.66 2568 523C2566.68 522.67 2565.36 522.34 2564 522C2564 521.01 2564 520.02 2564 519C2563.01 518.67 2562.02 518.34 2561 518C2561 517.01 2561 516.02 2561 515Z" fill="#3D668A"/>
<path d="M1044 339C1044.99 339.33 1045.98 339.66 1047 340C1046.01 340.33 1045.02 340.66 1044 341C1044 342.32 1044 343.64 1044 345C1042.68 345.33 1041.36 345.66 1040 346C1040 344.68 1040 343.36 1040 342C1040.99 342 1041.98 342 1043 342C1043.33 341.01 1043.66 340.02 1044 339Z" fill="#4484A0"/>
<path d="M1103 289C1103.99 289.33 1104.98 289.66 1106 290C1104 293 1104 293 1101.38 293.688C1100.2 293.842 1100.2 293.842 1099 294C1099 294.66 1099 295.32 1099 296C1098.34 296 1097.68 296 1097 296C1097.33 294.68 1097.66 293.36 1098 292C1099.65 292 1101.3 292 1103 292C1103 291.01 1103 290.02 1103 289Z" fill="#6A85A3"/>
<path d="M1391 129C1392.98 129 1394.96 129 1397 129C1395.75 131 1395.75 131 1394 133C1392.68 133 1391.36 133 1390 133C1390.33 131.68 1390.66 130.36 1391 129Z" fill="#6E99AF"/>
<path d="M1925 92C1931.62 91.875 1931.62 91.875 1935 93C1935 93.99 1935 94.98 1935 96C1933.68 96 1932.36 96 1931 96C1931 95.34 1931 94.68 1931 94C1928.03 93.505 1928.03 93.505 1925 93C1925 92.67 1925 92.34 1925 92Z" fill="#628F97"/>
<path d="M1523 2064C1524.32 2064.33 1525.64 2064.66 1527 2065C1527 2065.66 1527 2066.32 1527 2067C1529.31 2067 1531.62 2067 1534 2067C1534 2067.33 1534 2067.66 1534 2068C1530.7 2068 1527.4 2068 1524 2068C1523.67 2066.68 1523.34 2065.36 1523 2064Z" fill="#083D6F"/>
<path d="M1974.69 2053.75C1975.45 2053.83 1976.21 2053.91 1977 2054C1977 2054.66 1977 2055.32 1977 2056C1976.34 2056 1975.68 2056 1975 2056C1975 2056.66 1975 2057.32 1975 2058C1973.02 2058 1971.04 2058 1969 2058C1971.34 2054.06 1971.34 2054.06 1974.69 2053.75Z" fill="#0D3362"/>
<path d="M1333 2007C1335.97 2007 1338.94 2007 1342 2007C1342.66 2008.32 1343.32 2009.64 1344 2011C1342.68 2011 1341.36 2011 1340 2011C1340 2010.01 1340 2009.02 1340 2008C1337.69 2008 1335.38 2008 1333 2008C1333 2007.67 1333 2007.34 1333 2007Z" fill="#0D4076"/>
<path d="M2168 1984C2168.33 1984.66 2168.66 1985.32 2169 1986C2168.67 1986.66 2168.34 1987.32 2168 1988C2166.02 1988 2164.04 1988 2162 1988C2162 1988.99 2162 1989.98 2162 1991C2161.01 1990.67 2160.02 1990.34 2159 1990C2159.33 1989.01 2159.66 1988.02 2160 1987C2162.31 1986.26 2164.65 1985.59 2167 1985C2167.33 1984.67 2167.66 1984.34 2168 1984Z" fill="#0B2D69"/>
<path d="M2305 1904C2305 1905.32 2305 1906.64 2305 1908C2302.69 1908.66 2300.38 1909.32 2298 1910C2298 1909.01 2298 1908.02 2298 1907C2302.22 1904 2302.22 1904 2305 1904Z" fill="#0B356B"/>
<path d="M2434 1794C2435.32 1794 2436.64 1794 2438 1794C2437.67 1794.99 2437.34 1795.98 2437 1797C2436.34 1797 2435.68 1797 2435 1797C2435 1797.99 2435 1798.98 2435 1800C2434.01 1800.33 2433.02 1800.66 2432 1801C2432.58 1798.61 2433.22 1796.33 2434 1794Z" fill="#061C47"/>
<path d="M830 1532C831.991 1534.99 832.941 1537.6 834 1541C832.68 1540.67 831.36 1540.34 830 1540C830 1537.36 830 1534.72 830 1532Z" fill="#011B55"/>
<path d="M2552 502C2552.99 502 2553.98 502 2555 502C2555.33 502.99 2555.66 503.98 2556 505C2556.66 505.33 2557.32 505.66 2558 506C2557.67 507.32 2557.34 508.64 2557 510C2554.28 507.647 2553.19 505.375 2552 502Z" fill="#4C75A1"/>
<path d="M911 489C911.66 489 912.32 489 913 489C913 489.66 913 490.32 913 491C912.34 491 911.68 491 911 491C911 492.65 911 494.3 911 496C909.02 496.99 909.02 496.99 907 498C907.33 496.68 907.66 495.36 908 494C908.66 494 909.32 494 910 494C910.33 492.35 910.66 490.7 911 489Z" fill="#3C6F94"/>
<path d="M1116 280C1116.33 280.66 1116.66 281.32 1117 282C1116.34 282 1115.68 282 1115 282C1114.34 283.32 1113.68 284.64 1113 286C1112.01 286 1111.02 286 1110 286C1110.19 284.125 1110.19 284.125 1111 282C1113.56 280.75 1113.56 280.75 1116 280Z" fill="#537285"/>
<path d="M1123 1884C1126.27 1884.56 1127.83 1885.5 1130 1888C1129.67 1888.66 1129.34 1889.32 1129 1890C1127.02 1889.01 1125.04 1888.02 1123 1887C1123 1886.01 1123 1885.02 1123 1884Z" fill="#042351"/>
<path d="M762 795C762.66 795 763.32 795 764 795C763.67 796.65 763.34 798.3 763 800C762.34 800 761.68 800 761 800C760.67 800.99 760.34 801.98 760 803C759.875 800.125 759.875 800.125 760 797C760.66 796.34 761.32 795.68 762 795Z" fill="#0B3E79"/>
<path d="M882 532C882.66 532 883.32 532 884 532C883.688 534.375 883.688 534.375 883 537C882.01 537.66 881.02 538.32 880 539C879.875 536.625 879.875 536.625 880 534C880.66 533.34 881.32 532.68 882 532Z" fill="#355D7C"/>
<path d="M1480 102C1482.64 102 1485.28 102 1488 102C1485.69 104.062 1485.69 104.062 1483 106C1482.01 105.67 1481.02 105.34 1480 105C1480 104.01 1480 103.02 1480 102Z" fill="#78A8BD"/>
<path d="M1440 2044C1442.47 2044.5 1442.47 2044.5 1445 2045C1445 2045.66 1445 2046.32 1445 2047C1446.32 2047.33 1447.64 2047.66 1449 2048C1443.38 2048.25 1443.38 2048.25 1440 2046C1440 2045.34 1440 2044.68 1440 2044Z" fill="#06254C"/>
<path d="M1383 2027C1386.3 2027 1389.6 2027 1393 2027C1393.33 2028.32 1393.66 2029.64 1394 2031C1392.68 2030.67 1391.36 2030.34 1390 2030C1390 2029.34 1390 2028.68 1390 2028C1387.69 2028 1385.38 2028 1383 2028C1383 2027.67 1383 2027.34 1383 2027Z" fill="#082D60"/>
<path d="M2691 790C2691.66 790 2692.32 790 2693 790C2693 790.66 2693 791.32 2693 792C2693.66 792 2694.32 792 2695 792C2695 793.65 2695 795.3 2695 797C2694.34 797 2693.68 797 2693 797C2691.54 794.353 2691 793.106 2691 790Z" fill="#10416D"/>
<path d="M890 519C890.66 519 891.32 519 892 519C891.67 520.98 891.34 522.96 891 525C889.68 525.33 888.36 525.66 887 526C887.33 524.68 887.66 523.36 888 522C888.66 522 889.32 522 890 522C890 521.01 890 520.02 890 519Z" fill="#396891"/>
<path d="M897 509C897.99 509.33 898.98 509.66 900 510C899.25 511.938 899.25 511.938 898 514C895.875 514.75 895.875 514.75 894 515C894.33 514.01 894.66 513.02 895 512C895.66 512 896.32 512 897 512C897 511.01 897 510.02 897 509Z" fill="#3F7190"/>
<path d="M2438 366C2439.32 366.33 2440.64 366.66 2442 367C2441.67 368.65 2441.34 370.3 2441 372C2440.01 371.67 2439.02 371.34 2438 371C2438 369.35 2438 367.7 2438 366Z" fill="#317085"/>
<path d="M1337 153C1335.75 154.5 1335.75 154.5 1334 156C1332.68 156 1331.36 156 1330 156C1330.33 155.01 1330.66 154.02 1331 153C1333.49 151.755 1334.41 152.223 1337 153Z" fill="#547481"/>
<path d="M1636 76C1638.31 76 1640.62 76 1643 76C1643 76.66 1643 77.32 1643 78C1640.69 78.33 1638.38 78.66 1636 79C1636 78.01 1636 77.02 1636 76Z" fill="#76A2B4"/>
<path d="M1540 2068C1542.34 2068.26 1544.68 2068.59 1547 2069C1547.33 2069.66 1547.66 2070.32 1548 2071C1545.69 2071 1543.38 2071 1541 2071C1540.67 2070.01 1540.34 2069.02 1540 2068Z" fill="#093165"/>
<path d="M1960 2057C1961.98 2057 1963.96 2057 1966 2057C1964.68 2058.32 1963.36 2059.64 1962 2061C1961.01 2060.67 1960.02 2060.34 1959 2060C1959.33 2059.01 1959.66 2058.02 1960 2057Z" fill="#0F396C"/>
<path d="M1480 2054C1481.32 2054.33 1482.64 2054.66 1484 2055C1484 2055.66 1484 2056.32 1484 2057C1484.99 2057.33 1485.98 2057.66 1487 2058C1485.02 2058 1483.04 2058 1481 2058C1480.67 2056.68 1480.34 2055.36 1480 2054Z" fill="#09396C"/>
<path d="M2149 1994C2148.67 1995.32 2148.34 1996.64 2148 1998C2146.35 1998 2144.7 1998 2143 1998C2143.33 1997.01 2143.66 1996.02 2144 1995C2146 1994 2146 1994 2149 1994Z" fill="#0C3B65"/>
<path d="M2631 636C2631.99 636 2632.98 636 2634 636C2634.33 637.98 2634.66 639.96 2635 642C2633.68 641.34 2632.36 640.68 2631 640C2631 638.68 2631 637.36 2631 636Z" fill="#1F6082"/>
<path d="M1037 346C1037.66 346 1038.32 346 1039 346C1038.81 347.875 1038.81 347.875 1038 350C1035.44 351.25 1035.44 351.25 1033 352C1033 351.01 1033 350.02 1033 349C1034.32 349 1035.64 349 1037 349C1037 348.01 1037 347.02 1037 346Z" fill="#5898B3"/>
<path d="M1058 327C1058.66 327 1059.32 327 1060 327C1059.67 328.32 1059.34 329.64 1059 331C1057.35 331.33 1055.7 331.66 1054 332C1054.33 331.01 1054.66 330.02 1055 329C1055.99 329 1056.98 329 1058 329C1058 328.34 1058 327.68 1058 327Z" fill="#2B5561"/>
<path d="M1308 163C1308.66 163 1309.32 163 1310 163C1309.67 164.65 1309.34 166.3 1309 168C1308.34 168 1307.68 168 1307 168C1306.67 168.99 1306.34 169.98 1306 171C1306.88 164.125 1306.88 164.125 1308 163Z" fill="#34484E"/>
<path d="M2040 122C2043.72 121.799 2044.77 121.848 2048 124C2048 124.66 2048 125.32 2048 126C2045.65 125.401 2043.31 124.731 2041 124C2040.67 123.34 2040.34 122.68 2040 122Z" fill="#4E6A7A"/>
<path d="M1970 102C1972.64 102.33 1975.28 102.66 1978 103C1978.33 103.99 1978.66 104.98 1979 106C1977.35 105.67 1975.7 105.34 1974 105C1974 104.34 1974 103.68 1974 103C1972.68 102.67 1971.36 102.34 1970 102Z" fill="#4B7174"/>
</svg>
