<svg width="260" height="78" viewBox="0 0 260 78" fill="none" xmlns="http://www.w3.org/2000/svg">
<path d="M0 2C10.1827 2.43147 19.4727 7.54047 26.7273 14.4091C27.0124 14.6737 27.2974 14.9382 27.5911 15.2108C30.666 18.1563 32.8909 21.541 35.179 25.108C38.4581 30.6338 38.4581 30.6338 43.591 34.1364C43.6743 33.9539 43.7575 33.7714 43.8433 33.5833C45.5252 30.4318 49.0214 27.7914 52.3211 26.4802C56.5268 25.3946 60.7772 26.489 64.591 28.4091C64.696 28.6191 64.801 28.8291 64.9092 29.0455C64.5345 29.2313 64.5345 29.2313 64.1523 29.4209C60.0566 31.6019 58.5771 34.8618 56.643 38.8728C50.4648 51.6725 42.3 60.0279 28.8154 64.8808C16.7554 69.0626 16.7554 69.0626 11.1364 68.8183C12.1003 68.0197 13.1227 67.4808 14.2341 66.9237C17.0744 65.4945 19.5337 63.873 21.9546 61.8183C22.2745 61.5468 22.5944 61.2752 22.924 60.9955C26.9893 57.4493 30.1324 53.2573 33.091 48.7728C32.1746 48.058 31.2297 47.4698 30.2273 46.8836C22.9605 42.2619 19.3604 34.0442 16.3447 26.3216C14.1756 20.7744 11.9207 15.032 8.27274 10.2727C8.06438 9.99507 7.85602 9.71739 7.64135 9.4313C5.58153 6.76871 3.41955 4.60679 0.606535 2.74698C0.406379 2.60548 0.206222 2.46397 0 2.31818C0 2.21318 0 2.10818 0 2Z" fill="#2258C3"/>
<path d="M52.2957 55.4388C52.8969 55.4392 52.8969 55.4392 53.5104 55.4396C54.356 55.4432 55.1994 55.4522 56.0446 55.4709C57.324 55.4989 58.602 55.4971 59.8817 55.4947C65.1043 55.522 69.9936 55.5628 74.1086 59.1985C76.6986 61.9726 77.4369 64.9685 77.3587 68.6607C77.3559 68.9224 77.353 69.1841 77.35 69.4537C77.3426 70.091 77.3312 70.7281 77.319 71.3653C75.744 71.3653 74.169 71.3653 72.5462 71.3653C72.5284 70.7728 72.5284 70.7728 72.5102 70.1684C72.4893 69.6459 72.4681 69.1235 72.4468 68.6011C72.4396 68.3413 72.4324 68.0814 72.425 67.8137C72.359 66.3307 72.3075 65.1925 71.2735 64.0471C69.4807 62.8625 67.8951 62.5877 65.7811 62.6007C65.4983 62.5974 65.2156 62.5941 64.9242 62.5907C63.998 62.5814 63.0719 62.5809 62.1456 62.5805C61.5001 62.5757 60.8546 62.5704 60.209 62.5645C58.5164 62.5507 56.8237 62.5443 55.131 62.5395C53.4012 62.5332 51.6714 62.5199 49.9416 62.5071C46.5522 62.4832 43.1629 62.4672 39.7734 62.4562C40.9875 61.2073 42.2899 60.352 43.7631 59.4297C44.4448 58.9841 45.8768 57.5719 46.44 56.9761C48.5945 54.7389 49.2525 55.3602 52.2957 55.4388Z" fill="#B4B4B4"/>
<path d="M14.6373 41.4531C14.6373 46.1781 14.6373 50.9031 14.6373 55.7713C18.2073 55.7713 21.7773 55.7713 25.4555 55.7713C24.0899 57.5921 22.9462 58.9603 21.2395 60.3651C21.041 60.5331 20.8425 60.701 20.638 60.8741C19.1151 62.1524 18.4802 62.494 16.5066 62.473C16.1579 62.4702 15.8093 62.4673 15.4501 62.4643C15.0477 62.4588 15.0477 62.4588 14.6373 62.4532C14.7226 62.8207 14.8079 63.1882 14.8958 63.5668C14.907 64.2653 14.907 64.2653 14.6373 64.9986C13.3564 66.0415 11.9663 66.7901 10.5009 67.5441C10.2663 67.6729 10.0317 67.8017 9.78995 67.9344C9.22815 68.1804 9.22815 68.1804 8.27361 68.1804C8.24404 65.3619 8.22146 62.5434 8.20766 59.7248C8.20104 58.4158 8.19206 57.1068 8.17759 55.7979C8.1637 54.5332 8.15614 53.2687 8.15285 52.0039C8.15051 51.5229 8.14594 51.0419 8.13904 50.5609C8.066 45.2568 8.066 45.2568 9.9957 43.2019C11.5059 41.8443 12.6297 41.4531 14.6373 41.4531Z" fill="#B4B4B4"/>
<path d="M42.6373 9.95508C43.9559 10.4961 44.9421 11.4319 45.9981 12.3613C46.3997 12.7105 46.8015 13.0593 47.2037 13.4079C47.5004 13.6652 47.5004 13.6652 47.8031 13.9277C48.5554 14.5735 49.3234 15.1986 50.0947 15.8216C51.5133 16.9724 52.8947 18.1605 54.2708 19.3613C56.0833 20.9429 57.9209 22.4767 59.8191 23.9551C58.9318 24.2077 58.1577 24.3086 57.2364 24.2932C56.9907 24.2907 56.745 24.2883 56.4919 24.2857C55.9815 24.2775 55.471 24.2692 54.9606 24.2609C54.7141 24.2584 54.4676 24.2559 54.2136 24.2534C53.9733 24.251 51.8092 25.2222 51.5616 25.2197C50.8291 25.2267 52.5084 24.9435 51.5616 25.2197C50.6655 25.2818 50.91 24.5915 49.9418 23.9576C49.6034 23.6572 49.2701 23.3511 48.9413 23.0403C48.5811 22.7173 48.2207 22.3945 47.8599 22.0721C47.68 21.9083 47.5 21.7445 47.3146 21.5757C46.4873 20.8351 45.6279 20.1398 44.7651 19.4409C44.4776 19.2067 44.1901 18.9725 43.8938 18.7312C43.6892 18.5651 43.4845 18.399 43.2736 18.2278C41.8497 18.6852 40.992 19.4131 39.9128 20.4352C38.9433 21.3482 37.9952 22.2269 36.91 23.0006C35.5702 22.5136 35.0361 21.6378 34.2651 20.475C34.0366 20.1374 33.8082 19.7999 33.5728 19.4521C33.4141 19.1531 33.2553 18.8541 33.0918 18.546C33.4842 17.3687 33.9312 17.0992 34.9015 16.3386C36.5834 14.9979 38.2203 13.6144 39.8459 12.206C40.7545 11.4217 41.6633 10.6586 42.6373 9.95508Z" fill="#B4B4B4"/>
<path d="M55.7758 46.707C58.2197 46.7565 60.6324 46.9854 63.0604 47.2626C63.5419 47.3146 63.5419 47.3146 64.0332 47.3677C67.3499 47.7819 70.0085 48.8132 72.5462 51.0013C72.7394 51.1608 72.9326 51.3204 73.1316 51.4847C75.4315 53.5531 76.8315 56.5593 77.3189 59.5922C77.171 60.2981 77.171 60.2981 77.0008 60.8649C76.8999 60.6611 76.799 60.4572 76.695 60.2472C74.9496 57.012 72.5917 55.5486 69.1462 54.4442C67.3747 54.0055 65.6383 53.9911 63.821 53.9892C63.431 53.9839 63.0409 53.9787 62.639 53.9732C61.4073 53.9579 60.1757 53.951 58.9439 53.9444C58.1029 53.9355 57.2618 53.9259 56.4208 53.9159C54.3717 53.8925 52.3226 53.876 50.2734 53.8649C50.6792 53.0391 51.0961 52.2849 51.6344 51.5382C51.7716 51.3471 51.9088 51.1559 52.0502 50.959C52.1923 50.7629 52.3344 50.5669 52.4808 50.3649C52.6922 50.0708 52.6922 50.0708 52.9078 49.7708C53.1803 49.3922 53.4548 49.0149 53.7313 48.6392C54.0266 48.2281 54.2999 47.8012 54.5664 47.3707C55.0462 46.8649 55.0462 46.8649 55.7758 46.707Z" fill="#B4B4B4"/>
<path d="M67.454 30.6369C68.2135 31.1911 68.8751 31.734 69.562 32.367C69.9598 32.7212 70.358 33.075 70.7564 33.4285C70.9521 33.6039 71.1478 33.7794 71.3494 33.9601C72.1079 34.6316 72.8905 35.2704 73.6785 35.9068C75.1356 37.09 76.5705 38.2968 77.9993 39.5139C79.4214 40.7224 80.8697 41.8944 82.3315 43.0547C83.0039 43.6463 83.4768 44.2338 83.9995 44.9551C75.6958 45.593 75.6958 45.593 73.535 43.8809C72.8967 43.2641 72.2979 42.6257 71.7203 41.9518C70.9489 41.0968 70.0536 40.3931 69.1643 39.6653C68.8216 39.3762 68.4794 39.0866 68.1376 38.7966C66.1317 37.1068 64.0947 35.4549 62.0449 33.8187C62.5121 32.6181 63.1168 32.1624 64.2125 31.5119C64.6192 31.2634 64.6192 31.2634 65.0341 31.0098C65.9869 30.5812 66.426 30.4338 67.454 30.6369Z" fill="#B4B4B4"/>
<path d="M23.5097 44.2225C25.0812 45.0339 26.2499 46.228 27.0457 47.8195C27.2343 49.7055 26.8937 51.0832 25.773 52.5922C24.5804 53.7067 23.3915 54.2766 21.7559 54.3621C19.9487 54.2501 18.9106 53.4155 17.719 52.0951C16.6601 50.5655 16.6673 48.9832 16.8639 47.1831C17.5256 45.7537 18.3691 44.926 19.7524 44.2225C21.0433 43.7555 22.2199 43.7472 23.5097 44.2225Z" fill="#B4B4B4"/>
<path d="M16.8626 32.5449C17.3065 33.3108 17.7426 34.0795 18.1751 34.8517C18.3018 35.0687 18.4286 35.2857 18.5592 35.5092C19.4552 37.1283 19.4552 37.1283 19.2254 38.0522C18.4943 38.9194 17.7927 39.5169 16.8626 40.1813C16.5476 40.0763 16.2326 39.9713 15.9081 39.8631C13.1842 39.5632 11.1067 40.1405 8.9677 41.8518C8.10525 42.936 7.57517 44.0131 6.99894 45.2722C5.21394 45.2722 3.42894 45.2722 1.58984 45.2722C3.90795 42.9541 6.33663 40.8214 8.88442 38.7607C10.2706 37.6175 11.6237 36.4374 12.9763 35.2548C16.0805 32.5449 16.0805 32.5449 16.8626 32.5449Z" fill="#B4B4B4"/>
<path d="M107.87 41.588C107.142 41.588 106.54 41.56 106.064 41.504C105.616 41.448 105.168 41.378 104.72 41.294C104.272 41.21 103.726 41.14 103.082 41.084C102.438 41.028 101.556 41 100.436 41L98.966 30.08H99.47C99.89 33.524 100.842 36.184 102.326 38.06C103.838 39.908 105.77 40.832 108.122 40.832C109.858 40.832 111.272 40.342 112.364 39.362C113.456 38.382 114.002 37.108 114.002 35.54C114.002 34.868 113.876 34.224 113.624 33.608C113.4 32.992 113.008 32.334 112.448 31.634C111.888 30.934 111.146 30.178 110.222 29.366C109.298 28.526 108.15 27.588 106.778 26.552L105.056 25.25C102.956 23.654 101.5 22.226 100.688 20.966C99.876 19.706 99.47 18.334 99.47 16.85C99.47 14.386 100.366 12.454 102.158 11.054C103.978 9.626 106.372 8.912 109.34 8.912C110.068 8.912 110.656 8.94 111.104 8.996C111.58 9.052 112.028 9.122 112.448 9.206C112.896 9.29 113.414 9.36 114.002 9.416C114.59 9.472 115.346 9.5 116.27 9.5L116.69 17.984H116.27C115.878 15.38 115.038 13.322 113.75 11.81C112.462 10.298 110.908 9.542 109.088 9.542C107.8 9.542 106.764 9.92 105.98 10.676C105.224 11.432 104.846 12.44 104.846 13.7C104.846 14.792 105.196 15.842 105.896 16.85C106.624 17.83 107.87 18.978 109.634 20.294L111.44 21.638C113.288 22.982 114.744 24.228 115.808 25.376C116.9 26.496 117.684 27.588 118.16 28.652C118.636 29.716 118.874 30.85 118.874 32.054C118.874 33.902 118.412 35.54 117.488 36.968C116.564 38.396 115.276 39.516 113.624 40.328C112 41.112 110.082 41.532 107.87 41.588ZM127.54 41.588C126.084 41.588 124.894 41.126 123.97 40.202C123.046 39.278 122.584 38.074 122.584 36.59V20.42H119.014V19.874C120.946 19.734 122.668 19.118 124.18 18.026C125.72 16.934 126.98 15.464 127.96 13.616H128.632V19.664H134.218L133.798 20.42H128.632V35.666C128.632 37.906 129.388 39.026 130.9 39.026C131.404 39.026 131.978 38.872 132.622 38.564C133.294 38.256 133.924 37.85 134.512 37.346V37.766C133.588 38.942 132.496 39.88 131.236 40.58C129.976 41.252 128.744 41.588 127.54 41.588ZM140.984 41.588C139.276 41.588 137.904 41.126 136.868 40.202C135.832 39.278 135.314 38.06 135.314 36.548C135.314 35.904 135.426 35.302 135.65 34.742C135.874 34.154 136.294 33.58 136.91 33.02C137.554 32.46 138.436 31.886 139.556 31.298C140.676 30.682 142.16 30.038 144.008 29.366L147.914 27.938V24.788C147.914 23.192 147.662 21.932 147.158 21.008C146.654 20.056 145.954 19.58 145.058 19.58C143.994 19.608 143.084 20.308 142.328 21.68C141.6 23.052 141.11 24.956 140.858 27.392L136.322 24.788C136.798 23.64 137.526 22.632 138.506 21.764C139.486 20.896 140.606 20.224 141.866 19.748C143.154 19.272 144.498 19.034 145.898 19.034C148.278 19.034 150.21 19.706 151.694 21.05C153.206 22.366 153.962 24.172 153.962 26.468V36.59C153.962 38.214 154.508 39.026 155.6 39.026C156.244 39.026 156.874 38.676 157.49 37.976L157.826 38.27C157.098 39.25 156.216 40.048 155.18 40.664C154.144 41.28 153.136 41.588 152.156 41.588C151.092 41.588 150.168 41.224 149.384 40.496C148.628 39.768 148.152 38.802 147.956 37.598C146.584 38.998 145.38 40.02 144.344 40.664C143.336 41.28 142.216 41.588 140.984 41.588ZM144.134 38.984C144.75 38.984 145.338 38.83 145.898 38.522C146.486 38.214 147.144 37.71 147.872 37.01L147.914 28.484L146.234 29.114C144.806 29.646 143.714 30.192 142.958 30.752C142.202 31.284 141.67 31.886 141.362 32.558C141.082 33.23 140.942 34 140.942 34.868C140.942 36.072 141.236 37.066 141.824 37.85C142.44 38.606 143.21 38.984 144.134 38.984ZM156.172 50.408C155.024 50.408 153.918 50.184 152.854 49.736L154.492 44.822C155.192 45.102 155.948 45.34 156.76 45.536C157.6 45.732 158.44 45.83 159.28 45.83C160.344 45.83 161.338 45.606 162.262 45.158C163.214 44.738 163.928 43.94 164.404 42.764L164.866 41.63L156.55 22.352C156.27 21.68 155.906 21.148 155.458 20.756C154.982 20.336 154.338 20.112 153.526 20.084V19.664H165.664V20.084C164.908 20.168 164.32 20.434 163.9 20.882C163.508 21.33 163.312 21.904 163.312 22.604C163.312 23.22 163.452 23.85 163.732 24.494L167.974 34.448L172.216 24.494C172.496 23.85 172.636 23.22 172.636 22.604C172.636 21.904 172.426 21.33 172.006 20.882C171.614 20.434 171.026 20.168 170.242 20.084V19.664H176.038V20.084C175.394 20.224 174.848 20.644 174.4 21.344C173.952 22.016 173.476 22.94 172.972 24.116L164.404 44.024C163.508 46.096 162.346 47.678 160.918 48.77C159.49 49.862 157.908 50.408 156.172 50.408ZM184.03 41.672L175.672 22.352C175.392 21.708 175.014 21.176 174.538 20.756C174.09 20.336 173.46 20.112 172.648 20.084V19.664H184.408V20.084C183.428 20.196 182.784 20.63 182.476 21.386C182.196 22.142 182.294 23.094 182.77 24.242L187.096 34.364L191.38 24.494C191.66 23.85 191.8 23.22 191.8 22.604C191.8 21.904 191.59 21.33 191.17 20.882C190.75 20.434 190.162 20.168 189.406 20.084V19.664H196.042V20.084C195.314 20.252 194.614 20.672 193.942 21.344C193.27 22.016 192.668 22.94 192.136 24.116L184.408 41.672H184.03ZM205.763 41.588C203.467 41.588 201.451 41.126 199.715 40.202C198.007 39.278 196.677 37.976 195.725 36.296C194.773 34.616 194.297 32.628 194.297 30.332C194.297 28.036 194.773 26.048 195.725 24.368C196.677 22.688 198.007 21.386 199.715 20.462C201.451 19.538 203.467 19.076 205.763 19.076C208.059 19.076 210.061 19.538 211.769 20.462C213.477 21.386 214.807 22.688 215.759 24.368C216.711 26.048 217.187 28.036 217.187 30.332C217.187 32.628 216.711 34.616 215.759 36.296C214.807 37.976 213.477 39.278 211.769 40.202C210.061 41.126 208.059 41.588 205.763 41.588ZM205.721 41.042C206.701 41.042 207.541 40.552 208.241 39.572C208.941 38.592 209.487 37.29 209.879 35.666C210.271 34.014 210.467 32.222 210.467 30.29C210.467 28.19 210.257 26.342 209.837 24.746C209.445 23.122 208.885 21.862 208.157 20.966C207.457 20.042 206.659 19.58 205.763 19.58C204.811 19.58 203.971 20.07 203.243 21.05C202.543 22.03 201.997 23.332 201.605 24.956C201.213 26.58 201.017 28.358 201.017 30.29C201.017 32.418 201.227 34.294 201.647 35.918C202.067 37.542 202.627 38.802 203.327 39.698C204.055 40.594 204.853 41.042 205.721 41.042ZM217.772 41V40.58H217.814C218.822 40.58 219.634 40.272 220.25 39.656C220.866 39.04 221.174 38.228 221.174 37.22V23.444C221.174 22.38 220.95 21.554 220.502 20.966C220.082 20.378 219.172 20.084 217.772 20.084V19.664H221.93C223.414 19.664 224.534 19.524 225.29 19.244C226.046 18.936 226.578 18.544 226.886 18.068H227.096L227.138 24.956C227.502 24.116 227.964 23.234 228.524 22.31C229.112 21.386 229.84 20.616 230.708 20C231.604 19.356 232.668 19.034 233.9 19.034C234.32 19.034 234.768 19.076 235.244 19.16C235.72 19.244 236.224 19.398 236.756 19.622L235.118 24.536C234.11 23.976 233.228 23.584 232.472 23.36C231.744 23.136 231.1 23.024 230.54 23.024C229.588 23.024 228.874 23.318 228.398 23.906C227.95 24.494 227.558 25.194 227.222 26.006V37.22C227.222 38.228 227.53 39.04 228.146 39.656C228.762 40.272 229.574 40.58 230.582 40.58H230.624V41H217.772ZM242.702 41.588C240.994 41.588 239.622 41.126 238.586 40.202C237.55 39.278 237.032 38.06 237.032 36.548C237.032 35.904 237.144 35.302 237.368 34.742C237.592 34.154 238.012 33.58 238.628 33.02C239.272 32.46 240.154 31.886 241.274 31.298C242.394 30.682 243.878 30.038 245.726 29.366L249.632 27.938V24.788C249.632 23.192 249.38 21.932 248.876 21.008C248.372 20.056 247.672 19.58 246.776 19.58C245.712 19.608 244.802 20.308 244.046 21.68C243.318 23.052 242.828 24.956 242.576 27.392L238.04 24.788C238.516 23.64 239.244 22.632 240.224 21.764C241.204 20.896 242.324 20.224 243.584 19.748C244.872 19.272 246.216 19.034 247.616 19.034C249.996 19.034 251.928 19.706 253.412 21.05C254.924 22.366 255.68 24.172 255.68 26.468V36.59C255.68 38.214 256.226 39.026 257.318 39.026C257.962 39.026 258.592 38.676 259.208 37.976L259.544 38.27C258.816 39.25 257.934 40.048 256.898 40.664C255.862 41.28 254.854 41.588 253.874 41.588C252.81 41.588 251.886 41.224 251.102 40.496C250.346 39.768 249.87 38.802 249.674 37.598C248.302 38.998 247.098 40.02 246.062 40.664C245.054 41.28 243.934 41.588 242.702 41.588ZM245.852 38.984C246.468 38.984 247.056 38.83 247.616 38.522C248.204 38.214 248.862 37.71 249.59 37.01L249.632 28.484L247.952 29.114C246.524 29.646 245.432 30.192 244.676 30.752C243.92 31.284 243.388 31.886 243.08 32.558C242.8 33.23 242.66 34 242.66 34.868C242.66 36.072 242.954 37.066 243.542 37.85C244.158 38.606 244.928 38.984 245.852 38.984Z" fill="#004E9B"/>
<path d="M101.116 66.5161V58.7161C101.116 58.3032 101.077 57.9935 101 57.7871C100.935 57.5677 100.794 57.4129 100.574 57.3226C100.368 57.2194 100.058 57.1484 99.6452 57.1097L98.9871 57.0516V56.2968C99.2323 56.2968 99.529 56.3032 99.8774 56.3161C100.226 56.329 100.6 56.3419 101 56.3548C101.4 56.3548 101.787 56.3548 102.161 56.3548H102.394C102.858 56.3548 103.284 56.3548 103.671 56.3548C104.071 56.3419 104.419 56.329 104.716 56.3161C105.026 56.3032 105.277 56.2968 105.471 56.2968C107.174 56.2968 108.477 56.5935 109.381 57.1871C110.284 57.7806 110.735 58.6323 110.735 59.7419C110.735 60.5161 110.503 61.1806 110.039 61.7355C109.587 62.2903 108.935 62.7161 108.084 63.0129C107.245 63.3097 106.232 63.4581 105.045 63.4581H102.51V62.9355H105.026C106.097 62.9355 106.89 62.6903 107.406 62.2C107.923 61.7097 108.181 60.9613 108.181 59.9548C108.181 58.9742 107.929 58.2516 107.426 57.7871C106.923 57.3097 106.148 57.071 105.103 57.071H103.671V66.5161H101.116ZM110.542 70.271C109.794 70.271 109.219 70.0903 108.819 69.729C108.419 69.3548 108.135 68.7484 107.968 67.9097L107.503 65.8C107.387 65.2452 107.232 64.8194 107.039 64.5226C106.858 64.2129 106.613 63.9935 106.303 63.8645C105.994 63.7355 105.587 63.671 105.084 63.671H102.645V63.1677H104.89C106.09 63.1677 107.039 63.2645 107.735 63.4581C108.445 63.6387 108.987 63.9613 109.361 64.4258C109.748 64.8774 110.039 65.5161 110.232 66.3419L110.561 67.6774C110.677 68.1677 110.819 68.5161 110.987 68.7226C111.155 68.929 111.387 69.0258 111.684 69.0129C111.839 69.0129 111.981 68.9806 112.11 68.9161C112.239 68.8516 112.381 68.7355 112.535 68.5677L112.923 69.1097C112.6 69.5097 112.245 69.8065 111.858 70C111.484 70.1806 111.045 70.271 110.542 70.271ZM102.161 69.9419C101.787 69.9419 101.4 69.9484 101 69.9613C100.6 69.9613 100.226 69.9677 99.8774 69.9806C99.529 69.9806 99.2323 69.9871 98.9871 70V69.2452L99.6452 69.1871C100.045 69.1355 100.355 69.0645 100.574 68.9742C100.794 68.8839 100.935 68.729 101 68.5097C101.077 68.2903 101.116 67.9806 101.116 67.5806V66.5161H103.671V67.5806C103.671 68.1871 103.742 68.5935 103.884 68.8C104.026 69.0065 104.342 69.1419 104.832 69.2065L105.2 69.2452V70C104.994 69.9871 104.742 69.9806 104.445 69.9806C104.161 69.9677 103.858 69.9613 103.535 69.9613C103.213 69.9484 102.89 69.9419 102.568 69.9419H102.413H102.161ZM118.528 70.271C117.573 70.271 116.741 70.0645 116.031 69.6516C115.335 69.2258 114.793 68.6194 114.406 67.8323C114.031 67.0452 113.844 66.1097 113.844 65.0258C113.844 63.9161 114.038 62.9677 114.425 62.1806C114.825 61.3935 115.386 60.7935 116.109 60.3806C116.844 59.9548 117.702 59.7419 118.683 59.7419C119.56 59.7419 120.315 59.9097 120.948 60.2452C121.58 60.5677 122.057 61.0774 122.38 61.7742C122.715 62.471 122.87 63.3742 122.844 64.4839H115.49L115.451 63.7484H120.619C120.631 63.1161 120.567 62.5548 120.425 62.0645C120.296 61.5742 120.083 61.1871 119.786 60.9032C119.49 60.6194 119.109 60.4774 118.644 60.4774C118.051 60.4774 117.535 60.7548 117.096 61.3097C116.657 61.8516 116.399 62.7161 116.322 63.9032L116.36 63.9613C116.348 64.0903 116.335 64.2258 116.322 64.3677C116.322 64.5097 116.322 64.671 116.322 64.8516C116.322 66.1677 116.573 67.1935 117.077 67.929C117.58 68.6516 118.309 69.0129 119.264 69.0129C119.909 69.0129 120.47 68.8581 120.948 68.5484C121.438 68.2258 121.851 67.729 122.186 67.0581L122.864 67.4645C122.502 68.3548 121.948 69.0452 121.199 69.5355C120.451 70.0258 119.56 70.271 118.528 70.271ZM129.633 70.271C129.078 70.271 128.613 70.2129 128.239 70.0968C127.865 69.9806 127.555 69.8645 127.31 69.7484C127.065 69.6323 126.846 69.5742 126.652 69.5742C126.355 69.5742 126.136 69.7742 125.994 70.1742H125.239C125.278 69.8387 125.304 69.4903 125.316 69.129C125.329 68.7548 125.336 68.3419 125.336 67.8903C125.349 67.4258 125.349 66.8903 125.336 66.2839H126.071C126.278 67.3548 126.658 68.1613 127.213 68.7032C127.768 69.2323 128.491 69.4968 129.381 69.4968C130.013 69.4968 130.497 69.3613 130.833 69.0903C131.181 68.8194 131.355 68.4452 131.355 67.9677C131.355 67.5032 131.168 67.1226 130.794 66.8258C130.433 66.529 129.794 66.2516 128.878 65.9935C127.704 65.6452 126.846 65.2 126.304 64.6581C125.762 64.1161 125.491 63.4387 125.491 62.6258C125.491 61.7484 125.781 61.0516 126.362 60.5355C126.942 60.0065 127.723 59.7419 128.704 59.7419C129.22 59.7419 129.652 59.8 130 59.9161C130.362 60.0194 130.665 60.1355 130.91 60.2645C131.155 60.3806 131.375 60.4387 131.568 60.4387C131.697 60.4387 131.807 60.3935 131.897 60.3032C131.987 60.2 132.065 60.0452 132.129 59.8387H132.884C132.858 60.1226 132.839 60.4194 132.826 60.729C132.813 61.0258 132.8 61.3742 132.787 61.7742C132.787 62.1613 132.794 62.6452 132.807 63.2258H132.052C131.884 62.3613 131.529 61.6903 130.987 61.2129C130.446 60.7355 129.794 60.4968 129.033 60.4968C128.504 60.4968 128.091 60.6194 127.794 60.8645C127.497 61.1097 127.349 61.4581 127.349 61.9097C127.349 62.3742 127.549 62.7677 127.949 63.0903C128.349 63.4 129.039 63.6968 130.02 63.9806C131.142 64.2903 131.955 64.6968 132.458 65.2C132.962 65.6903 133.213 66.3484 133.213 67.1742C133.213 68.1419 132.891 68.9032 132.246 69.4581C131.613 70 130.742 70.271 129.633 70.271ZM140.574 70.271C139.645 70.271 138.812 70.0839 138.077 69.7097C137.354 69.3226 136.78 68.7419 136.354 67.9677C135.941 67.1935 135.735 66.2065 135.735 65.0065C135.735 63.8065 135.941 62.8194 136.354 62.0452C136.78 61.2581 137.354 60.6774 138.077 60.3032C138.812 59.929 139.651 59.7419 140.593 59.7419C141.535 59.7419 142.367 59.929 143.09 60.3032C143.812 60.6774 144.38 61.2581 144.793 62.0452C145.219 62.8194 145.432 63.8065 145.432 65.0065C145.432 66.2065 145.219 67.1935 144.793 67.9677C144.38 68.7419 143.806 69.3226 143.07 69.7097C142.348 70.0839 141.516 70.271 140.574 70.271ZM140.593 69.5161C141.277 69.5161 141.838 69.1613 142.277 68.4516C142.716 67.729 142.935 66.5806 142.935 65.0065C142.935 63.4194 142.709 62.271 142.258 61.5613C141.819 60.8387 141.264 60.4774 140.593 60.4774C139.896 60.4774 139.322 60.8387 138.87 61.5613C138.432 62.271 138.212 63.4194 138.212 65.0065C138.212 66.5806 138.432 67.729 138.87 68.4516C139.322 69.1613 139.896 69.5161 140.593 69.5161ZM150.29 69.9419C149.696 69.9419 149.154 69.9484 148.664 69.9613C148.187 69.9742 147.683 69.9871 147.154 70V69.2452L147.735 69.2065C148.264 69.1548 148.625 69.0258 148.819 68.8194C149.012 68.6 149.109 68.2258 149.109 67.6968V65.0258H151.47V67.6968C151.47 68.0452 151.516 68.3226 151.606 68.529C151.709 68.7355 151.87 68.8903 152.09 68.9935C152.309 69.0839 152.619 69.1484 153.019 69.1871L153.754 69.2452V70C153.367 69.9871 152.993 69.9806 152.632 69.9806C152.27 69.9677 151.896 69.9613 151.509 69.9613C151.135 69.9484 150.729 69.9419 150.29 69.9419ZM149.109 65.0258V62.3742C149.109 61.8194 149.012 61.4387 148.819 61.2323C148.625 61.0129 148.258 60.8774 147.716 60.8258L147.154 60.7677V60.0129C147.425 60.0258 147.677 60.0387 147.909 60.0516C148.141 60.0516 148.393 60.0516 148.664 60.0516C149.219 60.0516 149.729 60.0323 150.193 59.9935C150.658 59.9419 151.083 59.8774 151.47 59.8V60.0129V65.0258H149.109ZM154.877 63.4C154.58 63.4 154.335 63.3161 154.141 63.1484C153.961 62.9806 153.87 62.7613 153.87 62.4903C153.87 62.3097 153.903 62.1484 153.967 62.0065C154.032 61.8645 154.096 61.729 154.161 61.6C154.225 61.4581 154.258 61.329 154.258 61.2129C154.258 60.929 154.07 60.7871 153.696 60.7871C153.412 60.7871 153.116 60.8581 152.806 61C152.509 61.1419 152.232 61.3355 151.974 61.5806C151.729 61.8258 151.541 62.1032 151.412 62.4129L151.354 61.6C151.69 61.0065 152.122 60.5484 152.651 60.2258C153.193 59.8903 153.761 59.7226 154.354 59.7226C154.961 59.7226 155.438 59.8968 155.787 60.2452C156.135 60.5935 156.309 61.071 156.309 61.6774C156.309 62.1935 156.18 62.6129 155.922 62.9355C155.664 63.2452 155.316 63.4 154.877 63.4ZM162.279 70.271C161.286 70.271 160.537 69.9935 160.034 69.4387C159.544 68.871 159.298 68.0258 159.298 66.9032V65.0258H161.64V67.5032C161.64 68.0452 161.75 68.4452 161.969 68.7032C162.189 68.9613 162.518 69.0903 162.957 69.0903C163.369 69.0903 163.711 68.9613 163.982 68.7032C164.266 68.4452 164.492 68.0581 164.66 67.5419L165.26 67.7742C165.015 68.6387 164.653 69.271 164.176 69.671C163.698 70.071 163.066 70.271 162.279 70.271ZM159.298 65.0258V57.1484C159.75 57.1484 160.169 57.1226 160.557 57.071C160.944 57.0065 161.305 56.9226 161.64 56.8194V65.0258H159.298ZM157.092 60.7871V60.0323H164.737V60.7871H157.092ZM177.344 70C177.073 70 176.712 69.9935 176.26 69.9806C175.821 69.9548 175.383 69.9419 174.944 69.9419C174.531 69.9419 174.105 69.9484 173.666 69.9613C173.241 69.9613 172.834 69.9677 172.447 69.9806C172.073 69.9806 171.75 69.9871 171.479 70V69.2452L172.176 69.1871C172.589 69.1484 172.899 69.0839 173.105 68.9935C173.312 68.8903 173.447 68.729 173.512 68.5097C173.589 68.2903 173.628 67.9806 173.628 67.5806V58.7161C173.628 58.3161 173.589 58.0065 173.512 57.7871C173.447 57.5677 173.312 57.4129 173.105 57.3226C172.899 57.2194 172.589 57.1484 172.176 57.1097L171.479 57.0516V56.2968C171.75 56.2968 172.073 56.3032 172.447 56.3161C172.834 56.329 173.241 56.3419 173.666 56.3548C174.105 56.3548 174.531 56.3548 174.944 56.3548C175.383 56.3548 175.821 56.3484 176.26 56.3355C176.712 56.3097 177.073 56.2968 177.344 56.2968H178.079C179.576 56.2968 180.718 56.5677 181.505 57.1097C182.292 57.6516 182.686 58.4452 182.686 59.4903C182.686 60.329 182.395 61.0258 181.815 61.5806C181.247 62.1355 180.415 62.5226 179.318 62.7419V62.7613C180.776 62.8774 181.879 63.2323 182.628 63.8258C183.376 64.4065 183.75 65.2065 183.75 66.2258C183.75 67.4 183.286 68.3226 182.357 68.9935C181.441 69.6645 180.157 70 178.505 70H177.344ZM177.692 69.2065C178.815 69.2065 179.653 68.9548 180.208 68.4516C180.776 67.9355 181.06 67.1677 181.06 66.1484C181.06 65.1935 180.789 64.471 180.247 63.9806C179.718 63.4903 178.912 63.2452 177.828 63.2452H175.563V62.529H177.595C178.434 62.529 179.079 62.2839 179.531 61.7935C179.983 61.3032 180.208 60.6 180.208 59.6839C180.208 58.8194 179.989 58.1677 179.55 57.729C179.124 57.2903 178.46 57.071 177.557 57.071H176.183V67.6C176.183 68.0387 176.221 68.3742 176.299 68.6065C176.376 68.8387 176.524 69 176.744 69.0903C176.963 69.1677 177.279 69.2065 177.692 69.2065ZM190.941 70.271C190.012 70.271 189.18 70.0839 188.444 69.7097C187.722 69.3226 187.147 68.7419 186.722 67.9677C186.309 67.1935 186.102 66.2065 186.102 65.0065C186.102 63.8065 186.309 62.8194 186.722 62.0452C187.147 61.2581 187.722 60.6774 188.444 60.3032C189.18 59.929 190.018 59.7419 190.96 59.7419C191.902 59.7419 192.734 59.929 193.457 60.3032C194.18 60.6774 194.747 61.2581 195.16 62.0452C195.586 62.8194 195.799 63.8065 195.799 65.0065C195.799 66.2065 195.586 67.1935 195.16 67.9677C194.747 68.7419 194.173 69.3226 193.438 69.7097C192.715 70.0839 191.883 70.271 190.941 70.271ZM190.96 69.5161C191.644 69.5161 192.205 69.1613 192.644 68.4516C193.083 67.729 193.302 66.5806 193.302 65.0065C193.302 63.4194 193.076 62.271 192.625 61.5613C192.186 60.8387 191.631 60.4774 190.96 60.4774C190.263 60.4774 189.689 60.8387 189.238 61.5613C188.799 62.271 188.58 63.4194 188.58 65.0065C188.58 66.5806 188.799 67.729 189.238 68.4516C189.689 69.1613 190.263 69.5161 190.96 69.5161ZM203.175 70.271C202.246 70.271 201.414 70.0839 200.678 69.7097C199.956 69.3226 199.382 68.7419 198.956 67.9677C198.543 67.1935 198.337 66.2065 198.337 65.0065C198.337 63.8065 198.543 62.8194 198.956 62.0452C199.382 61.2581 199.956 60.6774 200.678 60.3032C201.414 59.929 202.253 59.7419 203.195 59.7419C204.137 59.7419 204.969 59.929 205.691 60.3032C206.414 60.6774 206.982 61.2581 207.395 62.0452C207.82 62.8194 208.033 63.8065 208.033 65.0065C208.033 66.2065 207.82 67.1935 207.395 67.9677C206.982 68.7419 206.408 69.3226 205.672 69.7097C204.949 70.0839 204.117 70.271 203.175 70.271ZM203.195 69.5161C203.878 69.5161 204.44 69.1613 204.878 68.4516C205.317 67.729 205.537 66.5806 205.537 65.0065C205.537 63.4194 205.311 62.271 204.859 61.5613C204.42 60.8387 203.866 60.4774 203.195 60.4774C202.498 60.4774 201.924 60.8387 201.472 61.5613C201.033 62.271 200.814 63.4194 200.814 65.0065C200.814 66.5806 201.033 67.729 201.472 68.4516C201.924 69.1613 202.498 69.5161 203.195 69.5161ZM212.704 69.9419C212.11 69.9419 211.568 69.9484 211.078 69.9613C210.601 69.9742 210.097 69.9871 209.568 70V69.2452L210.149 69.2065C210.678 69.1548 211.039 69.0258 211.233 68.8194C211.426 68.6 211.523 68.2258 211.523 67.6968V65.0258H213.885V67.6968C213.885 68.2387 213.968 68.6194 214.136 68.8387C214.304 69.0581 214.607 69.1871 215.046 69.2258L215.259 69.2452V70C214.82 69.9871 214.401 69.9742 214.001 69.9613C213.614 69.9484 213.181 69.9419 212.704 69.9419ZM211.523 65.0258V57.4C211.523 56.8581 211.426 56.4774 211.233 56.2581C211.039 56.0387 210.672 55.9032 210.13 55.8516L209.568 55.7935V55.0581C209.839 55.071 210.091 55.0839 210.323 55.0968C210.555 55.0968 210.807 55.0968 211.078 55.0968C211.633 55.0968 212.143 55.0774 212.607 55.0387C213.072 54.9871 213.497 54.9161 213.885 54.8258V55.0581V65.0258H211.523ZM216.691 70V69.2258C217.194 69.1742 217.504 69.071 217.62 68.9161C217.736 68.7484 217.71 68.471 217.543 68.0839L216.768 66.3032C216.549 65.8129 216.304 65.4774 216.033 65.2968C215.762 65.1032 215.388 65.0065 214.91 65.0065H213.555V64.2323H214.794C215.22 64.2323 215.568 64.1742 215.839 64.0581C216.123 63.9419 216.407 63.729 216.691 63.4194L217.155 62.8968C217.414 62.6129 217.588 62.3484 217.678 62.1032C217.768 61.8452 217.768 61.6194 217.678 61.4258C217.588 61.2323 217.414 61.0774 217.155 60.9613C216.91 60.8452 216.581 60.7806 216.168 60.7677V60.0129C216.543 60.0258 216.949 60.0387 217.388 60.0516C217.826 60.0645 218.304 60.071 218.82 60.071C219.155 60.071 219.465 60.071 219.749 60.071C220.046 60.0581 220.33 60.0516 220.601 60.0516C220.872 60.0387 221.149 60.0258 221.433 60.0129V60.7677C220.981 60.8581 220.588 60.9806 220.252 61.1355C219.917 61.2903 219.607 61.4839 219.323 61.7161C219.052 61.9355 218.762 62.2194 218.452 62.5677L216.672 64.5032V64.0194C217.123 64.0581 217.497 64.1484 217.794 64.2903C218.091 64.4323 218.349 64.6581 218.568 64.9677C218.788 65.2645 219.007 65.671 219.226 66.1871L219.865 67.5806C220.046 67.9935 220.233 68.3161 220.426 68.5484C220.633 68.7677 220.878 68.929 221.162 69.0323C221.446 69.1226 221.814 69.1871 222.265 69.2258V70C221.814 69.9871 221.42 69.9806 221.085 69.9806C220.762 69.9677 220.465 69.9613 220.194 69.9613C219.923 69.9484 219.652 69.9419 219.381 69.9419C218.981 69.9419 218.581 69.9484 218.181 69.9613C217.781 69.9613 217.285 69.9742 216.691 70ZM225.117 65.0258V62.3742C225.117 61.8194 225.02 61.4387 224.827 61.2323C224.633 61.0129 224.265 60.8774 223.723 60.8258L223.162 60.7677V60.0129C223.433 60.0258 223.685 60.0387 223.917 60.0516C224.149 60.0516 224.401 60.0516 224.672 60.0516C225.227 60.0516 225.736 60.0323 226.201 59.9935C226.665 59.9419 227.091 59.8774 227.478 59.8V60.0129V65.0258H225.117ZM226.298 69.9419C225.704 69.9419 225.162 69.9484 224.672 69.9613C224.194 69.9742 223.691 69.9871 223.162 70V69.2452L223.743 69.2065C224.272 69.1548 224.633 69.0258 224.827 68.8194C225.02 68.6 225.117 68.2258 225.117 67.6968V65.0258H227.478V67.6968C227.478 68.2258 227.575 68.6 227.769 68.8194C227.962 69.0258 228.323 69.1548 228.852 69.2065L229.433 69.2452V70C228.904 69.9871 228.394 69.9742 227.904 69.9613C227.427 69.9484 226.891 69.9419 226.298 69.9419ZM226.298 57.9226C225.872 57.9226 225.504 57.7871 225.194 57.5161C224.885 57.2452 224.73 56.8968 224.73 56.471C224.73 56.0323 224.885 55.6839 225.194 55.4258C225.504 55.1548 225.872 55.0194 226.298 55.0194C226.723 55.0194 227.091 55.1548 227.401 55.4258C227.711 55.6839 227.865 56.0323 227.865 56.471C227.865 56.8968 227.711 57.2452 227.401 57.5161C227.091 57.7871 226.723 57.9226 226.298 57.9226ZM233.845 69.9419C233.251 69.9419 232.709 69.9484 232.219 69.9613C231.741 69.9742 231.238 69.9871 230.709 70V69.2452L231.29 69.2065C231.819 69.1548 232.18 69.0258 232.374 68.8194C232.567 68.6 232.664 68.2258 232.664 67.6968V65.0258H235.025V67.6968C235.025 68.2258 235.109 68.6065 235.277 68.8387C235.457 69.0581 235.774 69.1871 236.225 69.2258L236.477 69.2452V70C236.025 69.9871 235.593 69.9742 235.18 69.9613C234.78 69.9484 234.335 69.9419 233.845 69.9419ZM232.664 65.0258V62.3742C232.664 61.8194 232.567 61.4387 232.374 61.2323C232.18 61.0129 231.812 60.8774 231.27 60.8258L230.709 60.7677V60.0129C230.98 60.0258 231.232 60.0387 231.464 60.0516C231.696 60.0516 231.948 60.0516 232.219 60.0516C232.774 60.0516 233.283 60.0323 233.748 59.9935C234.212 59.9419 234.638 59.8774 235.025 59.8V60.0129V65.0258H232.664ZM239.186 65.0258V63.1484C239.186 62.4 239.038 61.8387 238.741 61.4645C238.445 61.0903 237.993 60.9032 237.386 60.9032C236.767 60.9032 236.212 61.1032 235.722 61.5032C235.245 61.8903 234.825 62.5032 234.464 63.3419L234.309 62.9742C234.735 61.8516 235.277 61.0323 235.935 60.5161C236.606 60 237.399 59.7419 238.315 59.7419C239.361 59.7419 240.161 60.0516 240.715 60.671C241.27 61.2774 241.548 62.1613 241.548 63.3226V65.0258H239.186ZM240.367 69.9419C239.89 69.9419 239.451 69.9484 239.051 69.9613C238.651 69.9742 238.232 69.9871 237.793 70V69.2452L238.006 69.2258C238.457 69.1871 238.767 69.0581 238.935 68.8387C239.103 68.6065 239.186 68.2258 239.186 67.6968V65.0258H241.548V67.6968C241.548 68.2258 241.645 68.6 241.838 68.8194C242.045 69.0258 242.406 69.1548 242.922 69.2065L243.503 69.2452V70C242.974 69.9871 242.464 69.9742 241.974 69.9613C241.496 69.9484 240.961 69.9419 240.367 69.9419ZM248.812 74.6258C247.483 74.6258 246.437 74.4 245.676 73.9484C244.928 73.4968 244.553 72.9032 244.553 72.1677C244.553 71.5742 244.779 71.0452 245.231 70.5806C245.695 70.129 246.366 69.7484 247.244 69.4387L247.766 69.7484C247.392 69.9419 247.095 70.2194 246.876 70.5806C246.67 70.9548 246.566 71.3613 246.566 71.8C246.566 72.471 246.799 72.9871 247.263 73.3484C247.728 73.7097 248.379 73.8903 249.218 73.8903C249.876 73.8903 250.457 73.7806 250.96 73.5613C251.476 73.3419 251.876 73.0387 252.16 72.6516C252.457 72.2774 252.605 71.8452 252.605 71.3548C252.605 70.9032 252.457 70.5613 252.16 70.329C251.863 70.0968 251.424 69.9806 250.844 69.9806H248.812C247.999 69.9806 247.353 69.8258 246.876 69.5161C246.399 69.1935 246.16 68.7677 246.16 68.2387C246.16 67.8129 246.308 67.4194 246.605 67.0581C246.902 66.6968 247.347 66.3548 247.941 66.0323L248.599 66.1097C248.353 66.2774 248.173 66.4452 248.057 66.6129C247.941 66.7806 247.883 66.9613 247.883 67.1548C247.883 67.4129 247.992 67.6065 248.212 67.7355C248.431 67.8645 248.741 67.929 249.141 67.929H251.289C252.373 67.929 253.199 68.1548 253.766 68.6065C254.347 69.0452 254.637 69.6903 254.637 70.5419C254.637 71.3419 254.386 72.0452 253.883 72.6516C253.392 73.271 252.708 73.7548 251.831 74.1032C250.966 74.4516 249.96 74.6258 248.812 74.6258ZM249.141 66.2258C247.915 66.2258 246.953 65.9419 246.257 65.3742C245.56 64.7935 245.212 63.9935 245.212 62.9742C245.212 61.9677 245.56 61.1806 246.257 60.6129C246.953 60.0323 247.908 59.7419 249.121 59.7419C250.347 59.7419 251.302 60.0258 251.986 60.5935C252.67 61.1613 253.012 61.9548 253.012 62.9742C253.012 63.9935 252.67 64.7935 251.986 65.3742C251.302 65.9419 250.353 66.2258 249.141 66.2258ZM249.141 65.4903C249.695 65.4903 250.108 65.2839 250.379 64.871C250.663 64.4581 250.805 63.8258 250.805 62.9742C250.805 62.1226 250.663 61.4903 250.379 61.0774C250.108 60.6645 249.695 60.4581 249.141 60.4581C248.599 60.4581 248.186 60.6645 247.902 61.0774C247.631 61.4903 247.495 62.1226 247.495 62.9742C247.495 63.8258 247.631 64.4581 247.902 64.871C248.173 65.2839 248.586 65.4903 249.141 65.4903ZM254.753 62.3548C254.495 62.3548 254.302 62.2774 254.173 62.1226C254.057 61.9548 253.966 61.7613 253.902 61.5419C253.837 61.3226 253.766 61.129 253.689 60.9613C253.624 60.7935 253.521 60.7097 253.379 60.7097C253.289 60.7097 253.173 60.7548 253.031 60.8452C252.889 60.9226 252.741 61.0387 252.586 61.1935C252.431 61.3484 252.295 61.5355 252.179 61.7548L251.831 61.1935C252.102 60.7677 252.463 60.4194 252.915 60.1484C253.379 59.8774 253.844 59.7419 254.308 59.7419C254.721 59.7419 255.05 59.8645 255.295 60.1097C255.541 60.3419 255.663 60.6774 255.663 61.1161C255.663 61.4903 255.579 61.7935 255.412 62.0258C255.257 62.2452 255.037 62.3548 254.753 62.3548Z" fill="#CACACA"/>
</svg>
