<svg width="258" height="67" viewBox="0 0 258 67" fill="none" xmlns="http://www.w3.org/2000/svg">
<path d="M0 0C9.81903 0.41606 18.7772 5.3426 25.7728 11.9659C26.0477 12.221 26.3225 12.4761 26.6057 12.739C29.5708 15.5793 31.7162 18.8431 33.9226 22.2827C37.0845 27.6112 37.0845 27.6112 42.0342 30.9887C42.1145 30.8127 42.1947 30.6367 42.2775 30.4554C43.8993 27.4163 47.2706 24.8703 50.4525 23.6059C54.5079 22.5591 58.6066 23.6144 62.2842 25.466C62.3855 25.6685 62.4867 25.871 62.591 26.0796C62.2297 26.2588 62.2297 26.2588 61.8611 26.4415C57.9117 28.5447 56.485 31.6882 54.62 35.5559C48.6625 47.8985 40.7893 55.9555 27.7863 60.6351C16.157 64.6675 16.157 64.6675 10.7387 64.4319C11.6681 63.6618 12.654 63.1422 13.7257 62.605C16.4646 61.2269 18.836 59.6632 21.1705 57.6819C21.479 57.4201 21.7875 57.1583 22.1053 56.8885C26.0253 53.4689 29.0562 49.4266 31.9091 45.1024C31.0255 44.413 30.1143 43.8459 29.1478 43.2806C22.1404 38.8239 18.669 30.8998 15.761 23.453C13.6694 18.1038 11.495 12.5665 7.97729 7.97729C7.77637 7.70953 7.57545 7.44177 7.36844 7.1659C5.38219 4.59839 3.29742 2.51369 0.584873 0.720305C0.391865 0.583854 0.198857 0.447404 0 0.306819C0 0.205569 0 0.104318 0 0Z" fill="#2258C3"/>
<path d="M50.4266 51.5295C51.0064 51.53 51.0064 51.53 51.5979 51.5304C52.4134 51.5339 53.2266 51.5425 54.0416 51.5606C55.2753 51.5875 56.5077 51.5857 57.7417 51.5835C62.7777 51.6098 67.4924 51.6492 71.4604 55.155C73.958 57.83 74.6699 60.719 74.5945 64.2793C74.5918 64.5316 74.589 64.784 74.5861 65.044C74.579 65.6584 74.568 66.2729 74.5562 66.8873C73.0374 66.8873 71.5187 66.8873 69.9539 66.8873C69.9367 66.316 69.9367 66.316 69.9191 65.7331C69.899 65.2293 69.8786 64.7255 69.858 64.2218C69.8511 63.9712 69.8442 63.7207 69.837 63.4625C69.7734 62.0325 69.7236 60.9349 68.7266 59.8304C66.9979 58.6881 65.4688 58.4232 63.4304 58.4357C63.1577 58.4325 62.885 58.4293 62.6041 58.4261C61.7109 58.4171 60.818 58.4166 59.9248 58.4162C59.3023 58.4116 58.6798 58.4065 58.0573 58.4008C56.4251 58.3874 54.7929 58.3813 53.1606 58.3767C51.4926 58.3706 49.8246 58.3578 48.1566 58.3455C44.8883 58.3224 41.6199 58.307 38.3516 58.2963C39.5223 57.0921 40.7782 56.2673 42.1988 55.378C42.856 54.9483 44.2369 53.5864 44.7801 53.012C46.8576 50.8547 47.492 51.4538 50.4266 51.5295Z" fill="#0F172A"/>
<path d="M14.1134 38.0449C14.1134 42.6012 14.1134 47.1574 14.1134 51.8518C17.5559 51.8518 20.9984 51.8518 24.5452 51.8518C23.2284 53.6075 22.1256 54.9269 20.4799 56.2815C20.2884 56.4434 20.097 56.6054 19.8998 56.7722C18.4313 58.0049 17.819 58.3344 15.9159 58.3141C15.5798 58.3114 15.2436 58.3086 14.8972 58.3057C14.5092 58.3004 14.5092 58.3004 14.1134 58.295C14.1956 58.6493 14.2779 59.0037 14.3627 59.3688C14.3735 60.0424 14.3735 60.0424 14.1134 60.7495C12.8783 61.7551 11.5379 62.477 10.1247 63.2041C9.89851 63.3282 9.67227 63.4524 9.43919 63.5804C8.89746 63.8177 8.89746 63.8177 7.97701 63.8177C7.94849 61.0998 7.92672 58.382 7.91342 55.664C7.90703 54.4017 7.89837 53.1396 7.88442 51.8774C7.87103 50.6579 7.86373 49.4385 7.86057 48.2189C7.85831 47.7551 7.8539 47.2912 7.84725 46.8274C7.77681 41.7127 7.77681 41.7127 9.6376 39.7312C11.0938 38.4221 12.1775 38.0449 14.1134 38.0449Z" fill="#0F172A"/>
<path d="M41.1147 7.67188C42.3862 8.19359 43.3373 9.09597 44.3555 9.99219C44.7427 10.3289 45.1303 10.6653 45.518 11.0013C45.8041 11.2495 45.8041 11.2495 46.096 11.5026C46.8215 12.1253 47.5621 12.7281 48.3058 13.3288C49.6737 14.4385 51.0058 15.5843 52.3328 16.7422C54.0805 18.2673 55.8525 19.7463 57.6829 21.1719C56.8273 21.4155 56.0808 21.5127 55.1924 21.4979C54.9555 21.4955 54.7186 21.4931 54.4745 21.4907C53.9823 21.4828 53.4901 21.4748 52.998 21.4667C52.7603 21.4644 52.5226 21.462 52.2776 21.4595C52.0459 21.4572 49.9591 22.3937 49.7204 22.3913C49.014 22.3981 50.6333 22.125 49.7204 22.3913C48.8562 22.4512 49.092 21.7855 48.1584 21.1743C47.8321 20.8847 47.5106 20.5895 47.1936 20.2898C46.8463 19.9783 46.4987 19.6671 46.1509 19.3562C45.9773 19.1982 45.8038 19.0402 45.625 18.8775C44.8272 18.1634 43.9986 17.4929 43.1666 16.8189C42.8893 16.5931 42.6121 16.3672 42.3264 16.1346C42.1291 15.9744 41.9317 15.8142 41.7284 15.6492C40.3553 16.0902 39.5282 16.7921 38.4876 17.7777C37.5527 18.6581 36.6384 19.5054 35.592 20.2514C34.3 19.7819 33.785 18.9374 33.0416 17.8161C32.8213 17.4906 32.601 17.1651 32.374 16.8297C32.2209 16.5414 32.0679 16.253 31.9102 15.956C32.2886 14.8207 32.7196 14.5609 33.6552 13.8274C35.2771 12.5346 36.8555 11.2005 38.4231 9.84245C39.2992 9.08616 40.1756 8.35028 41.1147 7.67188Z" fill="#0F172A"/>
<path d="M53.7824 43.1094C56.139 43.1571 58.4656 43.3778 60.8068 43.6451C61.2712 43.6953 61.2712 43.6953 61.7449 43.7465C64.9432 44.1458 67.5068 45.1403 69.9539 47.2502C70.1402 47.4041 70.3264 47.5579 70.5184 47.7165C72.7361 49.711 74.0861 52.6098 74.5562 55.5343C74.4135 56.2151 74.4135 56.2151 74.2493 56.7616C74.152 56.565 74.0547 56.3685 73.9545 56.166C72.2715 53.0463 69.9977 51.6352 66.6753 50.5702C64.9671 50.1472 63.2927 50.1333 61.5403 50.1314C61.1642 50.1264 60.788 50.1213 60.4004 50.1161C59.2127 50.1013 58.0252 50.0947 56.8374 50.0883C56.0264 50.0797 55.2154 50.0705 54.4044 50.0607C52.4285 50.0382 50.4526 50.0223 48.4766 50.0116C48.8679 49.2153 49.2698 48.488 49.7889 47.768C49.9212 47.5837 50.0535 47.3994 50.1898 47.2095C50.3269 47.0204 50.4639 46.8314 50.6051 46.6366C50.8089 46.353 50.8089 46.353 51.0168 46.0637C51.2796 45.6986 51.5443 45.3348 51.8109 44.9725C52.0957 44.5761 52.3593 44.1644 52.6162 43.7494C53.0788 43.2616 53.0788 43.2616 53.7824 43.1094Z" fill="#0F172A"/>
<path d="M65.046 27.6142C65.7784 28.1485 66.4163 28.6721 67.0787 29.2825C67.4623 29.624 67.8462 29.9652 68.2304 30.306C68.4191 30.4752 68.6079 30.6444 68.8023 30.8187C69.5337 31.4662 70.2883 32.0822 71.0481 32.6959C72.4532 33.8368 73.8369 35.0005 75.2147 36.1741C76.586 37.3395 77.9826 38.4696 79.3922 39.5885C80.0405 40.1589 80.4965 40.7254 81.0006 41.421C72.9934 42.0361 72.9934 42.0361 70.9098 40.3851C70.2943 39.7904 69.7169 39.1747 69.1599 38.525C68.4161 37.7005 67.5528 37.022 66.6951 36.3201C66.3648 36.0413 66.0348 35.7621 65.7052 35.4824C63.7709 33.853 61.8067 32.2601 59.8301 30.6824C60.2806 29.5246 60.8637 29.0852 61.9203 28.4579C62.3124 28.2182 62.3124 28.2182 62.7125 27.9737C63.6313 27.5605 64.0547 27.4183 65.046 27.6142Z" fill="#0F172A"/>
<path d="M22.669 40.7138C24.1844 41.4962 25.3115 42.6476 26.0788 44.1823C26.2607 46.001 25.9322 47.3295 24.8515 48.7846C23.7015 49.8593 22.5551 50.4088 20.9779 50.4913C19.2353 50.3833 18.2343 49.5785 17.0852 48.3052C16.0641 46.8303 16.0711 45.3044 16.2606 43.5687C16.8987 42.1903 17.7121 41.3922 19.0459 40.7138C20.2907 40.2635 21.4253 40.2555 22.669 40.7138Z" fill="#0F172A"/>
<path d="M16.2605 29.4551C16.6885 30.1936 17.1091 30.9349 17.5261 31.6795C17.6483 31.8887 17.7706 32.098 17.8965 32.3135C18.7605 33.8748 18.7605 33.8748 18.5389 34.7657C17.8339 35.6019 17.1574 36.1781 16.2605 36.8187C15.9567 36.7175 15.653 36.6162 15.34 36.5119C12.7135 36.2227 10.7102 36.7794 8.64756 38.4295C7.81592 39.475 7.30477 40.5136 6.74912 41.7278C5.02787 41.7278 3.30662 41.7278 1.5332 41.7278C3.76852 39.4925 6.11046 37.436 8.56726 35.4488C9.90398 34.3465 11.2087 33.2086 12.513 32.0681C15.5063 29.4551 15.5063 29.4551 16.2605 29.4551Z" fill="#0F172A"/>
<path d="M105.87 49.588C105.142 49.588 104.54 49.56 104.064 49.504C103.616 49.448 103.168 49.378 102.72 49.294C102.272 49.21 101.726 49.14 101.082 49.084C100.438 49.028 99.556 49 98.436 49L96.966 38.08H97.47C97.89 41.524 98.842 44.184 100.326 46.06C101.838 47.908 103.77 48.832 106.122 48.832C107.858 48.832 109.272 48.342 110.364 47.362C111.456 46.382 112.002 45.108 112.002 43.54C112.002 42.868 111.876 42.224 111.624 41.608C111.4 40.992 111.008 40.334 110.448 39.634C109.888 38.934 109.146 38.178 108.222 37.366C107.298 36.526 106.15 35.588 104.778 34.552L103.056 33.25C100.956 31.654 99.5 30.226 98.688 28.966C97.876 27.706 97.47 26.334 97.47 24.85C97.47 22.386 98.366 20.454 100.158 19.054C101.978 17.626 104.372 16.912 107.34 16.912C108.068 16.912 108.656 16.94 109.104 16.996C109.58 17.052 110.028 17.122 110.448 17.206C110.896 17.29 111.414 17.36 112.002 17.416C112.59 17.472 113.346 17.5 114.27 17.5L114.69 25.984H114.27C113.878 23.38 113.038 21.322 111.75 19.81C110.462 18.298 108.908 17.542 107.088 17.542C105.8 17.542 104.764 17.92 103.98 18.676C103.224 19.432 102.846 20.44 102.846 21.7C102.846 22.792 103.196 23.842 103.896 24.85C104.624 25.83 105.87 26.978 107.634 28.294L109.44 29.638C111.288 30.982 112.744 32.228 113.808 33.376C114.9 34.496 115.684 35.588 116.16 36.652C116.636 37.716 116.874 38.85 116.874 40.054C116.874 41.902 116.412 43.54 115.488 44.968C114.564 46.396 113.276 47.516 111.624 48.328C110 49.112 108.082 49.532 105.87 49.588ZM125.54 49.588C124.084 49.588 122.894 49.126 121.97 48.202C121.046 47.278 120.584 46.074 120.584 44.59V28.42H117.014V27.874C118.946 27.734 120.668 27.118 122.18 26.026C123.72 24.934 124.98 23.464 125.96 21.616H126.632V27.664H132.218L131.798 28.42H126.632V43.666C126.632 45.906 127.388 47.026 128.9 47.026C129.404 47.026 129.978 46.872 130.622 46.564C131.294 46.256 131.924 45.85 132.512 45.346V45.766C131.588 46.942 130.496 47.88 129.236 48.58C127.976 49.252 126.744 49.588 125.54 49.588ZM138.984 49.588C137.276 49.588 135.904 49.126 134.868 48.202C133.832 47.278 133.314 46.06 133.314 44.548C133.314 43.904 133.426 43.302 133.65 42.742C133.874 42.154 134.294 41.58 134.91 41.02C135.554 40.46 136.436 39.886 137.556 39.298C138.676 38.682 140.16 38.038 142.008 37.366L145.914 35.938V32.788C145.914 31.192 145.662 29.932 145.158 29.008C144.654 28.056 143.954 27.58 143.058 27.58C141.994 27.608 141.084 28.308 140.328 29.68C139.6 31.052 139.11 32.956 138.858 35.392L134.322 32.788C134.798 31.64 135.526 30.632 136.506 29.764C137.486 28.896 138.606 28.224 139.866 27.748C141.154 27.272 142.498 27.034 143.898 27.034C146.278 27.034 148.21 27.706 149.694 29.05C151.206 30.366 151.962 32.172 151.962 34.468V44.59C151.962 46.214 152.508 47.026 153.6 47.026C154.244 47.026 154.874 46.676 155.49 45.976L155.826 46.27C155.098 47.25 154.216 48.048 153.18 48.664C152.144 49.28 151.136 49.588 150.156 49.588C149.092 49.588 148.168 49.224 147.384 48.496C146.628 47.768 146.152 46.802 145.956 45.598C144.584 46.998 143.38 48.02 142.344 48.664C141.336 49.28 140.216 49.588 138.984 49.588ZM142.134 46.984C142.75 46.984 143.338 46.83 143.898 46.522C144.486 46.214 145.144 45.71 145.872 45.01L145.914 36.484L144.234 37.114C142.806 37.646 141.714 38.192 140.958 38.752C140.202 39.284 139.67 39.886 139.362 40.558C139.082 41.23 138.942 42 138.942 42.868C138.942 44.072 139.236 45.066 139.824 45.85C140.44 46.606 141.21 46.984 142.134 46.984ZM154.172 58.408C153.024 58.408 151.918 58.184 150.854 57.736L152.492 52.822C153.192 53.102 153.948 53.34 154.76 53.536C155.6 53.732 156.44 53.83 157.28 53.83C158.344 53.83 159.338 53.606 160.262 53.158C161.214 52.738 161.928 51.94 162.404 50.764L162.866 49.63L154.55 30.352C154.27 29.68 153.906 29.148 153.458 28.756C152.982 28.336 152.338 28.112 151.526 28.084V27.664H163.664V28.084C162.908 28.168 162.32 28.434 161.9 28.882C161.508 29.33 161.312 29.904 161.312 30.604C161.312 31.22 161.452 31.85 161.732 32.494L165.974 42.448L170.216 32.494C170.496 31.85 170.636 31.22 170.636 30.604C170.636 29.904 170.426 29.33 170.006 28.882C169.614 28.434 169.026 28.168 168.242 28.084V27.664H174.038V28.084C173.394 28.224 172.848 28.644 172.4 29.344C171.952 30.016 171.476 30.94 170.972 32.116L162.404 52.024C161.508 54.096 160.346 55.678 158.918 56.77C157.49 57.862 155.908 58.408 154.172 58.408ZM182.03 49.672L173.672 30.352C173.392 29.708 173.014 29.176 172.538 28.756C172.09 28.336 171.46 28.112 170.648 28.084V27.664H182.408V28.084C181.428 28.196 180.784 28.63 180.476 29.386C180.196 30.142 180.294 31.094 180.77 32.242L185.096 42.364L189.38 32.494C189.66 31.85 189.8 31.22 189.8 30.604C189.8 29.904 189.59 29.33 189.17 28.882C188.75 28.434 188.162 28.168 187.406 28.084V27.664H194.042V28.084C193.314 28.252 192.614 28.672 191.942 29.344C191.27 30.016 190.668 30.94 190.136 32.116L182.408 49.672H182.03ZM203.763 49.588C201.467 49.588 199.451 49.126 197.715 48.202C196.007 47.278 194.677 45.976 193.725 44.296C192.773 42.616 192.297 40.628 192.297 38.332C192.297 36.036 192.773 34.048 193.725 32.368C194.677 30.688 196.007 29.386 197.715 28.462C199.451 27.538 201.467 27.076 203.763 27.076C206.059 27.076 208.061 27.538 209.769 28.462C211.477 29.386 212.807 30.688 213.759 32.368C214.711 34.048 215.187 36.036 215.187 38.332C215.187 40.628 214.711 42.616 213.759 44.296C212.807 45.976 211.477 47.278 209.769 48.202C208.061 49.126 206.059 49.588 203.763 49.588ZM203.721 49.042C204.701 49.042 205.541 48.552 206.241 47.572C206.941 46.592 207.487 45.29 207.879 43.666C208.271 42.014 208.467 40.222 208.467 38.29C208.467 36.19 208.257 34.342 207.837 32.746C207.445 31.122 206.885 29.862 206.157 28.966C205.457 28.042 204.659 27.58 203.763 27.58C202.811 27.58 201.971 28.07 201.243 29.05C200.543 30.03 199.997 31.332 199.605 32.956C199.213 34.58 199.017 36.358 199.017 38.29C199.017 40.418 199.227 42.294 199.647 43.918C200.067 45.542 200.627 46.802 201.327 47.698C202.055 48.594 202.853 49.042 203.721 49.042ZM215.772 49V48.58H215.814C216.822 48.58 217.634 48.272 218.25 47.656C218.866 47.04 219.174 46.228 219.174 45.22V31.444C219.174 30.38 218.95 29.554 218.502 28.966C218.082 28.378 217.172 28.084 215.772 28.084V27.664H219.93C221.414 27.664 222.534 27.524 223.29 27.244C224.046 26.936 224.578 26.544 224.886 26.068H225.096L225.138 32.956C225.502 32.116 225.964 31.234 226.524 30.31C227.112 29.386 227.84 28.616 228.708 28C229.604 27.356 230.668 27.034 231.9 27.034C232.32 27.034 232.768 27.076 233.244 27.16C233.72 27.244 234.224 27.398 234.756 27.622L233.118 32.536C232.11 31.976 231.228 31.584 230.472 31.36C229.744 31.136 229.1 31.024 228.54 31.024C227.588 31.024 226.874 31.318 226.398 31.906C225.95 32.494 225.558 33.194 225.222 34.006V45.22C225.222 46.228 225.53 47.04 226.146 47.656C226.762 48.272 227.574 48.58 228.582 48.58H228.624V49H215.772ZM240.702 49.588C238.994 49.588 237.622 49.126 236.586 48.202C235.55 47.278 235.032 46.06 235.032 44.548C235.032 43.904 235.144 43.302 235.368 42.742C235.592 42.154 236.012 41.58 236.628 41.02C237.272 40.46 238.154 39.886 239.274 39.298C240.394 38.682 241.878 38.038 243.726 37.366L247.632 35.938V32.788C247.632 31.192 247.38 29.932 246.876 29.008C246.372 28.056 245.672 27.58 244.776 27.58C243.712 27.608 242.802 28.308 242.046 29.68C241.318 31.052 240.828 32.956 240.576 35.392L236.04 32.788C236.516 31.64 237.244 30.632 238.224 29.764C239.204 28.896 240.324 28.224 241.584 27.748C242.872 27.272 244.216 27.034 245.616 27.034C247.996 27.034 249.928 27.706 251.412 29.05C252.924 30.366 253.68 32.172 253.68 34.468V44.59C253.68 46.214 254.226 47.026 255.318 47.026C255.962 47.026 256.592 46.676 257.208 45.976L257.544 46.27C256.816 47.25 255.934 48.048 254.898 48.664C253.862 49.28 252.854 49.588 251.874 49.588C250.81 49.588 249.886 49.224 249.102 48.496C248.346 47.768 247.87 46.802 247.674 45.598C246.302 46.998 245.098 48.02 244.062 48.664C243.054 49.28 241.934 49.588 240.702 49.588ZM243.852 46.984C244.468 46.984 245.056 46.83 245.616 46.522C246.204 46.214 246.862 45.71 247.59 45.01L247.632 36.484L245.952 37.114C244.524 37.646 243.432 38.192 242.676 38.752C241.92 39.284 241.388 39.886 241.08 40.558C240.8 41.23 240.66 42 240.66 42.868C240.66 44.072 240.954 45.066 241.542 45.85C242.158 46.606 242.928 46.984 243.852 46.984Z" fill="#2258C3"/>
</svg>
