<svg width="185" height="56" viewBox="0 0 185 56" fill="none" xmlns="http://www.w3.org/2000/svg">
<path d="M66.1958 34.7499H69.7148V18.1899H66.1958V34.7499Z" fill="#55AE36"/>
<path d="M76.9338 35.1181C80.6138 35.1181 83.0288 32.7491 83.0288 28.5631C83.0288 24.5151 80.6828 21.9851 76.9338 21.9851C73.2538 21.9851 70.8618 24.3541 70.8618 28.5631C70.8618 32.6341 73.1848 35.1181 76.9338 35.1181ZM76.9338 32.2661C75.3468 32.2661 74.4728 30.9551 74.4728 28.5631C74.4728 26.1481 75.3238 24.8371 76.9338 24.8371C78.5438 24.8371 79.4178 26.1711 79.4178 28.5631C79.4178 30.9781 78.5668 32.2661 76.9338 32.2661Z" fill="#55AE36"/>
<path d="M88.7539 34.7731C90.0879 34.7731 91.1919 34.2211 91.9739 33.1401V35.2101C91.9739 36.9351 91.1229 37.5101 89.8579 37.5101C88.6389 37.5101 87.6959 36.9121 87.5579 35.8081H84.0389C84.4759 38.8211 86.7529 40.2011 89.9039 40.2011C93.1469 40.2011 95.4929 38.4761 95.4929 35.1641V22.3761H91.9739V23.5261C91.2149 22.5141 90.1339 21.9851 88.7539 21.9851C85.6719 21.9851 83.6709 24.2851 83.6709 28.4021C83.6709 32.3351 85.6259 34.7731 88.7539 34.7731ZM89.6049 31.9211C88.0869 31.9211 87.2819 30.6561 87.2819 28.4021C87.2819 26.0791 88.0869 24.8371 89.6049 24.8371C91.1459 24.8371 91.9739 26.1021 91.9739 28.3791C91.9739 30.6791 91.1689 31.9211 89.6049 31.9211Z" fill="#55AE36"/>
<path d="M102.732 35.1181C106.412 35.1181 108.827 32.7491 108.827 28.5631C108.827 24.5151 106.481 21.9851 102.732 21.9851C99.0517 21.9851 96.6597 24.3541 96.6597 28.5631C96.6597 32.6341 98.9827 35.1181 102.732 35.1181ZM102.732 32.2661C101.145 32.2661 100.271 30.9551 100.271 28.5631C100.271 26.1481 101.122 24.8371 102.732 24.8371C104.342 24.8371 105.216 26.1711 105.216 28.5631C105.216 30.9781 104.365 32.2661 102.732 32.2661Z" fill="#55AE36"/>
<path d="M109.998 21.1339H113.517V18.1899H109.998V21.1339ZM109.998 34.7499H113.517V22.3759H109.998V34.7499Z" fill="#55AE36"/>
<path d="M118.711 39.8331V33.5081C119.447 34.5661 120.505 35.1181 121.816 35.1181C124.967 35.1181 127.014 32.7491 127.014 28.5401C127.014 24.4921 125.013 21.9851 121.816 21.9851C120.528 21.9851 119.47 22.5831 118.711 23.6641V22.3761H115.192V39.8331H118.711ZM121.08 24.8371C122.575 24.8371 123.403 26.1481 123.403 28.5401C123.403 30.9551 122.598 32.2661 121.08 32.2661C119.539 32.2661 118.711 30.9321 118.711 28.5401C118.711 26.1481 119.516 24.8371 121.08 24.8371Z" fill="#55AE36"/>
<path d="M131.24 25.8031C131.24 25.1361 131.838 24.6761 132.758 24.6761C134 24.6761 134.736 25.2051 134.943 26.4701H138.439C138.094 23.3421 135.84 21.9851 132.873 21.9851C129.561 21.9851 127.882 23.9171 127.882 25.9871C127.882 30.9551 135.38 28.8161 135.38 31.2081C135.38 31.9671 134.759 32.4501 133.517 32.4501C132.206 32.4501 131.263 31.8291 131.102 30.6791H127.583C128.043 33.7381 130.297 35.1181 133.425 35.1181C136.645 35.1181 138.899 33.4391 138.899 31.0011C138.899 26.1021 131.24 28.2411 131.24 25.8031Z" fill="#55AE36"/>
<path d="M147.569 29.483C147.569 31.07 146.695 32.266 145.338 32.266C144.096 32.266 143.498 31.484 143.498 29.897V22.376H139.979V30.61C139.979 33.692 141.704 35.118 144.05 35.118C145.545 35.118 146.764 34.474 147.569 33.094V34.75H151.088V22.376H147.569V29.483Z" fill="#55AE36"/>
<path d="M152.788 34.7501H156.307V27.6431C156.307 26.0561 157.112 24.8371 158.331 24.8371C159.458 24.8371 160.01 25.6421 160.01 27.2061V34.7501H163.506V27.6431C163.506 26.0561 164.334 24.8371 165.553 24.8371C166.68 24.8371 167.209 25.6421 167.209 27.2061V34.7501H170.728V26.4931C170.728 23.4341 169.026 21.9851 166.726 21.9851C165.185 21.9851 163.874 22.6291 163.023 24.0321C162.402 22.6521 161.16 21.9851 159.688 21.9851C158.262 21.9851 157.089 22.6061 156.307 23.9401V22.3761H152.788V34.7501Z" fill="#55AE36"/>
<path d="M52.8504 39.8026C56.6624 36.3986 59 31.8048 59 26.75C59 16.2566 48.9264 7.75 36.5 7.75C24.0736 7.75 14 16.2566 14 26.75C14 37.2434 24.0736 45.75 36.5 45.75C40.0253 45.75 43.3613 45.0654 46.3316 43.8449C49.8208 45.9986 54.0957 47.5467 58.8169 47.2202C56.3227 46.5862 54.1773 44.0179 52.8504 39.8026Z" fill="#B6EFA2"/>
<path d="M53 26.75C53 34.482 45.6127 40.75 36.5 40.75C27.3873 40.75 20 34.482 20 26.75C20 19.018 27.3873 12.75 36.5 12.75C45.6127 12.75 53 19.018 53 26.75Z" fill="#88E169"/>
<path d="M47 26.75C47 31.7206 42.299 35.75 36.5 35.75C30.701 35.75 26 31.7206 26 26.75C26 21.7794 30.701 17.75 36.5 17.75C42.299 17.75 47 21.7794 47 26.75Z" fill="#55AE36"/>
</svg>
