<svg width="179" height="56" viewBox="0 0 179 56" fill="none" xmlns="http://www.w3.org/2000/svg">
<g clip-path="url(#clip0_48_156)">
<path d="M63.5821 18.0339H60V34.1972H69.9164V31.0301H63.5821V18.0339Z" fill="#243A5A"/>
<path d="M70.2583 28.7149C70.2583 32.166 72.5736 34.4594 76.0683 34.4594C79.5412 34.4594 81.8565 32.166 81.8565 28.7149C81.8565 25.2638 79.5412 22.9485 76.0683 22.9485C72.5736 22.9485 70.2583 25.2638 70.2583 28.7149ZM73.6438 28.693C73.6438 27.0549 74.6049 25.9628 76.0683 25.9628C77.5099 25.9628 78.471 27.0549 78.471 28.693C78.471 30.3531 77.5099 31.4452 76.0683 31.4452C74.6049 31.4452 73.6438 30.3531 73.6438 28.693Z" fill="#243A5A"/>
<path d="M82.3977 28.5401C82.3977 31.8382 84.5383 34.0661 87.5743 34.0661C89.0378 34.0661 90.3046 33.5419 90.938 32.6901V34.1972C90.938 35.7043 89.9988 36.709 88.3388 36.709C86.8535 36.709 85.8269 36.0101 85.7614 34.7651H82.354C82.6598 37.7575 84.9751 39.7669 88.1422 39.7669C91.8772 39.7669 94.2362 37.3425 94.2362 33.4982V23.2761H91.2001L91.0254 24.39C90.4138 23.4945 89.1251 22.9048 87.6399 22.9048C84.5819 22.9048 82.3977 25.1982 82.3977 28.5401ZM85.8051 28.4527C85.8051 26.88 86.8535 25.8316 88.1859 25.8316C89.7367 25.8316 90.8725 26.8582 90.8725 28.4527C90.8725 30.0472 89.7585 31.1393 88.2077 31.1393C86.8754 31.1393 85.8051 30.0472 85.8051 28.4527Z" fill="#243A5A"/>
<path d="M95.2168 28.7149C95.2168 32.166 97.5321 34.4594 101.027 34.4594C104.5 34.4594 106.815 32.166 106.815 28.7149C106.815 25.2638 104.5 22.9485 101.027 22.9485C97.5321 22.9485 95.2168 25.2638 95.2168 28.7149ZM98.6024 28.693C98.6024 27.0549 99.5634 25.9628 101.027 25.9628C102.468 25.9628 103.429 27.0549 103.429 28.693C103.429 30.3531 102.468 31.4452 101.027 31.4452C99.5634 31.4452 98.6024 30.3531 98.6024 28.693Z" fill="#243A5A"/>
<path d="M109.715 21.5724C110.763 21.5724 111.615 20.7205 111.615 19.6503C111.615 18.58 110.763 17.75 109.715 17.75C108.645 17.75 107.793 18.58 107.793 19.6503C107.793 20.7205 108.645 21.5724 109.715 21.5724ZM108.011 34.1972H111.397V23.2761H108.011V34.1972Z" fill="#243A5A"/>
<path d="M113.368 39.4392H116.688V33.105C117.321 33.935 118.763 34.5029 120.27 34.5029C123.524 34.5029 125.49 32.0129 125.403 28.5618C125.315 25.0452 123.284 22.9265 120.248 22.9265C118.697 22.9265 117.234 23.6036 116.622 24.6084L116.447 23.276H113.368V39.4392ZM116.753 28.7365C116.753 27.0984 117.845 26.0063 119.418 26.0063C121.012 26.0063 122.017 27.1202 122.017 28.7365C122.017 30.3529 121.012 31.4668 119.418 31.4668C117.845 31.4668 116.753 30.3747 116.753 28.7365Z" fill="#243A5A"/>
<path d="M125.761 30.746C125.848 32.9521 127.596 34.481 130.348 34.481C132.991 34.481 134.826 33.0831 134.826 30.8334C134.826 29.2171 133.865 28.1468 132.073 27.7099L130.13 27.2294C129.431 27.0547 128.994 26.8799 128.994 26.312C128.994 25.7441 129.452 25.3728 130.13 25.3728C130.894 25.3728 131.396 25.8752 131.375 26.6178H134.411C134.323 24.3462 132.598 22.9265 130.195 22.9265C127.771 22.9265 125.958 24.3681 125.958 26.5523C125.958 28.0157 126.766 29.2171 128.928 29.785L130.85 30.2873C131.418 30.4402 131.658 30.7023 131.658 31.0736C131.658 31.6197 131.156 31.9692 130.304 31.9692C129.321 31.9692 128.797 31.5105 128.797 30.746H125.761Z" fill="#243A5A"/>
<path d="M139.974 34.4811C141.307 34.4811 142.639 33.8695 143.316 32.974L143.535 34.1972H146.702V23.2761H143.338V28.9551C143.338 30.5932 142.858 31.4887 141.307 31.4887C140.105 31.4887 139.319 30.9427 139.319 28.9114V23.2761H135.955V30.1345C135.955 32.7338 137.397 34.4811 139.974 34.4811Z" fill="#243A5A"/>
<path d="M152.036 34.1972V28.2343C152.036 26.3995 153.019 25.8753 153.98 25.8753C155.05 25.8753 155.749 26.5306 155.749 27.8848V34.1972H159.069V28.2343C159.069 26.3777 160.03 25.8535 160.991 25.8535C162.061 25.8535 162.782 26.5087 162.782 27.8848V34.1972H166.059V27.0548C166.059 24.5648 164.748 22.9048 161.93 22.9048C160.358 22.9048 159.069 23.6692 158.501 24.8487C157.846 23.6692 156.71 22.9048 154.897 22.9048C153.696 22.9048 152.582 23.4508 151.927 24.3245L151.796 23.2761H148.65V34.1972H152.036Z" fill="#243A5A"/>
<path d="M12 27.75C12 18.3219 12 13.6079 14.9289 10.6789C17.8579 7.75 22.5719 7.75 32 7.75C41.4281 7.75 46.1421 7.75 49.0711 10.6789C52 13.6079 52 18.3219 52 27.75C52 37.1781 52 41.8921 49.0711 44.8211C46.1421 47.75 41.4281 47.75 32 47.75C22.5719 47.75 17.8579 47.75 14.9289 44.8211C12 41.8921 12 37.1781 12 27.75Z" fill="#243A5A"/>
<path d="M36.0002 33.75C36.5525 33.75 37.0103 34.2021 36.9006 34.7434C36.7067 35.6994 36.2357 36.5855 35.5357 37.2855C34.5981 38.2232 33.3263 38.75 32.0002 38.75C30.6741 38.75 29.4024 38.2232 28.4647 37.2855C27.7647 36.5855 27.2937 35.6994 27.0999 34.7434C26.9901 34.2021 27.4479 33.75 28.0002 33.75H36.0002Z" fill="#2DF8BB"/>
<path d="M38.1022 25.5265C37.5687 25.6694 37.242 26.2275 37.5125 26.709C37.7972 27.2158 38.191 27.6581 38.6701 28.0014C39.4223 28.5404 40.3381 28.802 41.2616 28.7414C42.185 28.6809 43.0589 28.3021 43.7343 27.6695C44.4098 27.0369 44.8449 26.1896 44.9657 25.2721C45.0865 24.3546 44.8855 23.4236 44.3968 22.6377C43.9081 21.8519 43.162 21.2598 42.2857 20.9623C41.4094 20.6648 40.4571 20.6804 39.591 21.0064C39.0394 21.214 38.5446 21.5393 38.1384 21.9551C37.7525 22.3502 37.9236 22.9739 38.4019 23.25L38.9092 23.5429C39.6807 23.9884 39.5286 25.1443 38.668 25.3749L38.1022 25.5265Z" fill="#2DF8BB"/>
<path d="M25.8977 25.5265C26.4312 25.6694 26.7579 26.2275 26.4874 26.709C26.2027 27.2158 25.8089 27.6581 25.3299 28.0014C24.5777 28.5404 23.6618 28.802 22.7384 28.7414C21.815 28.6809 20.9411 28.3021 20.2656 27.6695C19.5902 27.0369 19.155 26.1896 19.0342 25.2721C18.9134 24.3546 19.1145 23.4236 19.6032 22.6377C20.0919 21.8519 20.8379 21.2598 21.7142 20.9623C22.5905 20.6648 23.5429 20.6804 24.409 21.0064C24.9605 21.214 25.4554 21.5393 25.8616 21.9551C26.2475 22.3502 26.0763 22.9739 25.598 23.25L25.0907 23.5429C24.3192 23.9884 24.4714 25.1443 25.3319 25.3749L25.8977 25.5265Z" fill="#2DF8BB"/>
</g>
<defs>
<clipPath id="clip0_48_156">
<rect width="155" height="40" fill="white" transform="translate(12 7.75)"/>
</clipPath>
</defs>
</svg>
