<svg width="192" height="56" viewBox="0 0 192 56" fill="none" xmlns="http://www.w3.org/2000/svg">
<g clip-path="url(#clip0_48_123)">
<path d="M61.2773 36.2025H73.2293V32.6025H65.5253V19.0425H61.2773V36.2025Z" fill="#3C2B1F"/>
<path d="M80.3108 33.8024C78.6068 33.8024 77.7188 32.3144 77.7188 30.0824C77.7188 27.8504 78.6068 26.3384 80.3108 26.3384C82.0148 26.3384 82.9268 27.8504 82.9268 30.0824C82.9268 32.3144 82.0148 33.8024 80.3108 33.8024ZM80.3348 36.5864C84.2948 36.5864 86.8868 33.7784 86.8868 30.0824C86.8868 26.3864 84.2948 23.5784 80.3348 23.5784C76.3988 23.5784 73.7588 26.3864 73.7588 30.0824C73.7588 33.7784 76.3988 36.5864 80.3348 36.5864Z" fill="#3C2B1F"/>
<path d="M93.7411 40.4504C95.5651 40.4504 97.1731 40.0424 98.2531 39.0824C99.2371 38.1944 99.8851 36.8504 99.8851 35.0024V23.9144H96.1411V25.2344H96.0931C95.3731 24.2024 94.2691 23.5544 92.6371 23.5544C89.5891 23.5544 87.4771 26.0984 87.4771 29.6984C87.4771 33.4664 90.0451 35.5304 92.8051 35.5304C94.2931 35.5304 95.2291 34.9304 95.9491 34.1144H96.0451V35.3384C96.0451 36.8264 95.3491 37.6904 93.6931 37.6904C92.3971 37.6904 91.7491 37.1384 91.5331 36.4904H87.7411C88.1251 39.0584 90.3571 40.4504 93.7411 40.4504ZM93.7171 32.6264C92.2531 32.6264 91.2931 31.4264 91.2931 29.5784C91.2931 27.7064 92.2531 26.5064 93.7171 26.5064C95.3491 26.5064 96.2131 27.8984 96.2131 29.5544C96.2131 31.2824 95.4211 32.6264 93.7171 32.6264Z" fill="#3C2B1F"/>
<path d="M107.584 33.8024C105.88 33.8024 104.992 32.3144 104.992 30.0824C104.992 27.8504 105.88 26.3384 107.584 26.3384C109.288 26.3384 110.2 27.8504 110.2 30.0824C110.2 32.3144 109.288 33.8024 107.584 33.8024ZM107.608 36.5864C111.568 36.5864 114.159 33.7784 114.159 30.0824C114.159 26.3864 111.568 23.5784 107.608 23.5784C103.672 23.5784 101.032 26.3864 101.032 30.0824C101.032 33.7784 103.672 36.5864 107.608 36.5864Z" fill="#3C2B1F"/>
<path d="M115.302 36.2025H119.214V23.9145H115.302V36.2025ZM115.302 22.2105H119.214V19.0425H115.302V22.2105Z" fill="#3C2B1F"/>
<path d="M120.911 40.2584H124.823V34.9304H124.871C125.639 35.9624 126.767 36.5864 128.351 36.5864C131.567 36.5864 133.703 34.0424 133.703 30.0584C133.703 26.3624 131.711 23.5544 128.447 23.5544C126.767 23.5544 125.567 24.2984 124.727 25.4024H124.655V23.9144H120.911V40.2584ZM127.343 33.5624C125.663 33.5624 124.703 32.1944 124.703 30.2024C124.703 28.2104 125.567 26.6984 127.271 26.6984C128.951 26.6984 129.743 28.0904 129.743 30.2024C129.743 32.2904 128.831 33.5624 127.343 33.5624Z" fill="#3C2B1F"/>
<path d="M140.072 36.5864C143.288 36.5864 145.664 35.1944 145.664 32.5064C145.664 29.3624 143.12 28.8104 140.96 28.4504C139.4 28.1624 138.008 28.0424 138.008 27.1784C138.008 26.4104 138.752 26.0504 139.712 26.0504C140.792 26.0504 141.536 26.3864 141.68 27.4904H145.28C145.088 25.0664 143.216 23.5544 139.736 23.5544C136.832 23.5544 134.432 24.8984 134.432 27.4904C134.432 30.3704 136.712 30.9464 138.848 31.3064C140.48 31.5944 141.968 31.7144 141.968 32.8184C141.968 33.6104 141.224 34.0424 140.048 34.0424C138.752 34.0424 137.936 33.4424 137.792 32.2184H134.096C134.216 34.9304 136.472 36.5864 140.072 36.5864Z" fill="#3C2B1F"/>
<path d="M150.978 36.5623C152.682 36.5623 153.762 35.8903 154.65 34.6903H154.722V36.2023H158.466V23.9143H154.554V30.7783C154.554 32.2423 153.738 33.2503 152.394 33.2503C151.146 33.2503 150.546 32.5063 150.546 31.1623V23.9143H146.658V31.9783C146.658 34.7143 148.146 36.5623 150.978 36.5623Z" fill="#3C2B1F"/>
<path d="M160.168 36.2024H164.08V29.3144C164.08 27.8504 164.8 26.8184 166.024 26.8184C167.2 26.8184 167.752 27.5864 167.752 28.9064V36.2024H171.664V29.3144C171.664 27.8504 172.36 26.8184 173.608 26.8184C174.784 26.8184 175.336 27.5864 175.336 28.9064V36.2024H179.248V28.2104C179.248 25.4504 177.856 23.5544 175.072 23.5544C173.488 23.5544 172.168 24.2264 171.208 25.7144H171.16C170.536 24.3944 169.312 23.5544 167.704 23.5544C165.928 23.5544 164.752 24.3944 163.984 25.6664H163.912V23.9144H160.168V36.2024Z" fill="#3C2B1F"/>
<path d="M37.4099 9.22695L33.4769 8.1731L30.1625 20.5427L27.1702 9.37533L23.2371 10.4292L26.4701 22.4947L18.4175 14.4421L15.5383 17.3213L24.371 26.1541L13.3712 23.2067L12.3174 27.1397L24.336 30.3601C24.1984 29.7666 24.1256 29.1482 24.1256 28.5128C24.1256 24.0152 27.7716 20.3692 32.2692 20.3692C36.7668 20.3692 40.4128 24.0152 40.4128 28.5128C40.4128 29.1441 40.3409 29.7587 40.205 30.3487L51.1277 33.2754L52.1815 29.3424L40.1151 26.1092L51.1156 23.1616L50.0617 19.2286L37.9958 22.4616L46.0484 14.409L43.1692 11.5298L34.459 20.2401L37.4099 9.22695Z" fill="#F97316"/>
<path d="M40.1944 30.3943C39.8572 31.8199 39.1453 33.1006 38.1685 34.1267L46.0815 42.0398L48.9607 39.1606L40.1944 30.3943Z" fill="#F97316"/>
<path d="M38.0886 34.2097C37.1 35.2194 35.8507 35.9729 34.4497 36.3612L37.3291 47.1072L41.2621 46.0533L38.0886 34.2097Z" fill="#F97316"/>
<path d="M34.3028 36.4003C33.6528 36.5674 32.9715 36.6562 32.2694 36.6562C31.5172 36.6562 30.7888 36.5542 30.0973 36.3633L27.2153 47.1191L31.1483 48.1729L34.3028 36.4003Z" fill="#F97316"/>
<path d="M29.9583 36.3237C28.5787 35.9161 27.3516 35.153 26.3832 34.1404L18.4507 42.0729L21.3299 44.9521L29.9583 36.3237Z" fill="#F97316"/>
<path d="M26.3168 34.0702C25.365 33.0512 24.6717 31.7876 24.3417 30.384L13.3833 33.3203L14.4372 37.2533L26.3168 34.0702Z" fill="#F97316"/>
</g>
<defs>
<clipPath id="clip0_48_123">
<rect width="168" height="41" fill="white" transform="translate(12 7.25)"/>
</clipPath>
</defs>
</svg>
