<svg width="194" height="56" viewBox="0 0 194 56" fill="none" xmlns="http://www.w3.org/2000/svg">
<g clip-path="url(#clip0_48_77)">
<path d="M63.8599 35.388H75.8119V31.788H68.1079V18.228H63.8599V35.388Z" fill="#340E0E"/>
<path d="M82.8933 32.9879C81.1893 32.9879 80.3013 31.4999 80.3013 29.2679C80.3013 27.0359 81.1893 25.5239 82.8933 25.5239C84.5973 25.5239 85.5093 27.0359 85.5093 29.2679C85.5093 31.4999 84.5973 32.9879 82.8933 32.9879ZM82.9173 35.7719C86.8773 35.7719 89.4693 32.9639 89.4693 29.2679C89.4693 25.5719 86.8773 22.7639 82.9173 22.7639C78.9813 22.7639 76.3413 25.5719 76.3413 29.2679C76.3413 32.9639 78.9813 35.7719 82.9173 35.7719Z" fill="#340E0E"/>
<path d="M96.3236 39.636C98.1476 39.636 99.7556 39.228 100.836 38.268C101.82 37.38 102.468 36.036 102.468 34.188V23.1H98.7236V24.42H98.6756C97.9556 23.388 96.8516 22.74 95.2196 22.74C92.1716 22.74 90.0596 25.284 90.0596 28.884C90.0596 32.652 92.6276 34.716 95.3876 34.716C96.8756 34.716 97.8116 34.116 98.5316 33.3H98.6276V34.524C98.6276 36.012 97.9316 36.876 96.2756 36.876C94.9796 36.876 94.3316 36.324 94.1156 35.676H90.3236C90.7076 38.244 92.9396 39.636 96.3236 39.636ZM96.2996 31.812C94.8356 31.812 93.8756 30.612 93.8756 28.764C93.8756 26.892 94.8356 25.692 96.2996 25.692C97.9316 25.692 98.7956 27.084 98.7956 28.74C98.7956 30.468 98.0036 31.812 96.2996 31.812Z" fill="#340E0E"/>
<path d="M110.166 32.9879C108.462 32.9879 107.574 31.4999 107.574 29.2679C107.574 27.0359 108.462 25.5239 110.166 25.5239C111.87 25.5239 112.782 27.0359 112.782 29.2679C112.782 31.4999 111.87 32.9879 110.166 32.9879ZM110.19 35.7719C114.15 35.7719 116.742 32.9639 116.742 29.2679C116.742 25.5719 114.15 22.7639 110.19 22.7639C106.254 22.7639 103.614 25.5719 103.614 29.2679C103.614 32.9639 106.254 35.7719 110.19 35.7719Z" fill="#340E0E"/>
<path d="M117.884 35.388H121.796V23.1H117.884V35.388ZM117.884 21.396H121.796V18.228H117.884V21.396Z" fill="#340E0E"/>
<path d="M123.494 39.444H127.406V34.116H127.454C128.222 35.148 129.35 35.772 130.934 35.772C134.15 35.772 136.286 33.228 136.286 29.244C136.286 25.548 134.294 22.74 131.03 22.74C129.35 22.74 128.15 23.484 127.31 24.588H127.238V23.1H123.494V39.444ZM129.926 32.748C128.246 32.748 127.286 31.38 127.286 29.388C127.286 27.396 128.15 25.884 129.854 25.884C131.534 25.884 132.326 27.276 132.326 29.388C132.326 31.476 131.414 32.748 129.926 32.748Z" fill="#340E0E"/>
<path d="M142.655 35.772C145.871 35.772 148.247 34.38 148.247 31.692C148.247 28.548 145.703 27.996 143.543 27.636C141.983 27.348 140.591 27.228 140.591 26.364C140.591 25.596 141.335 25.236 142.295 25.236C143.375 25.236 144.119 25.572 144.263 26.676H147.863C147.671 24.252 145.799 22.74 142.319 22.74C139.415 22.74 137.015 24.084 137.015 26.676C137.015 29.556 139.295 30.132 141.431 30.492C143.063 30.78 144.551 30.9 144.551 32.004C144.551 32.796 143.807 33.228 142.631 33.228C141.335 33.228 140.519 32.628 140.375 31.404H136.679C136.799 34.116 139.055 35.772 142.655 35.772Z" fill="#340E0E"/>
<path d="M153.561 35.7481C155.265 35.7481 156.345 35.0761 157.233 33.8761H157.305V35.3881H161.049V23.1001H157.137V29.9641C157.137 31.4281 156.321 32.4361 154.977 32.4361C153.729 32.4361 153.129 31.6921 153.129 30.3481V23.1001H149.241V31.1641C149.241 33.9001 150.729 35.7481 153.561 35.7481Z" fill="#340E0E"/>
<path d="M162.75 35.388H166.662V28.5C166.662 27.036 167.382 26.004 168.606 26.004C169.782 26.004 170.334 26.772 170.334 28.092V35.388H174.246V28.5C174.246 27.036 174.942 26.004 176.19 26.004C177.366 26.004 177.918 26.772 177.918 28.092V35.388H181.83V27.396C181.83 24.636 180.438 22.74 177.654 22.74C176.07 22.74 174.75 23.412 173.79 24.9H173.742C173.118 23.58 171.894 22.74 170.286 22.74C168.51 22.74 167.334 23.58 166.566 24.852H166.494V23.1H162.75V35.388Z" fill="#340E0E"/>
<path fill-rule="evenodd" clip-rule="evenodd" d="M32.6841 47.3879C43.7298 47.3879 52.6841 38.4336 52.6841 27.3879C52.6841 16.3422 43.7298 7.38794 32.6841 7.38794C21.6384 7.38794 12.6841 16.3422 12.6841 27.3879C12.6841 38.4336 21.6384 47.3879 32.6841 47.3879ZM38.9234 16.7048C39.2271 15.626 38.1802 14.9881 37.2241 15.6692L23.8772 25.1775C22.8403 25.9162 23.0034 27.3879 24.1222 27.3879H27.6368V27.3607H34.4866L28.9053 29.33L26.4448 38.0711C26.1411 39.1499 27.1879 39.7878 28.1441 39.1066L41.491 29.5984C42.5279 28.8597 42.3647 27.3879 41.246 27.3879H35.9162L38.9234 16.7048Z" fill="#F15757"/>
</g>
<defs>
<clipPath id="clip0_48_77">
<rect width="170" height="41" fill="white" transform="translate(12 7.25)"/>
</clipPath>
</defs>
</svg>
