<svg width="195" height="56" viewBox="0 0 195 56" fill="none" xmlns="http://www.w3.org/2000/svg">
<g clip-path="url(#clip0_48_44)">
<path d="M79.5821 18.0339H76V34.1972H85.9164V31.0301H79.5821V18.0339Z" fill="#4845D2"/>
<path d="M86.2583 28.7149C86.2583 32.166 88.5736 34.4594 92.0683 34.4594C95.5412 34.4594 97.8565 32.166 97.8565 28.7149C97.8565 25.2638 95.5412 22.9485 92.0683 22.9485C88.5736 22.9485 86.2583 25.2638 86.2583 28.7149ZM89.6438 28.693C89.6438 27.0549 90.6049 25.9628 92.0683 25.9628C93.5099 25.9628 94.471 27.0549 94.471 28.693C94.471 30.3531 93.5099 31.4452 92.0683 31.4452C90.6049 31.4452 89.6438 30.3531 89.6438 28.693Z" fill="#4845D2"/>
<path d="M98.3977 28.5401C98.3977 31.8382 100.538 34.0661 103.574 34.0661C105.038 34.0661 106.305 33.5419 106.938 32.6901V34.1972C106.938 35.7043 105.999 36.709 104.339 36.709C102.853 36.709 101.827 36.0101 101.761 34.7651H98.354C98.6598 37.7575 100.975 39.7669 104.142 39.7669C107.877 39.7669 110.236 37.3425 110.236 33.4982V23.2761H107.2L107.025 24.39C106.414 23.4945 105.125 22.9048 103.64 22.9048C100.582 22.9048 98.3977 25.1982 98.3977 28.5401ZM101.805 28.4527C101.805 26.88 102.853 25.8316 104.186 25.8316C105.737 25.8316 106.872 26.8582 106.872 28.4527C106.872 30.0472 105.759 31.1393 104.208 31.1393C102.875 31.1393 101.805 30.0472 101.805 28.4527Z" fill="#4845D2"/>
<path d="M111.217 28.7149C111.217 32.166 113.532 34.4594 117.027 34.4594C120.5 34.4594 122.815 32.166 122.815 28.7149C122.815 25.2638 120.5 22.9485 117.027 22.9485C113.532 22.9485 111.217 25.2638 111.217 28.7149ZM114.602 28.693C114.602 27.0549 115.563 25.9628 117.027 25.9628C118.468 25.9628 119.429 27.0549 119.429 28.693C119.429 30.3531 118.468 31.4452 117.027 31.4452C115.563 31.4452 114.602 30.3531 114.602 28.693Z" fill="#4845D2"/>
<path d="M125.715 21.5724C126.763 21.5724 127.615 20.7205 127.615 19.6503C127.615 18.58 126.763 17.75 125.715 17.75C124.645 17.75 123.793 18.58 123.793 19.6503C123.793 20.7205 124.645 21.5724 125.715 21.5724ZM124.011 34.1972H127.397V23.2761H124.011V34.1972Z" fill="#4845D2"/>
<path d="M129.368 39.4392H132.688V33.105C133.321 33.935 134.763 34.5029 136.27 34.5029C139.524 34.5029 141.49 32.0129 141.403 28.5618C141.315 25.0452 139.284 22.9265 136.248 22.9265C134.697 22.9265 133.234 23.6036 132.622 24.6084L132.447 23.276H129.368V39.4392ZM132.753 28.7365C132.753 27.0984 133.845 26.0063 135.418 26.0063C137.012 26.0063 138.017 27.1202 138.017 28.7365C138.017 30.3529 137.012 31.4668 135.418 31.4668C133.845 31.4668 132.753 30.3747 132.753 28.7365Z" fill="#4845D2"/>
<path d="M141.761 30.746C141.848 32.9521 143.596 34.481 146.348 34.481C148.991 34.481 150.826 33.0831 150.826 30.8334C150.826 29.2171 149.865 28.1468 148.073 27.7099L146.13 27.2294C145.431 27.0547 144.994 26.8799 144.994 26.312C144.994 25.7441 145.452 25.3728 146.13 25.3728C146.894 25.3728 147.396 25.8752 147.375 26.6178H150.411C150.323 24.3462 148.598 22.9265 146.195 22.9265C143.771 22.9265 141.958 24.3681 141.958 26.5523C141.958 28.0157 142.766 29.2171 144.928 29.785L146.85 30.2873C147.418 30.4402 147.658 30.7023 147.658 31.0736C147.658 31.6197 147.156 31.9692 146.304 31.9692C145.321 31.9692 144.797 31.5105 144.797 30.746H141.761Z" fill="#4845D2"/>
<path d="M155.974 34.4811C157.307 34.4811 158.639 33.8695 159.316 32.974L159.535 34.1972H162.702V23.2761H159.338V28.9551C159.338 30.5932 158.858 31.4887 157.307 31.4887C156.105 31.4887 155.319 30.9427 155.319 28.9114V23.2761H151.955V30.1345C151.955 32.7338 153.397 34.4811 155.974 34.4811Z" fill="#4845D2"/>
<path d="M168.036 34.1972V28.2343C168.036 26.3995 169.019 25.8753 169.98 25.8753C171.05 25.8753 171.749 26.5306 171.749 27.8848V34.1972H175.069V28.2343C175.069 26.3777 176.03 25.8535 176.991 25.8535C178.061 25.8535 178.782 26.5087 178.782 27.8848V34.1972H182.059V27.0548C182.059 24.5648 180.748 22.9048 177.93 22.9048C176.358 22.9048 175.069 23.6692 174.501 24.8487C173.846 23.6692 172.71 22.9048 170.897 22.9048C169.696 22.9048 168.582 23.4508 167.927 24.3245L167.796 23.2761H164.65V34.1972H168.036Z" fill="#4845D2"/>
<path d="M12 27.75C12 18.9134 19.1634 11.75 28 11.75H49C57.8366 11.75 65 18.9134 65 27.75V43.75H28C19.1634 43.75 12 36.5866 12 27.75Z" fill="#4845D2"/>
<path d="M49 17.75H28C22.4772 17.75 18 22.2272 18 27.75C18 33.2728 22.4772 37.75 28 37.75H49C54.5228 37.75 59 33.2728 59 27.75C59 22.2272 54.5228 17.75 49 17.75Z" fill="#A5B4FC"/>
<path d="M28 32.75C30.7614 32.75 33 30.5114 33 27.75C33 24.9886 30.7614 22.75 28 22.75C25.2386 22.75 23 24.9886 23 27.75C23 30.5114 25.2386 32.75 28 32.75Z" fill="black"/>
<path d="M26 26.75C26.5523 26.75 27 26.3023 27 25.75C27 25.1977 26.5523 24.75 26 24.75C25.4477 24.75 25 25.1977 25 25.75C25 26.3023 25.4477 26.75 26 26.75Z" fill="white"/>
<path d="M50 32.75C52.7614 32.75 55 30.5114 55 27.75C55 24.9886 52.7614 22.75 50 22.75C47.2386 22.75 45 24.9886 45 27.75C45 30.5114 47.2386 32.75 50 32.75Z" fill="black"/>
<path d="M48 26.75C48.5523 26.75 49 26.3023 49 25.75C49 25.1977 48.5523 24.75 48 24.75C47.4477 24.75 47 25.1977 47 25.75C47 26.3023 47.4477 26.75 48 26.75Z" fill="white"/>
</g>
<defs>
<clipPath id="clip0_48_44">
<rect width="171" height="32" fill="white" transform="translate(12 11.75)"/>
</clipPath>
</defs>
</svg>
