<svg width="130" height="56" viewBox="0 0 130 56" fill="none" xmlns="http://www.w3.org/2000/svg">
<path d="M33.603 28.0409C33.603 26.5442 34.481 25.5015 35.8227 25.5015C37.1645 25.5015 38.0424 26.5442 38.0424 28.0409C38.0424 29.521 37.1645 30.5804 35.8227 30.5804C34.481 30.5804 33.603 29.521 33.603 28.0409Z" fill="#152C4F"/>
<path d="M44.9503 25.4343C43.6748 25.4343 42.8135 26.4434 42.8135 27.8225C42.8135 29.2183 43.6914 30.261 44.9503 30.261C46.3417 30.261 47.2694 29.2015 47.2694 27.8225C47.2694 26.4602 46.3417 25.4343 44.9503 25.4343Z" fill="#152C4F"/>
<path d="M52.3442 28.0409C52.3442 26.5442 53.2222 25.5015 54.564 25.5015C55.9057 25.5015 56.7836 26.5442 56.7836 28.0409C56.7836 29.521 55.9057 30.5804 54.564 30.5804C53.2222 30.5804 52.3442 29.521 52.3442 28.0409Z" fill="#152C4F"/>
<path d="M65.8433 28.0578C65.8433 26.561 66.7378 25.5183 68.1457 25.5183C69.5538 25.5183 70.3985 26.5778 70.3985 28.0578C70.3985 29.5377 69.5538 30.5804 68.1457 30.5804C66.7378 30.5804 65.8433 29.5546 65.8433 28.0578Z" fill="#152C4F"/>
<path fill-rule="evenodd" clip-rule="evenodd" d="M65.0001 45.6357C93.1452 45.6357 115.961 37.5072 115.961 27.4803C115.961 17.4534 93.1452 9.32495 65.0001 9.32495C36.8548 9.32495 14.0386 17.4534 14.0386 27.4803C14.0386 37.5072 36.8548 45.6357 65.0001 45.6357ZM30.3287 32.2119V19.6994H28.3078V32.2119H30.3287ZM31.5656 28.0411C31.5656 30.5974 33.2552 32.4137 35.8228 32.4137C38.3903 32.4137 40.0799 30.5974 40.0799 28.0411C40.0799 25.4847 38.3903 23.6684 35.8228 23.6684C33.2552 23.6684 31.5656 25.4847 31.5656 28.0411ZM44.6026 32.0437C42.3001 32.0437 40.7595 30.2947 40.7595 27.8729C40.7595 25.4343 42.3332 23.6348 44.6688 23.6348C45.8781 23.6348 46.9051 24.1562 47.402 25.0307L47.518 23.9039H49.3069V31.7915C49.3069 34.5328 47.6174 36.2986 44.967 36.2986C42.7142 36.2986 41.0743 34.886 40.8093 32.7164H42.8467C42.9626 33.8096 43.8241 34.4319 45.0829 34.4319C46.491 34.4319 47.3358 33.5237 47.3358 32.1614V30.7488C46.8222 31.556 45.7952 32.0437 44.6026 32.0437ZM50.307 28.0411C50.307 30.5974 51.9967 32.4137 54.5642 32.4137C57.1317 32.4137 58.8213 30.5974 58.8213 28.0411C58.8213 25.4847 57.1317 23.6684 54.5642 23.6684C51.9967 23.6684 50.307 25.4847 50.307 28.0411ZM62.2176 20.9776C62.2176 21.6671 61.671 22.2053 61.0084 22.2053C60.3293 22.2053 59.8157 21.6671 59.8157 20.9776C59.8157 20.3049 60.3293 19.7667 61.0084 19.7667C61.671 19.7667 62.2176 20.3049 62.2176 20.9776ZM62.0188 23.9039V32.2119H59.998V23.9039H62.0188ZM63.7893 36.0632H65.7606V31.0683C66.274 31.926 67.3838 32.4305 68.6097 32.4305C71.0281 32.4305 72.4692 30.547 72.4361 27.957C72.3864 25.3502 70.9121 23.6516 68.5931 23.6516C67.3508 23.6516 66.2243 24.2066 65.7274 25.1652L65.6114 23.9039H63.7893V36.0632ZM76.229 32.4305C74.2744 32.4305 73.0155 31.371 72.9493 29.7229H74.7879C74.7879 30.446 75.3014 30.8665 76.1959 30.8665C76.9414 30.8665 77.5542 30.5638 77.5542 29.9079C77.5542 29.4369 77.2229 29.1847 76.6928 29.0333L75.2683 28.6633C73.6947 28.2429 73.0818 27.3515 73.0818 26.2752C73.0818 24.6943 74.3904 23.6516 76.1462 23.6516C77.9186 23.6516 79.1279 24.6943 79.1941 26.3425H77.3555C77.3555 25.6193 76.8585 25.1821 76.0965 25.1821C75.3677 25.1821 74.9204 25.5857 74.9204 26.1575C74.9204 26.6957 75.3345 26.9143 75.9474 27.0825L77.3886 27.4356C78.7304 27.772 79.4591 28.5792 79.4591 29.7733C79.4591 31.3878 78.1505 32.4305 76.229 32.4305ZM83.6512 32.4305C84.7606 32.4305 85.8206 31.9092 86.3012 31.1356L86.434 32.2119H88.3222V23.9039H86.3012V28.2597C86.3012 29.7565 85.7379 30.5974 84.4129 30.5974C83.3862 30.5974 82.6738 30.0929 82.6738 28.3775V23.9039H80.6527V29.1006C80.6527 31.0851 81.7128 32.4305 83.6512 32.4305ZM92.1269 27.4356V32.2119H90.1059V23.9039H91.9609L92.0605 24.8457C92.541 24.1057 93.4025 23.6516 94.3628 23.6516C95.721 23.6516 96.6157 24.2571 97.063 25.2325C97.4608 24.2571 98.4382 23.6516 99.6805 23.6516C101.668 23.6516 102.711 24.8626 102.711 26.7798V32.2119H100.757V27.2506C100.757 26.0734 100.128 25.4512 99.1505 25.4512C98.1894 25.4512 97.4276 26.0903 97.4276 27.4525V32.2119H95.456V27.2506C95.456 26.0734 94.8271 25.4512 93.866 25.4512C92.9057 25.4512 92.1269 26.0903 92.1269 27.4356Z" fill="#152C4F"/>
</svg>
